<svg width="1359" height="1642" viewBox="0 0 1359 1642" fill="none" xmlns="http://www.w3.org/2000/svg">
<path d="M787.101 723.029H763.854V700.236H787.101V723.029ZM895.778 775.028V838.004H872.141V777.109C872.141 761.981 865.892 755.089 851.832 755.089C848.589 754.885 845.34 755.37 842.304 756.506C839.268 757.643 836.518 759.405 834.239 761.676C831.96 763.947 830.206 766.672 829.097 769.667C827.987 772.661 827.548 775.854 827.808 779.03V838.009H804.171V737.862H827.808V753.756C832.691 743.988 844.016 735.757 860.816 735.757C881.323 735.757 895.778 747.435 895.778 775.013M763.854 737.866H787.101V838.017H763.854V737.866ZM445.292 793.014H470.897C465.803 824.177 441.181 839.933 408.892 839.933C365.139 839.933 342 812.553 342 770.424V768.888C342 727.724 369.24 699 408.106 699C440.139 699 465.551 714.807 470.524 746.872H444.151C440.44 728.679 428.428 719.298 408.304 719.298C383.696 719.298 369.343 738.06 369.343 768.703V770.23C369.343 801.058 383.92 819.253 408.874 819.253C427.292 819.253 440.692 810.634 445.26 793.022M748.114 764.77H726.102C723.937 756.455 718.668 752.618 708.242 752.618C698.085 752.618 692.03 757.402 692.03 764.51C692.03 771.781 696.913 774.64 713.143 777.335C737.166 780.973 751.424 786.72 751.424 807.978C751.424 828.272 736.776 839.951 710.605 839.951C684.236 839.951 668.805 828.082 667.831 806.828H690.098C691.266 816.979 696.544 822.911 710.407 822.911C723.106 822.911 728.771 818.508 728.771 810.084C728.771 801.848 721.934 798.786 706.89 796.293C679.937 792.083 669.978 784.62 669.978 765.85C669.978 745.745 689.114 735.787 708.26 735.787C728.766 735.787 745.126 743.172 748.132 764.792M657.813 764.792H635.802C633.637 756.477 628.367 752.642 617.941 752.642C607.785 752.642 601.729 757.423 601.729 764.531C601.729 771.803 606.612 774.661 622.842 777.357C646.87 780.994 661.124 786.742 661.124 808C661.124 828.294 646.475 839.972 620.304 839.972C593.935 839.972 578.505 828.103 577.53 806.849H599.798C600.97 817.001 606.244 822.934 620.111 822.934C632.81 822.934 638.47 818.53 638.47 810.105C638.47 801.87 631.633 798.809 616.594 796.317C589.641 792.106 579.678 784.641 579.678 765.871C579.678 745.767 598.814 735.809 617.959 735.809C638.466 735.809 654.826 743.194 657.836 764.813M543.067 803.024C543.067 815.853 532.317 823.326 517.866 823.326C506.146 823.326 501.461 817.764 501.461 809.339C501.461 797.087 512.983 793.044 530.956 793.044H543.085L543.067 803.024ZM525.871 735.809C504.421 735.809 486.43 744.431 482.688 764.813H505.841C508.087 757.414 514.025 753.231 524.51 753.231C538.373 753.231 543.067 759.934 543.067 773.344V778.511H530.354C501.061 778.511 478.008 786.935 478.008 810.299C478.008 831.169 493.442 839.976 512.188 839.976C527.812 839.976 536.796 834.424 543.44 825.814V838.067H566.686V772.385C566.686 745.005 548.718 735.83 525.858 735.83M971.372 803.045C971.372 815.874 960.631 823.347 946.175 823.347C934.46 823.347 929.766 817.786 929.766 809.361C929.766 797.109 941.292 793.065 959.265 793.065H971.394L971.372 803.045ZM954.185 735.83C932.735 735.83 914.735 744.455 910.998 764.837H934.145C936.391 757.438 942.33 753.253 952.819 753.253C966.686 753.253 971.372 759.955 971.372 773.365V778.533H958.677C929.375 778.533 906.326 786.957 906.326 810.32C906.326 831.191 921.756 840 940.506 840C956.13 840 965.114 834.445 971.758 825.835V838.088H995V772.406C995 745.026 977.032 735.854 954.18 735.854" fill="black"/>
</svg>
