<svg width="1359" height="1642" viewBox="0 0 1359 1642" fill="none" xmlns="http://www.w3.org/2000/svg">
<path d="M906.958 819.337C907.11 820.496 906.806 821.81 906.731 823.046C905.744 829.228 904.607 835.334 901.345 840.666C899.373 844.221 896.946 847.389 893.988 850.326C892.091 852.335 889.892 854.035 887.616 855.349C882.837 858.054 877.528 859.754 872.067 860.836C867.44 861.531 862.661 861.609 858.034 861.068C854.621 860.527 851.359 859.754 848.174 858.672C842.181 856.663 836.568 853.726 831.259 850.171C830.121 849.398 829.135 848.239 828.983 846.848L828.907 842.907L828.376 827.683L827.921 815.318C828.073 814.7 828.301 813.927 828.907 813.695C829.514 813.541 830.197 813.386 830.728 813.772C831.714 814.236 831.866 815.318 832.169 816.245C834.141 822.969 835.81 829.769 838.768 836.029C842.03 842.907 847.946 849.708 854.621 852.721C858.717 854.885 863.344 855.967 868.198 856.122C873.129 855.89 877.907 854.885 882.003 852.335C887.085 849.167 892.243 843.989 894.063 837.961C895.125 834.638 896.111 831.238 895.884 827.451C895.429 822.119 894.67 817.018 892.167 812.613C890.726 809.986 889.057 807.59 887.161 805.272L875.101 791.361C874.873 790.666 874.115 790.434 873.584 789.816L851.132 763.927C845.898 757.977 840.892 751.717 836.341 745.303C834.52 742.366 832.852 739.507 831.638 736.338C830.273 732.938 829.287 729.46 828.832 725.674C828.301 722.273 828.301 718.564 828.376 715.009C828.983 708.981 830.652 703.34 833.61 698.317C835.279 695.071 838.085 692.289 840.664 689.584C842.181 688.27 843.774 687.266 845.367 686.184C849.084 684.02 853.028 682.397 857.276 681.47C863.268 679.924 869.943 679.847 876.011 681.238C880.562 682.242 884.81 683.943 888.906 686.106C891.484 687.575 894.139 689.12 896.263 691.361C897.173 692.134 897.325 693.216 897.477 694.298L898.008 699.94C898.387 706.045 899.145 711.841 899.525 717.946C899.449 718.873 898.918 719.878 898.008 720.187C897.477 720.187 896.946 720.032 896.642 719.569C895.732 718.178 895.58 716.4 895.049 714.854C893.684 709.909 892.091 705.195 889.285 700.944V700.712C887.919 698.858 886.554 696.848 884.81 695.148C881.548 691.593 877.755 689.275 873.811 687.497C867.743 685.102 859.627 685.256 853.711 687.729C849.311 689.507 844.836 693.293 842.561 698.008C840.285 702.103 839.754 707.436 840.133 712.382C839.83 712.691 840.361 712.691 840.285 713.077C840.74 717.559 842.485 721.423 844.533 725.21C846.277 728.147 848.325 730.929 850.525 733.711L859.551 744.066L882.003 769.337C891.257 779.692 900.966 789.97 904.758 803.031C906.124 808.131 906.958 813.695 906.655 819.259L906.958 819.337Z" fill="black"/>
<path d="M626.992 857.281C626.613 858.44 625.475 858.517 624.489 858.595L612.732 858.517L595.665 858.672L572 858.44L551.596 858.595C549.7 858.517 547.803 858.904 545.983 858.44C545.452 858.286 544.997 857.745 544.769 857.126C544.618 856.508 544.542 855.735 544.921 855.272C545.528 854.344 546.59 854.267 547.5 853.881C551.065 853.34 554.63 853.417 557.588 851.176C559.712 849.089 560.774 846.307 561.077 843.293L560.926 757.126L561.305 697.003C561.002 694.066 560.546 691.13 557.967 689.352C554.782 686.647 550.307 687.111 546.666 685.875C546.135 685.411 545.907 684.793 545.907 684.097C545.907 683.479 546.059 682.861 546.514 682.552C547.197 682.165 547.955 681.933 548.79 681.933L592.328 682.165C592.707 682.165 592.783 682.165 593.087 682.088C594.528 682.242 596.576 681.624 597.486 683.402C597.638 683.943 597.865 684.793 597.562 685.334C597.031 686.338 596.045 686.338 595.134 686.416C590.735 686.416 586.412 686.802 582.695 688.811C581.405 689.429 580.192 690.589 579.282 691.902C578.751 693.216 578.22 694.53 578.296 696.076L578.068 716.4L577.613 761.222C577.461 768.564 577.613 776.137 577.537 783.479V823.355L577.689 846.771C578.068 848.857 576.93 851.33 579.13 852.412C581.102 853.031 583.302 852.799 585.35 852.721C591.19 852.335 596.803 852.18 602.189 850.635C606.816 849.398 611.291 847.776 615.311 844.762C621 839.816 622.517 832.783 625.096 826.369L627.675 818.487C627.978 817.946 628.433 817.482 629.04 817.482C629.798 817.559 630.481 817.946 630.86 818.641L631.088 819.646L630.557 824.437L626.992 857.281Z" fill="black"/>
<path d="M530.13 720.264C529.599 720.728 528.689 720.728 528.082 720.496C527.324 720.187 527.02 719.182 526.793 718.487C525.124 712.691 523.379 707.049 521.104 701.562C519.587 698.162 517.539 694.375 514.201 692.443C506.616 687.961 497.059 688.193 488.033 687.961C487.578 688.116 486.819 687.961 486.592 688.502L486.44 689.816L486.061 712.227L485.985 720.187L485.53 759.677L485.606 763.541C485.681 763.927 486.137 764.082 486.44 764.159C492.508 764.313 498.728 764.623 504.265 762.922C508.513 761.222 510.712 756.663 512.002 752.49C513.064 748.78 513.974 744.994 515.112 741.361C515.491 740.743 516.174 740.28 516.856 740.357C517.463 740.511 518.146 740.898 518.449 741.516L518.677 742.521L518.222 763.618L518.146 772.041L518.601 793.371C518.525 794.221 517.994 794.994 517.235 795.225C516.629 795.457 515.946 795.225 515.491 794.762C515.036 794.298 514.808 793.757 514.657 793.216C513.291 788.966 512.684 784.483 511.092 780.388C509.954 777.374 508.513 773.742 505.327 772.351C502.748 770.882 499.486 770.882 496.376 770.573C492.887 770.341 489.398 770.496 485.909 770.805C485.606 770.882 485.454 771.191 485.454 771.5L484.999 798.162V799.398L485.15 821.887L485.454 840.666C485.606 842.443 485.53 844.453 486.212 846.075C486.743 848.703 489.019 851.176 491.522 852.026C495.011 853.649 499.107 853.726 502.9 854.576C503.431 854.731 503.886 855.194 504.037 855.735C504.189 856.354 504.341 857.126 503.886 857.59C503.431 858.363 502.748 858.363 502.065 858.517L477.11 858.44H456.175C454.734 858.363 452.99 858.672 452.155 857.126C451.928 856.508 451.928 855.735 452.307 855.117C452.459 854.576 452.914 854.499 453.369 854.344C457.161 853.726 461.03 853.031 464.291 850.789C466.339 848.857 467.174 846.153 467.705 843.448C468.236 838.502 468.387 833.479 468.539 828.378L468.691 821.655L469.146 778.687L469.222 769.569L469.373 754.499L469.298 737.729L469.146 732.783L468.994 711.3L468.767 696.848C468.387 693.989 467.932 690.975 465.429 689.12C462.471 686.957 458.906 686.493 455.341 685.797C454.81 685.565 454.279 684.947 454.203 684.406C454.052 683.865 454.279 683.324 454.431 682.861C454.886 682.088 455.644 682.088 456.403 681.933C463.533 682.088 470.587 681.779 477.869 682.011L491.219 682.088L519.814 682.011L527.248 681.933C528.006 682.088 528.537 682.552 528.841 683.247L528.992 684.02L529.751 699.63L530.965 717.946C530.737 718.873 530.737 719.723 530.13 720.264Z" fill="black"/>
<path d="M661.125 807.822C679.708 841.67 725.902 870.032 767.013 844.221C809.717 817.405 805.469 759.677 788.858 732.706C762.614 689.97 719.53 674.051 683.046 696.076C648.913 716.632 639.28 767.946 661.125 807.822ZM806.835 722.428C830.576 764.391 819.047 821.732 769.895 849.476C725.371 874.592 667.193 860.759 643.224 818.487C615.235 769.105 638.294 715.55 680.239 690.898C724.764 664.777 782.714 679.847 806.835 722.428Z" fill="black"/>
</svg>
