<svg width="1359" height="1642" viewBox="0 0 1359 1642" fill="none" xmlns="http://www.w3.org/2000/svg">
<path d="M466.384 705.757C465.737 705.816 463.767 706.08 461.974 706.344C435.343 710.008 415.561 728.359 408.623 755.739C405.126 769.517 405.126 784.907 408.623 798.685C410.064 804.342 411.357 807.86 414.061 813.313C423.791 833.071 440.928 845.119 463.532 848.109C468.206 848.695 477.73 848.549 481.933 847.786C492.545 845.881 501.539 840.839 509.211 832.484C511.239 830.286 511.68 829.934 511.857 830.374C511.974 830.667 512.739 834.038 513.562 837.878C514.355 841.718 515.09 844.972 515.178 845.119C515.296 845.295 518.764 845.412 523.879 845.412H532.374V772.419H474.467V792.646H507.771L507.594 795.343C507.271 799.916 505.948 804.899 504.008 808.915C499.746 817.71 492.221 823.25 481.58 825.39C477.847 826.152 467.677 826.123 464.179 825.361C457.007 823.807 451.334 820.788 446.601 816.039C441.957 811.349 438.606 805.72 436.284 798.655C430.552 781.155 432.639 758.465 441.222 744.834C445.807 737.564 451.774 732.698 459.299 730.147C463.797 728.623 466.913 728.154 472.262 728.154C477.377 728.154 480.669 728.623 484.608 729.942C489.664 731.642 494.72 734.925 497.777 738.473C500.716 741.902 503.244 747.032 504.155 751.371L504.479 753.071H530.64L530.463 751.664C527.083 727.274 509.299 710.389 482.697 706.314C479.729 705.845 468.97 705.494 466.384 705.757Z" fill="black"/>
<path d="M554.537 709.187C554.449 709.422 554.449 730.235 554.508 755.446C554.596 789.275 554.714 801.997 554.978 803.932C556.742 817.006 560.916 826.182 568.5 833.716C573.732 838.904 579.67 842.51 587.048 844.943C602.392 850.014 623.644 849.751 638.194 844.327C656.271 837.585 666.707 823.28 668.735 802.496C668.94 800.385 669.058 783.793 669.058 754.039V708.806H642.015V752.25C642.015 796.75 641.956 799.799 640.839 805.105C637.959 819.117 628.935 825.478 611.974 825.478C604.42 825.478 600.011 824.628 595.014 822.195C592.339 820.934 591.574 820.377 589.37 818.179C587.165 815.98 586.607 815.218 585.343 812.55C583.726 809.238 582.844 806.218 582.139 801.44C581.727 798.773 581.639 792.47 581.551 753.57L581.433 708.806H568.059C557.183 708.806 554.655 708.865 554.537 709.187Z" fill="black"/>
<path d="M691.104 845.412H721.762C752.391 845.412 758.388 845.265 764.061 844.357C782.55 841.484 795.072 832.103 799.246 818.003C800.774 812.814 801.186 805.28 800.275 799.154C798.923 789.978 794.484 782.21 787.753 777.226C785.548 775.585 780.257 772.976 777.641 772.243C776.612 771.95 775.76 771.627 775.76 771.539C775.76 771.451 776.965 770.719 778.435 769.927C785.519 766.028 790.516 760.283 792.809 753.452C795.043 746.769 795.101 738.531 792.985 731.29C789.81 720.503 781.345 713.379 768.176 710.418C761.797 708.982 762.18 709.011 725.584 708.894L691.104 708.777V845.412ZM751.362 730.499C757.065 731.027 760.563 732.346 763.385 735.043C766.501 738.003 767.823 741.638 767.823 747.326C767.823 751.136 767.382 753.188 765.913 756.179C764.061 759.989 760.063 762.95 754.89 764.387C753.185 764.856 751.186 764.914 735.578 765.002L718.147 765.119V730.206H733.226C741.486 730.206 749.658 730.352 751.362 730.499ZM755.772 784.145C764.854 785.229 770.851 789.89 772.967 797.512C773.732 800.209 773.879 806.101 773.291 809.091C771.85 816.127 767.294 820.788 759.71 822.898C757.418 823.543 757.036 823.573 737.782 823.661L718.147 823.749V783.851H735.725C745.866 783.851 754.331 783.969 755.772 784.145Z" fill="black"/>
<path d="M819.851 845.412H846.894V708.806H819.851V845.412Z" fill="black"/>
<path d="M919.616 687.447C915.929 687.594 912.354 688.169 908.854 689.172C900.131 691.672 892.281 696.792 886.404 703.821C878.172 713.668 874.485 726.393 876.187 739.101C877.913 751.98 885.188 763.64 896.049 770.932C900.032 773.605 904.35 775.605 908.953 776.91C913.933 778.322 919.146 778.878 924.292 778.552C936.08 777.8 947.01 772.565 955.004 763.846C959.359 759.095 962.669 753.464 964.702 747.349C965.862 743.868 966.596 740.221 966.877 736.574C966.984 735.2 967 734.753 967 733.032C967 731.363 966.984 730.863 966.89 729.623C966.268 721.302 963.388 713.366 958.514 706.546C955.306 702.056 951.293 698.164 946.708 695.094C943.114 692.685 939.152 690.784 935.072 689.503C931.161 688.279 927.257 687.608 923.076 687.445C922.291 687.415 920.402 687.415 919.616 687.447ZM923.437 691.91C928.628 692.11 933.36 693.206 937.955 695.271C943.082 697.573 948.108 701.244 952.134 705.626C954.058 707.717 955.835 710.142 957.248 712.602C960.465 718.203 962.236 724.567 962.527 731.572C962.562 732.417 962.546 734.834 962.501 735.545C962.391 737.216 962.228 738.646 961.974 740.117C960.986 745.852 958.68 751.381 955.156 756.48C954.541 757.371 953.887 758.261 953.783 758.346C953.737 758.384 953.566 758.194 952.746 757.189C952.506 756.895 952.228 756.558 952.126 756.443C952.027 756.328 951.944 756.218 951.944 756.199C951.944 756.162 952.075 755.977 952.147 755.913C952.174 755.889 952.289 755.82 952.399 755.756C952.508 755.694 952.984 755.395 953.454 755.09C953.924 754.788 954.491 754.421 954.712 754.28C955.287 753.911 955.444 753.761 955.444 753.579C955.444 753.389 955.314 753.274 954.507 752.756C954.178 752.544 953.649 752.205 953.334 751.999C952.807 751.654 952.567 751.504 951.993 751.151L951.787 751.023L958.114 743.743L958.055 743.638C958.023 743.579 957.956 743.502 957.905 743.462L957.814 743.392L954.846 743.384C952.869 743.382 951.832 743.387 951.744 743.406C951.56 743.443 951.367 743.539 951.22 743.662C951.063 743.796 949.641 745.4 945.631 749.975C944.234 751.569 944.015 751.806 943.894 751.865C943.627 751.999 943.494 751.956 942.74 751.488C942.43 751.296 942.011 751.042 941.808 750.924C941.444 750.71 941.303 750.638 940.296 750.149C939.115 749.574 938.265 748.823 936.993 747.229C933.48 742.831 931.441 737.812 930.867 732.149C930.744 730.957 930.693 728.935 930.755 727.812C930.859 725.944 931.121 724.198 931.575 722.337C931.826 721.307 931.877 721.171 932.085 720.968C932.254 720.805 932.43 720.743 933.154 720.599C938.393 719.559 943.264 717.757 947.883 715.15C948.792 714.636 950.475 713.623 950.593 713.516C950.825 713.302 950.758 712.976 950.459 712.874C950.317 712.826 948.666 712.802 944.055 712.781C940.734 712.765 940.362 712.757 940.282 712.719C940.05 712.607 940.052 712.171 940.285 712.038C940.362 711.992 940.632 711.989 945.321 711.981C950.585 711.973 950.349 711.979 950.534 711.85C950.627 711.784 950.699 711.594 950.678 711.468C950.646 711.305 950.499 711.182 949.852 710.778C947.48 709.3 944.944 708.006 942.393 706.971C940.269 706.107 938.217 705.436 935.879 704.837C934.915 704.589 934.749 704.527 934.402 704.268C934.26 704.163 933.443 703.345 931.906 701.773C927.843 697.613 925.831 695.57 925.737 695.514C925.542 695.391 925.288 695.468 925.181 695.68C925.123 695.795 925.12 695.821 925.12 696.575C925.12 697 925.133 698.546 925.149 700.006C925.184 702.912 925.187 702.875 925.035 703.048C924.888 703.214 924.877 703.214 922.929 703.228C921.201 703.241 920.685 703.262 919.443 703.367C918.318 703.463 917.155 703.599 916.049 703.77C915.023 703.925 915.007 703.928 914.772 703.88C914.657 703.856 914.5 703.808 914.42 703.77C914.339 703.733 913.891 703.466 913.426 703.171C912.958 702.877 912.012 702.289 911.32 701.864C910.631 701.439 909.752 700.893 909.37 700.653C908.988 700.412 908.627 700.196 908.568 700.169C908.357 700.07 908.184 700.123 908.018 700.332C907.978 700.383 907.692 700.942 907.385 701.575C907.078 702.206 906.383 703.613 905.843 704.698C904.889 706.618 904.857 706.679 904.697 706.84C904.505 707.035 904.507 707.032 903.546 707.441C902.151 708.032 900.524 708.816 899.418 709.425C898.651 709.848 898.576 709.882 898.434 709.885C898.186 709.888 898.191 709.893 896.548 707.979C894.964 706.131 893.943 704.955 893.401 704.351C892.88 703.768 892.816 703.639 892.928 703.38C892.976 703.27 893.056 703.179 893.323 702.931C895.608 700.816 898.242 698.861 900.839 697.356C904.462 695.255 908.245 693.795 912.322 692.928C916.063 692.134 919.977 691.776 923.437 691.91ZM926.683 704.503C929.814 704.578 931.96 704.802 933.082 705.169C933.429 705.284 933.688 705.407 933.654 705.436C933.595 705.487 933.186 705.786 933.042 705.885C932.839 706.022 932.604 706.142 932.414 706.203C932.275 706.249 931.773 706.252 921.42 706.27C913.688 706.284 910.532 706.281 910.431 706.262C910.3 706.233 910.294 706.23 910.334 706.185C910.399 706.113 910.807 705.909 911.08 705.813C912.878 705.182 917.22 704.682 922.235 704.53C923.963 704.476 925.262 704.468 926.683 704.503ZM936.384 705.891C936.502 705.92 936.665 705.968 936.745 706C936.908 706.064 937.276 706.268 937.276 706.294C937.276 706.305 936.959 706.471 936.571 706.666C936.181 706.858 935.735 707.102 935.575 707.206C933.728 708.42 932.665 710.401 932.743 712.484C932.753 712.719 932.777 713.027 932.799 713.166C932.852 713.489 932.852 713.834 932.801 714.029C932.713 714.364 932.465 714.743 932.085 715.112L931.914 715.283L931.773 714.952C931.455 714.198 931.318 713.463 931.318 712.479C931.318 711.519 931.481 710.554 931.786 709.727C932.037 709.043 932.55 708.166 933.036 707.591C933.512 707.027 934.391 706.241 934.765 706.043C934.949 705.947 935.171 705.872 935.393 705.837C935.607 705.802 936.144 705.832 936.384 705.891ZM938.866 707.324C939.582 707.506 940.076 708.102 940.127 708.848C940.197 709.885 939.224 710.767 938.166 710.626C937.301 710.511 936.769 709.955 936.723 709.112C936.675 708.26 937.194 707.511 937.958 707.326C938.174 707.276 938.666 707.273 938.866 707.324ZM889.69 708.091C890.243 708.642 890.636 709.07 890.962 709.473L891.119 709.669L891.055 709.786C891.023 709.85 890.951 709.944 890.895 709.992C890.841 710.043 890.203 710.452 889.476 710.907C887.889 711.898 887.657 712.051 887.51 712.211C887.376 712.356 887.363 712.452 887.451 712.594C887.552 712.759 887.675 712.842 889.345 713.874C890.363 714.503 890.745 714.751 890.916 714.896L891.004 714.971L890.462 715.599C890.163 715.944 889.07 717.214 888.036 718.42C886.999 719.626 885.832 720.984 885.439 721.441C885.044 721.896 884.723 722.278 884.723 722.291C884.723 722.302 884.771 722.363 884.83 722.428C885.038 722.655 884.771 722.636 888.02 722.641C889.61 722.644 890.98 722.636 891.068 722.623C891.261 722.596 891.509 722.481 891.664 722.35C891.726 722.297 892.004 721.997 892.279 721.687C894.55 719.126 896.505 716.92 897.256 716.067C898.223 714.973 898.277 714.925 898.512 714.925C898.664 714.925 898.776 714.976 899.565 715.412C899.859 715.572 900.492 715.914 900.973 716.166C901.454 716.42 901.849 716.639 901.849 716.65C901.849 716.668 901.349 717.225 898.397 720.494L897.417 721.583L897.443 721.682C897.478 721.805 897.646 721.992 897.809 722.085C897.879 722.125 898.157 722.305 898.429 722.484C902.442 725.139 905.549 728.39 907.719 732.203C909.56 735.441 910.733 739.08 911.254 743.17C911.371 744.093 911.36 744.339 911.195 744.539C911.109 744.644 910.933 744.745 910.759 744.793C910.701 744.809 910.359 744.863 909.998 744.916C904.614 745.702 899.765 747.218 894.983 749.611C893.016 750.598 890.673 751.967 890.144 752.44C889.858 752.694 889.81 752.911 890.013 753.007C890.099 753.047 890.555 753.055 895.036 753.085C897.748 753.101 900.615 753.122 901.408 753.133L902.851 753.151L902.984 753.218C903.155 753.304 903.238 753.424 903.238 753.593C903.238 753.865 903.059 753.991 902.57 754.06C902.29 754.103 901.75 754.106 896.212 754.098L890.16 754.087L890.026 754.154C889.791 754.272 889.775 754.443 889.981 754.641C890.141 754.798 891.683 755.74 892.845 756.392C897.959 759.266 903.238 761.14 908.894 762.092C909.338 762.167 909.776 762.253 909.872 762.282C910.067 762.344 910.316 762.496 910.457 762.646C910.511 762.705 911.296 763.844 912.205 765.183C915.341 769.811 916.573 771.608 916.672 771.702C916.723 771.75 916.792 771.785 916.856 771.793C916.952 771.806 916.968 771.798 917.046 771.707C917.091 771.651 917.142 771.544 917.161 771.469C917.188 771.362 917.188 770.531 917.169 767.67C917.142 763.186 917.142 763.421 917.182 763.253C917.238 763.025 917.348 762.878 917.527 762.795C917.663 762.731 917.714 762.723 918.026 762.718C918.219 762.713 918.884 762.697 919.509 762.678C920.135 762.662 920.717 762.648 920.805 762.654C921.008 762.659 921.217 762.718 921.42 762.825C921.601 762.921 921.663 762.98 924.31 765.59C925.531 766.793 926.122 767.357 926.221 767.413C926.467 767.555 926.675 767.515 926.902 767.277C926.961 767.212 927.271 766.811 927.586 766.381C927.901 765.953 928.692 764.894 929.344 764.028C929.999 763.164 930.789 762.108 931.102 761.686C931.455 761.21 931.735 760.86 931.837 760.769C932.205 760.435 932.577 760.261 933.525 759.985C933.875 759.884 934.217 759.78 934.281 759.758C934.487 759.683 934.509 759.691 934.802 759.977C934.952 760.122 935.222 760.373 935.406 760.534C935.591 760.694 935.919 760.991 936.136 761.194C936.355 761.4 936.582 761.587 936.643 761.616C936.798 761.686 936.993 761.681 937.14 761.603C937.223 761.56 938.27 760.528 940.493 758.301C942.273 756.52 943.742 755.063 943.756 755.063C943.788 755.063 944.528 755.908 946.948 758.713C947.849 759.755 948.936 761.012 949.364 761.501C949.791 761.993 950.144 762.402 950.149 762.416C950.162 762.451 949.545 763.017 948.631 763.803C941.698 769.774 933.993 773.164 925.561 773.953C923.18 774.175 920.351 774.183 917.906 773.98C913.997 773.651 910.316 772.825 906.765 771.48C902.223 769.758 897.946 767.194 894.328 764.023C893.302 763.124 891.843 761.699 891.02 760.79C887.349 756.74 884.608 752.205 882.789 747.17C881.528 743.676 880.675 739.66 880.381 735.826C880.234 733.895 880.224 731.791 880.355 729.943C880.854 722.925 883.208 716.265 887.462 709.837C888.105 708.864 889.057 707.524 889.102 707.524C889.113 707.524 889.377 707.778 889.69 708.091ZM921.609 709.203L929.09 709.222L929.202 709.297C929.264 709.337 929.315 709.38 929.315 709.391C929.315 709.401 929.251 709.449 929.17 709.495C929.093 709.543 928.831 709.722 928.591 709.893C928.038 710.289 927.88 710.385 927.602 710.516C927.151 710.727 927.3 710.717 925 710.727C921.492 710.746 899.949 710.679 899.851 710.647C899.802 710.634 899.728 710.591 899.682 710.554L899.602 710.484L899.891 710.332C900.048 710.249 900.417 710.046 900.708 709.882C901.523 709.428 902.049 709.227 902.552 709.187C902.779 709.169 908.726 709.174 921.609 709.203ZM938.343 712.337C938.54 712.366 938.741 712.401 938.789 712.417C938.914 712.46 939.024 712.599 939.091 712.8C939.155 712.992 939.299 713.246 939.409 713.361C939.531 713.489 939.761 713.626 939.972 713.695C940.162 713.757 940.229 713.762 940.99 713.783C941.864 713.808 946.355 713.864 947.277 713.861C947.581 713.861 947.83 713.866 947.83 713.874C947.83 713.928 947.712 714.104 947.638 714.16C947.501 714.265 946.395 714.861 945.639 715.238C944.461 715.829 943.355 716.323 941.939 716.896C940.576 717.446 938.604 718.179 938.196 718.286C937.418 718.489 936.726 718.412 935.986 718.04C935.708 717.901 934.888 717.353 934.61 717.123C934.281 716.848 934.097 716.54 934.097 716.27C934.1 715.979 934.271 715.572 934.704 714.832C934.845 714.583 935.027 714.243 935.102 714.072C935.331 713.559 935.446 713.361 935.679 713.083C935.989 712.711 936.518 712.423 937.071 712.324C937.367 712.27 937.928 712.275 938.343 712.337ZM923.568 713.487C923.947 713.594 924.025 713.668 923.968 713.874C923.955 713.922 923.624 714.537 923.234 715.243C922.475 716.607 921.444 718.497 920.963 719.396C920.623 720.032 920.49 720.2 920.225 720.318C920.012 720.414 919.742 720.436 919.443 720.377C919.325 720.353 919.093 720.326 918.924 720.318C918.612 720.299 918.403 720.257 918.222 720.176L918.117 720.131L918.376 719.676C918.518 719.425 918.871 718.818 919.162 718.326C920.049 716.818 920.241 716.468 920.845 715.291C921.355 714.297 921.417 714.195 921.644 713.968C921.922 713.693 922.243 713.524 922.649 713.444C922.892 713.396 923.309 713.414 923.568 713.487ZM919.664 713.489C919.771 713.503 919.899 713.532 919.953 713.554L920.049 713.594L920.038 713.762C920.028 713.925 920.004 713.976 919.266 715.321C918.847 716.083 918.144 717.369 917.703 718.179C916.84 719.767 916.763 719.882 916.528 719.952C916.397 719.989 916.196 719.992 916.049 719.957C915.991 719.941 915.731 719.906 915.475 719.877C914.983 719.821 914.625 719.735 914.599 719.668C914.567 719.58 914.649 719.323 914.791 719.088C914.868 718.957 915.133 718.497 915.376 718.072C915.619 717.644 916.087 716.826 916.415 716.254C916.741 715.679 917.161 714.93 917.345 714.586C917.917 713.516 918.051 713.425 918.975 713.449C919.247 713.457 919.557 713.476 919.664 713.489ZM903.586 713.511C904.28 713.529 904.296 713.529 904.451 713.602L904.606 713.674L904.435 713.858C904.339 713.963 903.901 714.42 903.463 714.874C902.755 715.61 902.653 715.706 902.581 715.706C902.455 715.706 901.422 715.251 900.577 714.818C900.142 714.599 899.247 714.096 899.193 714.045C899.153 714.008 899.252 713.735 899.346 713.628C899.503 713.449 899.418 713.455 901.234 713.476C902.138 713.484 903.196 713.5 903.586 713.511ZM916.127 713.556C916.162 713.644 916.14 713.802 916.081 713.917C916.047 713.981 915.94 714.174 915.844 714.342C915.747 714.511 915.243 715.43 914.722 716.388C914.198 717.342 913.682 718.289 913.575 718.487C913.346 718.904 913.209 719.059 912.961 719.176C912.734 719.283 912.504 719.326 912.234 719.307C911.783 719.278 911.601 719.158 911.238 718.652C910.041 716.981 908.902 715.561 907.783 714.334C907.23 713.73 907.201 713.693 907.182 713.599L907.16 713.513H911.636C915.691 713.513 916.111 713.516 916.127 713.556ZM928.104 714.166C928.703 714.521 929.635 715.08 930.178 715.401L931.158 715.987V716.115C931.158 716.294 931.123 716.364 930.776 716.858C930.266 717.588 929.571 718.708 928.991 719.743C928.788 720.104 928.625 720.289 928.473 720.326C928.364 720.355 927.794 720.412 927.017 720.47C926.734 720.492 926.015 720.505 925 720.505C923.541 720.505 923.413 720.503 923.285 720.457C923.207 720.43 923.138 720.396 923.13 720.385C923.111 720.355 923.464 719.73 925.267 716.575C925.988 715.31 926.675 714.104 926.79 713.893C926.905 713.685 927.006 713.513 927.006 713.513C927.012 713.513 927.506 713.808 928.104 714.166ZM907.206 718.837C907.676 718.995 908.683 719.318 909.445 719.553C910.444 719.861 910.855 720 910.922 720.051C911.026 720.128 911.12 720.262 911.462 720.815C912.384 722.31 913.201 723.933 913.885 725.639C914.209 726.441 914.265 726.617 914.278 726.839L914.289 727.021L914.126 726.853C913.615 726.315 911.502 724.125 909.677 722.243C907.671 720.171 906.228 718.676 906.057 718.492L905.977 718.404L906.164 718.476C906.268 718.516 906.736 718.679 907.206 718.837ZM918.347 721.281C918.569 721.302 919.079 721.345 919.483 721.374C919.886 721.406 920.26 721.444 920.311 721.46C920.45 721.502 920.549 721.609 920.589 721.762C920.701 722.166 920.706 731.882 920.597 732.219C920.533 732.417 920.412 732.564 920.252 732.649C920.113 732.724 920.105 732.724 919.616 732.724C918.78 732.724 917.34 732.681 917.193 732.655C917.118 732.639 917.014 732.601 916.966 732.569C916.814 732.465 916.768 732.342 916.651 731.692C916.303 729.794 915.881 728.136 915.395 726.748C915.136 726.01 915.125 725.976 915.122 725.767C915.122 725.617 915.138 725.542 915.186 725.433C915.224 725.355 915.63 724.628 916.095 723.821C916.557 723.01 917.041 722.163 917.169 721.936C917.455 721.422 917.514 721.35 917.711 721.278C917.842 721.232 917.866 721.232 918.347 721.281ZM927.845 721.481C927.955 721.513 928.056 721.548 928.07 721.561C928.08 721.572 927.792 721.949 927.426 722.396C927.06 722.839 925.897 724.267 924.845 725.567C922.403 728.574 921.93 729.152 921.914 729.152C921.906 729.155 921.863 728.874 921.82 728.532C921.657 727.262 921.738 726.615 922.125 726.021C922.194 725.914 922.405 725.663 922.595 725.465C923.057 724.978 923.488 724.473 924.049 723.764C924.308 723.441 924.762 722.866 925.061 722.489C925.641 721.759 925.7 721.703 926.028 721.58C926.189 721.519 926.483 721.446 926.683 721.417C926.728 721.412 926.961 721.409 927.204 721.414C927.559 721.42 927.685 721.433 927.845 721.481ZM924.687 721.767C924.594 721.879 924.11 722.446 923.613 723.029C923.116 723.612 922.52 724.31 922.293 724.58C921.882 725.067 921.879 725.069 921.786 725.053C921.735 725.045 921.687 725.034 921.681 725.026C921.673 725.018 921.665 724.409 921.663 723.668C921.66 722.617 921.668 722.289 921.697 722.163C921.764 721.863 921.85 721.751 922.072 721.666C922.267 721.591 922.633 721.572 923.886 721.567L924.855 721.561L924.687 721.767ZM925.211 730.264C924.997 731.441 924.813 732.435 924.797 732.473C924.714 732.687 924.514 732.724 923.504 732.724C922.87 732.721 922.232 732.676 921.973 732.612L921.911 732.598L921.986 732.473C922.352 731.844 924.479 729.235 925.358 728.329C925.478 728.206 925.582 728.109 925.588 728.115C925.593 728.12 925.422 729.088 925.211 730.264ZM920.664 734.213C920.706 734.248 920.778 734.815 920.848 735.679C920.901 736.323 920.843 736.951 920.685 737.422C920.514 737.935 920.324 738.229 919.734 738.9C919.154 739.563 917.818 741.125 917.318 741.727C917.091 742.002 916.888 742.227 916.87 742.227C916.84 742.229 916.835 742.194 916.848 742.074C916.859 741.991 916.931 741.08 917.011 740.053C917.147 738.312 917.164 738.173 917.222 738.048C917.26 737.962 917.802 737.285 918.638 736.267C919.384 735.363 920.057 734.548 920.137 734.459C920.338 734.229 920.557 734.13 920.664 734.213ZM924.238 736.457C924.423 736.497 924.524 736.588 924.57 736.756C924.623 736.949 924.634 737.069 924.666 737.804C924.714 738.919 924.834 740.312 924.973 741.4C925.104 742.406 925.36 743.82 925.507 744.341C925.542 744.467 925.58 744.622 925.588 744.684C925.606 744.807 925.585 745.055 925.553 745.109C925.537 745.133 925.358 745.117 924.813 745.037C923.247 744.807 921.951 744.603 921.885 744.579C921.74 744.523 921.743 744.555 921.724 742.497C921.714 741.446 921.697 739.743 921.687 738.711L921.665 736.836L921.724 736.713C921.791 736.574 921.943 736.481 922.104 736.481C922.154 736.481 922.213 736.467 922.235 736.454C922.291 736.417 924.065 736.419 924.238 736.457ZM920.583 739.443C920.615 739.494 920.65 739.593 920.661 739.66C920.69 739.839 920.637 744.058 920.605 744.224C920.583 744.317 920.551 744.384 920.495 744.438L920.415 744.515H919.835C918.775 744.515 916.637 744.467 916.592 744.443C916.442 744.368 916.632 743.93 917.059 743.366C917.31 743.037 919.525 740.304 920.209 739.483C920.391 739.264 920.394 739.261 920.458 739.304C920.495 739.328 920.551 739.39 920.583 739.443ZM929.943 740.727C930.009 740.761 930.204 740.967 930.626 741.44C930.808 741.646 931.38 742.277 931.893 742.844C934.161 745.339 934.885 746.186 935.922 747.566C936.363 748.154 936.363 748.16 936.291 748.173C936.194 748.192 936.039 748.152 935.901 748.069C935.764 747.991 934.947 747.67 934.217 747.408C932.299 746.724 930.303 746.157 928.043 745.654C927.177 745.462 927.052 745.419 926.883 745.253C926.72 745.098 926.675 744.956 926.72 744.743C926.776 744.47 926.699 744.587 928.575 741.935C929.235 741.002 929.403 740.785 929.512 740.727C929.643 740.654 929.814 740.654 929.943 740.727ZM918.708 745.454C919.01 745.478 919.28 745.507 919.312 745.518C919.386 745.547 919.41 745.697 919.365 745.852C919.322 745.988 919.231 746.117 917.666 748.218C917.025 749.079 916.37 749.962 916.212 750.184C915.868 750.657 915.723 750.817 915.542 750.913C915.422 750.978 915.379 750.986 915.141 750.986C914.951 750.986 914.834 750.972 914.735 750.938C914.657 750.911 914.593 750.884 914.593 750.879C914.593 750.863 914.941 749.954 915.141 749.448C915.606 748.272 915.713 747.938 915.972 746.841C916.255 745.654 916.295 745.558 916.533 745.494C916.851 745.408 917.89 745.39 918.708 745.454ZM923.239 745.761C923.581 745.809 924.073 746.01 924.043 746.093C923.995 746.213 923.335 747.135 922.047 748.873C921.569 749.52 921.099 750.157 921.005 750.285C920.794 750.577 920.65 750.705 920.378 750.839C920.081 750.983 919.776 751.052 919.429 751.052C919.125 751.05 918.994 751.028 918.751 750.94L918.596 750.884L918.612 750.764C918.62 750.697 918.657 750.593 918.692 750.534C918.785 750.376 919.285 749.694 920.38 748.232C920.909 747.526 921.454 746.796 921.591 746.606C921.727 746.419 921.901 746.213 921.973 746.146C922.205 745.938 922.486 745.807 922.796 745.761C923.007 745.729 923.012 745.729 923.239 745.761ZM911.296 745.932C911.425 746.015 911.441 746.109 911.441 746.726C911.441 748.178 911.243 749.903 910.864 751.756C910.634 752.876 910.591 752.983 910.359 753.071C910.137 753.157 909.83 753.077 909.715 752.905C909.68 752.852 909.64 752.718 909.613 752.558C909.538 752.133 909.346 751.387 909.212 751.012C909.039 750.534 908.681 749.817 908.414 749.413C907.818 748.52 907.04 747.769 906.089 747.168C905.825 747.002 905.614 746.788 905.688 746.764C905.784 746.734 907.751 746.347 908.208 746.269C908.464 746.224 909.079 746.133 909.57 746.066C910.062 746.002 910.567 745.93 910.693 745.908C910.962 745.86 911.203 745.871 911.296 745.932ZM925.828 746.269C925.978 746.312 926.079 746.435 926.21 746.726C926.36 747.066 926.405 747.253 926.405 747.523C926.405 747.938 926.28 748.21 925.857 748.716C925.539 749.093 925.189 749.547 924.81 750.063C924.642 750.299 924.444 750.542 924.372 750.606C924.217 750.748 923.944 750.892 923.691 750.972C923.469 751.042 922.967 751.074 922.742 751.031C922.598 751.004 922.339 750.916 922.264 750.868C922.202 750.828 922.381 750.496 922.614 750.213C922.721 750.082 922.876 749.892 922.961 749.79C923.044 749.686 923.472 749.079 923.912 748.435C925.262 746.472 925.339 746.365 925.505 746.291C925.633 746.232 925.684 746.229 925.828 746.269ZM904.32 747.523C904.78 747.63 905.509 748.01 906.1 748.448C907.281 749.328 908.047 750.496 908.454 752.036C908.536 752.352 908.566 752.51 908.566 752.67C908.568 752.919 908.531 752.996 908.373 753.077C908.283 753.122 908.202 753.125 907.326 753.117C906.805 753.111 905.934 753.098 905.389 753.087C904.259 753.066 904.27 753.068 904.075 752.825C903.882 752.585 903.693 752.419 903.497 752.323C903.094 752.127 903.535 752.143 898.055 752.119C894.721 752.106 893.094 752.09 893.03 752.069C892.754 751.991 892.933 751.825 893.815 751.344C895.701 750.312 897.852 749.36 900.286 748.472C901.133 748.165 902.747 747.622 903.027 747.553C903.492 747.435 903.906 747.427 904.32 747.523ZM927.367 749.916C927.527 750.299 927.682 750.665 927.712 750.729C927.744 750.793 927.765 750.849 927.76 750.852C927.754 750.857 927.658 750.887 927.543 750.916C927.215 751.002 926.899 751.034 926.576 751.018C926.242 750.999 925.815 750.927 925.815 750.887C925.815 750.847 926.239 750.192 926.443 749.919C926.68 749.601 927.022 749.205 927.054 749.216C927.068 749.221 927.209 749.536 927.367 749.916ZM923.236 751.978C925.398 751.986 927.327 752.002 927.527 752.015C928.409 752.074 928.794 752.376 929.031 753.202C929.125 753.523 929.125 753.526 928.97 753.579C928.847 753.619 928.369 753.622 923.044 753.606C916.824 753.587 917.145 753.595 916.693 753.453C916.426 753.371 915.889 753.093 915.344 752.753C915.09 752.595 914.767 752.405 914.631 752.331C914.353 752.183 914.35 752.178 914.534 752.063C914.748 751.932 914.722 751.932 917.091 751.948C918.312 751.956 921.078 751.97 923.236 751.978ZM943.595 753.654C943.539 753.702 943.309 753.895 943.09 754.082C942.241 754.809 941.821 755.063 941.252 755.194C941.038 755.245 940.854 755.248 936.649 755.261C933.68 755.269 932.205 755.264 932.08 755.245C931.519 755.162 931.073 754.83 930.811 754.301C930.707 754.09 930.573 753.659 930.602 753.63C930.624 753.611 936.491 753.576 940.563 753.571L943.702 753.568L943.595 753.654ZM909.578 754.165C909.768 754.256 909.795 754.403 909.707 754.863C909.394 756.502 908.723 757.812 907.647 758.889C907.195 759.341 906.947 759.547 906.431 759.889C905.897 760.242 905.857 760.261 905.616 760.258C905.189 760.25 904.39 760.092 903.626 759.862C903.099 759.705 903.142 759.726 903.201 759.659C903.278 759.574 903.471 759.485 903.693 759.437C903.989 759.373 904.515 759.194 904.895 759.028C906.642 758.269 907.807 756.956 908.296 755.194C908.347 755.012 908.414 754.756 908.443 754.625C908.51 754.352 908.59 754.226 908.753 754.151C908.846 754.106 908.908 754.101 909.17 754.109C909.397 754.114 909.504 754.13 909.578 754.165ZM904.288 754.756C904.652 754.833 905.012 755.09 905.21 755.421C905.541 755.964 905.549 756.772 905.234 757.376C905.106 757.619 904.812 757.903 904.572 758.018C903.912 758.33 903.091 758.202 902.6 757.707C902.268 757.373 902.111 756.969 902.114 756.456C902.116 755.555 902.626 754.932 903.505 754.756C903.738 754.707 904.067 754.707 904.288 754.756ZM921.259 755.117C923.728 755.133 926.603 755.149 927.645 755.151C929.491 755.159 929.547 755.159 929.745 755.215C930.413 755.403 930.854 755.846 931.131 756.611L931.212 756.828H930.335C929.854 756.828 925.438 756.814 920.519 756.796L911.574 756.764V756.662C911.574 756.526 911.657 756.32 911.761 756.186C911.86 756.06 912.394 755.699 912.776 755.496C913.188 755.28 913.573 755.154 914.046 755.079C914.091 755.074 914.722 755.071 915.448 755.079C916.175 755.084 918.791 755.103 921.259 755.117ZM938.025 756.798C937.883 757.063 936.662 757.697 935.922 757.887C935.673 757.951 935.62 757.956 934.872 757.959C934.18 757.964 934.062 757.959 933.91 757.916C933.429 757.78 933.127 757.528 932.897 757.066L932.756 756.788L934.851 756.774C936.002 756.766 937.194 756.758 937.498 756.753C938.041 756.748 938.051 756.748 938.025 756.798ZM932.123 758.298C932.547 758.349 932.796 758.507 932.962 758.838L933.055 759.028L932.489 759.266C931.492 759.681 931.027 759.833 930.431 759.948C930.199 759.993 929.886 759.996 925.547 759.996C922.999 759.996 918.304 759.985 915.114 759.972C908.777 759.948 909.143 759.959 909.183 759.801C909.218 759.651 909.391 759.336 909.549 759.124C909.883 758.681 910.401 758.373 910.978 758.272C911.149 758.242 931.861 758.269 932.123 758.298Z" fill="black"/>
<path d="M938.126 707.995C937.936 708.04 937.675 708.169 937.525 708.289C937.196 708.556 937.154 709.195 937.437 709.631C937.57 709.837 937.752 709.997 937.966 710.099C938.131 710.179 938.166 710.185 938.425 710.185C938.682 710.185 938.719 710.179 938.847 710.11C939.243 709.901 939.494 709.409 939.459 708.915C939.441 708.663 939.411 708.564 939.302 708.38C939.197 708.209 939.008 708.056 938.821 707.995C938.658 707.944 938.337 707.941 938.126 707.995ZM938.749 708.506C938.906 708.586 938.994 708.698 939.043 708.872C939.083 709.016 939.04 709.235 938.946 709.358C938.754 709.61 938.3 709.698 938.001 709.546C937.699 709.388 937.637 708.909 937.886 708.642C938.083 708.431 938.479 708.369 938.749 708.506Z" fill="black"/>
<path d="M938.185 713.89C938.075 713.904 937.883 713.944 937.757 713.984C937.004 714.214 936.611 714.738 936.563 715.572C936.52 716.342 936.838 716.906 937.49 717.214C937.822 717.372 937.987 717.404 938.425 717.401C938.872 717.401 939.035 717.366 939.382 717.2C939.694 717.051 939.935 716.81 940.079 716.505C940.237 716.176 940.28 715.987 940.28 715.626C940.28 715.361 940.269 715.289 940.205 715.104C940.082 714.749 939.892 714.479 939.617 714.273C939.2 713.96 938.714 713.829 938.185 713.89ZM938.66 714.727C938.938 714.802 939.173 714.995 939.286 715.238C939.334 715.345 939.347 715.42 939.347 715.599C939.347 715.89 939.27 716.064 939.04 716.275C938.815 716.484 938.647 716.548 938.305 716.548C938.073 716.548 938.019 716.54 937.891 716.479C937.715 716.396 937.514 716.2 937.431 716.029C937.343 715.85 937.343 715.457 937.431 715.265C937.629 714.834 938.169 714.596 938.66 714.727Z" fill="black"/>
<path d="M938.217 715.254C937.862 715.43 937.862 716.051 938.22 716.184C938.551 716.31 938.864 716.053 938.864 715.652C938.864 715.446 938.81 715.326 938.685 715.251C938.57 715.179 938.367 715.182 938.217 715.254Z" fill="black"/>
<path d="M903.201 748.181C902.768 748.285 902.357 748.625 902.148 749.047C901.975 749.403 901.924 749.633 901.918 750.09C901.918 750.315 901.932 750.571 901.953 750.702C901.996 750.962 902.06 751.052 902.341 751.253C903.174 751.844 904.227 751.908 904.857 751.408C905.119 751.2 905.376 750.785 905.483 750.405C905.547 750.167 905.555 749.772 905.496 749.542C905.33 748.884 904.745 748.336 904.048 748.181C903.815 748.13 903.415 748.127 903.201 748.181ZM904.043 748.956C904.334 749.042 904.649 749.317 904.783 749.601C904.844 749.734 904.852 749.79 904.855 750.01C904.855 750.25 904.849 750.274 904.764 750.432C904.657 750.627 904.475 750.798 904.256 750.908C904.123 750.978 904.08 750.986 903.839 750.986C903.594 750.986 903.559 750.978 903.391 750.9C903.046 750.737 902.776 750.384 902.704 750.012C902.637 749.654 902.843 749.197 903.142 749.042C903.385 748.916 903.775 748.879 904.043 748.956Z" fill="black"/>
<path d="M903.639 749.419C903.396 749.494 903.292 749.622 903.292 749.844C903.292 750.154 903.522 750.389 903.826 750.395C904.107 750.397 904.267 750.234 904.267 749.943C904.267 749.561 903.976 749.317 903.639 749.419Z" fill="black"/>
<path d="M903.457 755.103C903.254 755.159 903.166 755.213 902.995 755.376C902.891 755.475 902.819 755.576 902.755 755.713C902.677 755.881 902.664 755.94 902.656 756.17C902.648 756.325 902.659 756.496 902.677 756.584C902.76 756.961 903.009 757.285 903.337 757.445C903.505 757.531 903.535 757.536 903.786 757.536C904.032 757.536 904.067 757.528 904.235 757.451C904.74 757.21 905.06 756.536 904.948 755.945C904.884 755.611 904.654 755.298 904.368 755.157C904.23 755.087 904.181 755.079 903.906 755.071C903.693 755.066 903.556 755.076 903.457 755.103ZM904.08 755.702C904.443 755.908 904.403 756.686 904.021 756.844C903.893 756.9 903.655 756.892 903.532 756.828C903.246 756.681 903.129 756.242 903.297 755.937C903.444 755.673 903.823 755.558 904.08 755.702Z" fill="black"/>
</svg>
