<svg width="1359" height="1642" viewBox="0 0 1359 1642" fill="none" xmlns="http://www.w3.org/2000/svg">
<path d="M336.12 712C289.53 712 252 750.163 252 797C252 843.837 289.962 882 336.551 882C383.14 882 421.102 843.837 421.102 797C421.102 750.163 382.709 712 336.12 712ZM382.709 841.235C382.709 841.235 364.591 834.73 336.12 834.73C307.648 834.73 289.53 841.235 289.53 841.235V752.765H290.824C290.824 752.765 298.589 830.827 336.12 830.827C373.65 830.827 381.415 752.765 381.415 752.765H382.709V841.235ZM599.694 802.638H578.125C578.125 793.097 582.439 787.893 588.91 787.893C595.812 787.893 599.694 793.531 599.694 802.638ZM770.09 809.577L769.659 822.587C767.502 826.49 763.188 828.658 758.874 828.658C753.698 828.658 750.678 825.622 750.678 819.985C750.678 816.515 751.541 814.347 753.698 812.612C755.855 810.444 760.169 809.143 767.502 809.143C768.365 809.577 769.228 809.577 770.09 809.577ZM1054.8 802.638H1033.66C1034.1 793.097 1037.55 787.893 1044.45 787.893C1050.92 787.893 1054.8 793.531 1054.8 802.638ZM555.693 835.597V760.571H543.615V790.929H515.575V760.571H503.496V836.031H515.575V800.903H543.615V836.031L555.693 835.597ZM612.204 810.878V808.709C612.204 796.566 609.616 789.628 605.302 785.291C601.42 781.388 595.812 779.219 589.772 779.219C582.439 779.219 576.831 781.821 572.517 786.592C568.203 791.362 565.615 798.301 565.615 807.842C565.615 825.622 575.537 836.898 591.498 836.898C599.263 836.898 606.165 834.296 611.773 829.526L607.028 822.587C602.714 826.056 597.969 827.791 592.792 827.791C587.616 827.791 583.302 825.622 580.713 822.153C578.988 819.551 578.556 815.648 578.556 811.745V810.878H612.204ZM651.46 780.087C650.166 779.653 648.872 779.219 646.715 779.219C640.676 779.219 636.362 782.689 632.479 787.893V787.026C632.479 783.556 631.617 781.821 630.322 779.653L619.106 782.689C620.401 786.158 620.832 790.061 620.832 796.566V836.031H632.911V799.168C633.342 796.133 634.205 794.832 636.362 793.097C638.519 790.929 641.107 790.495 643.695 790.495C644.989 790.495 645.852 790.929 647.146 791.362L651.46 780.087ZM728.246 835.597V795.265C728.246 789.194 726.952 785.291 723.932 782.689C721.775 780.52 717.462 779.219 713.579 779.219C707.54 779.219 701.069 782.255 696.324 787.459C693.736 782.255 688.99 779.219 682.951 779.219C677.774 779.219 671.735 782.255 667.853 786.158C667.421 783.556 666.559 780.954 665.696 779.219L654.911 781.821C656.637 785.291 657.068 787.459 657.068 795.265V835.163H668.715V794.398C673.461 790.495 677.343 788.76 680.794 788.76C685.539 788.76 687.265 791.362 687.265 797.434V835.163H698.912V795.265C703.657 790.495 707.971 788.327 711.422 788.327C715.736 788.327 717.462 790.495 717.462 796.133V834.73H728.246V835.597ZM786.483 830.393C782.6 827.791 781.306 825.622 781.306 819.117V817.383L781.738 800.903V797.434C781.738 791.796 781.306 790.061 780.875 787.893C778.718 781.821 772.679 778.786 764.051 778.786C758.874 778.786 754.129 779.653 748.953 781.821C745.933 783.122 742.913 784.423 739.893 786.158L745.07 794.398C747.227 792.663 748.953 791.796 751.972 790.495C755.855 788.76 759.306 787.893 762.325 787.893C765.776 787.893 767.502 788.76 768.796 790.495C770.09 792.23 770.522 793.964 770.522 797.867V801.77H766.639C748.09 801.77 738.168 808.276 738.168 821.286C738.168 825.622 739.462 830.393 742.482 832.995C745.933 836.031 749.815 837.332 756.717 837.332C761.463 837.332 765.345 836.031 768.796 833.862C770.09 832.995 770.522 832.128 772.247 830.393C773.541 833.862 776.561 836.464 780.012 837.765L786.483 830.393ZM839.543 794.832C839.543 784.423 833.504 779.653 824.445 779.653C818.405 779.653 813.66 781.821 807.189 787.026C807.189 784.423 806.326 781.821 805.032 779.653L794.248 782.689C795.973 786.592 795.973 789.194 795.973 795.699V836.464H807.621V796.566C811.503 792.663 816.68 790.061 820.562 790.061C825.307 790.061 827.033 792.23 827.033 800.036V836.464H839.543V794.832ZM930.996 835.597L924.525 760.138H907.701L892.603 815.648L877.505 760.571H860.249L852.916 836.031H864.132L869.308 772.714L886.995 836.031H896.054L913.741 774.015L918.917 836.031H930.996V835.597ZM955.153 835.597V779.219L943.075 780.954V835.163H955.153V835.597ZM988.801 835.597L986.644 828.658H985.35C983.193 828.658 981.468 827.357 981.468 823.454V771.413C981.468 764.474 981.468 759.27 980.605 755.801L968.526 758.403C969.389 762.74 969.82 766.643 969.82 774.449V824.321C969.82 832.561 974.566 837.332 981.468 837.332C984.487 836.898 986.644 836.464 988.801 835.597ZM957.31 764.474C957.31 760.138 953.859 756.668 949.114 756.668C944.8 756.668 940.918 760.138 940.918 764.474C940.918 768.811 944.8 772.281 948.683 772.281C953.859 772.281 957.31 768.811 957.31 764.474ZM1016.41 835.597L1014.25 828.658C1012.53 829.092 1011.23 828.658 1010.37 827.791C1009.51 826.49 1009.08 824.321 1009.08 819.117V771.413C1009.08 764.474 1009.08 759.27 1008.21 755.801L996.135 758.403C996.997 762.74 997.429 766.643 997.429 774.449V822.153C997.429 828.224 998.723 831.26 1000.02 833.429C1001.74 836.031 1005.19 837.332 1009.08 837.332C1011.66 836.898 1013.82 836.464 1016.41 835.597ZM1067.31 810.878V808.709C1067.31 796.566 1064.72 789.628 1060.41 785.291C1056.53 781.388 1050.92 779.219 1044.45 779.219C1037.55 779.219 1031.94 781.821 1027.19 786.592C1022.88 791.362 1020.29 798.301 1020.29 807.842C1020.29 825.622 1030.21 836.898 1046.18 836.898C1053.51 836.898 1060.84 834.296 1066.45 829.526L1061.7 822.587C1057.39 826.056 1052.65 827.791 1047.47 827.791C1042.29 827.791 1037.98 825.622 1035.39 822.153C1033.66 819.551 1032.8 815.648 1032.8 811.745V810.878H1067.31ZM1107 780.087C1105.71 779.653 1104.41 779.219 1102.25 779.219C1096.22 779.219 1091.47 782.689 1088.02 787.893V787.026C1088.02 783.556 1087.16 781.821 1085.86 779.653L1075.08 782.689C1076.37 786.158 1076.8 790.061 1076.8 796.566V836.031H1088.88V799.168C1089.31 796.133 1090.18 794.832 1092.33 793.097C1094.49 790.929 1097.08 790.495 1099.67 790.495C1100.96 790.495 1101.82 790.929 1103.12 791.362L1107 780.087Z" fill="white"/>
</svg>
