<svg width="1359" height="1642" viewBox="0 0 1359 1642" fill="none" xmlns="http://www.w3.org/2000/svg">
<path fill-rule="evenodd" clip-rule="evenodd" d="M455.081 858.499H419V679H455.081V751.999L520.993 679H567.658L497.177 752.499L571.749 858.499H525.323L471.921 779.749L455.081 797.747V858.499ZM688.641 858.499H654.964V777.75C654.964 768.001 654.483 751.502 633.074 751.502C618.16 751.502 606.615 762.002 606.615 782.251V858.499H572.938V725.5H605.17V745H605.651C610.223 736.999 619.845 721.999 644.139 721.999C669.155 721.999 688.641 737.25 688.641 766.499V858.499ZM763.421 862C729.024 862 697.993 839.995 697.993 791.996C697.993 743.998 729.021 721.999 763.421 721.999C797.821 721.999 828.849 744.001 828.849 791.996C828.846 839.998 797.818 862 763.421 862ZM763.421 751.499C737.442 751.499 732.629 774.997 732.629 791.996C732.629 808.995 737.442 832.496 763.421 832.496C789.399 832.496 794.207 808.995 794.207 791.996C794.207 774.997 789.399 751.499 763.421 751.499Z" fill="black"/>
<path fill-rule="evenodd" clip-rule="evenodd" d="M872.597 858.499H838.92V679H872.597V858.499ZM925 858.499H891.323V679H925V858.499Z" fill="black"/>
</svg>
