<svg width="1359" height="1642" viewBox="0 0 1359 1642" fill="none" xmlns="http://www.w3.org/2000/svg">
<path d="M650.404 930.249L658.404 929.749V930.049L657.404 949.849L653.104 949.549V949.249L654.104 931.949L650.304 932.249V930.249H650.404ZM675.204 929.749C679.504 929.749 682.504 932.549 682.204 936.049C682.204 937.549 681.904 938.549 680.704 940.049L674.404 950.349H669.904L670.204 950.049L674.504 943.049C673.704 943.349 673.204 943.349 672.204 943.349H671.904C667.604 943.349 666.104 939.549 666.404 937.049C666.204 933.049 669.904 929.749 675.204 929.749ZM674.204 931.549C670.404 931.549 670.204 935.549 669.904 936.849C669.904 937.649 669.904 941.149 673.404 941.349C676.404 941.349 677.704 938.549 677.704 936.049C677.704 935.049 677.404 934.049 676.904 933.249C676.404 932.049 675.404 931.549 674.204 931.549ZM695.904 930.249L687.904 931.249H687.604V933.249L691.104 932.749L691.404 950.049V950.349H695.704L695.404 930.549V930.249H695.904ZM720.904 947.049L711.404 947.549L716.204 942.549L716.504 942.249C716.504 942.249 716.504 941.949 716.804 941.949C718.304 940.149 720.304 937.649 720.304 935.649C720.004 932.349 717.004 930.149 712.304 930.149H711.504C708.504 930.449 706.004 931.149 704.704 932.949C703.704 934.249 703.404 935.749 703.704 937.249V937.549L706.204 937.249V936.949C705.904 935.949 705.904 934.649 707.004 933.649C707.804 932.649 709.004 932.349 710.504 932.149H711.004C713.304 932.149 715.504 932.949 715.504 935.449C715.504 936.949 713.704 938.949 711.504 941.749C711.004 942.249 710.204 943.049 709.704 943.749L704.204 950.049L703.904 950.549L720.904 949.749H721.204L720.904 947.049ZM974.604 732.949C971.804 734.449 968.104 736.449 968.304 737.749C968.804 737.749 970.104 737.449 970.804 737.449C973.604 736.949 977.604 736.149 980.104 739.249C982.404 741.749 982.604 745.049 981.104 748.549C978.304 754.849 970.104 759.849 962.304 760.049H962.004C962.004 760.349 962.304 761.049 963.304 761.849C964.104 762.349 965.104 762.849 965.804 763.149C967.804 764.149 970.604 765.149 970.804 768.449C971.604 773.949 967.504 777.249 962.504 779.249C966.504 786.549 973.004 796.049 973.504 802.249V805.549C973.504 805.849 973.204 806.349 973.204 806.549C972.704 807.849 972.404 808.849 971.204 809.849C969.704 811.349 966.404 814.649 965.704 816.849C965.204 821.149 975.004 820.349 974.004 830.149C973.704 833.949 969.204 837.949 960.504 840.949C960.004 841.249 959.504 841.249 959.004 841.449V841.749C961.004 843.249 962.004 844.749 962.304 846.049C962.804 848.849 962.304 851.049 959.304 853.549C959.004 853.849 956.304 856.349 956.504 856.849C957.304 857.849 966.804 849.849 972.304 854.849C973.804 856.149 974.804 857.849 974.804 859.649C975.304 862.649 973.004 865.949 968.304 869.149C967.804 869.649 967.304 869.949 966.804 870.149C970.604 869.149 977.304 869.149 979.304 874.949C980.804 878.949 978.004 881.449 976.004 882.949C974.204 884.449 974.004 884.949 974.204 885.449C974.204 885.449 974.704 885.949 975.704 886.449C977.704 887.749 980.204 889.449 981.504 891.949C983.004 895.749 981.804 898.949 979.004 900.949L977.504 901.749C974.704 902.749 971.004 903.049 967.504 901.449V901.949C968.004 906.949 964.204 909.449 961.504 911.249C958.204 913.249 957.504 914.049 958.504 916.049C958.804 916.349 959.004 917.049 961.304 917.049C962.304 917.049 963.604 916.749 965.104 916.749C966.604 916.449 968.104 916.449 969.604 916.449C971.404 916.449 976.604 916.449 978.104 922.249C979.604 927.049 975.804 929.249 973.804 930.549C973.004 931.049 972.304 931.549 972.004 932.049C971.704 932.349 972.004 932.549 972.004 932.549C972.004 932.849 972.504 933.849 975.004 934.849C978.004 936.149 981.504 939.149 982.304 942.849C982.604 944.649 982.604 947.149 980.304 949.649C978.504 951.449 976.304 952.449 973.804 952.449C971.804 952.449 969.504 951.949 967.804 950.649C966.504 949.849 965.504 948.849 964.504 948.149C963.504 947.149 962.504 946.349 961.704 946.349C961.404 946.349 961.204 946.349 960.904 946.649C960.104 947.149 960.104 948.149 960.604 950.449C961.104 953.249 961.904 957.249 957.804 958.949C956.304 959.749 954.804 959.949 953.504 959.949C948.504 959.949 946.004 954.949 944.204 950.949C942.904 948.149 941.704 945.449 940.204 945.449C938.904 945.449 938.704 945.749 938.204 949.449C937.704 953.149 936.904 959.249 929.204 960.249H927.704C919.904 960.249 918.704 952.249 917.704 946.449C917.204 943.949 916.704 940.449 915.704 939.949C915.204 939.649 914.704 939.449 914.204 939.449C911.904 939.449 910.904 943.449 910.404 945.949C909.904 947.749 909.404 949.249 908.404 950.249C907.104 952.049 904.404 953.249 901.604 953.249C899.304 953.249 897.304 952.449 895.804 951.449C889.804 946.949 890.004 942.449 890.504 935.949C890.504 934.949 890.804 934.149 890.804 933.149C891.104 931.149 890.504 929.849 890.004 929.349C889.704 929.349 889.704 929.049 889.704 929.049C888.904 929.049 887.704 930.049 886.204 932.549C884.904 935.049 883.404 938.049 879.204 938.349H879.504C877.704 938.349 875.704 937.349 873.704 935.549C874.504 937.549 875.004 939.549 875.204 940.349C876.204 944.849 877.004 948.349 873.404 952.349C870.604 955.349 858.404 960.849 850.404 950.349C846.904 945.549 823.104 942.349 809.604 943.849C802.804 945.649 796.304 947.349 789.604 948.849L786.604 949.649C785.804 951.949 783.604 953.449 782.304 953.949C778.804 955.449 776.004 954.449 775.304 954.249C774.804 955.749 773.504 957.249 770.804 958.049C767.004 959.049 765.804 958.349 763.804 956.749C762.304 959.249 759.004 960.049 756.504 960.049C753.704 960.049 751.504 958.549 750.004 955.249C730.204 957.549 706.704 959.049 687.204 959.049C667.404 959.049 644.204 957.249 624.204 954.749C622.704 958.249 620.404 960.049 617.404 960.049C614.904 960.049 611.404 959.249 610.104 956.749C608.104 958.249 606.804 958.749 603.104 958.049C600.304 957.249 599.104 955.749 598.604 954.249C597.604 954.549 595.104 955.549 591.604 953.949C590.304 953.449 587.604 951.449 587.304 948.949L584.304 948.149C579.004 946.849 574.004 945.649 568.504 944.149C555.704 941.849 528.704 945.149 525.004 950.149C517.004 960.649 504.704 955.149 502.004 952.149C498.504 948.149 499.004 944.649 500.204 940.149C500.504 939.349 501.004 937.349 501.704 935.349C499.704 936.849 497.404 938.149 495.904 938.149H495.604C491.304 937.849 489.804 934.849 488.604 932.349C487.304 929.549 485.804 928.549 485.104 928.549C485.104 928.549 484.804 928.549 484.804 928.849C484.304 929.349 484.004 930.349 484.004 932.649C484.004 933.649 484.304 934.649 484.304 935.449C484.804 941.949 485.304 946.449 479.004 950.949C477.504 952.249 475.204 952.749 473.204 952.749C470.404 952.749 467.704 951.749 466.404 949.749C465.604 948.749 464.904 947.249 464.404 945.449C463.604 942.949 462.604 938.649 460.604 938.649C460.104 938.649 459.604 938.949 459.104 939.149C458.104 939.649 457.604 943.149 457.104 945.649C456.104 951.449 454.804 959.449 447.104 959.449H445.604C437.804 958.449 437.104 952.649 436.604 948.649C436.104 944.849 435.804 944.649 434.604 944.649C433.104 944.649 431.804 947.449 430.604 950.149C428.804 954.149 426.304 959.149 421.304 959.149C420.004 959.149 418.504 958.849 417.004 958.149C413.004 956.349 413.704 952.149 414.204 949.649C414.704 947.149 414.704 946.149 413.904 945.849C413.604 945.549 413.404 945.549 413.104 945.549C412.304 945.549 411.304 946.549 410.304 947.549C409.304 948.349 408.304 949.349 407.004 950.049C405.204 951.049 403.004 951.849 401.004 951.849C398.504 951.849 396.004 950.849 394.504 949.049C392.004 946.249 392.004 943.749 392.504 942.249C393.304 938.449 397.004 935.449 400.004 934.249C402.504 933.249 403.004 932.249 403.004 931.949V931.449C402.704 930.949 402.004 930.449 401.204 929.949C399.204 928.649 395.404 926.449 396.904 921.649C398.704 915.849 403.704 915.849 405.404 915.849C406.904 915.849 408.404 916.149 409.904 916.149C411.204 916.449 412.404 916.449 413.704 916.449C416.004 916.449 416.204 915.649 416.504 915.449C417.504 913.449 416.804 912.649 413.504 910.649C410.704 908.849 407.004 906.349 407.504 901.349V900.749C404.004 902.249 400.204 902.049 397.504 901.049L396.004 900.249C393.004 898.249 392.004 894.949 393.504 891.249C394.804 888.749 397.304 886.949 399.304 885.749C400.304 885.249 400.804 884.749 400.804 884.749C401.104 884.249 400.804 883.749 399.004 882.249C397.204 880.449 394.204 878.249 395.704 874.249C397.704 868.449 404.204 868.749 408.204 869.449C407.704 869.149 407.204 868.649 406.704 868.449C399.704 865.649 397.704 862.649 398.204 859.649C398.204 857.849 399.504 856.149 400.704 854.849C406.204 849.849 415.504 857.849 416.204 856.849C416.704 856.349 413.704 853.849 413.404 853.549C410.604 851.049 409.904 848.749 410.404 846.049C410.704 844.749 411.704 843.049 413.704 841.749C413.204 841.449 412.404 841.449 411.904 841.249C403.104 838.249 398.604 834.249 398.404 830.449C397.404 820.649 407.204 821.649 406.704 817.449C405.904 815.149 402.704 811.949 401.204 810.449C399.904 809.149 399.704 808.149 399.204 807.149C399.204 806.849 398.904 806.349 398.904 806.149V802.649C399.404 796.349 405.904 786.849 409.904 779.649C404.604 777.649 400.904 774.149 401.404 768.849C401.704 765.549 404.404 764.349 406.404 763.549C407.404 763.049 408.204 762.749 408.904 762.249C409.904 761.449 410.204 760.749 410.204 760.449H409.904C402.104 760.149 393.904 754.949 391.104 748.949C389.604 745.449 390.104 742.149 392.104 739.649C394.904 736.649 398.604 737.349 401.404 737.849C402.204 738.149 403.404 738.349 403.904 738.149C404.204 736.849 400.604 734.849 397.604 733.349C391.604 730.049 383.304 725.849 385.304 717.049C385.804 714.749 386.804 713.249 388.304 712.249C390.804 710.749 393.804 711.749 396.104 712.249C397.104 712.549 398.604 713.049 399.104 712.749V712.449C399.404 711.649 397.104 709.449 395.804 708.149C391.804 704.149 385.804 698.149 392.504 690.649L393.304 689.649C397.304 686.149 401.804 688.349 404.804 689.649C407.304 690.949 407.804 690.949 408.104 690.649C408.904 689.349 407.604 686.849 406.104 684.349C403.604 680.049 400.304 674.349 406.404 669.349C410.904 665.849 414.704 667.849 416.904 669.349C417.704 669.649 418.704 670.349 419.204 670.349C419.204 670.349 420.204 669.849 421.004 666.049C421.804 662.549 423.804 656.549 428.304 654.249C431.504 653.649 434.004 653.649 436.504 654.649C441.804 656.649 441.504 662.449 441.504 665.949V666.249C441.504 668.049 441.004 669.249 440.704 670.549C440.204 672.349 440.204 672.549 441.004 673.049C441.504 673.049 442.304 672.549 442.804 672.249C444.604 671.249 447.104 669.749 450.304 671.249C450.604 669.249 451.304 667.249 452.304 665.749C453.604 663.749 456.304 661.449 461.304 660.749H462.604C467.904 660.749 470.404 666.049 471.904 669.049C472.204 669.549 472.404 669.849 472.404 670.049L472.704 670.849C473.204 671.649 473.504 671.849 473.704 671.849H474.504V671.049C473.504 666.549 473.704 657.549 481.504 654.749C482.504 654.449 483.504 654.249 484.504 654.249C485.504 654.249 486.504 654.549 487.504 655.049C489.004 655.849 490.304 657.349 491.004 658.349C491.504 659.149 492.004 659.849 492.504 660.849C492.804 661.349 493.004 662.149 493.304 662.349H493.804C494.104 662.049 494.304 661.549 494.604 661.349C495.404 660.549 496.104 659.349 496.904 658.349C499.904 654.549 502.904 653.849 504.904 653.849C506.404 653.849 508.204 654.349 509.404 655.149C509.904 655.449 510.404 655.649 510.904 656.149C515.704 659.949 516.204 664.949 512.204 669.949C511.904 670.449 511.404 670.749 511.204 671.249C510.404 672.049 508.404 674.049 508.704 675.049C509.004 675.549 509.004 675.849 511.504 675.849C514.004 675.849 518.304 676.149 519.504 680.849C519.804 682.149 520.004 683.349 520.004 684.349C566.804 664.549 624.604 653.049 687.304 653.049C750.004 653.049 807.904 664.349 854.604 683.549C854.604 682.549 854.604 681.249 855.104 680.049C856.404 675.249 860.904 675.049 863.104 675.049C865.604 675.049 865.904 674.749 865.904 674.249C866.204 673.249 864.104 671.249 863.404 670.449L862.104 669.149C858.104 664.149 858.604 659.149 863.404 655.349C863.904 655.049 864.404 654.549 864.904 654.349C866.404 653.549 867.904 653.049 869.404 653.049C871.404 653.049 874.704 653.849 877.404 657.549C878.404 658.849 879.204 659.849 879.704 660.549C880.004 661.049 880.204 661.349 880.504 661.549H881.004C881.304 661.249 881.804 660.549 881.804 660.049C882.304 659.049 882.804 658.249 883.304 657.549C884.104 656.549 885.304 655.049 886.804 654.249C887.804 653.749 888.804 653.449 889.804 653.449C890.804 653.449 891.604 653.749 892.604 653.949C900.604 656.749 900.904 665.749 899.604 670.249V671.049H900.404C900.704 671.049 900.904 670.749 901.404 670.049L901.704 669.249C902.004 668.949 902.004 668.449 902.204 668.249C903.704 665.249 906.504 659.949 911.504 659.949H912.804C916.604 660.449 919.604 661.949 921.304 664.449C922.604 666.249 923.304 668.249 923.604 670.249C926.904 668.749 929.404 670.249 931.104 671.249C931.604 671.549 932.604 672.049 932.904 672.049C933.704 671.249 933.704 671.249 933.204 669.549C932.904 668.549 932.404 667.049 932.404 665.249V664.949C932.404 661.649 931.904 655.649 937.204 653.649C939.704 652.649 942.204 652.849 944.504 653.949C949.004 656.449 951.004 662.449 951.804 665.749C952.804 669.549 953.604 670.049 953.604 670.049C953.904 670.049 955.104 669.549 955.904 669.049C958.204 667.749 962.204 665.549 966.404 669.049C972.704 674.049 969.204 679.849 966.704 684.049C965.204 686.549 963.904 688.849 964.704 690.349C965.004 690.849 965.504 690.649 968.004 689.549C971.004 688.049 975.304 686.049 979.504 689.549L979.804 689.849C986.304 697.349 980.304 703.349 976.304 707.349C975.004 708.649 972.804 710.849 973.004 711.649V711.949C973.304 711.949 975.004 711.649 976.004 711.449C978.304 710.649 981.304 709.949 983.804 711.449C985.304 712.249 986.304 713.949 986.804 716.249C988.604 725.449 980.604 729.649 974.604 732.949ZM858.004 680.649C857.504 682.149 857.504 683.649 858.004 684.949C873.304 691.449 887.504 698.949 900.004 706.949C897.504 700.949 893.704 693.649 886.004 683.649C884.704 681.849 884.704 680.649 885.704 680.149C887.204 679.349 888.704 681.449 889.504 682.449C899.304 695.249 903.004 703.249 905.804 710.949C908.104 712.449 910.304 713.949 912.304 715.749C911.504 713.749 911.304 711.949 911.504 710.449C911.804 708.649 912.804 707.649 913.504 707.149C916.304 705.349 919.304 706.649 921.304 707.449C920.504 706.949 919.504 706.149 918.804 705.449C915.004 702.949 909.504 698.949 911.504 692.449C912.304 690.149 913.504 688.649 915.004 688.149C917.804 686.849 920.804 688.149 923.504 689.449C924.804 689.949 927.004 690.949 927.504 690.749C927.804 690.749 927.804 690.449 927.804 689.949C927.804 689.449 926.004 687.449 925.004 686.149C922.504 683.149 919.504 679.849 919.704 676.349C919.704 675.349 920.004 674.549 920.504 673.849C920.504 669.849 919.504 664.849 912.504 664.049H911.704C908.204 664.049 906.204 669.049 904.904 671.549L904.404 672.349C903.404 674.349 902.104 675.349 900.404 675.349C899.904 675.349 899.404 675.349 898.904 675.049C896.404 674.249 895.904 672.049 896.104 670.049C896.104 670.049 898.404 660.249 891.304 657.749C890.504 657.449 890.004 657.449 889.504 657.449C889.004 657.449 888.504 657.749 888.004 657.749C887.204 658.249 886.204 659.249 885.504 660.249C884.504 661.249 883.504 664.249 882.504 665.049H880.704C879.704 665.049 878.704 664.749 877.904 664.249C877.604 664.249 876.104 661.949 874.104 659.449C872.304 656.949 870.304 656.449 868.804 656.449C867.504 656.449 866.504 656.949 865.804 657.249C865.504 657.549 865.004 657.749 864.804 658.049C863.304 659.349 860.304 661.849 864.004 666.849C865.004 668.149 869.504 671.349 868.304 675.149C866.804 680.649 859.304 675.849 858.004 680.649ZM461.304 663.849C454.304 664.649 453.004 669.849 453.304 673.649C453.804 674.449 454.104 675.149 454.104 676.149C454.404 679.649 451.304 682.949 448.804 685.949C447.804 687.249 446.004 688.949 446.004 689.749C446.004 690.049 446.304 690.249 446.304 690.249C446.804 690.549 449.104 689.749 450.304 688.949C453.104 687.649 456.104 686.449 458.804 687.649C460.304 688.449 461.604 689.949 462.304 691.949C464.304 698.449 458.804 702.249 455.004 704.949C454.204 705.449 453.204 706.249 452.504 706.949C454.504 706.149 457.504 704.949 460.304 706.649C461.104 707.149 462.104 708.149 462.304 709.949C462.604 711.449 462.304 713.249 461.504 715.249C463.504 713.749 465.804 712.249 468.004 710.449C470.504 702.949 474.504 694.649 484.304 681.949C485.104 680.949 486.604 678.649 488.104 679.649C489.104 680.149 489.104 681.449 487.804 683.149C480.004 693.449 476.304 700.449 473.804 706.649C484.104 699.849 495.604 693.649 507.804 688.149C510.304 686.849 513.104 685.849 515.804 684.649C516.304 683.349 516.304 681.849 515.804 680.349C514.504 675.549 507.004 680.349 505.004 674.849C503.704 671.049 508.304 667.849 509.304 666.549C513.304 661.549 510.104 658.749 508.504 657.749C508.204 657.449 507.704 657.249 507.504 656.949C506.704 656.449 505.704 656.149 504.504 656.149C503.004 656.149 501.004 656.949 499.204 659.149C497.204 661.649 495.704 663.949 495.404 663.949C494.604 664.749 493.604 664.949 492.604 664.949C491.804 664.949 491.104 664.649 490.604 664.449C489.304 663.649 488.304 660.649 487.604 659.649C486.904 658.649 486.104 657.649 485.104 657.149C484.804 656.849 484.304 656.849 483.804 656.849C483.304 656.849 482.804 656.849 482.004 657.149C475.004 659.649 477.204 669.449 477.204 669.449C477.504 671.449 476.904 673.749 474.404 674.449C473.904 674.749 473.404 674.749 472.904 674.749C471.104 674.749 469.904 673.749 468.904 671.749L468.404 670.949C467.104 668.449 465.104 663.449 461.604 663.449C461.804 663.849 461.604 663.849 461.304 663.849ZM406.304 768.649C406.004 769.949 405.804 773.149 412.604 775.949C415.404 768.649 418.904 761.449 423.404 754.649C421.904 747.149 419.904 729.849 424.204 705.649C425.004 701.349 425.704 696.649 426.704 691.649C427.004 690.649 428.004 690.149 429.004 690.149C430.004 690.449 430.504 691.449 430.504 692.449C425.204 717.249 425.004 732.449 426.004 741.449C426.504 744.449 427.504 746.749 429.304 746.449C430.804 744.649 432.104 742.949 433.604 740.949C439.604 733.949 446.604 727.149 454.404 720.649C458.204 715.849 459.204 712.149 458.904 710.349C458.904 710.049 458.604 709.549 458.404 709.349C457.404 708.549 455.604 709.049 453.904 709.849C452.404 710.349 450.904 711.149 449.604 710.149C448.304 709.149 448.604 707.649 448.604 706.849C448.904 704.849 450.904 703.349 453.104 701.549C457.404 698.549 460.104 696.249 458.904 692.549C458.604 691.249 457.904 690.549 457.404 690.249C456.104 689.749 453.604 690.549 451.604 691.549C449.104 692.549 446.604 693.549 444.604 692.549C443.604 692.049 442.804 691.049 442.304 689.749C441.504 687.449 443.604 685.449 445.804 682.749C447.804 680.449 450.304 677.449 450.304 675.449C450.304 674.949 450.004 674.449 449.304 673.649C447.304 671.849 446.004 672.649 444.004 673.949C442.504 674.949 440.204 676.249 438.004 674.449C435.504 672.449 436.204 670.149 436.704 668.149C437.004 667.149 437.504 666.149 437.504 664.649C437.804 660.849 437.504 657.849 435.004 656.849C433.504 656.349 432.004 656.349 430.704 657.149C428.404 658.449 426.204 661.949 425.204 666.649C424.204 670.649 423.204 672.649 421.404 673.449C419.404 674.249 417.604 673.149 416.104 672.449C413.604 670.949 411.804 670.149 409.604 672.149C406.104 675.149 407.304 678.149 410.104 682.649C412.104 685.949 413.904 689.449 412.104 692.449C410.304 696.249 406.804 694.749 404.304 693.449C401.004 691.949 399.004 691.149 396.804 692.649C392.804 697.449 395.504 700.649 400.104 705.449C402.604 707.949 404.904 710.249 404.404 712.749C404.104 714.049 403.604 714.749 402.904 715.249C401.104 716.249 399.104 715.749 397.104 714.949C395.304 714.449 393.104 713.949 392.104 714.449C391.304 714.949 391.104 715.749 390.604 716.949C389.304 722.749 394.404 725.749 401.104 729.449C405.604 731.949 409.904 734.249 409.104 737.949C408.804 739.249 408.304 739.949 407.604 740.449C406.104 741.449 404.304 741.249 402.304 740.749C399.504 740.249 397.504 739.949 396.304 741.249C395.004 742.749 394.804 744.549 395.804 746.749C397.804 751.049 404.304 756.049 411.604 756.249C413.404 756.249 414.604 757.249 415.104 758.749C415.604 760.749 414.604 763.049 412.604 764.549C411.604 765.349 410.304 765.849 409.304 766.349C407.304 767.149 406.504 767.649 406.304 768.649ZM403.504 804.649C403.804 806.149 405.804 808.449 407.504 809.949C407.504 808.449 407.204 807.149 407.204 805.649C407.204 799.649 407.704 793.849 409.004 788.149C405.204 793.949 403.204 798.649 403.204 802.449C403.504 802.949 403.304 804.149 403.504 804.649ZM407.804 835.449C409.604 836.749 411.804 837.449 413.804 838.249C411.804 833.249 410.304 827.949 409.004 822.749H408.704C407.204 823.049 403.204 826.049 402.904 829.049C403.004 831.249 404.804 833.449 407.804 835.449ZM396.804 897.949C399.304 899.749 404.104 899.449 408.604 896.649C410.404 894.149 412.604 892.849 415.904 892.849C419.204 892.849 422.704 894.149 425.904 895.349C427.404 895.849 428.904 896.349 430.204 896.849H430.504C431.304 897.149 431.804 897.149 432.304 897.149C432.604 897.149 432.804 897.149 432.804 896.849C433.604 895.849 433.304 894.849 432.504 892.549C431.504 890.249 430.204 887.249 432.804 884.549C435.104 882.049 438.304 880.549 442.604 880.549H443.904C440.604 877.249 437.604 874.249 434.904 871.049C433.104 870.249 430.904 871.049 429.104 871.849C428.804 871.849 428.804 872.149 428.604 872.149C428.404 872.149 428.304 872.449 428.104 872.449C427.304 872.949 426.804 873.249 426.604 873.449C425.304 874.449 424.304 875.449 422.804 877.249C421.804 878.549 420.304 880.749 419.304 880.549C418.504 880.249 417.504 880.049 419.804 876.549L421.604 874.549C423.104 873.049 424.904 871.049 428.904 869.049C430.704 868.049 430.904 867.049 430.904 866.549C426.604 861.249 422.904 855.549 419.904 850.049C418.904 848.249 417.904 846.549 417.104 844.549C416.304 845.049 415.804 845.549 415.604 846.349C415.304 848.149 415.604 849.649 417.404 851.349C419.704 853.349 420.704 855.149 420.904 856.649C420.904 857.649 420.604 858.649 419.904 859.149C418.904 859.949 417.604 859.949 416.404 859.449C415.404 858.949 411.104 856.449 408.904 856.149C407.104 855.849 405.604 856.149 404.404 857.149C403.404 857.949 403.104 858.949 402.904 859.649C402.604 860.949 403.404 862.949 408.204 866.149C409.004 866.649 409.704 867.149 410.204 867.449L410.504 867.949C412.504 869.249 412.804 870.949 412.304 871.949C411.804 872.949 410.504 873.949 408.004 873.449C408.004 873.449 400.004 870.949 398.204 875.949C397.404 877.749 398.504 878.749 400.504 880.449C402.304 881.949 404.504 883.949 403.004 886.749C402.704 887.249 402.204 888.249 400.204 889.249C397.904 890.549 396.404 892.049 395.704 893.249C394.504 895.249 395.004 896.749 396.804 897.949ZM495.104 935.049C496.404 935.049 500.104 932.749 503.404 928.549C504.404 927.549 505.704 925.549 506.904 923.249H506.604C496.804 918.749 487.804 913.949 479.604 908.749C478.304 908.749 476.604 908.749 474.304 909.249C466.004 911.249 452.504 916.049 435.504 927.249C435.204 927.549 435.004 927.549 434.704 927.549C434.204 927.549 433.704 927.249 433.404 926.749C432.904 925.949 433.104 924.949 433.904 924.449C434.204 924.149 434.404 924.149 434.704 923.949C434.704 923.649 435.004 923.649 435.204 923.449L439.004 921.149C450.004 914.349 459.304 910.349 466.504 907.849C469.004 906.549 473.304 904.349 470.304 902.349L470.804 902.649L468.504 901.149C468.004 900.649 467.204 900.349 466.704 899.849C466.204 899.549 465.704 899.049 465.204 898.549C463.404 897.249 461.904 896.249 460.404 895.049C457.904 893.249 455.904 891.249 453.604 889.549C452.804 889.049 452.104 888.249 451.304 887.749C450.504 886.949 449.504 886.249 448.804 885.449C446.804 884.449 444.304 883.949 442.004 883.949C439.004 883.949 436.504 884.949 435.004 886.749C434.004 888.049 434.204 889.049 435.304 891.249C436.404 893.449 437.304 896.249 435.004 899.049C434.204 900.049 433.004 900.549 431.704 900.549C430.704 900.549 429.904 900.249 428.904 900.049H428.604C427.304 899.749 425.604 899.049 424.104 898.549C421.304 897.549 418.104 896.249 415.304 896.249C413.004 896.249 410.504 897.049 409.504 902.049C409.204 904.549 411.004 906.049 414.004 907.849C416.804 909.649 420.504 912.149 418.304 917.149C416.804 920.149 413.504 920.149 412.304 920.149C411.004 920.149 409.504 919.849 408.304 919.849C406.804 919.549 405.504 919.549 404.004 919.549C401.004 919.549 399.504 920.549 399.004 922.849C398.504 924.849 399.304 925.649 401.804 927.149C403.104 927.949 404.304 928.649 404.804 929.949C405.304 930.949 405.604 932.249 405.304 933.449C404.804 935.249 403.004 936.749 400.304 937.949C398.004 938.949 395.304 941.249 395.004 943.449C394.704 944.749 395.304 945.949 396.304 947.249C397.304 948.549 398.604 949.049 400.304 949.049C401.804 949.049 403.304 948.549 404.604 947.749C405.604 947.249 406.404 946.449 407.104 945.749C408.604 944.449 410.104 942.949 412.404 942.949C413.204 942.949 414.204 943.249 414.904 943.749C417.904 945.549 417.204 948.749 416.904 951.249C416.404 954.249 416.404 955.549 417.704 956.049C418.704 956.549 419.704 956.849 420.504 956.849C423.304 956.849 424.804 954.049 426.504 949.849C428.304 946.049 430.004 942.349 433.804 942.349C438.604 942.349 439.104 946.349 439.304 949.349C439.804 953.149 440.304 956.349 445.304 957.149C450.604 957.949 451.604 953.349 452.804 946.349C453.604 942.049 454.104 938.549 456.804 937.349C457.804 936.849 458.804 936.549 459.804 936.549C464.604 936.549 466.104 942.349 467.104 945.849C467.404 947.149 467.904 948.149 468.404 948.849C469.204 949.849 470.704 950.349 472.404 950.349C473.904 950.349 475.204 949.849 476.204 949.049C480.704 945.749 480.504 942.749 480.004 936.749C480.004 935.749 479.704 934.749 479.704 933.749C479.404 930.949 480.004 928.749 481.204 927.449C482.004 926.649 483.004 926.149 484.204 926.149C486.704 926.149 489.004 928.149 490.704 931.649C492.104 933.549 492.804 934.749 495.104 935.049ZM522.304 944.049C522.804 941.749 523.604 937.749 529.804 932.549C524.004 930.549 518.304 928.249 513.004 926.049H511.704C508.204 927.049 506.704 930.349 505.904 932.049C504.104 936.049 499.104 946.349 503.104 949.849C505.604 952.149 513.904 956.849 519.904 949.349C520.804 948.749 521.804 947.049 522.304 944.049ZM524.604 946.049C531.904 942.549 545.604 941.049 555.604 941.049C548.104 938.749 540.604 936.549 533.604 934.049C532.804 934.349 532.304 934.549 530.804 935.849C530.504 936.149 530.004 936.649 529.504 936.849C528.504 937.649 528.004 938.349 527.004 939.349C524.704 942.149 524.704 942.849 524.504 945.849C524.604 945.749 524.604 946.049 524.604 946.049ZM437.004 853.749C438.004 855.249 439.004 856.549 440.004 858.049L449.804 852.749C448.804 851.249 447.804 849.949 446.804 848.449L437.004 853.749ZM823.004 926.749C833.804 923.249 844.004 919.449 853.504 915.249L848.004 904.449C838.704 908.449 829.004 911.949 818.704 915.249L823.004 926.749ZM718.704 920.249C720.704 917.949 724.004 914.949 728.004 914.949C733.304 914.949 734.804 915.949 737.504 917.249C738.804 917.749 740.004 918.249 740.804 918.549C743.304 919.049 745.104 918.249 746.304 917.249C747.104 916.449 748.304 915.749 750.104 915.249C751.404 914.949 752.904 914.749 754.404 914.749C757.904 914.749 761.204 915.749 764.204 917.249C763.404 916.749 762.704 916.449 761.904 916.249C765.404 915.749 768.904 915.249 771.904 914.449C862.904 897.149 928.204 853.449 928.204 805.849C928.204 742.049 820.104 690.049 687.304 690.049C554.504 690.049 446.404 742.049 446.404 805.849C446.404 830.849 463.204 854.149 494.204 874.149C520.504 891.149 559.004 905.949 600.004 913.949C601.304 914.249 610.304 915.949 612.004 916.249C614.304 915.449 616.504 914.949 619.004 914.949C620.504 914.949 622.004 914.949 623.304 915.449C625.104 915.949 626.104 916.749 627.104 917.449C628.404 918.449 630.104 919.249 632.604 918.749C633.104 918.749 634.604 917.949 635.604 917.449C638.604 916.149 640.104 915.149 645.104 915.149C649.104 915.149 652.404 918.149 654.404 920.449C664.404 921.249 674.704 921.749 685.404 921.749C696.204 921.549 707.704 921.049 718.704 920.249ZM880.504 877.449C852.204 895.449 810.204 910.949 766.404 918.749C768.404 920.249 770.404 922.049 772.404 924.049L771.604 923.249C772.904 922.949 773.904 922.749 775.104 922.749C870.404 904.249 937.904 857.249 937.904 806.149C937.904 737.649 825.304 681.849 686.804 681.849C548.504 681.849 435.704 737.649 435.704 806.149C435.704 832.949 452.704 858.449 485.004 880.149C513.304 898.949 554.004 914.449 597.804 922.949C598.804 923.249 599.804 923.249 600.804 923.449C602.604 921.649 604.304 920.149 606.304 918.649C603.504 918.149 598.504 917.149 598.504 917.149C506.204 899.149 442.404 855.149 442.404 805.849C442.404 740.349 552.004 686.749 686.804 686.749C821.404 686.749 930.904 740.249 930.904 805.849C931.304 832.249 913.504 856.749 880.504 877.449ZM856.504 914.049C858.004 913.249 859.804 912.549 861.304 911.749L855.804 900.949C854.304 901.749 852.504 902.449 851.004 903.249L856.504 914.049ZM864.304 910.249C865.804 909.449 867.304 908.749 869.104 907.949L863.604 897.449C862.104 898.249 860.604 898.949 858.804 899.749L864.304 910.249ZM872.004 906.449C883.004 900.649 893.004 894.649 901.804 887.949L894.504 879.149C892.504 880.449 890.504 881.949 888.504 883.149C881.704 887.649 874.204 891.949 866.204 895.949L872.004 906.449ZM904.504 885.949C914.004 878.649 922.304 871.149 929.004 863.149L919.004 857.649C913.004 864.449 905.704 870.949 897.204 877.149C897.304 877.249 904.504 885.949 904.504 885.949ZM931.304 860.749C932.604 859.249 933.604 857.749 934.804 856.249L925.004 850.949C923.704 852.449 922.704 853.949 921.504 855.249L931.304 860.749ZM936.804 853.449C937.804 851.949 938.804 850.449 939.804 849.149L930.004 843.849C929.004 845.349 928.204 846.849 927.004 848.149L936.804 853.449ZM941.504 846.249C948.304 834.449 952.304 822.249 953.004 809.749H941.504C940.704 820.549 937.704 830.749 932.004 840.749L941.504 846.249ZM953.104 806.449V805.949C953.104 794.949 950.604 784.149 946.104 773.949L936.104 779.449C939.604 787.949 941.604 796.949 941.604 805.949V806.449C941.504 806.449 953.104 806.449 953.104 806.449ZM944.504 770.649C943.704 769.149 943.004 767.649 942.004 766.149L932.004 771.649C932.804 773.149 933.804 774.649 934.304 776.149L944.504 770.649ZM940.504 763.149C939.504 761.649 938.704 760.149 937.704 758.649L927.704 764.149C928.704 765.649 929.704 767.149 930.504 768.649L940.504 763.149ZM935.804 756.149C929.804 747.649 922.304 739.649 913.304 732.149L905.504 740.449C913.504 747.249 920.304 754.249 925.804 761.749L935.804 756.149ZM910.804 729.949C901.804 722.449 891.304 715.649 879.804 709.149L874.504 719.449C885.004 725.249 894.504 731.449 903.004 738.249C903.004 738.149 910.804 729.949 910.804 729.949ZM876.804 707.649C875.304 706.849 873.804 705.849 872.304 705.149L867.004 715.449C868.504 716.249 870.004 716.949 871.504 717.949L876.804 707.649ZM869.304 703.649C867.804 702.849 866.304 702.149 864.504 701.349L859.004 711.849C860.504 712.649 862.304 713.349 863.804 714.149L869.304 703.649ZM861.504 699.849C851.504 695.349 840.704 691.049 829.504 687.349L826.004 698.849C836.504 702.349 846.804 706.149 856.004 710.349C856.004 710.449 861.504 699.849 861.504 699.849ZM826.204 686.349C815.404 682.849 803.904 679.549 792.204 676.849L790.204 689.149C801.504 691.649 812.204 694.649 822.704 697.949L826.204 686.349ZM789.004 676.149C787.204 675.649 785.704 675.349 784.004 675.149L782.004 687.449C783.804 687.749 785.504 688.249 787.004 688.449L789.004 676.149ZM780.504 674.349C778.704 674.049 777.204 673.549 775.504 673.349L773.504 685.649C775.304 685.949 777.004 686.449 778.504 686.649L780.504 674.349ZM772.004 672.849C760.504 670.849 748.204 669.049 736.004 667.849L735.204 680.349C747.204 681.649 758.704 683.149 770.004 685.149L772.004 672.849ZM732.704 667.349C721.204 666.349 709.404 665.549 697.404 665.349V677.849C709.204 678.149 720.704 678.649 731.904 679.649L732.704 667.349ZM693.904 665.349H688.604V677.849H693.904V665.349ZM685.404 665.349H680.104V677.849H685.404V665.349ZM676.904 665.649C664.904 665.949 653.104 666.649 641.404 667.649L642.204 680.149C653.504 679.149 665.004 678.349 676.704 678.349V665.649H676.904ZM638.104 667.849C626.104 668.849 614.604 670.649 603.304 672.649L605.304 684.949C616.104 683.149 627.304 681.649 638.804 680.449L638.104 667.849ZM600.104 673.149C598.304 673.449 596.604 673.649 595.104 674.149L597.104 686.449C598.904 686.149 600.404 685.649 602.104 685.449C602.104 685.349 600.104 673.149 600.104 673.149ZM591.604 674.649C589.804 674.949 588.304 675.449 586.604 675.649L588.604 687.949C590.404 687.649 591.904 687.149 593.604 686.949C593.604 686.849 591.604 674.649 591.604 674.649ZM583.404 676.349C571.104 679.149 559.604 682.349 548.404 685.849L551.904 697.649C562.404 694.349 573.704 691.349 585.204 688.849C585.104 688.849 583.404 676.349 583.404 676.349ZM545.104 687.149C533.104 691.149 521.804 695.649 511.304 700.449L516.804 710.949C526.804 706.449 537.304 702.449 548.804 698.649C548.904 698.649 545.104 687.149 545.104 687.149ZM508.304 701.849C506.804 702.649 505.304 703.349 503.504 704.149L509.004 714.449C510.504 713.649 512.004 712.949 513.804 712.149L508.304 701.849ZM500.604 705.649C499.104 706.449 497.604 707.149 496.104 708.149L501.404 718.449C502.904 717.649 504.404 716.949 505.904 715.949L500.604 705.649ZM493.104 709.649C481.804 715.949 471.604 722.949 462.604 730.149L470.404 738.449C478.704 731.649 487.904 725.449 498.404 719.649C498.304 719.649 493.104 709.649 493.104 709.649ZM460.104 732.649C451.804 739.649 444.804 747.149 439.104 755.149L449.104 760.649C454.404 753.849 460.604 747.349 467.904 741.149L460.104 732.649ZM437.004 757.649C436.004 759.149 435.004 760.649 434.204 761.949L444.204 767.449C445.204 765.949 446.004 764.449 447.204 763.149C447.304 763.149 437.004 757.649 437.004 757.649ZM432.304 764.949C431.504 766.449 430.504 767.949 429.804 769.449L439.804 774.949C440.604 773.449 441.304 771.949 442.304 770.449L432.304 764.949ZM428.304 772.649C423.504 783.149 420.804 793.949 420.804 805.149H432.304C432.604 795.849 434.604 786.849 438.304 778.149L428.304 772.649ZM420.804 808.449C421.304 820.449 424.604 832.249 430.804 843.449L440.604 838.149C435.604 828.649 432.804 818.649 432.304 808.349C432.304 808.449 420.804 808.449 420.804 808.449ZM432.504 846.449C433.304 847.949 434.304 849.449 435.304 850.949L445.104 845.649C444.104 844.149 443.304 842.649 442.304 841.149L432.504 846.449ZM442.304 860.449C449.104 868.749 457.304 876.749 467.104 884.249L474.404 876.249C465.604 869.749 458.404 862.449 452.104 855.249L442.304 860.449ZM469.804 886.249C478.604 893.049 488.604 899.049 499.304 904.749L504.304 894.949C494.304 889.649 485.004 884.149 476.804 878.149L469.804 886.249ZM502.304 906.449C503.804 907.249 505.304 907.949 507.104 908.749L512.404 898.749C510.904 897.949 509.104 897.249 507.604 896.449L502.304 906.449ZM509.804 910.249C511.304 911.049 513.104 911.749 514.604 912.549L519.904 902.549C518.404 901.749 516.604 901.049 515.104 900.249L509.804 910.249ZM517.804 914.049C528.304 918.849 539.804 923.049 551.604 926.849L555.604 915.849C544.104 912.349 533.104 908.349 523.104 904.049C523.104 903.949 517.804 914.049 517.804 914.049ZM554.904 927.749C564.404 930.749 574.204 933.249 584.404 935.749C584.404 935.749 586.404 936.249 587.704 936.549C587.704 936.549 590.004 937.049 591.204 937.349C593.004 933.849 595.504 929.849 598.504 926.349C597.004 926.049 594.504 925.549 594.504 925.549C582.204 923.049 570.504 920.249 559.504 916.749C559.404 916.749 554.904 927.749 554.904 927.749ZM615.104 956.549C618.104 957.049 619.604 955.049 620.404 951.249C620.704 950.249 621.704 946.249 622.404 943.449C625.904 931.649 634.204 923.149 647.704 919.949C647.704 919.949 647.704 917.949 643.204 917.949C641.204 917.949 637.404 919.449 634.904 920.449C633.404 921.249 631.604 921.449 630.904 921.449C627.104 921.749 624.904 920.149 623.404 919.449C622.604 918.949 620.404 918.149 618.404 918.149C603.604 917.149 591.604 944.149 590.904 946.949C590.404 948.749 591.204 949.949 592.704 950.449C594.704 951.249 597.704 950.949 599.204 947.949C601.004 944.449 603.004 945.649 601.704 949.249C600.404 952.549 601.404 954.249 603.704 954.749C606.004 955.249 608.504 953.949 610.004 949.749C610.804 947.449 612.804 947.749 612.504 950.549C611.404 954.549 612.904 956.049 615.104 956.549ZM686.404 955.749C705.404 955.749 728.704 954.249 748.204 951.949V951.649C747.704 949.849 747.204 947.649 746.404 945.149C742.604 932.849 735.404 925.849 723.104 923.149H722.604C710.304 924.149 696.604 924.649 684.804 924.649C673.004 924.649 660.804 924.149 649.504 923.149C637.204 925.949 630.004 932.949 626.204 945.149C625.404 947.649 624.904 949.949 624.404 951.449C643.904 953.749 667.404 955.749 686.404 955.749ZM780.004 950.749C781.504 950.249 782.304 948.749 781.804 947.249C781.004 944.449 769.004 917.449 754.304 918.449C752.304 918.749 750.004 919.249 749.304 919.749C748.004 920.549 745.804 922.049 741.804 921.749C740.804 921.749 739.304 921.249 737.804 920.749C735.304 919.749 731.504 918.249 729.504 918.249C725.004 918.249 725.004 920.249 725.004 920.249C738.504 923.549 746.804 932.049 750.304 943.749C751.104 946.249 752.104 950.549 752.304 951.549C753.104 955.349 754.604 957.349 757.604 956.849C759.904 956.349 761.104 954.849 760.604 950.849C760.104 948.349 762.104 948.049 763.104 950.049C764.604 954.349 767.104 955.549 769.404 955.049C771.704 954.549 772.704 952.749 771.404 949.549C770.104 946.249 772.204 944.749 773.904 948.249C775.004 951.249 778.004 951.549 780.004 950.749ZM787.004 946.049C831.804 936.249 875.804 918.549 907.604 895.749C943.904 869.749 962.904 838.449 962.904 805.949C962.904 723.449 839.104 656.149 687.004 656.149C613.704 656.149 546.904 671.649 497.404 697.149C473.404 709.649 453.104 724.149 438.604 740.649C420.804 760.449 411.104 782.449 411.104 805.949C411.104 821.449 415.604 836.749 423.904 850.949C431.904 864.749 443.704 877.749 458.704 889.749C461.204 891.749 464.004 893.749 466.704 895.749C467.704 896.549 469.004 897.249 470.004 898.049C481.304 905.849 494.004 913.049 508.004 919.849C529.304 929.649 558.304 938.849 584.804 945.149C585.604 945.449 586.604 945.649 587.304 945.649C587.804 944.149 588.604 942.349 589.304 940.349L583.304 938.849C518.304 923.849 466.704 896.049 439.204 862.049L438.704 861.249C424.904 843.949 417.204 825.249 417.204 805.749C417.704 726.749 538.504 662.149 687.104 662.149C835.704 662.149 956.604 726.649 956.604 805.949C956.604 864.949 887.104 918.249 786.804 940.249C786.804 940.249 784.504 940.749 783.504 941.049C783.004 940.049 782.504 939.049 782.004 937.749C783.504 937.449 786.304 936.949 786.304 936.949C798.104 934.449 809.304 931.449 820.104 927.949L815.804 916.449C803.304 920.249 790.304 923.449 777.004 926.249C777.004 926.249 775.504 926.549 775.004 926.749L774.204 925.949C781.204 934.249 785.504 944.449 786.204 947.949C786.204 948.449 786.504 948.749 786.204 949.249V947.949C786.204 947.649 785.904 947.149 785.904 946.649C785.904 946.149 787.004 946.049 787.004 946.049ZM819.504 941.049C828.304 941.349 840.304 942.549 849.304 946.049V945.549C848.804 942.749 848.804 941.749 846.804 939.049C846.004 938.049 845.304 937.249 844.304 936.549C843.804 936.249 843.504 935.749 843.304 935.549C841.804 934.249 841.304 934.049 840.504 933.749C833.704 936.249 826.704 938.749 819.504 941.049ZM870.504 949.749C874.504 946.249 869.704 935.949 867.704 931.949C866.904 930.449 865.404 926.949 861.904 925.949H859.604C854.304 928.249 849.104 930.449 843.804 932.449C850.304 937.749 850.804 941.749 851.604 943.949C852.104 946.949 853.104 948.749 853.604 949.449C859.804 957.049 868.004 952.049 870.504 949.749ZM959.604 907.949C962.404 906.149 964.104 904.649 964.104 902.149C962.804 897.149 960.604 896.349 958.304 896.349C955.804 896.349 952.504 897.649 949.504 898.649C948.004 899.149 946.504 899.949 945.004 900.149H944.704C943.904 900.449 942.904 900.649 941.904 900.649C940.604 900.649 939.404 900.149 938.604 899.149C936.304 896.349 937.604 893.349 938.304 891.349C939.304 889.049 939.604 888.049 938.604 886.849C937.104 885.049 934.604 884.049 931.604 884.049C929.604 884.049 927.304 884.549 925.304 885.549C920.304 890.049 915.004 894.349 909.004 898.549C907.004 900.049 905.004 901.349 902.704 902.849L903.204 902.549C900.204 904.549 904.504 906.849 907.004 908.049C914.304 910.549 923.504 914.549 934.504 921.349L938.304 923.649C938.604 923.649 938.604 923.949 938.804 924.149C939.104 924.449 939.304 924.449 939.604 924.649C940.404 925.149 940.604 926.149 940.104 926.949C939.804 927.449 939.304 927.749 938.804 927.749C938.504 927.749 938.304 927.749 938.004 927.449C920.504 915.949 906.704 911.149 898.504 909.149C896.504 908.849 894.704 908.649 893.704 908.849C885.204 913.849 875.904 918.649 866.204 923.149C867.504 925.649 869.004 927.649 870.004 928.649C873.504 932.949 877.004 935.149 878.304 935.149C880.304 935.149 881.104 933.649 882.304 931.349C884.104 927.849 886.604 925.849 888.804 925.849C889.804 925.849 890.804 926.349 891.804 927.149C893.104 928.449 893.604 930.649 893.304 933.449C893.304 934.449 893.004 935.449 893.004 936.449C892.504 942.449 892.204 945.449 896.804 948.749C897.804 949.549 899.304 950.049 900.604 950.049C902.404 950.049 903.904 949.549 904.604 948.549C905.104 947.749 905.604 946.749 905.904 945.549C906.904 942.049 908.404 936.249 913.204 936.249C914.204 936.249 915.204 936.549 916.204 937.049C919.004 938.349 919.504 942.049 920.204 946.049C921.504 953.049 922.504 957.549 927.704 956.849C932.704 956.049 933.204 952.849 933.704 949.049C934.204 946.049 934.704 942.049 939.204 942.049C943.004 942.049 944.704 945.849 946.504 949.549C948.504 953.849 950.004 956.549 952.504 956.549C953.304 956.549 954.304 956.249 955.304 955.749C956.604 955.249 956.604 953.949 956.104 950.949C955.604 948.449 955.104 945.149 958.104 943.449C958.904 942.949 959.904 942.649 960.604 942.649C962.604 942.649 964.404 944.149 965.904 945.449C966.704 946.249 967.704 946.949 968.404 947.449C969.704 948.249 971.204 948.749 972.704 948.749C974.204 948.749 975.704 948.249 976.704 946.949C978.004 945.649 978.204 944.449 978.004 943.149C977.504 940.849 975.004 938.649 972.704 937.649C969.904 936.349 968.404 934.849 967.704 933.149C967.204 931.849 967.404 930.649 968.004 929.649C968.804 928.349 970.004 927.649 971.004 926.849C973.504 925.349 974.504 924.549 973.804 922.549C973.004 920.249 971.804 919.249 968.504 919.249C967.204 919.249 965.704 919.549 964.204 919.549C962.704 919.849 961.404 919.849 960.204 919.849C959.204 919.849 955.704 919.849 954.204 916.849C953.104 912.249 956.804 909.749 959.604 907.949ZM958.804 846.249C958.804 845.749 958.004 844.949 957.504 844.449C954.004 851.949 949.204 859.249 943.704 866.449C943.704 866.949 944.204 867.949 945.704 868.949C949.704 870.949 951.704 872.949 953.004 874.449L954.804 876.449C957.304 879.949 956.304 880.249 955.304 880.449C954.504 880.749 953.004 878.449 951.804 877.149C950.304 875.349 949.304 874.349 948.004 873.349C947.704 873.049 947.504 873.049 947.204 872.849C947.204 872.849 946.904 872.849 946.904 872.549C946.604 872.249 946.404 872.249 945.904 872.049C945.604 872.049 945.604 871.749 945.404 871.749C943.604 870.949 941.404 870.249 939.904 870.949C937.104 874.249 934.104 877.449 930.904 880.749H931.904C935.904 880.749 939.404 882.249 941.704 884.749C944.204 887.749 943.004 890.749 942.004 892.749C941.004 895.049 940.704 895.749 941.704 897.049C941.704 897.049 942.004 897.349 942.204 897.349C942.704 897.349 943.204 897.049 944.004 897.049H944.304C945.604 896.749 946.804 896.249 948.304 895.549C951.304 894.249 954.804 893.049 958.304 893.049C961.604 893.049 964.104 894.349 965.604 896.849C970.104 899.649 974.904 899.849 977.404 898.149C978.904 897.149 979.704 895.349 978.704 893.149C977.904 891.849 976.404 890.349 974.204 889.149C972.204 887.849 971.704 887.149 971.404 886.649C969.904 883.849 972.204 881.849 973.904 880.349C975.904 878.549 976.904 877.549 976.204 875.849C974.404 870.849 966.404 873.349 966.404 873.349C963.904 873.849 962.404 873.049 962.104 871.849C961.604 870.849 961.804 869.049 963.904 867.849L964.404 867.349C964.904 867.049 965.704 866.549 966.404 866.049C970.904 862.749 971.704 860.749 971.704 859.549C971.704 858.749 971.204 857.749 970.204 857.049C969.204 856.249 967.704 855.749 965.704 856.049C963.404 856.349 959.204 859.049 958.204 859.349C956.904 859.849 955.704 859.849 954.704 859.049C953.904 858.549 953.404 857.549 953.704 856.549C954.004 855.049 955.004 853.249 957.204 851.249C959.104 849.449 959.104 847.949 958.804 846.249ZM970.804 828.749C970.504 825.749 966.504 822.749 965.004 822.449H964.704C963.704 827.749 962.204 832.949 960.204 837.949C962.204 837.449 964.204 836.449 966.004 835.449C969.104 833.449 971.104 831.249 970.804 828.749ZM970.304 804.649V802.649C970.304 798.649 968.304 793.849 964.304 787.849C965.604 793.649 966.304 799.649 966.304 805.649C966.304 807.149 966.304 808.649 966.004 810.149C968.104 808.949 970.304 806.749 970.304 804.649ZM964.804 738.149C964.004 734.349 968.304 732.149 972.804 729.649C979.804 725.849 984.604 722.849 983.304 717.149C983.004 715.849 982.504 715.149 982.004 714.649C980.704 713.849 978.704 714.649 977.004 715.149C974.704 715.649 972.704 716.449 971.204 715.449C970.404 714.949 969.704 713.949 969.404 712.649C968.904 710.149 971.204 707.849 973.704 705.349C978.204 700.549 981.004 697.349 977.004 692.549C974.704 690.749 972.504 691.749 969.504 693.349C967.004 694.649 963.704 696.149 961.704 692.849C959.904 689.849 961.704 686.349 963.704 683.049C966.504 678.249 968.004 675.249 964.204 672.549C961.704 670.549 960.204 671.249 957.704 672.849C956.204 673.849 954.204 674.849 952.404 673.849C950.604 673.049 949.604 671.049 948.604 667.049C947.304 662.249 945.304 658.749 943.104 657.549C941.804 656.749 940.304 656.749 938.804 657.249C936.004 658.249 936.004 661.249 936.304 665.049V665.349C936.304 666.649 936.804 667.649 937.104 668.849C937.604 670.649 938.404 672.849 935.804 675.149C933.804 676.949 931.304 675.649 929.804 674.649C927.804 673.349 926.504 672.849 924.504 674.349C923.704 675.149 923.504 675.649 923.504 676.149C923.504 678.149 926.004 680.949 928.004 683.449C930.504 686.249 932.304 688.249 931.504 690.449C931.004 691.749 930.504 692.749 929.204 693.249C927.204 694.249 924.704 693.249 922.204 692.249C920.204 691.449 917.704 690.449 916.404 690.949C915.604 691.249 915.104 691.949 914.904 693.249C913.604 697.049 916.704 699.249 920.704 702.249C923.004 704.049 925.204 705.549 925.204 707.549C925.204 708.049 925.504 709.849 924.204 710.849C922.904 711.849 921.404 711.149 919.904 710.549C917.904 709.749 916.404 709.249 915.404 710.049C915.104 710.349 914.904 710.549 914.904 711.049C914.604 712.849 915.704 716.349 919.204 721.049C929.204 729.049 937.704 737.849 944.504 746.849C946.004 747.349 947.004 745.349 947.504 742.549C948.504 733.549 948.504 718.049 943.204 692.749C942.904 691.749 943.704 690.749 944.704 690.449C945.704 690.149 946.704 690.949 947.004 691.949C948.004 696.949 949.004 701.749 949.504 705.949C953.804 730.249 951.804 747.249 950.304 754.749C954.804 761.749 958.304 768.749 961.104 776.049C968.104 773.249 967.604 770.049 967.404 768.749C967.404 767.449 966.604 767.249 964.404 766.249C963.404 765.749 962.404 765.249 961.104 764.449C959.104 762.949 957.804 760.649 958.604 758.649C959.104 757.149 960.404 756.149 962.104 756.149C969.404 755.849 975.904 750.849 977.904 746.649C978.904 744.349 978.704 742.649 977.404 741.149C976.104 739.649 974.404 739.849 971.404 740.649C969.404 741.149 967.404 741.449 966.104 740.349C965.604 740.449 965.104 739.649 964.804 738.149ZM671.204 840.749C668.704 840.749 667.404 840.749 664.204 842.549C659.904 844.849 660.404 843.349 660.204 842.049C659.704 841.049 659.404 839.749 657.704 839.749C656.904 839.749 657.204 840.049 654.204 840.549C650.404 841.349 649.404 841.549 647.404 841.549C644.904 841.549 641.904 841.849 641.904 843.349C641.904 844.649 643.704 845.649 644.704 846.649C646.704 848.649 646.204 850.949 646.204 850.949V879.749C646.204 885.049 646.704 885.049 644.404 886.249C642.904 887.049 639.404 887.749 639.404 889.549C639.404 891.349 641.904 890.349 644.204 890.349C646.504 890.049 648.504 889.549 651.504 889.549C654.504 889.549 654.004 889.849 657.504 890.349C661.004 890.849 664.304 890.849 664.304 889.349C664.304 887.849 660.504 887.049 659.004 886.049C657.204 885.049 657.704 879.749 657.704 879.749V855.749C657.704 848.949 663.704 844.449 666.704 844.449C669.704 844.449 669.504 845.449 668.704 846.449C667.904 847.449 666.204 849.249 666.204 851.949C666.204 858.249 671.704 859.449 674.004 859.449C676.304 859.449 682.504 859.149 682.504 851.149C682.904 842.449 674.704 840.749 671.204 840.749ZM636.904 823.949C638.204 823.949 639.904 824.449 640.704 824.949C644.504 827.249 646.504 829.249 647.004 829.749C649.304 832.049 651.304 830.749 650.504 828.449C650.004 826.949 646.504 819.949 645.004 816.449C644.204 814.649 643.004 815.649 642.204 816.449C641.404 817.449 639.904 818.749 637.904 818.749H599.904C595.904 818.749 592.904 819.049 590.904 818.449C588.904 817.949 587.104 817.949 587.104 819.949C587.104 821.949 588.404 822.449 590.904 822.949C595.904 823.949 596.204 827.249 596.204 827.249V878.749C596.204 884.049 595.204 884.549 593.704 885.549C592.204 886.349 588.704 887.049 588.704 888.849C588.704 890.649 591.204 889.849 593.504 889.649C595.804 889.349 600.504 888.649 603.504 888.649C606.504 888.649 606.004 888.949 609.504 889.449C613.004 889.949 616.304 889.949 616.304 888.449C616.304 886.949 613.304 885.949 611.504 884.949C609.704 883.949 609.704 879.149 609.704 879.149V845.849H628.704C630.004 845.849 631.504 845.349 633.004 848.849C633.504 850.349 634.504 853.649 635.804 853.649C637.104 853.649 637.104 851.149 636.604 848.349C636.304 845.849 636.104 846.049 636.104 843.849C636.104 841.549 636.404 841.849 636.604 839.349C636.804 836.849 636.904 834.049 635.804 834.049C634.704 834.049 633.804 837.349 633.004 838.849C631.704 841.849 630.004 841.649 628.704 841.649H609.704V824.849H637.004V823.949H636.904ZM785.504 843.449C783.204 843.749 781.704 844.249 778.704 844.249C775.704 844.249 776.204 843.949 773.404 843.749C769.904 843.449 766.604 843.249 766.604 844.749C766.604 846.249 770.404 847.049 772.104 848.049C773.904 849.049 773.404 854.349 773.404 854.349V874.349C773.404 881.149 766.104 884.649 763.104 884.649C760.104 884.649 756.304 881.649 756.304 877.149V846.849C756.304 842.849 753.304 844.549 750.804 844.549C747.804 844.549 748.304 844.249 744.804 843.749C741.304 843.249 738.004 843.249 738.004 844.749C738.004 846.249 741.804 847.049 743.504 848.049C745.304 849.049 744.804 854.349 744.804 854.349V881.649C744.804 888.449 750.104 891.949 755.104 891.949C759.604 891.949 762.904 889.149 767.104 886.449C771.104 883.949 771.104 885.649 771.604 886.749C772.104 887.849 771.104 890.049 773.404 889.749L778.904 889.249C781.404 889.249 787.704 890.749 787.704 889.249C787.704 887.949 785.704 887.249 784.704 886.249C782.704 884.249 783.204 881.249 783.204 881.249V854.249C783.204 848.949 782.404 848.949 785.004 847.749C786.504 846.949 788.804 845.749 788.804 844.449C789.204 842.449 787.704 843.249 785.504 843.449ZM739.904 886.949C739.104 887.249 736.904 889.949 729.404 890.249C721.404 890.249 717.904 882.749 717.904 882.749C717.904 882.749 712.404 891.049 702.104 891.049C691.804 891.049 683.604 886.049 683.604 874.749C683.604 863.449 695.904 856.249 706.604 856.249H711.604C711.604 856.249 711.304 852.449 709.304 849.449C707.304 846.449 704.804 844.949 702.304 844.949C700.004 844.949 700.304 845.749 700.304 845.749C700.304 845.749 701.804 846.249 701.604 849.549C701.604 851.349 699.304 855.349 693.804 855.049C689.804 855.049 689.004 851.749 689.004 851.049C689.004 845.749 697.004 841.249 705.504 841.249C712.504 841.249 718.304 844.749 721.304 849.549C725.804 856.549 728.104 869.049 729.604 873.849C731.104 878.649 735.404 885.149 738.604 885.849C740.204 885.749 740.904 886.749 739.904 886.949ZM705.404 884.949C710.904 884.649 717.204 880.949 716.204 870.949C715.404 862.649 710.704 859.449 705.704 859.449C700.204 859.449 695.204 864.949 695.404 872.749C695.904 880.749 699.904 885.249 705.404 884.949ZM554.104 731.949C563.604 731.949 579.404 733.749 579.404 754.449C579.404 773.249 560.904 777.749 555.904 778.949C550.904 779.949 546.404 780.249 544.104 780.249V797.649C544.104 797.649 544.104 802.449 545.904 803.449C547.704 804.449 550.704 805.749 550.704 807.249C550.704 808.749 547.204 808.749 543.904 808.249C540.404 807.749 540.904 807.449 537.904 807.449C534.904 807.449 529.904 808.249 527.904 808.449C525.604 808.749 523.104 809.449 523.104 807.649C523.104 805.849 526.604 805.349 528.104 804.349C529.604 803.549 530.604 802.849 530.604 797.549V741.249C530.604 741.249 529.804 738.449 527.104 737.449C524.604 736.649 523.304 735.649 523.304 733.949C523.304 731.949 525.304 732.149 527.104 732.449C529.104 732.949 530.404 732.749 534.104 732.749C537.104 732.949 544.604 731.949 554.104 731.949ZM544.104 775.449C551.104 775.149 564.604 774.449 564.604 756.149C564.604 736.649 554.304 736.149 552.104 736.149C549.804 736.149 543.804 736.149 543.804 736.949C544.104 737.949 544.104 758.449 544.104 775.449ZM628.604 808.249C630.904 807.949 634.104 807.449 637.104 807.449C640.104 807.449 639.604 807.749 643.104 808.249C646.604 808.749 650.104 808.749 650.104 807.249C650.104 805.749 646.304 804.949 644.604 803.949C642.904 802.949 643.304 797.649 643.304 797.649V736.849C643.304 730.049 644.304 729.549 642.804 728.849C641.504 728.349 641.304 730.149 638.304 730.849C634.504 731.649 633.804 731.349 631.804 731.349C629.304 731.349 626.304 732.149 626.304 733.649C626.304 734.949 628.104 735.949 629.104 736.949C631.104 738.949 630.604 741.249 630.604 741.249V798.049C630.604 803.049 630.304 803.549 628.804 804.549C627.304 805.349 623.804 806.049 623.804 807.849C623.804 809.649 626.404 808.449 628.604 808.249ZM778.204 808.949C780.204 808.649 782.504 808.149 785.504 808.149C788.504 808.149 788.004 808.449 791.504 808.949C795.004 809.449 798.504 809.449 798.504 807.949C798.504 806.449 794.704 805.649 793.004 804.649C791.204 803.649 791.704 798.349 791.704 798.349V774.349C791.704 767.549 799.704 764.049 802.704 764.049C805.704 764.049 809.504 767.049 809.504 771.549V798.849C809.504 804.149 810.304 804.149 807.704 805.349C806.204 806.149 802.704 806.849 802.704 808.649C802.704 810.449 805.204 809.449 807.504 809.449C809.804 809.149 811.804 808.649 814.804 808.649C817.804 808.649 817.304 808.949 820.804 809.449C824.304 809.949 827.804 809.949 827.804 808.449C827.804 806.949 824.004 806.149 822.504 805.149C820.704 804.149 821.204 798.849 821.204 798.849V771.649C821.204 764.849 816.204 762.149 809.904 760.849C806.604 760.049 802.404 760.549 797.604 762.349C793.104 764.149 793.304 763.149 793.104 762.049C792.604 761.049 793.604 758.749 791.304 759.049C788.804 759.349 790.804 759.349 787.804 759.849C784.004 760.649 783.004 760.849 781.004 760.849C778.504 760.849 775.504 761.149 775.504 762.649C775.504 763.949 777.304 764.949 778.304 765.949C780.304 767.949 779.804 770.249 779.804 770.249V799.049C779.804 804.349 780.604 804.349 778.004 805.549C776.504 806.349 773.004 807.049 773.004 808.849C773.504 810.249 776.004 809.249 778.204 808.949ZM683.904 809.749C686.204 809.449 688.204 808.949 691.204 808.949C694.204 808.949 693.704 809.249 697.204 809.749C700.704 810.249 704.004 810.249 704.004 808.749C704.004 807.249 700.204 806.449 698.704 805.449C696.904 804.449 697.204 799.149 697.204 799.149V775.149C697.204 768.349 703.204 763.649 706.204 763.649C709.204 763.649 709.004 764.649 708.204 765.649C707.204 766.649 705.704 768.449 705.704 771.149C705.704 777.449 711.204 778.649 713.504 778.649C716.004 778.649 722.004 778.349 722.004 770.349C722.004 762.049 713.704 760.049 710.204 760.049C707.704 760.049 706.404 760.049 703.404 761.849C699.104 764.149 699.604 762.649 699.404 761.349C698.904 760.349 698.604 759.049 697.104 759.049C696.304 759.049 696.604 759.349 693.604 759.849C689.804 760.649 688.804 760.849 686.804 760.849C684.304 760.849 681.304 761.349 681.304 762.849C681.304 764.149 683.104 765.149 684.104 766.149C686.104 768.149 685.904 770.449 685.904 770.449V799.249C685.904 804.549 686.704 804.549 684.104 805.749C682.604 806.749 679.104 807.249 679.104 809.049C679.104 810.849 681.704 809.749 683.904 809.749ZM623.104 786.149C621.804 803.649 610.104 809.449 598.604 808.449C587.104 807.649 573.804 797.949 574.804 781.649C576.104 765.349 588.104 757.349 599.804 758.349C607.604 758.949 624.404 768.649 623.104 786.149ZM587.604 764.949C582.104 768.749 581.604 774.249 591.404 788.749C601.204 803.249 606.404 805.049 611.904 801.249C617.404 797.449 617.904 791.949 608.104 777.449C598.404 763.149 593.104 761.149 587.604 764.949ZM748.004 808.449C736.504 807.649 723.204 797.949 724.204 781.649C725.504 765.349 737.204 757.349 749.204 758.349C757.004 758.849 773.704 768.649 772.504 786.149C771.204 803.649 759.504 809.249 748.004 808.449ZM736.904 764.949C731.404 768.749 730.904 774.249 740.704 788.749C750.204 803.249 755.704 805.049 761.204 801.249C766.704 797.449 767.204 791.949 757.404 777.449C747.704 763.149 742.404 761.149 736.904 764.949ZM649.904 763.949H654.904V797.649C654.904 806.149 657.704 810.449 666.704 810.449C675.704 810.449 677.204 801.949 677.204 799.949C677.204 797.949 675.704 798.149 675.204 799.449C674.704 801.249 672.204 804.249 670.704 804.249C668.904 804.249 667.404 802.949 667.404 797.749V763.749H676.404C678.704 763.749 677.904 760.749 676.404 760.749H667.404V745.749C667.404 743.949 665.104 743.949 665.104 745.749C665.104 748.249 662.604 753.749 659.104 757.249C655.604 760.749 650.804 761.249 649.304 761.249C647.704 761.149 647.904 763.949 649.904 763.949ZM847.504 809.949C837.204 809.949 829.004 804.949 829.004 793.649C829.004 782.349 841.304 775.149 852.004 775.149H857.304C857.304 775.149 857.004 771.349 855.004 768.349C852.704 765.349 850.504 763.849 848.004 763.849C845.704 763.849 846.004 764.649 846.004 764.649C846.004 764.649 847.504 765.149 847.304 768.449C847.304 770.249 845.304 774.249 839.504 773.949C835.504 773.949 834.704 770.649 834.704 769.949C834.704 764.649 842.704 760.149 851.204 760.149C858.204 760.149 864.004 763.649 867.004 768.449C871.504 775.449 873.804 787.949 875.304 792.749C876.804 797.549 881.104 804.049 884.304 804.749C885.804 805.049 886.604 806.049 885.604 806.549C884.604 806.849 882.604 809.549 875.104 809.849C867.104 809.849 863.604 802.349 863.604 802.349C863.604 802.349 857.804 809.949 847.504 809.949ZM851.304 778.649C845.804 778.649 840.804 784.149 841.004 791.949C841.304 799.749 845.304 804.249 851.004 803.949C856.504 803.649 862.804 799.949 861.804 789.949C861.004 781.949 856.304 778.649 851.304 778.649Z" fill="white"/>
</svg>
