<svg width="1359" height="1642" viewBox="0 0 1359 1642" fill="none" xmlns="http://www.w3.org/2000/svg">
<path d="M412 730.646H455.189L481.01 786.021L507.98 730.646H550.586L494.307 838.207H467.682L412 730.646Z" fill="white"/>
<path d="M595.843 838.206V730.645H555.539V838.206H595.843Z" fill="white"/>
<path d="M575.9 716.593C590.429 716.593 602.203 704.825 602.203 690.296C602.203 675.767 590.429 664 575.9 664C561.378 664 549.603 675.768 549.603 690.297C549.603 704.826 561.378 716.593 575.9 716.593Z" fill="white"/>
<path d="M616.988 697.302L655.841 697.013L655.83 730.645H679.059L679.32 761.669L655.842 761.952L655.592 838.206H616.445L616.695 761.952H605.102L605.097 730.645H616.774L616.988 697.302Z" fill="white"/>
<path d="M688.898 730.646H729.191L728.908 746.013C728.908 746.013 740.652 726.002 768.758 728.327C768.621 746.444 768.769 749.777 768.758 764.855C756.287 759.056 728.941 764.458 728.828 781.963C728.748 793.561 728.748 838.206 728.748 838.206H688.932L688.898 730.646Z" fill="white"/>
<path d="M812.066 728.679C829.196 724.812 847.234 730.357 859.501 742.124C859.376 738.326 859.399 730.645 859.399 730.645H895.734L895.201 838.206H858.923C858.923 838.206 858.571 830.474 858.956 826.324C843.571 845.461 815.399 847.638 794.754 834.38C779.415 824.522 771.864 809.785 769.483 792.647C765.561 764.402 782.896 735.272 812.066 728.679ZM834.491 811.599C849.025 811.599 860.794 799.819 860.794 785.297C860.794 770.774 849.025 759 834.491 759C819.969 759 808.201 770.774 808.201 785.297C808.201 799.819 819.968 811.599 834.491 811.599Z" fill="white"/>
<path d="M935.709 843.524C950.232 843.524 962 831.745 962 817.223C962 802.699 950.232 790.92 935.709 790.92C921.176 790.92 909.407 802.699 909.407 817.223C909.407 831.745 921.176 843.524 935.709 843.524Z" fill="white"/>
</svg>
