<svg width="641" height="816" viewBox="0 0 641 816" fill="none" xmlns="http://www.w3.org/2000/svg">
<rect x="169.453" y="185.478" width="305.343" height="445.045" rx="152.672" stroke="#E8E4DF" stroke-width="2"/>
<rect x="160.14" y="175" width="323.97" height="466" rx="161.985" stroke="#E8E4DF" stroke-width="2"/>
<rect x="178.767" y="194.791" width="286.716" height="426.418" rx="143.358" stroke="#E8E4DF" stroke-width="2"/>
<path fill-rule="evenodd" clip-rule="evenodd" d="M315.261 303.866C305.373 293.801 296.071 292.814 277.796 299.889C274.562 301.141 265.691 306.124 263.056 308.168C247.997 319.852 242.776 331.791 247.318 344.156C251.35 355.131 262.943 361.937 274.926 360.365C279.311 359.789 283.847 358.746 287.626 357.443C291.119 356.239 290.71 356.081 292.616 359.374C294.337 362.347 294.299 362.144 293.433 363.821C292.326 365.963 293.573 368.463 295.76 368.484C296.763 368.493 296.792 368.553 298.226 373.579C300.677 382.169 303.114 385.778 305.524 384.386C306.668 383.726 306.984 385.521 306.013 387.164C303.567 391.301 305.969 395.707 310.344 395.109C312.422 394.825 312.258 394.759 313.038 396.197C313.65 397.325 335.004 434.775 343.555 449.716C345.249 452.676 348.238 457.715 350.197 460.914C354.452 467.861 354.419 466.856 350.467 469.138C347.254 470.993 347.296 470.988 345.233 469.77C343.859 468.959 343.914 468.95 341.493 470.412C340.334 471.113 336.786 473.03 333.608 474.674C325.635 478.797 326.387 478.278 327.096 479.164C328.621 481.072 328.639 480.945 326.691 482.062C324.675 483.218 324.38 483.227 322.947 482.185C321.735 481.303 321.379 481.282 320.174 482.023C319.587 482.384 318.914 482.657 318.57 482.673C316.314 482.777 324.293 497.928 327.78 500.161C329.579 501.313 329.578 501.312 328.95 502.137C328.358 502.914 328.441 503.098 332.161 509.243C339.741 521.763 340.483 522.794 342.878 524.145C347.418 526.705 348.142 526.843 350.822 525.662C352.381 524.976 352.424 524.791 351.427 523.064C350.809 521.993 350.613 521.759 350.545 522.009C350.419 522.483 350.093 522.604 349.785 522.292C348.352 520.842 353.521 519.107 355.469 520.385C359.419 522.975 362.356 520.485 359.987 516.552C357.413 512.277 357.439 512.619 359.581 511.383C361.706 510.156 361.158 510.002 365.265 512.978C368.753 515.505 368.324 515.42 370.686 514.06C373.075 512.686 373.086 512.661 372.186 510.697C371.25 508.653 375.804 505.337 377.122 507.103C379.041 509.671 381.789 509.736 385.947 507.312C386.292 507.111 386.957 506.784 387.424 506.585C388.66 506.061 391.72 503.586 392.269 502.667C393.349 500.859 396.347 506.335 353.116 431.125C330.801 392.303 326.004 383.774 326.235 383.334C326.669 382.509 326.973 382.612 327.598 383.794C328.459 385.419 329.116 385.031 329.669 382.568C330.58 378.519 328.294 376.278 323.51 376.534C321.813 376.624 321.318 375.957 321.671 374.055C322.25 370.938 320.328 367.309 316.096 363.527C312.372 360.2 312.357 360.178 312.698 358.804C313.412 355.933 312.354 354.376 309.57 354.202C307.729 354.087 307.658 354.021 305.863 350.746C304.179 347.676 304.045 347.242 304.831 347.411C305.5 347.555 305.926 347.196 310.443 342.688C318.841 334.307 322.146 327.455 321.693 319.36C321.409 314.273 318.427 307.089 315.261 303.866ZM319.183 311.263C319.989 313.336 320.697 315.915 320.744 316.953C320.769 317.502 320.86 318.543 320.948 319.267C321.103 320.554 320.959 321.585 320.637 321.498C320.548 321.475 320.493 320.581 320.514 319.512C320.537 318.353 320.438 317.373 320.267 317.083C320.021 316.665 319.981 316.826 319.982 318.246C319.983 320.03 319.92 320.195 319.427 319.702C318.8 319.075 318.493 318.322 318.206 316.7C318.047 315.8 317.767 314.689 317.584 314.231C317.351 313.648 317.387 314.204 317.703 316.095C318.476 320.714 318.463 321.461 317.533 325.137C316.807 328.009 316.041 329.924 315.659 329.822C315.593 329.804 315.906 328.731 316.354 327.438C317.361 324.525 317.225 324.319 316.118 327.081C314.119 332.069 312.337 334.002 304.62 339.551C300.508 342.507 286.466 350.418 285.301 350.434C284.572 350.444 285.073 350.115 288.763 348.165C294.034 345.378 302.973 340.206 303.165 339.832C303.359 339.454 302.79 339.754 296.454 343.37C292.164 345.819 291.023 346.369 290.852 346.073C290.815 346.009 292.524 344.983 294.651 343.793C298.542 341.616 299.187 341.097 297.447 341.542C295.734 341.981 288.841 346.479 289.714 346.589C290.303 346.663 290.444 346.549 287.046 348.736C281.182 352.51 280.455 352.855 276.321 353.832C271.8 354.902 269.067 354.875 264.854 353.721C262.68 353.126 261.985 353.021 261.629 353.234C260.292 354.032 255.065 349.497 252.825 345.597C251.335 343.003 249.817 338.284 249.957 336.683C249.986 336.353 249.952 335.35 249.881 334.453C249.714 332.328 250.353 329.042 251.425 326.519C252.485 324.025 252.57 323.699 252.025 324.212C250.965 325.209 251.743 323.216 253.011 321.686C253.379 321.241 253.92 320.495 254.213 320.027C254.506 319.56 255.955 317.816 257.434 316.153C258.912 314.49 260.381 312.779 260.698 312.35C264.378 307.379 280.645 299.376 290.801 297.542C299.404 295.988 309.22 298.53 311.787 302.976C312.273 303.818 312.514 304.078 312.841 304.113C313.075 304.138 313.315 304.244 313.375 304.348C313.548 304.647 314.74 305.418 314.893 305.329C315.085 305.218 315.015 305.127 314.095 304.284C313.492 303.731 313.277 303.421 313.242 303.052C313.197 302.59 313.236 302.599 313.856 303.2C315.798 305.08 318.181 308.687 319.183 311.263ZM317.723 309.605C317.651 309.647 317.674 309.825 317.776 310.001C317.877 310.177 318.061 310.608 318.185 310.958C318.338 311.394 318.433 311.51 318.486 311.324C318.579 310.998 317.912 309.496 317.723 309.605ZM319.015 312.837C318.94 313.102 319.395 315.169 319.61 315.541C319.905 316.053 319.945 315.457 319.675 314.558C319.507 313.999 319.307 313.322 319.23 313.054C319.136 312.722 319.067 312.653 319.015 312.837ZM314.736 306.269C313.547 304.946 313.768 305.634 315.058 307.273C315.78 308.189 316.367 309.324 317.869 312.703C318.23 313.517 318.23 313.517 317.946 312.431C317.623 311.196 315.498 307.117 314.736 306.269ZM307.913 299.121C307.678 299.242 306.08 298.391 306.183 298.199C306.238 298.097 306.645 298.189 307.088 298.403C307.914 298.802 308.145 299.003 307.913 299.121ZM308.973 302.867C306.578 301.121 305.321 300.421 303.337 299.726C302.596 299.466 301.476 298.952 300.849 298.583C299.776 297.951 299.27 298.038 300.023 298.725C300.298 298.975 300.147 298.996 299.116 298.849C297.988 298.687 297.912 298.647 298.252 298.385C298.93 297.862 298.494 297.821 295.659 298.138C293.309 298.401 292.853 298.507 292.856 298.79C292.86 299.082 292.519 299.223 290.346 299.826C285.261 301.236 282.624 302.553 277.601 306.187C276.655 306.872 272.783 309.208 268.767 311.518C258.115 317.644 254.303 321.078 253.322 325.43C253.222 325.876 252.93 326.676 252.674 327.207C252.105 328.39 251.635 329.915 251.542 330.88C251.473 331.602 251.473 331.602 251.838 330.743C252.039 330.271 252.251 329.897 252.309 329.913C252.517 329.968 251.961 332.093 251.676 332.324C251.517 332.455 251.37 332.817 251.351 333.129C251.316 333.689 251.319 333.69 251.596 333.245C251.968 332.646 252.011 332.935 251.854 334.97C251.662 337.462 253.153 342.04 255.225 345.325C261.952 355.986 277.586 356.06 286.641 345.474C289.403 342.245 289.376 342.27 291.131 341.239C292.715 340.309 293.02 340.203 295.674 339.657C306.556 337.418 311.646 333.309 314.564 324.406C315.141 322.645 315.342 322.326 315.596 322.767C316.418 324.191 316.624 317.85 315.855 314.775C314.542 309.524 311.299 304.556 308.325 303.238C306.732 302.532 303.757 300.633 304.461 300.772C305.322 300.942 307.776 302.306 309.405 303.521C310.948 304.671 311.04 304.727 311.088 304.548C311.105 304.484 310.153 303.728 308.973 302.867ZM320.345 321.572C320.531 322.24 320.471 322.612 320.029 323.56C319.383 324.943 319.165 325.147 319.398 324.152C319.491 323.755 319.544 323.033 319.516 322.549C319.462 321.601 319.797 320.197 319.996 320.541C320.062 320.657 320.22 321.121 320.345 321.572ZM315.104 313.426C315.501 314.646 315.747 316.684 315.433 316.155C315.35 316.016 315.058 315.161 314.785 314.256C313.621 310.405 311.326 306.967 308.62 305.023C307.162 303.976 306.882 303.577 307.945 304.062C310.234 305.108 313.999 310.032 315.104 313.426ZM314.029 314.762C314.326 316.296 314.029 315.877 312.906 313.175C312.224 311.535 311.966 310.727 312.154 310.816C312.57 311.012 313.808 313.617 314.029 314.762ZM310.811 309.049C309.244 307.54 308.188 306.648 307.067 305.888C305.655 304.93 305.507 304.671 306.643 305.145C307.945 305.689 310.376 307.837 311.041 309.031C311.328 309.547 311.328 309.547 310.811 309.049ZM318.937 323.828C318.807 324.481 318.86 324.875 319.144 325.368C319.744 326.407 319.737 326.724 319.121 326.487C318.392 326.207 318.007 326.723 318.514 327.3C318.836 327.667 318.832 327.93 318.489 329.179C318.033 330.838 317.833 330.864 318.102 329.23C318.36 327.665 318.095 327.788 317.144 329.672C315.208 333.512 310.493 338.783 307.395 340.572C306.023 341.364 306.471 340.827 308.746 338.95C314.127 334.511 316.663 330.81 318.076 325.332C318.458 323.851 318.798 322.623 318.832 322.603C319.037 322.485 319.087 323.074 318.937 323.828ZM315.983 318.781C315.731 319.605 315.583 319.414 315.602 318.29C315.617 317.362 315.635 317.328 315.887 317.76C316.036 318.016 316.079 318.47 315.983 318.781ZM312.925 314.828C316.442 325.429 308.592 335.868 295.457 338.058C291.81 338.666 289.724 339.859 286.68 343.081C278.989 351.22 270.235 353.826 262.938 350.148C253.666 345.473 251.016 333.132 257.741 325.94C261.712 321.692 264.498 320.089 271.584 317.975C275.827 316.71 278.72 314.95 280.528 312.537C289.955 299.947 308.422 301.253 312.925 314.828ZM301.812 300.369C301.554 300.499 298.311 299.7 298.359 299.518C298.387 299.416 299.165 299.484 300.09 299.668C301.625 299.974 302.163 300.193 301.812 300.369ZM316.313 333.79C315.639 334.866 314.153 336.542 313.829 336.59C313.734 336.605 314.472 335.452 315.47 334.028C317.309 331.405 317.914 331.234 316.313 333.79ZM295.824 299.745C295.59 299.88 295.353 299.914 295.299 299.821C295.245 299.727 295.316 299.584 295.457 299.502C295.764 299.325 295.583 298.945 295.134 298.825C294.883 298.758 294.869 298.705 295.072 298.588C295.449 298.37 295.656 298.469 295.972 299.016C296.203 299.417 296.178 299.54 295.824 299.745ZM293.858 296.626C293.684 296.601 293.099 296.654 292.557 296.745C291.499 296.922 291.052 296.712 291.932 296.45C292.601 296.251 293.213 296.21 293.793 296.323C294.296 296.422 294.355 296.697 293.858 296.626ZM313.537 333.281C310.522 337.572 290.777 350.491 284.495 352.283C283.317 352.618 283.967 352.009 285.745 351.11C299.189 344.315 308.99 337.844 313.001 333.116C314.049 331.881 314.041 331.888 314.164 332.101C314.214 332.188 313.932 332.719 313.537 333.281ZM293.939 301.402C293.142 301.566 292.43 301.477 292.805 301.261C292.875 301.22 294.468 300.907 294.975 300.834C295.765 300.72 294.871 301.21 293.939 301.402ZM292.85 300.403C290.989 300.851 290.405 300.869 291.078 300.458C291.664 300.1 293.679 299.77 293.817 300.01C293.862 300.087 293.427 300.264 292.85 300.403ZM291.905 298.569C287.008 299.305 283.737 300.621 278.984 303.77C277.348 304.853 273.465 307.207 270.353 309.002C263.5 312.955 258.336 316.512 258.083 317.454C257.995 317.781 258.434 317.513 259.42 316.639C259.833 316.272 263.898 313.742 268.452 311.017C273.007 308.292 277.882 305.261 279.286 304.281C282.449 302.073 284.639 301.054 289.322 299.608C292.474 298.635 293.077 298.392 291.905 298.569ZM312.612 339.605C312.53 339.653 312.29 339.628 312.078 339.549C311.799 339.446 311.526 339.536 311.089 339.873C310.602 340.248 310.496 340.275 310.541 340.008C310.638 339.443 311.297 338.949 311.909 338.984C312.451 339.014 312.92 339.428 312.612 339.605ZM288.845 301.412C286.626 302.045 282.082 304.576 278.509 307.169C276.652 308.517 274.855 309.637 271.989 311.234C263.994 315.688 261.121 317.421 259.615 318.697C258.324 319.79 257.819 320.087 257.926 319.689C258.138 318.897 260.557 317.29 268.496 312.668C274.866 308.959 277.117 307.569 278.721 306.355C282.666 303.37 288.767 300.322 289.222 301.109C289.275 301.202 289.107 301.337 288.845 301.412ZM307.004 343.723C306.599 343.972 306.59 343.965 306.77 343.539C306.97 343.068 307.558 342.641 307.888 342.73C308.116 342.791 307.628 343.34 307.004 343.723ZM327.87 379.168C327.087 378.732 325.846 378.336 325.639 378.456C325.558 378.502 325.903 378.738 326.406 378.979C327.812 379.653 328.481 380.135 328.818 380.719C329.297 381.548 328.786 381.442 327.723 380.49C327.198 380.019 326.323 379.478 325.78 379.286C325.237 379.094 324.613 378.761 324.394 378.546C324.082 378.239 323.912 378.216 323.614 378.439C323.404 378.596 323.036 378.739 322.796 378.757C321.547 378.852 313.527 382.627 311.971 383.852C310.498 385.012 310.148 385.179 309.408 385.073C309.041 385.02 308.757 384.92 308.776 384.85C308.864 384.52 309.959 383.687 310.241 383.735C310.448 383.771 310.779 383.542 311.272 383.021C315.161 378.918 324.031 376.376 327.466 378.381C328.575 379.027 328.958 379.775 327.87 379.168ZM328.542 382.852C328.445 382.96 328.124 382.681 327.697 382.116C327.318 381.615 326.651 380.922 326.215 380.575C325.287 379.838 325.417 379.599 326.446 380.152C327.709 380.831 328.936 382.412 328.542 382.852ZM295.356 348.217C289.101 351.838 288.105 352.342 287.903 351.992C287.832 351.869 289.025 351.152 291.729 349.694C293.89 348.529 297.628 346.453 300.036 345.08C303.606 343.046 304.162 342.767 303.049 343.57C302.299 344.111 298.837 346.202 295.356 348.217ZM316.812 366.049C316.593 366.175 315.506 365.144 315.079 364.405C314.486 363.378 314.667 363.439 315.754 364.632C316.769 365.746 316.94 365.975 316.812 366.049ZM318.294 368.849C318.394 369.269 318.371 369.959 318.244 370.382C318.013 371.152 318.013 371.152 317.956 370.049C317.924 369.442 317.736 368.543 317.538 368.05C317.297 367.449 317.271 367.203 317.458 367.301C317.84 367.5 318.08 367.946 318.294 368.849ZM309.34 356.042C306.966 356.176 305.329 356.737 301.846 358.61C298.299 360.518 297.896 360.316 301.281 358.328C302.332 357.711 303.151 357.137 303.103 357.053C303.052 356.965 301.796 357.656 300.153 358.674C297.042 360.604 296.337 360.712 298.849 358.874C303.006 355.833 308.919 354.006 310.266 355.348C310.886 355.965 310.9 355.954 309.34 356.042ZM314.041 363.33C313.874 363.426 311.233 360.633 311.29 360.42C311.365 360.141 311.66 360.367 312.726 361.518C313.987 362.879 314.233 363.219 314.041 363.33ZM317.263 369.325C317.505 371.809 314.837 374.22 309.964 375.924C307.293 376.857 305.167 375.998 304.085 373.548C303.858 373.033 302.721 370.502 301.558 367.923C300.396 365.344 299.469 363.128 299.499 362.998C299.63 362.435 300.346 363.728 302.017 367.545C303.587 371.131 304.528 373.043 305.522 374.662C306.873 376.863 313.639 374.798 316.011 371.461C317.24 369.731 316.986 369.045 313.601 364.948C311.252 362.105 308.675 358.604 308.605 358.162C308.48 357.365 309.229 358.113 310.62 360.172C311.484 361.451 312.647 362.871 313.917 364.197C316.194 366.573 317.135 368.017 317.263 369.325ZM361.735 447.402C391.284 498.789 391.462 499.105 390.69 498.764C389.879 498.406 323.957 383.329 324.325 382.914C324.616 382.586 324.988 383.176 328.931 390.193C331.079 394.017 345.841 419.76 361.735 447.402ZM316.036 369.845C315.917 372.677 308.764 376.048 306.454 374.36C305.37 373.57 299.974 362.359 300.524 362.042C300.822 361.87 301.393 362.916 303.232 367.003C306.835 375.008 307.342 375.372 311.84 373.17C315.899 371.183 316.286 369.297 313.279 366.157C311.902 364.719 307.757 359.191 307.748 358.78C307.737 358.281 307.995 358.554 309.481 360.621C310.554 362.111 312.476 364.391 314.572 366.66C315.215 367.356 316.063 369.201 316.036 369.845ZM392.052 501.553C391.801 502.73 390.64 503.78 387.715 505.476C386.192 506.358 384.974 507.127 385.007 507.185C385.173 507.473 380.824 508.487 380.51 508.233C380.133 507.928 380.186 507.885 381.356 507.539C385.628 506.277 390.721 503.259 391.126 501.749C391.421 500.649 390.808 500.327 389.142 500.707C384.357 501.797 380.064 504.673 379.637 507.074C379.505 507.818 379.484 507.839 379.12 507.613C378.08 506.967 379.899 504.4 382.608 502.69C387.89 499.354 392.643 498.782 392.052 501.553ZM303.624 348.109C303.701 348.242 303.687 348.395 303.593 348.45C303.499 348.504 303.245 348.241 303.029 347.866C302.812 347.491 302.706 347.144 302.792 347.094C302.996 346.976 303.35 347.258 303.425 347.599C303.458 347.747 303.547 347.976 303.624 348.109ZM276.396 304.297C275.582 304.837 274.901 305.326 274.883 305.384C274.818 305.59 276.693 304.397 277.281 303.86C277.704 303.472 277.448 303.599 276.396 304.297ZM305.458 351.692C305.35 351.754 305.021 351.296 304.592 350.487C303.695 348.79 303.936 348.65 304.896 350.312C305.336 351.074 305.563 351.631 305.458 351.692ZM319.484 377.213C318.581 378.26 317.729 378.286 317.325 377.28C317.104 376.729 317.588 376.369 318.421 376.463C318.801 376.506 319.23 376.473 319.374 376.39C319.846 376.118 319.924 376.704 319.484 377.213ZM356.792 441.391C374.688 472.628 389.357 498.315 389.39 498.473C389.728 500.085 385.958 493.674 363.152 453.858C353.887 437.682 348.055 427.628 349.175 429.763C351.185 433.593 376.306 477.963 384.02 491.306C386.472 495.548 388.415 499.055 388.338 499.099C386.28 500.287 385.913 499.987 382.596 494.402C378.88 488.145 378.748 488.292 382.271 494.763C384.78 499.372 385.215 500.355 384.684 500.212C384.461 500.153 372.746 479.673 365.808 467.213C362.594 461.442 350.75 440.643 339.486 420.992C320.394 387.683 318.659 384.575 319.242 384.732C319.49 384.799 334.549 411.001 355.01 446.966C377.192 485.955 378.286 487.854 378.495 487.734C378.565 487.693 377.705 486.016 376.583 484.007C375.461 481.998 372.185 476.09 369.302 470.879C366.42 465.667 354.158 444.156 342.055 423.077C318.369 381.829 319.699 384.284 320.829 383.861C322.933 383.073 323.582 383.13 324.049 384.147C324.162 384.394 338.897 410.154 356.792 441.391ZM314.605 369.823C314.323 370.873 313.434 371.715 311.83 372.451C310.271 373.167 309.936 372.979 311.316 372.164C312.921 371.215 313.805 370.4 313.903 369.779C313.998 369.183 313.352 367.819 313.056 367.99C312.962 368.044 313.018 368.319 313.181 368.6C313.737 369.564 313.409 370.06 311.477 371.175C308.109 373.119 307.684 372.894 305.559 368.037C304.744 366.174 303.722 363.935 303.288 363.06C302.099 360.665 302.051 360.464 302.727 360.722C303.269 360.93 303.269 360.93 303.254 360.443C303.239 359.982 303.318 359.919 304.772 359.222C306.672 358.311 306.561 358.274 307.964 360.29C309.292 362.2 310.854 364.145 312.615 366.085C314.43 368.084 314.856 368.885 314.605 369.823ZM324.202 385.593C323.851 385.077 323.486 384.699 323.392 384.753C323.233 384.845 330.723 397.532 330.991 397.623C331.047 397.642 330.013 395.784 328.692 393.495C327.37 391.205 325.964 388.701 325.565 387.931C325.166 387.161 324.553 386.109 324.202 385.593ZM305.808 354.439C305.66 354.837 303.956 355.624 303.424 355.541C303.018 355.477 299.001 348.59 299.117 348.158C299.236 347.713 301.048 347.125 301.644 347.338C302.337 347.586 306.02 353.866 305.808 354.439ZM331.177 398.065C331.151 398.163 331.21 398.265 331.308 398.292C331.407 398.318 331.429 398.238 331.357 398.113C331.284 397.988 331.204 397.966 331.177 398.065ZM335.868 406.305C339.407 412.913 345.47 423.683 344.898 422.345C344.62 421.693 341.951 416.841 338.968 411.562C335.283 405.04 334.289 403.355 335.868 406.305ZM310.307 364.804C309.911 364.602 310.214 365.125 310.799 365.656C311.174 365.997 311.176 365.993 310.901 365.484C310.746 365.198 310.479 364.892 310.307 364.804ZM311.322 367.741C310.59 367.255 310.59 367.255 311.051 367.784C311.959 368.826 312.133 369.28 311.812 369.775C311.533 370.207 311.537 370.225 311.876 370.032C312.657 369.588 312.38 368.444 311.322 367.741ZM307.581 361.264C306.956 360.624 307.509 361.595 308.31 362.547C308.89 363.235 308.89 363.235 308.448 362.468C308.205 362.045 307.815 361.503 307.581 361.264ZM277.867 310.34C277.738 310.414 277.41 310.671 277.138 310.91C276.769 311.234 276.645 311.273 276.651 311.063C276.663 310.671 277.234 310.01 277.611 309.95C278.004 309.887 278.182 310.158 277.867 310.34ZM316.836 378.274C316.55 378.198 315.808 377.197 316.087 377.265C316.24 377.302 316.504 377.507 316.674 377.721C316.999 378.129 317.059 378.334 316.836 378.274ZM302.425 355.647C302.143 355.705 297.968 348.742 298.203 348.607C298.462 348.457 298.581 348.631 300.659 352.196C302.046 354.574 302.578 355.616 302.425 355.647ZM316.03 379.003C315.869 379.096 315.343 378.632 315.056 378.144C314.775 377.666 315.168 377.623 315.541 378.091C316.149 378.852 316.183 378.914 316.03 379.003ZM387.534 503.45C387.058 503.164 386.753 502.514 387.022 502.359C387.105 502.311 387.358 502.6 387.585 503C387.981 503.699 387.979 503.717 387.534 503.45ZM268.894 308.73C265.94 310.453 264.49 311.369 265.02 311.177C266.289 310.717 273.831 306.352 273.712 306.147C273.649 306.036 271.941 306.952 268.894 308.73ZM293.508 342.559C292.432 343.013 291.484 343.762 291.782 343.922C292.027 344.054 294.705 342.506 294.586 342.301C294.536 342.214 294.051 342.33 293.508 342.559ZM326.365 398.722C326.318 398.749 326.257 398.732 326.23 398.685C326.203 398.639 326.219 398.578 326.266 398.551C326.313 398.524 326.374 398.54 326.401 398.587C326.428 398.634 326.412 398.694 326.365 398.722ZM326.758 399.403C326.711 399.431 326.651 399.414 326.624 399.367C326.597 399.321 326.613 399.26 326.66 399.233C326.707 399.206 326.767 399.222 326.794 399.269C326.821 399.316 326.805 399.376 326.758 399.403ZM301.499 356.44C301.371 356.918 300.662 355.964 298.978 353.046C297.089 349.774 296.772 348.977 297.518 349.373C297.917 349.585 301.589 356.103 301.499 356.44ZM307.645 367.25C307.568 367.294 307.624 367.646 307.768 368.031C308.149 369.044 308.501 369.613 308.565 369.321C308.639 368.988 307.822 367.148 307.645 367.25ZM314.848 379.857C314.448 379.94 313.503 378.415 313.836 378.224C314.041 378.105 314.214 378.267 314.601 378.937C314.957 379.554 315.028 379.819 314.848 379.857ZM357.244 453.405C362.257 462.2 368.479 473.235 371.07 477.927C373.662 482.619 377.604 489.62 379.831 493.484C383.7 500.195 384.131 501.073 383.465 500.895C383.229 500.831 376.026 488.185 360.519 460.606C346.187 435.118 332.493 411.36 332.035 411.189C331.844 411.117 331.798 411.042 331.906 410.979C332.014 410.917 330.898 408.83 328.817 405.204C327.026 402.082 323.836 396.527 321.73 392.86C317.685 385.818 317.42 385.283 318.027 385.387C318.4 385.45 328.019 402.134 357.244 453.405ZM309.529 371.189C308.981 371.435 308.215 370.73 307.366 369.195C306.836 368.237 306.457 367.709 306.345 367.773C306.233 367.838 306.566 368.564 307.247 369.745C308.394 371.731 308.802 372.022 309.488 371.341C309.623 371.207 309.642 371.139 309.529 371.189ZM386.37 504.623C386.101 504.715 385.777 504.302 385.5 503.515C385.321 503.007 385.337 502.876 385.562 502.991C385.95 503.188 386.618 504.538 386.37 504.623ZM303.867 361.93C303.775 361.983 303.755 362.122 303.822 362.24C303.889 362.358 304.382 363.473 304.918 364.719C305.815 366.804 306.088 367.279 306.184 366.919C306.204 366.845 305.815 365.902 305.319 364.823C304.823 363.745 304.331 362.631 304.225 362.348C304.119 362.066 303.958 361.877 303.867 361.93ZM316.136 385.239C315.902 385.32 316.055 385.187 316.477 384.943C316.899 384.7 317.091 384.633 316.904 384.796C316.716 384.958 316.371 385.158 316.136 385.239ZM310.126 377.192C309.713 377.29 309.329 377.289 309.271 377.188C309.213 377.088 309.303 376.985 309.47 376.958C309.636 376.932 310.313 376.731 310.974 376.512C312.143 376.124 312.158 376.126 311.525 376.564C311.168 376.811 310.538 377.094 310.126 377.192ZM323.694 396.853C323.648 396.881 323.587 396.864 323.56 396.817C323.533 396.771 323.549 396.71 323.596 396.683C323.643 396.656 323.703 396.672 323.731 396.719C323.758 396.766 323.741 396.826 323.694 396.853ZM324.383 398.047C324.337 398.074 324.276 398.058 324.249 398.011C324.222 397.964 324.238 397.903 324.285 397.876C324.332 397.849 324.392 397.866 324.42 397.912C324.447 397.959 324.43 398.02 324.383 398.047ZM324.974 399.07C324.927 399.097 324.867 399.081 324.84 399.034C324.813 398.987 324.829 398.926 324.876 398.899C324.923 398.872 324.983 398.888 325.01 398.935C325.037 398.982 325.021 399.043 324.974 399.07ZM325.269 399.581C325.222 399.608 325.162 399.592 325.135 399.545C325.108 399.498 325.124 399.438 325.171 399.411C325.218 399.384 325.278 399.4 325.305 399.447C325.332 399.494 325.316 399.554 325.269 399.581ZM326.254 401.286C326.207 401.313 326.146 401.297 326.119 401.25C326.092 401.203 326.108 401.143 326.155 401.116C326.202 401.088 326.263 401.105 326.29 401.152C326.317 401.198 326.301 401.259 326.254 401.286ZM326.783 402.269C326.684 402.242 326.625 402.14 326.652 402.041C326.678 401.943 326.759 401.964 326.831 402.089C326.903 402.214 326.882 402.295 326.783 402.269ZM331.569 410.492C331.522 410.519 331.461 410.503 331.434 410.456C331.407 410.409 331.423 410.349 331.47 410.322C331.517 410.294 331.578 410.311 331.605 410.358C331.632 410.404 331.616 410.465 331.569 410.492ZM300.272 357.073C300.097 357.174 298.512 354.965 297.562 353.295C296.154 350.819 295.642 349.498 296.204 349.788C296.607 349.996 300.489 356.947 300.272 357.073ZM313.547 379.868C313.483 379.987 313.31 379.851 313.13 379.54C312.951 379.229 312.919 379.011 313.055 379.015C313.182 379.019 313.369 379.167 313.471 379.343C313.573 379.52 313.607 379.756 313.547 379.868ZM350.054 443.743C355.148 452.778 356.184 454.526 356.524 454.656C356.747 454.741 356.814 454.809 356.673 454.807C356.281 454.8 359.172 460.038 371.446 481.575C377.477 492.157 382.416 500.967 382.421 501.151C382.444 501.999 381.221 499.943 371.564 482.898C356.646 456.568 356.518 456.348 356.103 456.335C355.509 456.316 355.962 457.17 364.29 471.785C368.7 479.523 372.287 485.934 372.261 486.031C372.093 486.656 372.499 487.346 358.462 462.589C348.99 445.885 343.212 435.488 343.207 435.141C343.2 434.601 343.312 434.784 349.692 445.827C355.333 455.592 355.717 456.215 356.029 456.108C356.299 456.015 356.292 455.891 355.995 455.45C355.793 455.151 353.082 450.341 349.97 444.761C346.859 439.181 338.099 423.832 330.505 410.651C317.571 388.203 316.172 385.668 316.918 386.029C317.21 386.17 338.615 423.451 350.054 443.743ZM386.642 506.67C386.595 506.697 386.535 506.681 386.508 506.634C386.481 506.587 386.497 506.526 386.544 506.499C386.591 506.472 386.651 506.489 386.678 506.535C386.705 506.582 386.689 506.643 386.642 506.67ZM309 373.514C307.497 374.382 306.281 372.867 303.549 366.722C301.19 361.417 301.101 361.185 301.408 361.194C301.761 361.205 302.7 362.958 304.872 367.659C307.061 372.4 307.377 372.843 308.599 372.885C309.189 372.905 309.421 373.271 309 373.514ZM385.146 505.26C384.951 505.373 384.77 505.197 384.379 504.51C383.908 503.683 383.903 503.627 384.309 503.798C384.905 504.05 385.486 505.064 385.146 505.26ZM289.585 341.615C288.418 342.49 287.904 342.77 287.994 342.482C288.096 342.16 290.234 340.671 290.338 340.85C290.382 340.927 290.044 341.271 289.585 341.615ZM299.187 357.335C299.161 358.221 298.601 357.525 296.728 354.275C294.968 351.222 294.372 349.851 295.055 350.431C295.617 350.907 299.201 356.895 299.187 357.335ZM315.611 385.609C315.564 385.636 315.503 385.62 315.476 385.573C315.449 385.526 315.466 385.466 315.512 385.439C315.559 385.411 315.62 385.428 315.647 385.475C315.674 385.521 315.658 385.582 315.611 385.609ZM322.993 398.395C322.946 398.422 322.885 398.406 322.858 398.359C322.831 398.312 322.848 398.252 322.894 398.225C322.941 398.198 323.002 398.214 323.029 398.261C323.056 398.308 323.04 398.368 322.993 398.395ZM323.288 398.907C323.241 398.934 323.181 398.917 323.154 398.871C323.127 398.824 323.143 398.763 323.19 398.736C323.237 398.709 323.297 398.725 323.324 398.772C323.351 398.819 323.335 398.879 323.288 398.907ZM326.438 404.362C326.391 404.389 326.33 404.373 326.303 404.326C326.276 404.279 326.293 404.219 326.339 404.191C326.386 404.164 326.447 404.181 326.474 404.227C326.501 404.274 326.485 404.335 326.438 404.362ZM327.422 406.067C327.375 406.094 327.315 406.078 327.288 406.031C327.261 405.984 327.277 405.923 327.324 405.896C327.371 405.869 327.431 405.885 327.458 405.932C327.485 405.979 327.469 406.04 327.422 406.067ZM328.013 407.09C327.966 407.117 327.905 407.101 327.878 407.054C327.851 407.007 327.867 406.946 327.914 406.919C327.961 406.892 328.022 406.908 328.049 406.955C328.076 407.002 328.06 407.063 328.013 407.09ZM329.292 409.306C329.245 409.333 329.185 409.317 329.158 409.27C329.131 409.223 329.147 409.163 329.194 409.135C329.241 409.108 329.301 409.125 329.328 409.171C329.355 409.218 329.339 409.279 329.292 409.306ZM329.588 409.817C329.541 409.844 329.48 409.828 329.453 409.781C329.426 409.734 329.442 409.674 329.489 409.647C329.536 409.62 329.597 409.636 329.624 409.683C329.651 409.73 329.634 409.79 329.588 409.817ZM329.784 410.158C329.737 410.185 329.677 410.169 329.65 410.122C329.623 410.075 329.639 410.015 329.686 409.988C329.733 409.961 329.793 409.977 329.82 410.024C329.847 410.071 329.831 410.131 329.784 410.158ZM331.396 413.016C331.298 412.99 331.239 412.887 331.265 412.789C331.292 412.69 331.372 412.712 331.444 412.837C331.517 412.962 331.495 413.042 331.396 413.016ZM331.654 413.397C331.608 413.425 331.547 413.408 331.52 413.361C331.493 413.315 331.509 413.254 331.556 413.227C331.603 413.2 331.663 413.216 331.691 413.263C331.718 413.31 331.701 413.37 331.654 413.397ZM331.95 413.909C331.903 413.936 331.842 413.92 331.815 413.873C331.788 413.826 331.804 413.765 331.851 413.738C331.898 413.711 331.959 413.728 331.986 413.774C332.013 413.821 331.997 413.882 331.95 413.909ZM312.367 380.79C311.801 380.551 311.558 380.125 311.726 379.669C311.842 379.357 311.923 379.42 312.334 380.143C312.772 380.913 312.774 380.962 312.367 380.79ZM343.049 434.422C343.031 435.062 341.889 433.237 336.702 424.279C332.419 416.88 330.969 414.489 330.873 414.666C330.79 414.821 330.75 414.798 330.756 414.598C330.772 414.056 327.762 408.65 315.31 386.862C315.165 386.607 315.56 386.558 315.814 386.799C316.169 387.137 343.057 434.151 343.049 434.422ZM383.976 505.799C383.94 505.937 383.757 505.875 383.541 505.652C382.855 504.944 382.769 503.685 383.453 504.363C383.765 504.673 384.058 505.477 383.976 505.799ZM296.155 353.88C296.108 353.907 296.048 353.891 296.021 353.844C295.994 353.797 296.01 353.737 296.057 353.71C296.104 353.683 296.164 353.699 296.191 353.746C296.219 353.793 296.202 353.853 296.155 353.88ZM296.648 354.733C296.601 354.76 296.54 354.744 296.513 354.697C296.486 354.65 296.502 354.589 296.549 354.562C296.596 354.535 296.657 354.551 296.684 354.598C296.711 354.645 296.694 354.706 296.648 354.733ZM381.299 501.756C381.508 502.883 380.544 501.422 376.94 495.153C372.73 487.83 371.514 485.334 373.114 487.298C373.491 487.76 381.243 501.454 381.299 501.756ZM320.887 397.111C320.84 397.138 320.78 397.121 320.752 397.075C320.725 397.028 320.742 396.967 320.789 396.94C320.835 396.913 320.896 396.929 320.923 396.976C320.95 397.023 320.934 397.083 320.887 397.111ZM322.265 399.497C322.218 399.524 322.158 399.508 322.13 399.461C322.103 399.414 322.12 399.354 322.167 399.327C322.213 399.3 322.274 399.316 322.301 399.363C322.328 399.41 322.312 399.47 322.265 399.497ZM298.14 358.305C297.968 358.624 297.71 358.307 296.313 356.062C294.289 352.806 293.154 350.285 294.183 351.326C294.708 351.858 298.249 358.102 298.14 358.305ZM321.209 398.061C321.162 398.089 321.101 398.072 321.074 398.025C321.047 397.979 321.063 397.918 321.11 397.891C321.157 397.864 321.218 397.88 321.245 397.927C321.272 397.974 321.255 398.034 321.209 398.061ZM322.587 400.448C322.54 400.475 322.479 400.459 322.452 400.412C322.425 400.365 322.441 400.305 322.488 400.278C322.535 400.251 322.596 400.267 322.623 400.314C322.65 400.361 322.633 400.421 322.587 400.448ZM323.276 401.642C323.229 401.669 323.168 401.652 323.141 401.606C323.114 401.559 323.13 401.498 323.177 401.471C323.224 401.444 323.285 401.46 323.312 401.507C323.339 401.554 323.322 401.614 323.276 401.642ZM324.358 403.517C324.311 403.544 324.251 403.528 324.224 403.481C324.197 403.434 324.213 403.373 324.26 403.346C324.307 403.319 324.367 403.335 324.394 403.382C324.421 403.429 324.405 403.49 324.358 403.517ZM325.047 404.71C325 404.737 324.94 404.721 324.913 404.674C324.886 404.627 324.902 404.567 324.949 404.54C324.996 404.513 325.056 404.529 325.083 404.576C325.11 404.623 325.094 404.683 325.047 404.71ZM325.343 405.222C325.296 405.249 325.235 405.233 325.208 405.186C325.181 405.139 325.197 405.078 325.244 405.051C325.291 405.024 325.352 405.04 325.379 405.087C325.406 405.134 325.389 405.195 325.343 405.222ZM325.736 405.904C325.689 405.931 325.629 405.914 325.602 405.868C325.575 405.821 325.591 405.76 325.638 405.733C325.685 405.706 325.745 405.722 325.772 405.769C325.799 405.816 325.783 405.876 325.736 405.904ZM326.917 407.949C326.87 407.976 326.81 407.96 326.783 407.913C326.756 407.866 326.772 407.806 326.819 407.779C326.866 407.752 326.926 407.768 326.953 407.815C326.98 407.862 326.964 407.922 326.917 407.949ZM328 409.825C327.953 409.852 327.893 409.836 327.866 409.789C327.839 409.742 327.855 409.681 327.902 409.654C327.949 409.627 328.009 409.643 328.036 409.69C328.063 409.737 328.047 409.798 328 409.825ZM311.199 381.535C310.916 381.459 310.732 381.254 310.632 380.904C310.406 380.11 310.739 380.124 311.203 380.929C311.579 381.579 311.578 381.636 311.199 381.535ZM330.908 416.127C330.822 416.448 329.868 415.543 329.55 414.838C329.438 414.591 326.009 408.491 321.929 401.283C314.362 387.913 314.216 387.64 314.64 387.653C314.972 387.663 331.013 415.738 330.908 416.127ZM354.136 455.881C354.089 455.908 354.029 455.892 354.001 455.845C353.974 455.798 353.991 455.738 354.038 455.711C354.084 455.683 354.145 455.7 354.172 455.747C354.199 455.793 354.183 455.854 354.136 455.881ZM349.894 449.322C352.989 454.771 355.503 459.294 355.481 459.375C355.361 459.822 354.784 458.945 352.162 454.337C336.576 426.934 330.967 416.977 331.08 416.911C331.384 416.736 331.924 417.628 337.96 428.282C341.43 434.406 346.8 443.874 349.894 449.322ZM294.469 353.717C294.423 353.744 294.362 353.728 294.335 353.681C294.308 353.634 294.324 353.574 294.371 353.547C294.418 353.52 294.478 353.536 294.506 353.583C294.533 353.63 294.516 353.69 294.469 353.717ZM361.468 469.855C362.268 471.53 362.268 471.53 361.518 470.486C359.724 467.987 355.704 460.659 356.026 460.473C356.203 460.37 360.365 467.545 361.468 469.855ZM319.496 397.459C319.449 397.486 319.389 397.47 319.362 397.423C319.335 397.376 319.351 397.315 319.398 397.288C319.445 397.261 319.505 397.277 319.532 397.324C319.559 397.371 319.543 397.432 319.496 397.459ZM321.071 400.187C321.024 400.214 320.964 400.197 320.937 400.151C320.91 400.104 320.926 400.043 320.973 400.016C321.02 399.989 321.08 400.005 321.107 400.052C321.134 400.099 321.118 400.159 321.071 400.187ZM371.891 488.364C372.665 489.951 372.585 489.847 370.499 486.554C367.937 482.511 363.515 474.515 363.518 473.932C363.519 473.48 370.507 485.523 371.891 488.364ZM379.962 502.798C379.732 502.931 374.685 493.976 374.872 493.765C374.962 493.664 375.894 495.18 377.57 498.156C379.167 500.992 380.067 502.738 379.962 502.798ZM296.03 357.457C295.484 357.441 293.792 354.587 293.779 353.661C293.772 353.158 293.902 353.334 294.974 355.279C295.635 356.479 296.11 357.459 296.03 357.457ZM320.605 399.774C320.558 399.801 320.498 399.784 320.471 399.738C320.444 399.691 320.46 399.63 320.507 399.603C320.554 399.576 320.614 399.592 320.641 399.639C320.669 399.686 320.652 399.746 320.605 399.774ZM321.688 401.649C321.641 401.676 321.581 401.66 321.554 401.613C321.527 401.566 321.543 401.505 321.59 401.478C321.637 401.451 321.697 401.467 321.724 401.514C321.751 401.561 321.735 401.622 321.688 401.649ZM322.968 403.865C322.921 403.892 322.86 403.876 322.833 403.829C322.806 403.782 322.822 403.722 322.869 403.695C322.916 403.668 322.977 403.684 323.004 403.731C323.031 403.777 323.015 403.838 322.968 403.865ZM323.853 405.399C323.807 405.426 323.746 405.41 323.719 405.363C323.692 405.317 323.708 405.256 323.755 405.229C323.802 405.202 323.862 405.218 323.89 405.265C323.917 405.312 323.9 405.372 323.853 405.399ZM324.542 406.593C324.496 406.62 324.435 406.604 324.408 406.557C324.381 406.51 324.397 406.449 324.444 406.422C324.491 406.395 324.551 406.411 324.579 406.458C324.606 406.505 324.589 406.566 324.542 406.593ZM325.724 408.639C325.677 408.666 325.616 408.649 325.589 408.603C325.562 408.556 325.578 408.495 325.625 408.468C325.672 408.441 325.733 408.457 325.76 408.504C325.787 408.551 325.771 408.611 325.724 408.639ZM326.806 410.514C326.759 410.541 326.699 410.525 326.672 410.478C326.645 410.431 326.661 410.37 326.708 410.343C326.755 410.316 326.815 410.332 326.842 410.379C326.869 410.426 326.853 410.487 326.806 410.514ZM328.211 413.34C328.164 413.367 328.103 413.351 328.076 413.304C328.049 413.257 328.065 413.197 328.112 413.17C328.159 413.142 328.22 413.159 328.247 413.206C328.274 413.252 328.258 413.313 328.211 413.34ZM319.477 398.607C319.43 398.634 319.369 398.617 319.342 398.571C319.315 398.524 319.332 398.463 319.378 398.436C319.425 398.409 319.486 398.425 319.513 398.472C319.54 398.519 319.524 398.58 319.477 398.607ZM319.969 399.459C319.922 399.486 319.862 399.47 319.835 399.423C319.807 399.376 319.824 399.316 319.871 399.289C319.918 399.261 319.978 399.278 320.005 399.325C320.032 399.371 320.016 399.432 319.969 399.459ZM322.627 404.062C322.58 404.089 322.519 404.073 322.492 404.026C322.465 403.979 322.481 403.919 322.528 403.892C322.575 403.864 322.636 403.881 322.663 403.928C322.69 403.974 322.673 404.035 322.627 404.062ZM323.119 404.914C323.072 404.941 323.011 404.925 322.984 404.878C322.957 404.832 322.973 404.771 323.02 404.744C323.067 404.717 323.128 404.733 323.155 404.78C323.182 404.827 323.166 404.887 323.119 404.914ZM353.041 456.741C352.994 456.768 352.933 456.752 352.906 456.705C352.879 456.658 352.895 456.597 352.942 456.57C352.989 456.543 353.05 456.559 353.077 456.606C353.104 456.653 353.088 456.714 353.041 456.741ZM382.864 508.397C382.817 508.424 382.757 508.407 382.73 508.361C382.703 508.314 382.719 508.253 382.766 508.226C382.813 508.199 382.873 508.215 382.9 508.262C382.927 508.309 382.911 508.369 382.864 508.397ZM316.377 393.695C316.901 394.747 317.197 395.487 317.034 395.34C316.584 394.934 313.744 389.642 313.921 389.539C314.105 389.434 315.051 391.035 316.377 393.695ZM319.602 399.217C319.555 399.244 319.494 399.227 319.467 399.18C319.44 399.134 319.456 399.073 319.503 399.046C319.55 399.019 319.611 399.035 319.638 399.082C319.665 399.129 319.649 399.189 319.602 399.217ZM322.751 404.672C322.704 404.699 322.644 404.683 322.617 404.636C322.59 404.589 322.606 404.528 322.653 404.501C322.7 404.474 322.76 404.491 322.787 404.537C322.814 404.584 322.798 404.645 322.751 404.672ZM327.146 412.743C327.047 412.716 327.069 412.635 327.194 412.563C327.319 412.491 327.399 412.513 327.373 412.611C327.347 412.71 327.244 412.769 327.146 412.743ZM329.225 416.05C329.286 416.454 329.277 416.458 328.943 416.153C328.752 415.98 328.56 415.907 328.515 415.99C328.47 416.075 328.269 415.685 328.068 415.126C327.548 413.674 327.893 413.372 328.61 414.651C328.913 415.191 329.19 415.821 329.225 416.05ZM318.545 397.781C318.498 397.808 318.438 397.791 318.411 397.745C318.384 397.698 318.4 397.637 318.447 397.61C318.494 397.583 318.554 397.599 318.581 397.646C318.608 397.693 318.592 397.754 318.545 397.781ZM321.695 403.236C321.648 403.263 321.588 403.247 321.56 403.2C321.533 403.153 321.55 403.093 321.597 403.066C321.643 403.038 321.704 403.055 321.731 403.102C321.758 403.148 321.742 403.209 321.695 403.236ZM300.448 367.314C300.879 368.315 300.879 368.315 300.362 367.704C299.727 366.955 298.743 364.7 298.867 364.278C298.957 363.967 299.24 364.509 300.448 367.314ZM318.401 398.319C318.354 398.346 318.294 398.329 318.267 398.283C318.24 398.236 318.256 398.175 318.303 398.148C318.35 398.121 318.41 398.137 318.437 398.184C318.464 398.231 318.448 398.291 318.401 398.319ZM321.551 403.774C321.504 403.801 321.443 403.785 321.416 403.738C321.389 403.691 321.405 403.631 321.452 403.603C321.499 403.576 321.56 403.593 321.587 403.639C321.614 403.686 321.598 403.747 321.551 403.774ZM326.831 413.379C326.732 413.352 326.754 413.272 326.879 413.2C327.004 413.127 327.085 413.149 327.058 413.248C327.032 413.346 326.929 413.405 326.831 413.379ZM327.384 414.272C327.337 414.299 327.277 414.283 327.25 414.236C327.223 414.189 327.239 414.128 327.286 414.101C327.333 414.074 327.393 414.09 327.42 414.137C327.447 414.184 327.431 414.245 327.384 414.272ZM285.834 345.513C284.858 346.565 284.148 347.091 284.273 346.67C284.338 346.447 286.329 344.324 286.64 344.144C287.071 343.895 286.614 344.671 285.834 345.513ZM319.635 401.243C319.588 401.27 319.527 401.254 319.5 401.207C319.473 401.16 319.489 401.1 319.536 401.073C319.583 401.046 319.644 401.062 319.671 401.109C319.698 401.156 319.682 401.216 319.635 401.243ZM322.784 406.699C322.738 406.726 322.677 406.709 322.65 406.663C322.623 406.616 322.639 406.555 322.686 406.528C322.733 406.501 322.793 406.517 322.821 406.564C322.848 406.611 322.831 406.671 322.784 406.699ZM328.001 415.734C327.954 415.761 327.894 415.745 327.867 415.698C327.84 415.651 327.856 415.591 327.903 415.564C327.95 415.536 328.01 415.553 328.037 415.6C328.064 415.646 328.048 415.707 328.001 415.734ZM293.309 356.774C293.442 357.072 293.084 356.537 292.514 355.585C291.945 354.632 291.536 353.82 291.606 353.779C291.724 353.71 292.746 355.507 293.309 356.774ZM304.351 376.197C304.16 376.309 302.916 374.432 302.632 373.602C302.134 372.15 302.426 372.393 303.452 374.284C304.004 375.302 304.409 376.163 304.351 376.197ZM320.513 404.032C322.72 408.283 321.352 406.308 317.522 399.714C314.101 393.826 312.302 390.413 312.626 390.422C312.864 390.429 318.49 400.138 320.513 404.032ZM333.497 426.597C336.815 432.365 339.053 436.403 338.961 436.456C338.87 436.509 336.163 432.023 332.375 425.54C325.122 413.127 322.497 408.455 322.708 408.334C322.963 408.187 323.396 408.853 325.659 412.881C326.879 415.052 330.407 421.224 333.497 426.597ZM340.418 439.252C340.381 439.273 340.149 438.941 339.902 438.513C339.655 438.086 339.535 437.738 339.635 437.741C339.811 437.747 340.552 439.174 340.418 439.252ZM344.827 447.049C344.917 447.372 344.079 445.964 342.965 443.919C341.851 441.874 340.949 440.153 340.96 440.094C341.001 439.882 344.669 446.477 344.827 447.049ZM349.264 454.716C349.777 455.859 349.717 455.785 348.641 453.939C347.987 452.816 347.243 451.405 346.988 450.802C346.345 449.281 348.454 452.908 349.264 454.716ZM352.296 460.029C352.184 460.237 351.679 459.345 351.028 457.789C350.588 456.74 350.609 456.762 351.48 458.271C351.982 459.14 352.349 459.931 352.296 460.029ZM353.346 462.077C353.184 461.889 352.984 461.544 352.903 461.309C352.822 461.075 352.955 461.228 353.199 461.65C353.442 462.072 353.508 462.264 353.346 462.077ZM363.811 480.552C364.029 481.409 355.631 485.958 355.113 485.264C354.442 484.366 354.822 483.901 357.519 482.319C360.25 480.717 361.731 479.669 361.596 479.436C361.401 479.098 360.237 479.66 357.298 481.512C354.563 483.236 354.226 483.409 354.086 483.166C353.925 482.887 356.379 481.181 359.7 479.264C360.935 478.551 361.356 478.029 360.514 478.255C360.271 478.32 358.633 479.202 356.874 480.217C354.792 481.417 353.64 481.999 353.574 481.885C353.401 481.586 353.71 481.353 357.091 479.226C360.127 477.317 360.739 476.842 360.31 476.727C360.22 476.703 358.582 477.602 356.671 478.725C354.273 480.135 353.126 480.73 352.969 480.645C352.605 480.449 352.634 480.427 356.237 478.148C358.131 476.95 359.705 475.876 359.737 475.759C359.89 475.188 358.893 475.621 355.8 477.47C353.706 478.722 352.448 479.39 352.352 479.301C352.082 479.05 352.812 478.512 355.834 476.741C358.699 475.062 359.484 474.45 358.798 474.43C358.632 474.425 356.95 475.339 355.059 476.462C352.1 478.22 351.601 478.468 351.474 478.248C351.29 477.93 352.072 477.352 355.665 475.151C357.124 474.256 358.338 473.45 358.362 473.358C358.487 472.893 357.714 473.257 354.575 475.14C352.322 476.491 351.074 477.157 350.935 477.083C350.499 476.848 351.235 476.253 354.4 474.277C356.188 473.161 357.668 472.185 357.689 472.108C357.855 471.487 356.337 472.308 351.985 475.195C350.602 476.113 350.041 476.233 350.151 475.588C350.208 475.257 350.704 474.906 353.128 473.484C356.269 471.642 356.94 471.141 356.851 470.708C356.803 470.475 356.189 470.794 353.147 472.629C349.726 474.694 349.49 474.811 349.324 474.524C349.161 474.241 349.381 474.083 352.281 472.409C355.699 470.436 356.431 469.9 356.217 469.528C356.099 469.324 355.511 469.615 352.634 471.297C350.74 472.404 349.092 473.36 348.972 473.423C348.677 473.576 347.955 472.308 348.106 471.901C348.228 471.572 355.651 467.12 355.946 467.199C356.473 467.34 363.475 479.227 363.811 480.552ZM365.673 483.544C365.579 483.598 365.325 483.335 365.109 482.96C364.892 482.585 364.792 482.234 364.886 482.18C364.979 482.126 365.233 482.388 365.45 482.763C365.666 483.138 365.767 483.489 365.673 483.544ZM292.988 358.039C293.136 358.297 293.18 358.553 293.086 358.607C292.982 358.667 292.467 357.929 291.767 356.717C291.136 355.623 290.688 354.746 290.772 354.769C291.053 354.844 292.168 356.285 292.446 356.931C292.596 357.282 292.84 357.781 292.988 358.039ZM375.224 500.578C375.158 501.021 367.346 505.9 366.73 505.882C366.021 505.86 366.698 505.335 370.249 503.154C374.385 500.614 374.121 500.798 373.843 500.648C373.719 500.581 372.263 501.327 370.104 502.564C364.377 505.845 364.162 505.453 369.773 501.959C372.656 500.164 373.676 499.397 373.189 499.394C373.15 499.393 371.411 500.32 369.324 501.454C364.299 504.185 363.453 504.147 368.203 501.404C374.129 497.983 374.483 497.046 368.643 500.241C363.624 502.986 363.446 502.714 368.313 499.734C372.433 497.211 372.109 497.448 371.912 497.107C371.789 496.893 371.185 497.182 367.946 499C362.88 501.843 362.647 501.583 367.574 498.585C369.58 497.365 371.246 496.269 371.278 496.15C371.438 495.548 370.456 495.987 367.156 497.99C363.803 500.026 363.273 500.259 363.013 499.809C362.969 499.734 364.603 498.708 366.642 497.529C370.268 495.432 371.124 494.78 370.314 494.733C370.11 494.722 368.394 495.616 366.251 496.852C363.067 498.687 362.519 498.954 362.393 498.735C362.203 498.407 362.028 498.527 366.296 496.044C369.43 494.22 369.934 493.878 369.808 493.659C369.681 493.439 369.126 493.711 365.88 495.585C362.037 497.804 361.658 497.96 361.775 497.279C361.83 496.956 362.437 496.55 365.571 494.74C369.439 492.507 370.49 491.557 367.805 492.719C366.981 493.076 366.979 492.616 367.802 491.977C368.617 491.344 368.714 491.045 368.073 491.146C367.872 491.177 366.165 492.118 364.281 493.238C360.861 495.268 360.4 495.467 360.569 494.84C360.634 494.599 361.617 493.955 364.188 492.471C366.129 491.35 367.779 490.314 367.853 490.168C368.202 489.486 367.363 489.842 363.877 491.854C359.667 494.285 359.969 494.232 359.062 492.695C358.082 491.035 357.974 491.171 362.202 488.73C364.201 487.576 365.84 486.539 365.843 486.426C365.854 486.06 365.016 486.43 362.232 488.021C359.262 489.718 358.13 490.213 357.83 489.946C357.291 489.468 365.946 484.956 366.529 485.412C367.131 485.881 375.291 500.117 375.224 500.578ZM315.875 398.47C317.414 401.137 317.588 401.515 317.347 401.655C317.145 401.771 317.038 401.693 316.944 401.362C316.873 401.113 315.663 398.899 314.255 396.441C312.847 393.983 311.737 391.892 311.789 391.795C311.954 391.489 312.385 392.066 313.27 393.78C313.742 394.695 314.914 396.805 315.875 398.47ZM336.108 433.737C336.663 435.472 335.193 433.114 328.57 421.643C321.875 410.046 320.764 407.956 321.988 409.261C322.659 409.977 335.786 432.731 336.108 433.737ZM320.442 406.63C320.692 407.566 320.225 407.188 319.431 405.812C318.503 404.206 318.261 403.465 318.804 403.899C319.192 404.208 320.278 406.02 320.442 406.63ZM347.07 453.107C346.906 453.772 346.273 452.761 341.452 444.14C336.518 435.318 335.534 433.374 337.258 435.848C338.081 437.031 347.116 452.922 347.07 453.107ZM350.709 459.564C350.802 460.182 349.426 458.234 348.33 456.199C347.44 454.545 347.307 453.901 348.061 454.899C348.771 455.839 350.645 459.14 350.709 459.564ZM354.35 465.858C354.296 465.958 354.084 465.867 353.88 465.656C353.418 465.179 352.627 463.344 352.832 463.226C353.03 463.112 354.477 465.621 354.35 465.858ZM366.661 488.997C365.759 489.255 360.222 492.403 360.142 492.704C360.027 493.134 360.482 492.913 363.905 490.877C366.672 489.231 367.272 488.822 366.661 488.997ZM355.058 468.415C354.478 468.497 349.09 471.845 348.835 472.283C348.477 472.897 350.029 472.194 352.585 470.586C354.815 469.182 355.809 468.31 355.058 468.415ZM362.167 480.491C361.93 480.428 357.027 483.288 356.243 483.948C354.927 485.053 355.978 484.71 358.873 483.088C362.387 481.118 362.925 480.694 362.167 480.491ZM362.733 489.496C359.264 491.365 358.924 491.585 359.332 491.694C359.629 491.774 365.568 488.444 365.947 487.984C366.17 487.714 365.155 488.191 362.733 489.496ZM285.782 353.413C284.91 353.787 284.363 353.94 284.444 353.785C284.635 353.419 285.634 352.867 286.519 352.638C287.753 352.32 287.355 352.737 285.782 353.413ZM365.919 493.717C365.273 494.283 361.433 496.58 361.227 496.525C360.652 496.371 361.225 495.886 363.606 494.511C365.957 493.154 366.956 492.811 365.919 493.717ZM285.83 356.131C285.142 356.392 284.835 356.409 284.896 356.183C284.957 355.956 286.306 355.528 286.407 355.704C286.466 355.804 286.229 355.979 285.83 356.131ZM281.561 353.511C280.5 353.927 280.257 353.74 281.171 353.212C281.755 352.875 282.011 352.816 282.114 352.994C282.222 353.181 282.09 353.304 281.561 353.511ZM283.097 357.101C282.754 357.299 281.388 357.437 281.435 357.269C281.491 357.067 283.448 356.516 283.442 356.703C283.439 356.814 283.283 356.993 283.097 357.101ZM371.124 511.115C370.518 510.892 370.026 510.244 370.207 509.908C370.421 509.51 370.786 509.728 371.236 510.52C371.692 511.324 371.692 511.324 371.124 511.115ZM280.156 357.852C279.523 358.141 279.46 358.23 279.577 358.673C279.703 359.149 279.676 359.146 278.95 358.622C277.987 357.927 277.998 357.907 279.507 357.605C280.96 357.313 281.164 357.391 280.156 357.852ZM354.303 485.08C354.286 485.499 353.912 485.475 353.184 485.008C352.172 484.359 344.485 470.739 345.143 470.758C346.143 470.788 354.363 483.638 354.303 485.08ZM363.175 501.523C365.427 505.672 365.48 505.866 364.083 504.863C362.373 503.636 354.089 488.736 355.44 489.319C356.895 489.947 356.875 489.915 363.175 501.523ZM278.123 354.597C277.121 354.967 275.029 355.317 275.086 355.105C275.176 354.767 278.2 354.017 278.25 354.32C278.271 354.439 278.213 354.564 278.123 354.597ZM351.539 484.657C351.508 485.373 337.281 493.215 336.427 492.987C335.942 492.857 333.535 488.654 333.678 488.186C333.726 488.03 336.281 486.53 340.217 484.349C343.77 482.38 346.877 480.585 347.122 480.36C347.367 480.134 347.486 479.985 347.386 480.028C344.868 481.106 342.847 482.16 338.492 484.667C333.219 487.702 333.219 487.702 332.227 485.733C331.681 484.65 331.045 483.434 330.813 483.03C330.391 482.296 330.391 482.296 336.91 478.692C344.288 474.614 344.322 474.59 343.88 473.792C343.71 473.485 343.392 472.878 343.175 472.444C342.662 471.422 342.918 471.321 335.201 475.565C329.619 478.634 328.163 479.309 329.122 478.38C329.318 478.19 331.981 476.701 335.039 475.07C338.098 473.44 341.108 471.813 341.728 471.455C343.655 470.343 343.268 469.942 347.743 477.7C349.995 481.603 351.548 484.451 351.539 484.657ZM361.906 503.721C361.765 504.249 348.079 512.135 347.481 512.033C346.822 511.921 339.018 498.367 339.333 497.883C339.454 497.697 342.007 496.21 345.331 494.388C348.513 492.644 351.56 490.908 352.102 490.53C353.839 489.318 353.693 489.214 356.233 493.489C360.786 501.154 362.005 503.352 361.906 503.721ZM255.749 322.601C254.405 324.369 253.63 324.602 254.786 322.89C255.626 321.647 256.518 320.839 256.424 321.407C256.388 321.622 256.084 322.16 255.749 322.601ZM276.769 359.587C276.162 359.673 275.51 359.784 275.319 359.832C274.98 359.918 274.671 359.692 274.926 359.545C275.336 359.309 277.647 359.04 277.749 359.217C277.836 359.367 277.551 359.475 276.769 359.587ZM344.543 475.206C344.091 475.192 331.4 482.36 331.392 482.634C331.376 483.155 331.706 483.001 338.054 479.519C344.791 475.822 345.668 475.239 344.543 475.206ZM345.08 476.423C344.511 476.513 332.116 483.696 332.173 483.902C332.275 484.275 333.418 483.701 339.484 480.225C345.21 476.945 346.251 476.237 345.08 476.423ZM345.948 477.593C345.476 477.579 333.248 484.372 332.842 484.874C332.25 485.607 333.68 484.931 339.517 481.717C345.264 478.552 346.723 477.616 345.948 477.593ZM345.432 482.417C339.112 485.75 334.573 488.358 334.702 488.581C334.941 488.996 347.851 481.953 348.023 481.314C348.085 481.084 347.434 481.361 345.432 482.417ZM254.025 319.522C253.849 319.769 253.593 320.035 253.457 320.114C252.986 320.386 253.044 319.965 253.57 319.306C254.178 318.543 254.586 318.737 254.025 319.522ZM346.145 478.939C345.447 479.058 333.64 485.627 333.443 486.005C333.043 486.775 334.096 486.295 340.21 482.92C346.515 479.439 347.645 478.682 346.145 478.939ZM344.49 484.332C338.593 487.518 335.297 489.447 335.607 489.53C336.104 489.663 340.346 487.533 344.232 485.199C349.658 481.94 349.799 481.464 344.49 484.332ZM349.099 483.489C348.715 483.481 336.173 490.552 336.025 490.861C335.737 491.459 336.182 491.243 342.825 487.562C349.144 484.06 349.994 483.508 349.099 483.489ZM348.445 485.457C343.587 487.773 335.089 492.762 337.258 492.024C338.507 491.599 349.399 485.543 349.64 485.14C349.801 484.868 349.529 484.94 348.445 485.457ZM353.186 490.961C352.183 491.395 340.126 498.37 340.189 498.479C340.359 498.773 352.325 492.36 353.176 491.519C353.477 491.222 353.484 490.832 353.186 490.961ZM354.156 492.693C353.706 492.157 353.706 492.157 349.699 494.471C347.495 495.744 344.509 497.375 343.064 498.097C340.84 499.207 340.471 499.438 340.655 499.602C340.833 499.759 341.894 499.23 346.488 496.693C352.117 493.585 353.382 492.974 353.557 493.277C353.615 493.377 351.265 494.817 347.426 497.033C343.39 499.364 341.236 500.687 341.3 500.798C341.36 500.901 342.228 500.501 343.5 499.783C344.655 499.131 347.682 497.461 350.225 496.071C353.27 494.407 354.807 493.49 354.727 493.386C354.661 493.3 354.404 492.988 354.156 492.693ZM354.877 494.48C354.495 494.596 343.545 500.754 342.346 501.527C341.206 502.263 342.248 502.016 344.024 501.129C345.105 500.589 346.081 500.15 346.193 500.154C346.755 500.17 346.22 500.686 344.738 501.557C343.107 502.514 342.23 503.261 342.88 503.14C343.569 503.011 355.985 495.991 355.993 495.725C356.006 495.279 355.885 495.333 351.489 497.718C345.824 500.792 345.461 500.564 350.939 497.371C355.41 494.766 355.515 494.699 355.4 494.5C355.352 494.417 355.116 494.408 354.877 494.48ZM355.909 497.048C354.269 497.747 343.165 504.028 343.265 504.2C343.476 504.567 356.666 497.442 356.681 496.952C356.685 496.811 356.374 496.85 355.909 497.048ZM356.454 498.33C354.489 499.213 343.856 505.224 343.955 505.396C344.121 505.683 344.725 505.381 351.02 501.864C356.605 498.743 359 497.186 356.454 498.33ZM359.854 503.864C357.045 505.06 347.281 510.763 347.473 511.095C347.639 511.384 360.755 504.087 360.685 503.745C360.66 503.625 360.293 503.677 359.854 503.864ZM357.718 501.922C355.588 502.923 346.19 508.402 346.183 508.647C346.17 509.073 346.696 508.84 351.057 506.495C355.162 504.287 355.927 503.946 355.811 504.379C355.787 504.469 353.722 505.708 351.223 507.131C347.093 509.484 345.909 510.322 347.3 509.909C348.227 509.633 359.626 503.206 359.779 502.872C360.051 502.281 359.329 502.443 357.816 503.313C356.993 503.786 356.367 504.052 356.309 503.952C356.253 503.854 356.738 503.476 357.446 503.065C359.803 501.699 360.006 500.847 357.718 501.922ZM356.943 499.634C355.473 500.226 344.688 506.272 344.789 506.447C344.89 506.621 347.451 505.327 354.076 501.757C357.743 499.78 359.134 498.75 356.943 499.634ZM358.173 500.319C358.062 500.289 356.502 501.103 354.706 502.127C352.911 503.151 350.184 504.645 348.646 505.447C345.752 506.956 344.433 507.935 345.86 507.515C347.696 506.974 358.801 500.484 358.173 500.319ZM336.494 476.483C329.059 480.633 327.765 481.769 334.098 478.587C335.725 477.77 338.134 476.488 339.451 475.737C341.971 474.303 343.06 473.891 342.272 474.671C341.866 475.073 336.111 478.245 331.946 480.363C329.881 481.413 329.881 481.413 329.442 480.653C329.059 479.989 340.419 472.896 341.855 472.903C342.691 472.907 341.622 473.621 336.494 476.483ZM250.312 325.281C249.616 326.676 248.847 328.434 248.604 329.188C248.273 330.21 248.17 330.388 248.197 329.889C248.28 328.399 250.619 323.116 251.394 322.669C251.717 322.482 251.762 322.375 250.312 325.281ZM265.901 354.931C264.835 354.793 263.385 354.386 262.914 354.092C262.429 353.789 262.977 353.866 265.255 354.424C266.872 354.819 267.233 355.103 265.901 354.931ZM359.45 517.248C359.302 517.522 358.902 517.224 357.067 515.469C355.784 514.243 355.479 513.867 355.59 513.654C355.798 513.256 356.551 512.866 356.92 512.965C357.312 513.07 359.607 516.955 359.45 517.248ZM249.722 330.8C249.312 332.276 249.188 332.538 249.156 332C249.102 331.075 249.988 328.463 250.22 328.865C250.235 328.891 250.011 329.762 249.722 330.8ZM260.356 351.932C256.144 349.564 252.378 344.23 251.134 338.87C250.927 337.976 250.714 337.064 250.661 336.844C250.47 336.043 250.434 336.986 250.604 338.355C251.236 343.449 256.636 351.042 260.575 352.374C261.667 352.744 261.617 352.641 260.356 351.932ZM249.379 335.762C249.464 337.071 249.358 337.612 249.103 337.169C248.92 336.852 248.851 334.366 249.022 334.267C249.263 334.128 249.275 334.181 249.379 335.762ZM250.551 341.511C251.445 344.255 251.418 344.993 250.497 342.989C249.849 341.581 249.309 339.426 249.42 338.694C249.494 338.201 249.495 338.201 249.61 338.588C249.673 338.801 250.097 340.117 250.551 341.511ZM256.493 351.534C255.63 351.043 253.92 349.104 252.848 347.402C251.486 345.239 251.643 345.358 254.291 348.501C256.465 351.081 257.006 351.826 256.493 351.534ZM249.419 343.501C249.503 344.029 249.155 343.971 248.997 343.431C248.588 342.024 248.586 341.371 248.994 342.325C249.203 342.815 249.394 343.343 249.419 343.501ZM327.939 483.267C326.538 484.043 325.801 484.114 327.077 483.35C327.794 482.921 328.343 482.687 328.4 482.787C328.455 482.881 328.247 483.097 327.939 483.267ZM327.769 484.966C327.375 485.192 326.908 485.37 326.731 485.363C326.259 485.344 326.74 484.637 327.427 484.341C328.632 483.82 328.904 484.316 327.769 484.966ZM328.123 486.313C327.062 486.825 326.77 486.456 327.777 485.875C328.371 485.532 328.595 485.487 328.712 485.689C328.831 485.895 328.7 486.034 328.123 486.313ZM337.807 503.496C336.986 503.97 336.927 503.976 337.035 503.572C337.122 503.248 337.329 503.072 337.831 502.896C338.839 502.541 338.824 502.909 337.807 503.496ZM338.525 504.433C338.428 504.695 338.282 504.782 337.918 504.794C337.347 504.812 337.352 504.775 337.992 504.224C338.514 503.773 338.737 503.861 338.525 504.433ZM349.551 524.902C349.043 525.196 348.578 525.219 348.428 524.958C348.337 524.8 348.491 524.605 348.888 524.376C349.371 524.097 349.522 524.096 349.681 524.372C349.81 524.595 349.764 524.779 349.551 524.902ZM331.886 496.642C332.497 499.042 330.292 496.344 326.296 489.798C321.951 482.683 321.801 482.259 324.218 483.951C325.11 484.576 331.512 495.171 331.886 496.642ZM343.584 517.596C342.944 518.318 341.061 515.743 336.673 508.142C332.346 500.648 332.105 499.893 334.869 502.494C335.544 503.128 343.771 517.385 343.584 517.596ZM328.724 495.561C328.744 496.167 327.901 496.628 327.177 496.406C326.41 496.172 326.295 495.891 326.581 494.953C326.825 494.153 326.825 494.153 326.381 494.409C325.999 494.629 325.894 494.592 325.637 494.148C325.373 493.69 325.388 493.629 325.77 493.617C326.371 493.597 326.591 493.437 326.421 493.142C326.341 493.003 325.976 492.904 325.611 492.921C324.829 492.958 324.534 492.612 325.086 492.307C325.629 492.005 325.546 491.612 324.986 491.838C323.989 492.242 322.149 489.389 322.817 488.475C323.207 487.94 323.216 487.601 322.834 487.816C322.197 488.173 321.916 487.901 322.19 487.192C322.463 486.484 322.463 486.484 321.871 486.541C321.139 486.612 321.057 486.49 321.459 485.927C321.632 485.684 321.727 485.406 321.671 485.308C321.614 485.211 321.326 485.154 321.03 485.183C320.345 485.249 320.25 485.08 320.717 484.627C320.92 484.43 321.063 484.027 321.034 483.732C320.973 483.09 321.277 482.974 321.76 483.455C322.377 484.071 328.709 495.078 328.724 495.561ZM339.824 515.472C339.564 515.867 338.572 516.191 338.774 515.815C338.999 515.397 338.656 515.057 338.102 515.146C337.816 515.192 337.535 515.15 337.479 515.052C337.422 514.954 337.517 514.676 337.69 514.433C338.094 513.867 338.03 513.782 337.191 513.774C336.461 513.766 336.294 513.462 336.845 513.144C337.274 512.896 337.188 512.772 336.514 512.665C335.968 512.579 335.968 512.579 336.262 511.996C336.556 511.412 336.556 511.412 335.976 511.33C335.396 511.247 335.396 511.247 335.612 510.651C335.829 510.056 335.829 510.056 335.264 509.986C334.699 509.917 334.699 509.917 334.976 509.368C335.253 508.82 335.253 508.82 334.561 508.689C333.869 508.559 333.869 508.559 334.219 508.006C334.569 507.453 334.569 507.453 333.972 507.511C333.295 507.576 333.15 507.313 333.553 506.751C333.935 506.22 333.8 506.101 333.079 506.33C332.463 506.525 332.463 506.525 332.736 505.698C332.886 505.243 332.974 504.872 332.932 504.874C331.339 504.948 330.698 504.107 331.449 502.928C331.835 502.323 331.835 502.323 331.1 502.422C330.364 502.52 330.364 502.52 330.698 501.994C330.995 501.525 331.095 501.47 331.603 501.499C332.374 501.542 340.218 514.873 339.824 515.472ZM323.885 489.144C323.736 489.14 323.581 489.257 323.541 489.405C323.493 489.584 323.56 489.677 323.741 489.682C323.89 489.687 324.045 489.569 324.085 489.421C324.133 489.242 324.066 489.15 323.885 489.144ZM331.947 503.698C331.806 503.779 331.73 503.913 331.777 503.995C331.825 504.077 332.034 504.173 332.242 504.209C332.558 504.263 332.586 504.214 332.411 503.912C332.291 503.704 332.094 503.613 331.947 503.698Z" fill="#E8E4DF"/>
</svg>
