<svg width="551" height="1099" viewBox="0 0 551 1099" fill="none" xmlns="http://www.w3.org/2000/svg">
<rect x="17.4673" y="18.6865" width="516.806" height="752.627" rx="258.403" stroke="#E8E4DF" stroke-width="2"/>
<rect x="1.74609" y="1" width="548.249" height="788" rx="274.124" stroke="#E8E4DF" stroke-width="2"/>
<rect x="33.189" y="34.4082" width="485.363" height="721.184" rx="242.682" stroke="#E8E4DF" stroke-width="2"/>
<path fill-rule="evenodd" clip-rule="evenodd" d="M264.283 219.219C247.593 202.228 231.89 200.561 201.041 212.505C195.582 214.618 180.608 223.029 176.159 226.481C150.739 246.203 141.927 266.356 149.594 287.229C156.4 305.756 175.969 317.245 196.196 314.591C203.598 313.619 211.256 311.857 217.635 309.658C223.532 307.626 222.841 307.358 226.058 312.918C228.962 317.937 228.899 317.593 227.437 320.424C225.568 324.041 227.674 328.261 231.365 328.295C233.058 328.31 233.108 328.413 235.528 336.895C239.665 351.397 243.778 357.488 247.847 355.139C249.778 354.024 250.311 357.055 248.672 359.828C244.544 366.811 248.598 374.248 255.983 373.24C259.492 372.76 259.215 372.648 260.531 375.075C261.564 376.98 297.611 440.198 312.044 465.417C314.904 470.414 319.949 478.92 323.257 484.32C330.439 496.048 330.383 494.35 323.712 498.202C318.288 501.334 318.359 501.325 314.877 499.27C312.559 497.901 312.65 497.885 308.564 500.354C306.608 501.537 300.618 504.774 295.253 507.548C281.795 514.507 283.065 513.631 284.261 515.128C286.835 518.347 286.865 518.134 283.577 520.019C280.174 521.97 279.677 521.986 277.258 520.226C275.212 518.738 274.611 518.703 272.577 519.954C271.586 520.563 270.45 521.023 269.869 521.05C266.062 521.227 279.53 546.802 285.416 550.571C288.453 552.516 288.452 552.513 287.391 553.906C286.392 555.219 286.531 555.528 292.812 565.902C305.607 587.036 306.859 588.776 310.902 591.056C318.566 595.377 319.787 595.611 324.313 593.618C326.943 592.46 327.016 592.147 325.333 589.232C324.289 587.424 323.958 587.028 323.845 587.452C323.631 588.251 323.082 588.455 322.561 587.928C320.143 585.481 328.868 582.553 332.155 584.709C338.823 589.082 343.781 584.878 339.783 578.24C335.437 571.023 335.482 571.601 339.098 569.513C342.685 567.442 341.759 567.183 348.692 572.206C354.58 576.473 353.856 576.328 357.842 574.034C361.875 571.713 361.894 571.671 360.375 568.356C358.795 564.906 366.482 559.308 368.707 562.289C371.946 566.624 376.586 566.734 383.604 562.642C384.186 562.302 385.308 561.75 386.097 561.416C388.183 560.53 393.35 556.352 394.276 554.801C396.099 551.748 401.159 560.993 328.184 434.036C290.516 368.503 282.418 354.105 282.808 353.364C283.54 351.971 284.054 352.144 285.11 354.139C286.561 356.883 287.67 356.227 288.605 352.07C290.143 345.234 286.283 341.453 278.208 341.883C275.344 342.036 274.508 340.91 275.104 337.7C276.081 332.438 272.836 326.312 265.693 319.928C259.407 314.312 259.381 314.275 259.958 311.956C261.163 307.109 259.377 304.481 254.677 304.187C251.57 303.993 251.45 303.881 248.419 298.354C245.577 293.17 245.35 292.438 246.677 292.723C247.806 292.966 248.526 292.36 256.15 284.752C270.327 270.604 275.905 259.038 275.142 245.373C274.662 236.786 269.628 224.659 264.283 219.219ZM270.904 231.704C272.265 235.204 273.46 239.557 273.539 241.31C273.581 242.236 273.735 243.993 273.883 245.216C274.144 247.388 273.902 249.128 273.358 248.982C273.208 248.942 273.116 247.433 273.151 245.629C273.19 243.672 273.022 242.018 272.734 241.53C272.318 240.824 272.251 241.095 272.252 243.492C272.254 246.504 272.148 246.782 271.316 245.951C270.257 244.891 269.74 243.62 269.255 240.883C268.986 239.363 268.514 237.487 268.205 236.715C267.812 235.731 267.872 236.669 268.406 239.861C269.711 247.658 269.688 248.92 268.119 255.125C266.893 259.972 265.6 263.205 264.955 263.033C264.845 263.003 265.372 261.192 266.128 259.008C267.829 254.092 267.599 253.743 265.73 258.405C262.356 266.825 259.347 270.089 246.32 279.455C239.381 284.445 215.676 297.8 213.711 297.826C212.479 297.843 213.325 297.289 219.553 293.996C228.452 289.292 243.541 280.562 243.865 279.93C244.192 279.292 243.232 279.798 232.537 285.903C225.295 290.036 223.369 290.965 223.08 290.465C223.017 290.357 225.904 288.625 229.494 286.616C236.061 282.942 237.15 282.065 234.213 282.817C231.321 283.558 219.686 291.151 221.16 291.336C222.153 291.46 222.391 291.269 216.655 294.96C206.756 301.33 205.529 301.914 198.552 303.563C190.92 305.368 186.306 305.324 179.195 303.376C175.525 302.371 174.353 302.194 173.751 302.553C171.494 303.899 162.671 296.245 158.889 289.661C156.375 285.283 153.812 277.317 154.048 274.614C154.097 274.058 154.039 272.365 153.92 270.851C153.638 267.263 154.717 261.716 156.527 257.458C158.315 253.247 158.458 252.698 157.539 253.563C155.749 255.247 157.062 251.882 159.203 249.299C159.825 248.548 160.738 247.288 161.233 246.499C161.727 245.709 164.173 242.767 166.669 239.959C169.165 237.152 171.644 234.263 172.18 233.539C178.39 225.148 205.851 211.64 222.994 208.544C237.516 205.921 254.086 210.211 258.419 217.716C259.24 219.138 259.646 219.575 260.199 219.635C260.593 219.678 260.998 219.856 261.099 220.031C261.391 220.536 263.404 221.837 263.662 221.688C263.986 221.501 263.869 221.347 262.316 219.924C261.297 218.991 260.935 218.467 260.875 217.844C260.8 217.065 260.865 217.08 261.912 218.094C265.191 221.268 269.212 227.356 270.904 231.704ZM268.44 228.906C268.317 228.977 268.357 229.277 268.528 229.574C268.7 229.871 269.01 230.598 269.219 231.19C269.477 231.925 269.639 232.121 269.728 231.808C269.884 231.257 268.759 228.721 268.44 228.906ZM270.62 234.362C270.494 234.809 271.262 238.297 271.624 238.925C272.124 239.79 272.191 238.783 271.735 237.267C271.452 236.323 271.114 235.18 270.984 234.727C270.824 234.168 270.707 234.051 270.62 234.362ZM263.397 223.275C261.39 221.042 261.763 222.203 263.941 224.969C265.159 226.516 266.151 228.432 268.685 234.136C269.296 235.51 269.296 235.51 268.816 233.677C268.271 231.592 264.684 224.706 263.397 223.275ZM251.88 211.209C251.483 211.412 248.786 209.975 248.959 209.653C249.052 209.48 249.74 209.635 250.487 209.996C251.882 210.67 252.271 211.009 251.88 211.209ZM253.669 217.532C249.626 214.585 247.505 213.403 244.156 212.23C242.905 211.792 241.015 210.923 239.956 210.3C238.144 209.233 237.29 209.38 238.561 210.54C239.025 210.963 238.77 210.998 237.03 210.749C235.125 210.477 234.998 210.408 235.572 209.966C236.717 209.084 235.981 209.014 231.195 209.549C227.227 209.993 226.457 210.172 226.464 210.65C226.47 211.143 225.894 211.38 222.227 212.398C213.643 214.779 209.191 217.002 200.712 223.136C199.116 224.292 192.579 228.236 185.801 232.134C167.818 242.475 161.383 248.272 159.729 255.619C159.559 256.372 159.067 257.722 158.635 258.619C157.673 260.616 156.88 263.19 156.724 264.819C156.608 266.037 156.608 266.037 157.224 264.588C157.563 263.79 157.92 263.159 158.018 263.186C158.37 263.28 157.43 266.866 156.951 267.257C156.681 267.477 156.433 268.088 156.401 268.615C156.342 269.56 156.347 269.562 156.814 268.811C157.442 267.8 157.516 268.288 157.251 271.722C156.927 275.929 159.443 283.657 162.941 289.202C174.297 307.199 200.687 307.324 215.972 289.454C220.634 284.004 220.589 284.046 223.551 282.306C226.225 280.736 226.74 280.556 231.221 279.634C249.59 275.856 258.182 268.919 263.107 253.891C264.081 250.918 264.42 250.38 264.849 251.123C266.237 253.527 266.584 242.824 265.286 237.633C263.07 228.769 257.596 220.382 252.575 218.157C249.886 216.966 244.864 213.762 246.053 213.996C247.507 214.282 251.648 216.585 254.398 218.636C257.002 220.577 257.158 220.672 257.239 220.37C257.268 220.262 255.661 218.985 253.669 217.532ZM272.866 249.107C273.179 250.234 273.079 250.862 272.331 252.463C271.242 254.797 270.874 255.142 271.267 253.462C271.423 252.791 271.513 251.573 271.466 250.756C271.375 249.155 271.94 246.785 272.276 247.366C272.388 247.561 272.654 248.344 272.866 249.107ZM264.019 235.356C264.689 237.415 265.103 240.855 264.574 239.963C264.434 239.727 263.941 238.285 263.48 236.758C261.515 230.256 257.641 224.453 253.074 221.172C250.613 219.404 250.14 218.731 251.934 219.55C255.799 221.314 262.154 229.626 264.019 235.356ZM262.204 237.611C262.705 240.201 262.204 239.494 260.308 234.933C259.157 232.164 258.722 230.799 259.039 230.949C259.741 231.282 261.83 235.679 262.204 237.611ZM256.772 227.968C254.126 225.42 252.345 223.915 250.453 222.632C248.068 221.015 247.819 220.578 249.736 221.378C251.933 222.295 256.038 225.921 257.159 227.936C257.644 228.808 257.644 228.808 256.772 227.968ZM270.489 252.914C270.269 254.017 270.358 254.682 270.838 255.514C271.851 257.268 271.84 257.803 270.799 257.403C269.568 256.931 268.919 257.802 269.775 258.776C270.318 259.395 270.312 259.839 269.733 261.947C268.963 264.748 268.626 264.793 269.08 262.033C269.514 259.392 269.067 259.599 267.463 262.78C264.194 269.261 256.234 278.16 251.005 281.179C248.69 282.516 249.445 281.61 253.286 278.44C262.37 270.947 266.65 264.701 269.036 255.453C269.681 252.953 270.255 250.88 270.311 250.848C270.657 250.648 270.743 251.643 270.489 252.914ZM265.503 244.396C265.077 245.786 264.827 245.464 264.859 243.566C264.885 242 264.915 241.943 265.34 242.672C265.591 243.104 265.664 243.87 265.503 244.396ZM260.341 237.723C266.277 255.618 253.027 273.239 230.854 276.935C224.697 277.961 221.176 279.976 216.037 285.414C203.054 299.154 188.279 303.552 175.961 297.343C160.308 289.453 155.835 268.621 167.187 256.479C173.892 249.309 178.593 246.604 190.555 243.035C197.718 240.899 202.601 237.929 205.652 233.854C221.567 212.602 252.739 214.807 260.341 237.723ZM241.581 213.316C241.145 213.535 235.671 212.185 235.753 211.879C235.799 211.707 237.113 211.821 238.675 212.133C241.266 212.649 242.173 213.018 241.581 213.316ZM266.06 269.732C264.922 271.548 262.413 274.376 261.867 274.458C261.706 274.482 262.952 272.536 264.636 270.133C267.74 265.705 268.762 265.417 266.06 269.732ZM231.473 212.262C231.077 212.49 230.679 212.548 230.587 212.389C230.496 212.231 230.616 211.99 230.853 211.852C231.371 211.553 231.066 210.912 230.308 210.709C229.884 210.596 229.861 210.506 230.205 210.308C230.84 209.941 231.189 210.107 231.722 211.031C232.114 211.709 232.071 211.916 231.473 212.262ZM228.154 206.996C227.861 206.954 226.873 207.045 225.959 207.198C224.172 207.497 223.419 207.141 224.904 206.7C226.032 206.364 227.066 206.294 228.045 206.486C228.893 206.652 228.993 207.116 228.154 206.996ZM261.374 268.871C256.284 276.115 222.953 297.923 212.349 300.947C210.361 301.514 211.458 300.485 214.46 298.968C237.154 287.497 253.698 276.575 260.469 268.593C262.237 266.508 262.224 266.52 262.431 266.88C262.516 267.027 262.04 267.922 261.374 268.871ZM228.292 215.058C226.946 215.335 225.744 215.186 226.377 214.82C226.495 214.752 229.185 214.223 230.04 214.1C231.374 213.907 229.865 214.735 228.292 215.058ZM226.453 213.372C223.311 214.128 222.325 214.159 223.461 213.466C224.452 212.861 227.852 212.305 228.085 212.709C228.161 212.84 227.426 213.138 226.453 213.372ZM224.857 210.276C216.591 211.519 211.07 213.741 203.046 219.056C200.286 220.884 193.73 224.858 188.478 227.888C176.909 234.56 168.191 240.565 167.765 242.155C167.617 242.707 168.358 242.255 170.021 240.78C170.719 240.16 177.581 235.89 185.269 231.29C192.957 226.69 201.187 221.572 203.557 219.919C208.896 216.192 212.592 214.472 220.497 212.031C225.819 210.388 226.836 209.978 224.857 210.276ZM259.812 279.548C259.674 279.628 259.268 279.585 258.91 279.453C258.44 279.279 257.979 279.43 257.241 279.999C256.419 280.633 256.239 280.677 256.316 280.227C256.479 279.274 257.593 278.44 258.625 278.498C259.541 278.55 260.331 279.248 259.812 279.548ZM219.693 215.076C215.946 216.144 208.276 220.416 202.245 224.794C199.11 227.069 196.077 228.961 191.238 231.656C177.744 239.175 172.893 242.1 170.351 244.253C168.172 246.099 167.32 246.599 167.5 245.928C167.858 244.591 171.941 241.879 185.342 234.076C196.095 227.815 199.895 225.469 202.604 223.42C209.262 218.382 219.561 213.236 220.328 214.564C220.419 214.721 220.134 214.95 219.693 215.076ZM250.345 286.498C249.661 286.918 249.647 286.907 249.951 286.188C250.288 285.392 251.281 284.672 251.838 284.821C252.223 284.925 251.398 285.851 250.345 286.498ZM285.569 346.331C284.247 345.595 282.152 344.926 281.801 345.128C281.665 345.207 282.248 345.604 283.096 346.011C285.471 347.149 286.599 347.963 287.168 348.949C287.976 350.349 287.114 350.168 285.32 348.562C284.433 347.768 282.957 346.853 282.04 346.53C281.123 346.206 280.07 345.644 279.7 345.28C279.174 344.763 278.887 344.724 278.383 345.1C278.029 345.364 277.408 345.606 277.004 345.637C274.895 345.797 261.356 352.17 258.73 354.238C256.244 356.196 255.652 356.477 254.403 356.298C253.785 356.209 253.305 356.04 253.336 355.922C253.485 355.365 255.334 353.959 255.81 354.04C256.16 354.1 256.717 353.714 257.55 352.835C264.115 345.909 279.087 341.618 284.886 345.001C286.758 346.093 287.405 347.355 285.569 346.331ZM286.702 352.549C286.539 352.732 285.997 352.261 285.275 351.307C284.635 350.461 283.51 349.291 282.773 348.706C281.207 347.461 281.428 347.058 283.164 347.992C285.297 349.138 287.367 351.806 286.702 352.549ZM230.683 294.084C220.125 300.196 218.443 301.048 218.102 300.457C217.982 300.249 219.996 299.039 224.56 296.578C228.208 294.611 234.519 291.106 238.584 288.79C244.609 285.356 245.548 284.885 243.67 286.239C242.403 287.153 236.559 290.683 230.683 294.084ZM266.902 324.185C266.532 324.399 264.696 322.658 263.976 321.41C262.975 319.676 263.281 319.779 265.116 321.793C266.829 323.673 267.118 324.06 266.902 324.185ZM269.404 328.912C269.571 329.621 269.533 330.785 269.319 331.499C268.93 332.799 268.93 332.799 268.832 330.937C268.778 329.913 268.461 328.394 268.128 327.563C267.721 326.548 267.677 326.132 267.993 326.298C268.637 326.635 269.043 327.388 269.404 328.912ZM254.288 307.293C250.281 307.519 247.518 308.466 241.638 311.628C235.651 314.848 234.971 314.508 240.685 311.152C242.458 310.11 243.842 309.142 243.761 309C243.675 308.851 241.554 310.017 238.781 311.737C233.529 314.993 232.339 315.175 236.579 312.074C243.597 306.94 253.578 303.857 255.852 306.121C256.898 307.162 256.922 307.145 254.288 307.293ZM262.225 319.595C261.942 319.758 257.484 315.043 257.58 314.683C257.706 314.212 258.205 314.594 260.004 316.536C262.133 318.834 262.549 319.408 262.225 319.595ZM267.663 329.716C268.071 333.908 263.569 337.979 255.342 340.854C250.833 342.43 247.244 340.98 245.418 336.844C245.035 335.975 243.115 331.702 241.153 327.348C239.19 322.994 237.626 319.254 237.676 319.036C237.898 318.085 239.106 320.267 241.927 326.71C244.577 332.764 246.167 335.992 247.844 338.724C250.124 342.439 261.545 338.953 265.549 333.32C267.625 330.401 267.196 329.243 261.481 322.326C257.516 317.528 253.165 311.618 253.048 310.872C252.837 309.527 254.102 310.788 256.449 314.265C257.907 316.423 259.871 318.82 262.015 321.059C265.858 325.071 267.448 327.508 267.663 329.716ZM342.734 461.512C392.613 548.254 392.914 548.787 391.61 548.212C390.241 547.608 278.962 353.354 279.583 352.654C280.075 352.101 280.704 353.095 287.359 364.942C290.984 371.395 315.903 414.852 342.734 461.512ZM265.591 330.593C265.39 335.374 253.317 341.063 249.416 338.215C247.587 336.88 238.479 317.957 239.407 317.421C239.91 317.13 240.873 318.896 243.978 325.796C250.06 339.308 250.917 339.922 258.509 336.206C265.36 332.852 266.014 329.668 260.937 324.367C258.613 321.94 251.616 312.608 251.601 311.915C251.583 311.073 252.018 311.534 254.527 315.022C256.338 317.538 259.582 321.387 263.121 325.217C264.206 326.391 265.637 329.506 265.591 330.593ZM393.91 552.92C393.486 554.907 391.525 556.681 386.589 559.542C384.018 561.032 381.961 562.33 382.017 562.427C382.298 562.915 374.956 564.626 374.426 564.196C373.79 563.682 373.879 563.609 375.854 563.025C383.065 560.895 391.663 555.8 392.346 553.252C392.844 551.394 391.81 550.85 388.997 551.492C380.92 553.333 373.674 558.187 372.953 562.24C372.729 563.496 372.695 563.532 372.08 563.15C370.325 562.06 373.395 557.727 377.968 554.839C386.885 549.209 394.907 548.243 393.91 552.92ZM244.64 293.903C244.77 294.127 244.746 294.385 244.588 294.477C244.429 294.568 244.001 294.125 243.635 293.492C243.27 292.859 243.09 292.272 243.235 292.188C243.579 291.99 244.177 292.466 244.304 293.041C244.359 293.29 244.51 293.678 244.64 293.903ZM198.678 219.946C197.305 220.857 196.155 221.683 196.124 221.781C196.014 222.128 199.18 220.114 200.171 219.207C200.886 218.554 200.455 218.767 198.678 219.946ZM247.737 299.949C247.553 300.055 246.998 299.282 246.275 297.916C244.759 295.051 245.167 294.815 246.786 297.62C247.529 298.907 247.913 299.847 247.737 299.949ZM271.412 343.031C269.888 344.798 268.449 344.842 267.767 343.143C267.394 342.214 268.212 341.605 269.618 341.765C270.259 341.837 270.983 341.782 271.227 341.641C272.022 341.181 272.154 342.171 271.412 343.031ZM334.39 451.365C364.599 504.094 389.36 547.454 389.416 547.721C389.986 550.442 383.622 539.62 345.125 472.41C329.486 445.105 319.641 428.133 321.532 431.737C324.924 438.201 367.33 513.1 380.35 535.624C384.489 542.784 387.77 548.703 387.64 548.778C384.166 550.784 383.547 550.277 377.947 540.849C371.675 530.288 371.451 530.536 377.398 541.458C381.635 549.239 382.369 550.898 381.471 550.657C381.095 550.557 361.321 515.986 349.608 494.954C344.184 485.213 324.189 450.103 305.177 416.931C272.948 360.704 270.02 355.458 271.003 355.723C271.422 355.835 296.843 400.066 331.382 460.776C368.824 526.59 370.671 529.797 371.024 529.593C371.143 529.525 369.691 526.694 367.797 523.303C365.903 519.912 360.373 509.939 355.507 501.141C350.641 492.343 329.943 456.033 309.512 420.451C269.531 350.823 271.774 354.967 273.683 354.252C277.235 352.922 278.329 353.019 279.117 354.735C279.309 355.152 304.182 398.635 334.39 451.365ZM263.176 330.556C262.7 332.328 261.199 333.75 258.492 334.992C255.86 336.2 255.295 335.884 257.624 334.507C260.333 332.905 261.825 331.53 261.991 330.481C262.151 329.475 261.061 327.174 260.561 327.462C260.403 327.554 260.498 328.017 260.772 328.492C261.711 330.118 261.157 330.955 257.895 332.838C252.211 336.12 251.493 335.74 247.906 327.542C246.53 324.397 244.805 320.616 244.072 319.14C242.066 315.097 241.985 314.757 243.125 315.194C244.041 315.544 244.041 315.544 244.014 314.723C243.99 313.944 244.123 313.837 246.578 312.66C249.785 311.123 249.597 311.06 251.966 314.465C254.208 317.687 256.844 320.971 259.818 324.246C262.881 327.62 263.6 328.972 263.176 330.556ZM279.376 357.176C278.784 356.304 278.168 355.667 278.009 355.759C277.74 355.914 290.385 377.33 290.836 377.483C290.932 377.516 289.186 374.38 286.955 370.515C284.725 366.649 282.35 362.423 281.677 361.123C281.004 359.824 279.969 358.047 279.376 357.176ZM248.326 304.588C248.077 305.259 245.2 306.588 244.302 306.447C243.617 306.339 236.836 294.714 237.031 293.984C237.233 293.233 240.291 292.242 241.298 292.601C242.468 293.019 248.684 303.621 248.326 304.588ZM291.15 378.228C291.106 378.395 291.206 378.568 291.372 378.612C291.539 378.657 291.575 378.521 291.453 378.31C291.332 378.099 291.195 378.062 291.15 378.228ZM299.07 392.138C305.042 403.293 315.277 421.474 314.312 419.214C313.842 418.114 309.337 409.923 304.302 401.012C298.081 390.004 296.404 387.16 299.07 392.138ZM255.921 322.084C255.253 321.742 255.763 322.626 256.751 323.522C257.384 324.097 257.388 324.091 256.923 323.231C256.662 322.749 256.211 322.232 255.921 322.084ZM257.635 327.041C256.399 326.22 256.399 326.22 257.177 327.114C258.71 328.872 259.003 329.639 258.462 330.474C257.99 331.203 257.998 331.234 258.57 330.908C259.888 330.16 259.42 328.227 257.635 327.041ZM251.319 316.107C250.265 315.027 251.197 316.667 252.55 318.274C253.528 319.436 253.528 319.436 252.783 318.14C252.372 317.427 251.714 316.512 251.319 316.107ZM201.161 230.146C200.944 230.272 200.39 230.705 199.93 231.109C199.308 231.656 199.098 231.722 199.109 231.367C199.129 230.705 200.092 229.589 200.73 229.488C201.393 229.383 201.693 229.839 201.161 230.146ZM266.942 344.822C266.46 344.693 265.207 343.003 265.678 343.117C265.935 343.18 266.381 343.527 266.669 343.888C267.217 344.576 267.318 344.923 266.942 344.822ZM242.615 306.627C242.14 306.724 235.093 294.971 235.489 294.742C235.926 294.49 236.127 294.783 239.635 300.8C241.976 304.815 242.875 306.573 242.615 306.627ZM265.581 346.051C265.309 346.208 264.421 345.426 263.937 344.602C263.463 343.795 264.126 343.723 264.757 344.513C265.783 345.797 265.839 345.902 265.581 346.051ZM386.283 556.122C385.48 555.64 384.965 554.543 385.419 554.281C385.558 554.2 385.986 554.687 386.369 555.363C387.037 556.543 387.034 556.573 386.283 556.122ZM186.014 227.428C181.027 230.338 178.581 231.883 179.475 231.559C181.617 230.783 194.348 223.415 194.148 223.068C194.041 222.882 191.158 224.427 186.014 227.428ZM227.564 284.533C225.748 285.3 224.147 286.564 224.649 286.834C225.064 287.057 229.584 284.445 229.383 284.098C229.299 283.951 228.48 284.147 227.564 284.533ZM283.027 379.338C282.948 379.383 282.846 379.356 282.8 379.277C282.754 379.198 282.782 379.095 282.861 379.05C282.94 379.004 283.042 379.031 283.088 379.111C283.133 379.19 283.106 379.292 283.027 379.338ZM283.691 380.489C283.612 380.534 283.51 380.507 283.464 380.428C283.419 380.349 283.446 380.247 283.525 380.201C283.604 380.155 283.707 380.183 283.752 380.262C283.798 380.341 283.771 380.443 283.691 380.489ZM241.052 307.965C240.836 308.771 239.641 307.161 236.797 302.236C233.608 296.712 233.073 295.367 234.332 296.035C235.006 296.393 241.205 307.397 241.052 307.965ZM251.428 326.212C251.298 326.287 251.391 326.881 251.636 327.531C252.279 329.24 252.872 330.201 252.981 329.709C253.106 329.146 251.727 326.04 251.428 326.212ZM263.586 347.493C262.911 347.634 261.316 345.06 261.877 344.736C262.224 344.536 262.516 344.809 263.169 345.941C263.771 346.982 263.891 347.429 263.586 347.493ZM335.152 471.645C343.615 486.491 354.118 505.118 358.492 513.039C362.866 520.96 369.521 532.777 373.281 539.299C379.811 550.629 380.538 552.11 379.414 551.81C379.015 551.703 366.857 530.356 340.68 483.801C316.487 440.777 293.372 400.673 292.599 400.383C292.277 400.261 292.198 400.135 292.381 400.029C292.563 399.924 290.679 396.401 287.167 390.281C284.142 385.01 278.759 375.633 275.203 369.443C268.376 357.556 267.928 356.653 268.953 356.828C269.582 356.935 285.82 385.098 335.152 471.645ZM254.607 332.863C253.682 333.278 252.39 332.086 250.957 329.496C250.062 327.878 249.422 326.987 249.234 327.095C249.045 327.204 249.606 328.431 250.756 330.424C252.692 333.777 253.38 334.267 254.539 333.118C254.767 332.892 254.798 332.777 254.607 332.863ZM384.318 558.103C383.863 558.258 383.316 557.561 382.849 556.232C382.548 555.375 382.573 555.155 382.953 555.347C383.608 555.68 384.737 557.96 384.318 558.103ZM245.05 317.232C244.896 317.321 244.862 317.557 244.974 317.756C245.087 317.954 245.92 319.837 246.824 321.941C248.338 325.46 248.799 326.261 248.962 325.653C248.995 325.528 248.338 323.937 247.501 322.116C246.663 320.296 245.833 318.416 245.654 317.939C245.476 317.461 245.204 317.143 245.05 317.232ZM265.761 356.578C265.365 356.715 265.624 356.491 266.336 356.08C267.049 355.668 267.373 355.556 267.056 355.831C266.74 356.105 266.156 356.441 265.761 356.578ZM255.615 342.995C254.919 343.16 254.27 343.158 254.173 342.989C254.075 342.82 254.226 342.645 254.507 342.601C254.789 342.556 255.932 342.217 257.047 341.847C259.021 341.193 259.045 341.195 257.978 341.934C257.374 342.352 256.311 342.829 255.615 342.995ZM278.52 376.184C278.44 376.23 278.338 376.203 278.293 376.123C278.247 376.044 278.274 375.942 278.353 375.897C278.433 375.851 278.535 375.878 278.58 375.957C278.626 376.036 278.599 376.139 278.52 376.184ZM279.683 378.199C279.603 378.244 279.501 378.217 279.456 378.138C279.41 378.059 279.437 377.957 279.516 377.911C279.596 377.865 279.698 377.893 279.743 377.972C279.789 378.051 279.762 378.153 279.683 378.199ZM280.679 379.925C280.6 379.971 280.498 379.944 280.452 379.865C280.407 379.785 280.434 379.683 280.513 379.638C280.593 379.592 280.695 379.619 280.74 379.698C280.786 379.778 280.759 379.88 280.679 379.925ZM281.178 380.789C281.099 380.834 280.997 380.807 280.951 380.728C280.905 380.649 280.933 380.547 281.012 380.501C281.091 380.455 281.193 380.483 281.239 380.562C281.284 380.641 281.257 380.743 281.178 380.789ZM282.839 383.667C282.76 383.712 282.658 383.685 282.612 383.606C282.567 383.527 282.594 383.424 282.673 383.379C282.752 383.333 282.855 383.36 282.9 383.44C282.946 383.519 282.919 383.621 282.839 383.667ZM283.733 385.325C283.567 385.28 283.467 385.108 283.511 384.941C283.556 384.775 283.692 384.811 283.814 385.022C283.936 385.233 283.899 385.369 283.733 385.325ZM291.811 399.207C291.732 399.252 291.63 399.225 291.584 399.146C291.539 399.067 291.566 398.964 291.645 398.919C291.724 398.873 291.827 398.9 291.872 398.98C291.918 399.059 291.891 399.161 291.811 399.207ZM238.982 309.033C238.686 309.204 236.011 305.475 234.408 302.656C232.03 298.476 231.166 296.246 232.114 296.736C232.795 297.087 239.348 308.821 238.982 309.033ZM261.39 347.512C261.282 347.713 260.99 347.484 260.687 346.959C260.384 346.434 260.331 346.066 260.559 346.073C260.774 346.079 261.09 346.328 261.262 346.626C261.434 346.924 261.492 347.323 261.39 347.512ZM323.016 455.335C331.615 470.587 333.363 473.537 333.937 473.756C334.313 473.9 334.426 474.015 334.188 474.011C333.527 474.001 338.406 482.841 359.125 519.196C369.306 537.06 377.643 551.931 377.651 552.243C377.691 553.674 375.627 550.204 359.325 521.431C334.143 476.984 333.927 476.613 333.227 476.591C332.223 476.559 332.988 478.001 347.047 502.672C354.491 515.734 360.546 526.555 360.501 526.719C360.219 527.774 360.904 528.938 337.208 487.149C321.219 458.951 311.465 441.4 311.458 440.815C311.446 439.903 311.634 440.212 322.404 458.853C331.927 475.337 332.575 476.388 333.102 476.207C333.556 476.051 333.545 475.841 333.043 475.097C332.703 474.592 328.127 466.473 322.874 457.054C317.622 447.635 302.835 421.725 290.016 399.476C268.182 361.582 265.821 357.302 267.081 357.911C267.574 358.15 303.706 421.081 323.016 455.335ZM384.777 561.558C384.698 561.604 384.596 561.576 384.55 561.497C384.505 561.418 384.532 561.316 384.611 561.27C384.69 561.225 384.793 561.252 384.838 561.331C384.884 561.41 384.857 561.512 384.777 561.558ZM253.714 336.787C251.177 338.252 249.125 335.695 244.513 325.321C240.532 316.366 240.38 315.975 240.899 315.991C241.495 316.008 243.08 318.967 246.746 326.904C250.442 334.906 250.975 335.654 253.038 335.725C254.034 335.759 254.426 336.376 253.714 336.787ZM382.252 559.179C381.922 559.369 381.617 559.071 380.958 557.912C380.163 556.516 380.153 556.421 380.84 556.71C381.845 557.135 382.826 558.848 382.252 559.179ZM220.942 282.939C218.971 284.417 218.104 284.889 218.257 284.404C218.428 283.86 222.037 281.346 222.212 281.648C222.287 281.779 221.716 282.359 220.942 282.939ZM237.15 309.476C237.105 310.972 236.16 309.796 232.999 304.311C230.029 299.157 229.021 296.843 230.175 297.821C231.123 298.626 237.173 308.733 237.15 309.476ZM264.874 357.203C264.795 357.249 264.693 357.222 264.647 357.142C264.601 357.063 264.629 356.961 264.708 356.915C264.787 356.87 264.889 356.897 264.935 356.976C264.981 357.055 264.953 357.158 264.874 357.203ZM277.335 378.787C277.256 378.832 277.154 378.805 277.108 378.726C277.063 378.647 277.09 378.545 277.169 378.499C277.248 378.453 277.35 378.48 277.396 378.56C277.442 378.639 277.414 378.741 277.335 378.787ZM277.834 379.65C277.754 379.696 277.652 379.668 277.607 379.589C277.561 379.51 277.588 379.408 277.668 379.362C277.747 379.316 277.849 379.344 277.895 379.423C277.94 379.502 277.913 379.604 277.834 379.65ZM283.15 388.859C283.071 388.905 282.969 388.877 282.923 388.798C282.878 388.719 282.905 388.617 282.984 388.571C283.063 388.525 283.166 388.553 283.211 388.632C283.257 388.711 283.23 388.813 283.15 388.859ZM284.812 391.737C284.733 391.782 284.631 391.755 284.585 391.676C284.539 391.597 284.567 391.495 284.646 391.449C284.725 391.403 284.827 391.43 284.873 391.51C284.918 391.589 284.891 391.691 284.812 391.737ZM285.809 393.463C285.73 393.509 285.627 393.482 285.582 393.402C285.536 393.323 285.563 393.221 285.643 393.175C285.722 393.13 285.824 393.157 285.87 393.236C285.915 393.315 285.888 393.418 285.809 393.463ZM287.969 397.204C287.89 397.25 287.787 397.223 287.742 397.144C287.696 397.064 287.723 396.962 287.803 396.917C287.882 396.871 287.984 396.898 288.03 396.977C288.075 397.057 288.048 397.159 287.969 397.204ZM288.467 398.068C288.388 398.113 288.286 398.086 288.24 398.007C288.194 397.928 288.222 397.826 288.301 397.78C288.38 397.734 288.482 397.762 288.528 397.841C288.574 397.92 288.546 398.022 288.467 398.068ZM288.799 398.643C288.72 398.689 288.618 398.662 288.572 398.582C288.527 398.503 288.554 398.401 288.633 398.355C288.712 398.31 288.815 398.337 288.86 398.416C288.906 398.495 288.879 398.598 288.799 398.643ZM291.521 403.467C291.354 403.423 291.255 403.25 291.299 403.084C291.344 402.917 291.48 402.954 291.602 403.165C291.724 403.376 291.687 403.512 291.521 403.467ZM291.956 404.111C291.877 404.157 291.775 404.129 291.729 404.05C291.684 403.971 291.711 403.869 291.79 403.823C291.869 403.778 291.971 403.805 292.017 403.884C292.063 403.963 292.035 404.065 291.956 404.111ZM292.455 404.974C292.376 405.02 292.273 404.993 292.228 404.914C292.182 404.834 292.209 404.732 292.289 404.687C292.368 404.641 292.47 404.668 292.516 404.747C292.561 404.827 292.534 404.929 292.455 404.974ZM259.398 349.068C258.443 348.665 258.032 347.946 258.317 347.176C258.512 346.649 258.649 346.757 259.342 347.976C260.082 349.276 260.086 349.359 259.398 349.068ZM311.191 439.601C311.16 440.682 309.232 437.602 300.477 422.479C293.246 409.991 290.799 405.953 290.638 406.252C290.497 406.515 290.43 406.476 290.44 406.138C290.467 405.223 285.386 396.098 264.367 359.319C264.121 358.888 264.788 358.804 265.216 359.212C265.817 359.783 311.204 439.144 311.191 439.601ZM380.276 560.088C380.217 560.32 379.908 560.216 379.543 559.84C378.385 558.644 378.239 556.519 379.393 557.664C379.92 558.187 380.415 559.544 380.276 560.088ZM232.033 303.644C231.953 303.69 231.851 303.662 231.806 303.583C231.76 303.504 231.787 303.402 231.866 303.356C231.946 303.311 232.048 303.338 232.093 303.417C232.139 303.496 232.112 303.598 232.033 303.644ZM232.863 305.083C232.784 305.129 232.682 305.101 232.636 305.022C232.591 304.943 232.618 304.841 232.697 304.795C232.776 304.75 232.878 304.777 232.924 304.856C232.97 304.935 232.942 305.037 232.863 305.083ZM375.759 553.264C376.111 555.165 374.483 552.699 368.4 542.117C361.293 529.755 359.241 525.543 361.941 528.857C362.577 529.638 375.664 552.754 375.759 553.264ZM273.78 376.618C273.701 376.664 273.599 376.637 273.553 376.557C273.508 376.478 273.535 376.376 273.614 376.33C273.693 376.285 273.796 376.312 273.841 376.391C273.887 376.47 273.86 376.573 273.78 376.618ZM276.106 380.647C276.027 380.693 275.925 380.665 275.879 380.586C275.834 380.507 275.861 380.405 275.94 380.359C276.019 380.314 276.122 380.341 276.167 380.42C276.213 380.499 276.186 380.601 276.106 380.647ZM235.382 311.113C235.092 311.652 234.656 311.117 232.299 307.327C228.882 301.831 226.967 297.575 228.703 299.332C229.59 300.23 235.566 310.771 235.382 311.113ZM274.323 378.223C274.244 378.269 274.142 378.242 274.096 378.163C274.051 378.083 274.078 377.981 274.157 377.936C274.236 377.89 274.338 377.917 274.384 377.996C274.43 378.075 274.402 378.178 274.323 378.223ZM276.649 382.252C276.57 382.298 276.468 382.271 276.422 382.191C276.377 382.112 276.404 382.01 276.483 381.964C276.562 381.919 276.664 381.946 276.71 382.025C276.756 382.104 276.728 382.207 276.649 382.252ZM277.812 384.267C277.733 384.312 277.631 384.285 277.585 384.206C277.54 384.127 277.567 384.025 277.646 383.979C277.725 383.933 277.828 383.961 277.873 384.04C277.919 384.119 277.892 384.221 277.812 384.267ZM279.64 387.432C279.561 387.478 279.459 387.451 279.413 387.371C279.367 387.292 279.395 387.19 279.474 387.144C279.553 387.099 279.655 387.126 279.701 387.205C279.747 387.284 279.719 387.387 279.64 387.432ZM280.803 389.447C280.724 389.492 280.622 389.465 280.576 389.386C280.53 389.307 280.558 389.205 280.637 389.159C280.716 389.113 280.818 389.141 280.864 389.22C280.91 389.299 280.882 389.401 280.803 389.447ZM281.301 390.31C281.222 390.356 281.12 390.328 281.074 390.249C281.029 390.17 281.056 390.068 281.135 390.022C281.214 389.977 281.317 390.004 281.362 390.083C281.408 390.162 281.381 390.264 281.301 390.31ZM281.966 391.461C281.887 391.507 281.785 391.479 281.739 391.4C281.693 391.321 281.721 391.219 281.8 391.173C281.879 391.128 281.981 391.155 282.027 391.234C282.073 391.313 282.045 391.415 281.966 391.461ZM283.96 394.914C283.881 394.96 283.779 394.933 283.733 394.854C283.687 394.775 283.715 394.672 283.794 394.627C283.873 394.581 283.975 394.608 284.021 394.687C284.066 394.767 284.039 394.869 283.96 394.914ZM285.787 398.08C285.708 398.126 285.606 398.098 285.56 398.019C285.515 397.94 285.542 397.838 285.621 397.792C285.701 397.747 285.803 397.774 285.848 397.853C285.894 397.932 285.867 398.034 285.787 398.08ZM257.427 350.326C256.949 350.198 256.638 349.853 256.47 349.261C256.088 347.921 256.65 347.945 257.434 349.302C258.068 350.401 258.067 350.497 257.427 350.326ZM290.697 408.718C290.551 409.26 288.94 407.732 288.403 406.543C288.215 406.126 282.426 395.829 275.539 383.661C262.766 361.092 262.52 360.632 263.234 360.653C263.795 360.67 290.873 408.062 290.697 408.718ZM329.906 475.825C329.827 475.87 329.724 475.843 329.679 475.764C329.633 475.685 329.66 475.583 329.74 475.537C329.819 475.491 329.921 475.519 329.967 475.598C330.012 475.677 329.985 475.779 329.906 475.825ZM322.746 464.753C327.969 473.95 332.213 481.587 332.177 481.723C331.974 482.478 330.999 480.997 326.574 473.218C300.265 426.961 290.796 410.153 290.987 410.043C291.5 409.746 292.411 411.252 302.601 429.237C308.457 439.574 317.522 455.556 322.746 464.753ZM229.187 303.369C229.108 303.414 229.005 303.387 228.96 303.308C228.914 303.229 228.941 303.127 229.021 303.081C229.1 303.035 229.202 303.063 229.248 303.142C229.293 303.221 229.266 303.323 229.187 303.369ZM342.282 499.413C343.632 502.241 343.632 502.241 342.366 500.478C339.338 496.261 332.552 483.889 333.095 483.576C333.395 483.403 340.42 495.513 342.282 499.413ZM271.433 377.206C271.354 377.252 271.252 377.224 271.206 377.145C271.16 377.066 271.188 376.964 271.267 376.918C271.346 376.873 271.448 376.9 271.494 376.979C271.54 377.058 271.512 377.16 271.433 377.206ZM274.091 381.811C274.012 381.856 273.91 381.829 273.864 381.75C273.819 381.671 273.846 381.568 273.925 381.523C274.004 381.477 274.107 381.504 274.152 381.584C274.198 381.663 274.171 381.765 274.091 381.811ZM359.878 530.657C361.184 533.337 361.048 533.16 357.527 527.602C353.203 520.777 345.738 507.28 345.742 506.295C345.745 505.533 357.541 525.862 359.878 530.657ZM373.501 555.022C373.112 555.247 364.593 540.13 364.908 539.775C365.061 539.603 366.634 542.163 369.462 547.186C372.159 551.974 373.678 554.92 373.501 555.022ZM231.82 309.682C230.899 309.655 228.044 304.838 228.022 303.274C228.01 302.425 228.229 302.722 230.038 306.006C231.155 308.031 231.956 309.686 231.82 309.682ZM273.305 381.113C273.226 381.159 273.124 381.132 273.078 381.053C273.032 380.973 273.06 380.871 273.139 380.826C273.218 380.78 273.32 380.807 273.366 380.886C273.412 380.966 273.384 381.068 273.305 381.113ZM275.133 384.279C275.054 384.325 274.951 384.297 274.906 384.218C274.86 384.139 274.887 384.037 274.967 383.991C275.046 383.945 275.148 383.973 275.194 384.052C275.239 384.131 275.212 384.233 275.133 384.279ZM277.293 388.02C277.213 388.066 277.111 388.038 277.066 387.959C277.02 387.88 277.047 387.778 277.126 387.732C277.206 387.687 277.308 387.714 277.353 387.793C277.399 387.872 277.372 387.974 277.293 388.02ZM278.788 390.61C278.709 390.656 278.607 390.628 278.561 390.549C278.515 390.47 278.543 390.368 278.622 390.322C278.701 390.277 278.803 390.304 278.849 390.383C278.895 390.462 278.867 390.564 278.788 390.61ZM279.951 392.625C279.872 392.67 279.77 392.643 279.724 392.564C279.678 392.485 279.706 392.382 279.785 392.337C279.864 392.291 279.966 392.318 280.012 392.398C280.058 392.477 280.03 392.579 279.951 392.625ZM281.945 396.078C281.866 396.124 281.763 396.096 281.718 396.017C281.672 395.938 281.699 395.836 281.779 395.79C281.858 395.744 281.96 395.772 282.006 395.851C282.051 395.93 282.024 396.032 281.945 396.078ZM283.772 399.243C283.693 399.289 283.591 399.262 283.545 399.183C283.5 399.103 283.527 399.001 283.606 398.956C283.685 398.91 283.788 398.937 283.833 399.016C283.879 399.096 283.852 399.198 283.772 399.243ZM286.143 404.014C286.064 404.06 285.962 404.032 285.916 403.953C285.87 403.874 285.898 403.772 285.977 403.726C286.056 403.681 286.158 403.708 286.204 403.787C286.249 403.866 286.222 403.968 286.143 404.014ZM271.4 379.144C271.321 379.189 271.219 379.162 271.173 379.083C271.127 379.004 271.155 378.901 271.234 378.856C271.313 378.81 271.415 378.837 271.461 378.917C271.507 378.996 271.479 379.098 271.4 379.144ZM272.231 380.582C272.152 380.628 272.05 380.601 272.004 380.522C271.958 380.443 271.986 380.34 272.065 380.295C272.144 380.249 272.246 380.276 272.292 380.355C272.337 380.435 272.31 380.537 272.231 380.582ZM276.717 388.352C276.638 388.398 276.536 388.371 276.49 388.292C276.444 388.213 276.472 388.11 276.551 388.065C276.63 388.019 276.732 388.046 276.778 388.125C276.823 388.205 276.796 388.307 276.717 388.352ZM277.548 389.791C277.468 389.837 277.366 389.81 277.321 389.731C277.275 389.651 277.302 389.549 277.381 389.504C277.461 389.458 277.563 389.485 277.608 389.564C277.654 389.644 277.627 389.746 277.548 389.791ZM328.057 477.276C327.978 477.322 327.876 477.294 327.83 477.215C327.784 477.136 327.812 477.034 327.891 476.988C327.97 476.942 328.072 476.97 328.118 477.049C328.163 477.128 328.136 477.23 328.057 477.276ZM378.4 564.473C378.321 564.518 378.219 564.491 378.173 564.412C378.127 564.333 378.155 564.231 378.234 564.185C378.313 564.139 378.415 564.167 378.461 564.246C378.506 564.325 378.479 564.427 378.4 564.473ZM266.167 370.853C267.052 372.628 267.552 373.878 267.277 373.63C266.517 372.944 261.723 364.011 262.022 363.838C262.331 363.659 263.928 366.363 266.167 370.853ZM271.611 380.173C271.532 380.219 271.429 380.191 271.384 380.112C271.338 380.033 271.365 379.931 271.445 379.885C271.524 379.84 271.626 379.867 271.672 379.946C271.717 380.025 271.69 380.127 271.611 380.173ZM276.927 389.382C276.848 389.428 276.746 389.4 276.7 389.321C276.655 389.242 276.682 389.14 276.761 389.094C276.84 389.049 276.943 389.076 276.988 389.155C277.034 389.234 277.007 389.336 276.927 389.382ZM284.345 403.006C284.179 402.961 284.215 402.825 284.426 402.703C284.637 402.581 284.774 402.618 284.729 402.784C284.684 402.95 284.512 403.05 284.345 403.006ZM287.855 408.589C287.958 409.271 287.943 409.277 287.378 408.763C287.058 408.47 286.733 408.347 286.656 408.488C286.58 408.63 286.241 407.973 285.902 407.028C285.024 404.578 285.606 404.068 286.818 406.226C287.329 407.138 287.796 408.201 287.855 408.589ZM269.827 377.749C269.748 377.795 269.646 377.768 269.6 377.689C269.555 377.609 269.582 377.507 269.661 377.462C269.74 377.416 269.843 377.443 269.888 377.522C269.934 377.601 269.907 377.704 269.827 377.749ZM275.144 386.958C275.065 387.004 274.963 386.977 274.917 386.897C274.872 386.818 274.899 386.716 274.978 386.67C275.057 386.625 275.159 386.652 275.205 386.731C275.251 386.81 275.223 386.913 275.144 386.958ZM239.278 326.32C240.006 328.011 240.006 328.011 239.133 326.98C238.062 325.715 236.401 321.908 236.609 321.195C236.763 320.671 237.239 321.585 239.278 326.32ZM269.584 378.657C269.505 378.703 269.403 378.676 269.357 378.596C269.311 378.517 269.339 378.415 269.418 378.369C269.497 378.324 269.599 378.351 269.645 378.43C269.691 378.509 269.663 378.612 269.584 378.657ZM274.901 387.866C274.822 387.912 274.719 387.885 274.674 387.805C274.628 387.726 274.655 387.624 274.735 387.578C274.814 387.533 274.916 387.56 274.962 387.639C275.007 387.718 274.98 387.82 274.901 387.866ZM283.814 404.08C283.648 404.035 283.684 403.899 283.895 403.777C284.106 403.655 284.242 403.692 284.198 403.858C284.153 404.024 283.98 404.124 283.814 404.08ZM284.748 405.587C284.669 405.633 284.567 405.605 284.521 405.526C284.475 405.447 284.503 405.345 284.582 405.299C284.661 405.253 284.763 405.281 284.809 405.36C284.855 405.439 284.827 405.541 284.748 405.587ZM214.609 289.52C212.963 291.295 211.764 292.183 211.974 291.472C212.085 291.097 215.445 287.513 215.97 287.21C216.699 286.789 215.927 288.099 214.609 289.52ZM271.667 383.594C271.588 383.64 271.485 383.612 271.44 383.533C271.394 383.454 271.421 383.352 271.501 383.306C271.58 383.261 271.682 383.288 271.728 383.367C271.773 383.446 271.746 383.548 271.667 383.594ZM276.983 392.803C276.904 392.849 276.802 392.821 276.756 392.742C276.711 392.663 276.738 392.561 276.817 392.515C276.896 392.47 276.999 392.497 277.044 392.576C277.09 392.655 277.063 392.757 276.983 392.803ZM285.789 408.055C285.71 408.101 285.608 408.074 285.562 407.994C285.517 407.915 285.544 407.813 285.623 407.767C285.702 407.722 285.804 407.749 285.85 407.828C285.896 407.907 285.868 408.01 285.789 408.055ZM227.228 308.528C227.452 309.032 226.848 308.129 225.887 306.521C224.925 304.913 224.234 303.542 224.353 303.473C224.552 303.357 226.277 306.39 227.228 308.528ZM245.867 341.316C245.545 341.505 243.445 338.336 242.965 336.935C242.125 334.485 242.617 334.894 244.35 338.086C245.282 339.805 245.965 341.258 245.867 341.316ZM273.149 388.302C276.875 395.478 274.566 392.144 268.099 381.013C262.325 371.074 259.289 365.312 259.835 365.328C260.238 365.34 269.735 381.729 273.149 388.302ZM295.067 426.392C300.668 436.128 304.446 442.945 304.291 443.034C304.136 443.124 299.567 435.552 293.173 424.608C280.929 403.654 276.499 395.769 276.855 395.563C277.285 395.315 278.015 396.44 281.836 403.239C283.896 406.904 289.85 417.323 295.067 426.392ZM306.75 447.754C306.687 447.79 306.295 447.229 305.879 446.507C305.462 445.786 305.259 445.2 305.427 445.204C305.725 445.213 306.976 447.623 306.75 447.754ZM314.192 460.915C314.344 461.461 312.929 459.084 311.048 455.632C309.168 452.18 307.645 449.275 307.664 449.176C307.734 448.817 313.925 459.95 314.192 460.915ZM321.682 473.858C322.547 475.788 322.446 475.662 320.631 472.546C319.526 470.652 318.27 468.269 317.84 467.251C316.754 464.684 320.314 470.805 321.682 473.858ZM326.8 482.827C326.611 483.179 325.758 481.672 324.659 479.046C323.917 477.275 323.952 477.312 325.422 479.859C326.269 481.326 326.889 482.662 326.8 482.827ZM328.572 486.283C328.298 485.967 327.962 485.384 327.825 484.988C327.688 484.593 327.912 484.851 328.323 485.564C328.735 486.276 328.847 486.599 328.572 486.283ZM346.238 517.471C346.606 518.917 332.43 526.595 331.555 525.424C330.423 523.908 331.064 523.123 335.617 520.453C340.227 517.748 342.726 515.98 342.498 515.586C342.169 515.016 340.205 515.964 335.244 519.091C330.626 522 330.058 522.293 329.821 521.882C329.549 521.411 333.693 518.532 339.298 515.295C341.383 514.092 342.093 513.211 340.672 513.592C340.262 513.702 337.497 515.192 334.528 516.904C331.013 518.93 329.068 519.913 328.956 519.72C328.665 519.216 329.186 518.822 334.894 515.232C340.019 512.009 341.052 511.207 340.328 511.013C340.175 510.972 337.411 512.49 334.185 514.386C330.136 516.766 328.201 517.77 327.936 517.628C327.321 517.297 327.37 517.259 333.453 513.412C336.649 511.39 339.307 509.576 339.36 509.38C339.618 508.416 337.936 509.147 332.715 512.268C329.18 514.381 327.057 515.508 326.895 515.358C326.438 514.934 327.672 514.027 332.772 511.038C337.609 508.203 338.934 507.17 337.776 507.135C337.496 507.127 334.655 508.671 331.464 510.567C326.469 513.533 325.627 513.953 325.413 513.582C325.102 513.044 326.422 512.069 332.487 508.352C334.949 506.843 336.999 505.481 337.04 505.326C337.251 504.542 335.945 505.156 330.647 508.334C326.844 510.615 324.737 511.74 324.502 511.614C323.767 511.218 325.008 510.214 330.351 506.878C333.37 504.995 335.868 503.347 335.903 503.217C336.184 502.168 333.622 503.554 326.275 508.428C323.94 509.976 322.993 510.179 323.179 509.091C323.275 508.532 324.112 507.94 328.205 505.539C333.506 502.429 334.639 501.585 334.489 500.853C334.408 500.46 333.371 500.998 328.237 504.096C322.462 507.581 322.063 507.779 321.783 507.295C321.507 506.817 321.879 506.551 326.774 503.725C332.544 500.394 333.78 499.488 333.418 498.861C333.22 498.518 332.228 499.008 327.37 501.847C324.173 503.716 321.392 505.33 321.189 505.436C320.692 505.694 319.473 503.554 319.727 502.868C319.933 502.311 332.462 494.796 332.962 494.93C333.851 495.168 345.67 515.233 346.238 517.471ZM349.381 522.52C349.222 522.612 348.794 522.168 348.428 521.535C348.063 520.902 347.893 520.309 348.052 520.218C348.21 520.127 348.639 520.57 349.004 521.203C349.37 521.836 349.539 522.429 349.381 522.52ZM226.686 310.664C226.935 311.1 227.01 311.532 226.852 311.623C226.676 311.725 225.807 310.478 224.626 308.432C223.56 306.586 222.803 305.106 222.946 305.144C223.419 305.271 225.302 307.704 225.77 308.795C226.024 309.386 226.436 310.228 226.686 310.664ZM365.502 551.275C365.392 552.023 352.204 560.258 351.165 560.228C349.967 560.192 351.111 559.305 357.105 555.624C364.087 551.336 363.642 551.646 363.172 551.393C362.962 551.28 360.505 552.539 356.86 554.627C347.192 560.165 346.831 559.504 356.302 553.606C361.168 550.575 362.891 549.281 362.068 549.275C362.002 549.275 359.067 550.84 355.545 552.754C347.061 557.363 345.633 557.299 353.652 552.669C363.655 546.894 364.253 545.313 354.394 550.706C345.921 555.34 345.622 554.88 353.837 549.85C360.792 545.591 360.245 545.991 359.913 545.416C359.705 545.055 358.685 545.541 353.217 548.611C344.667 553.41 344.273 552.971 352.59 547.91C355.975 545.85 358.788 544.001 358.842 543.8C359.113 542.784 357.454 543.525 351.884 546.907C346.224 550.343 345.329 550.736 344.89 549.977C344.817 549.85 347.574 548.118 351.016 546.127C357.137 542.588 358.583 541.487 357.215 541.409C356.871 541.389 353.975 542.899 350.356 544.985C344.982 548.083 344.057 548.534 343.843 548.164C343.523 547.609 343.228 547.813 350.432 543.621C355.722 540.543 356.573 539.964 356.36 539.594C356.146 539.224 355.21 539.683 349.73 542.847C343.244 546.592 342.604 546.856 342.8 545.706C342.894 545.161 343.918 544.476 349.209 541.421C355.738 537.651 357.511 536.047 352.979 538.009C351.589 538.61 351.586 537.834 352.974 536.755C354.35 535.687 354.514 535.183 353.431 535.353C353.093 535.406 350.212 536.995 347.03 538.884C341.257 542.311 340.481 542.647 340.765 541.589C340.874 541.181 342.534 540.095 346.874 537.589C350.151 535.697 352.935 533.948 353.061 533.703C353.65 532.551 352.234 533.151 346.349 536.549C339.243 540.652 339.752 540.563 338.221 537.968C336.567 535.165 336.385 535.395 343.521 531.275C346.896 529.326 349.662 527.576 349.668 527.386C349.687 526.767 348.272 527.392 343.573 530.077C338.559 532.942 336.649 533.778 336.141 533.328C335.231 532.521 349.842 524.905 350.826 525.673C351.841 526.467 365.617 550.496 365.502 551.275ZM265.32 378.913C267.917 383.415 268.212 384.054 267.804 384.289C267.464 384.486 267.284 384.354 267.124 383.794C267.004 383.375 264.962 379.637 262.585 375.488C260.208 371.338 258.335 367.81 258.423 367.646C258.702 367.129 259.429 368.103 260.922 370.996C261.719 372.54 263.698 376.103 265.32 378.913ZM299.473 438.445C300.41 441.374 297.93 437.394 286.75 418.03C275.448 398.454 273.573 394.926 275.638 397.129C276.771 398.338 298.93 436.747 299.473 438.445ZM273.029 392.688C273.452 394.268 272.663 393.629 271.322 391.307C269.757 388.596 269.347 387.344 270.265 388.077C270.92 388.6 272.753 391.658 273.029 392.688ZM317.979 471.142C317.702 472.264 316.633 470.558 308.495 456.006C300.166 441.113 298.506 437.832 301.415 442.009C302.805 444.005 318.056 470.829 317.979 471.142ZM324.121 482.042C324.278 483.084 321.955 479.797 320.106 476.361C318.603 473.57 318.378 472.482 319.651 474.167C320.85 475.754 324.013 481.326 324.121 482.042ZM330.266 492.666C330.175 492.835 329.818 492.682 329.473 492.325C328.694 491.521 327.358 488.423 327.704 488.223C328.039 488.03 330.481 492.266 330.266 492.666ZM351.049 531.725C349.525 532.161 340.18 537.475 340.044 537.983C339.85 538.708 340.619 538.335 346.396 534.899C351.067 532.121 352.08 531.43 351.049 531.725ZM331.462 496.983C330.482 497.121 321.389 502.773 320.958 503.512C320.353 504.548 322.974 503.362 327.288 500.647C331.053 498.277 332.731 496.805 331.462 496.983ZM343.463 517.367C343.063 517.26 334.786 522.089 333.462 523.202C331.241 525.069 333.015 524.489 337.902 521.75C343.834 518.426 344.742 517.71 343.463 517.367ZM344.418 532.568C338.562 535.723 337.988 536.094 338.676 536.279C339.179 536.414 349.203 530.792 349.844 530.015C350.22 529.56 348.506 530.366 344.418 532.568ZM214.521 302.855C213.051 303.487 212.126 303.744 212.263 303.483C212.586 302.865 214.272 301.933 215.767 301.547C217.848 301.01 217.177 301.714 214.521 302.855ZM349.796 539.694C348.705 540.648 342.223 544.527 341.875 544.434C340.904 544.174 341.873 543.354 345.891 541.034C349.86 538.743 351.547 538.164 349.796 539.694ZM214.603 307.443C213.441 307.884 212.924 307.913 213.026 307.531C213.129 307.149 215.407 306.426 215.578 306.722C215.676 306.892 215.277 307.187 214.603 307.443ZM207.396 303.021C205.605 303.723 205.195 303.407 206.739 302.515C207.724 301.947 208.157 301.847 208.331 302.148C208.513 302.463 208.29 302.671 207.396 303.021ZM209.989 309.081C209.41 309.415 207.104 309.648 207.184 309.364C207.279 309.024 210.582 308.093 210.572 308.409C210.567 308.597 210.304 308.899 209.989 309.081ZM358.582 569.061C357.56 568.685 356.729 567.591 357.035 567.023C357.396 566.353 358.011 566.72 358.771 568.058C359.541 569.414 359.541 569.414 358.582 569.061ZM205.025 310.348C203.956 310.836 203.85 310.987 204.048 311.735C204.261 312.537 204.215 312.533 202.99 311.648C201.364 310.475 201.383 310.442 203.93 309.931C206.382 309.439 206.727 309.57 205.025 310.348ZM330.188 525.113C330.159 525.82 329.528 525.78 328.298 524.992C326.59 523.897 313.615 500.905 314.725 500.938C316.414 500.988 330.288 522.679 330.188 525.113ZM345.164 552.869C348.966 559.874 349.055 560.201 346.696 558.508C343.811 556.437 329.826 531.286 332.107 532.269C334.564 533.329 334.53 533.276 345.164 552.869ZM201.593 304.854C199.903 305.479 196.37 306.069 196.466 305.711C196.619 305.142 201.723 303.875 201.808 304.386C201.842 304.587 201.745 304.797 201.593 304.854ZM325.523 524.4C325.47 525.609 301.454 538.846 300.013 538.46C299.194 538.241 295.131 531.147 295.372 530.357C295.453 530.093 299.766 527.561 306.409 523.88C312.407 520.556 317.653 517.526 318.067 517.146C318.48 516.765 318.68 516.513 318.511 516.586C314.261 518.405 310.849 520.185 303.498 524.416C294.598 529.539 294.598 529.539 292.923 526.216C292.001 524.388 290.927 522.335 290.535 521.653C289.823 520.414 289.823 520.414 300.828 514.331C313.282 507.447 313.339 507.407 312.594 506.06C312.306 505.54 311.77 504.516 311.403 503.784C310.537 502.058 310.97 501.888 297.943 509.052C288.521 514.233 286.062 515.372 287.681 513.803C288.012 513.483 292.507 510.969 297.67 508.217C302.833 505.465 307.913 502.719 308.961 502.114C312.213 500.237 311.561 499.56 319.115 512.655C322.915 519.244 325.538 524.051 325.523 524.4ZM343.022 556.58C342.784 557.471 319.681 570.784 318.672 570.612C317.56 570.422 304.386 547.542 304.918 546.725C305.123 546.411 309.431 543.901 315.042 540.826C320.414 537.882 325.558 534.951 326.472 534.313C329.404 532.267 329.159 532.092 333.446 539.308C341.131 552.247 343.189 555.958 343.022 556.58ZM163.825 250.843C161.557 253.828 160.248 254.222 162.2 251.332C163.617 249.233 165.123 247.869 164.964 248.827C164.904 249.191 164.391 250.099 163.825 250.843ZM199.307 313.276C198.283 313.423 197.182 313.609 196.86 313.691C196.288 313.836 195.766 313.455 196.196 313.207C196.888 312.807 200.789 312.353 200.962 312.652C201.109 312.907 200.628 313.088 199.307 313.276ZM313.712 508.446C312.949 508.423 291.527 520.523 291.514 520.984C291.487 521.865 292.043 521.605 302.759 515.726C314.131 509.486 315.612 508.502 313.712 508.446ZM314.619 510.5C313.658 510.652 292.736 522.777 292.832 523.126C293.004 523.755 294.933 522.785 305.173 516.918C314.838 511.381 316.596 510.186 314.619 510.5ZM316.085 512.476C315.287 512.452 294.646 523.919 293.961 524.767C292.962 526.004 295.376 524.862 305.229 519.436C314.93 514.094 317.393 512.515 316.085 512.476ZM315.212 520.619C304.545 526.244 296.882 530.646 297.1 531.023C297.504 531.724 319.297 519.836 319.587 518.756C319.691 518.368 318.593 518.836 315.212 520.619ZM160.915 245.647C160.618 246.063 160.186 246.513 159.956 246.646C159.16 247.105 159.26 246.394 160.146 245.282C161.173 243.994 161.861 244.32 160.915 245.647ZM316.417 514.747C315.239 514.949 295.308 526.037 294.976 526.674C294.3 527.974 296.077 527.164 306.398 521.467C317.042 515.592 318.949 514.313 316.417 514.747ZM313.623 523.851C303.669 529.228 298.104 532.486 298.629 532.626C299.468 532.851 306.628 529.255 313.187 525.315C322.346 519.813 322.586 519.009 313.623 523.851ZM321.404 522.428C320.754 522.414 299.585 534.351 299.333 534.872C298.848 535.882 299.599 535.518 310.813 529.303C321.479 523.392 322.914 522.46 321.404 522.428ZM320.299 525.75C312.099 529.66 297.754 538.081 301.415 536.836C303.524 536.118 321.91 525.895 322.316 525.214C322.589 524.755 322.129 524.878 320.299 525.75ZM328.302 535.04C326.609 535.774 306.257 547.548 306.363 547.732C306.649 548.228 326.849 537.402 328.285 535.983C328.794 535.481 328.806 534.822 328.302 535.04ZM329.94 537.965C329.181 537.061 329.181 537.061 322.416 540.966C318.695 543.114 313.655 545.868 311.216 547.086C307.462 548.961 306.838 549.351 307.149 549.627C307.449 549.893 309.241 548.999 316.996 544.717C326.498 539.47 328.633 538.439 328.928 538.95C329.026 539.12 325.06 541.55 318.58 545.291C311.767 549.225 308.131 551.459 308.239 551.645C308.339 551.82 309.804 551.144 311.952 549.933C313.902 548.833 319.011 546.013 323.304 543.667C328.444 540.857 331.039 539.31 330.904 539.135C330.792 538.989 330.358 538.462 329.94 537.965ZM331.156 540.981C330.512 541.176 312.027 551.571 310.005 552.876C308.079 554.118 309.838 553.702 312.837 552.205C314.662 551.294 316.31 550.553 316.498 550.558C317.447 550.587 316.544 551.458 314.041 552.927C311.288 554.543 309.809 555.803 310.905 555.599C312.069 555.382 333.027 543.531 333.041 543.082C333.063 542.331 332.858 542.422 325.438 546.447C315.874 551.636 315.262 551.251 324.509 545.862C332.057 541.464 332.233 541.35 332.04 541.015C331.958 540.874 331.561 540.859 331.156 540.981ZM332.899 545.316C330.131 546.496 311.386 557.098 311.554 557.389C311.912 558.008 334.177 545.981 334.202 545.155C334.209 544.916 333.684 544.982 332.899 545.316ZM333.819 547.48C330.501 548.971 312.553 559.118 312.72 559.408C313 559.892 314.02 559.382 324.646 553.445C334.074 548.178 338.117 545.548 333.819 547.48ZM339.558 556.822C334.816 558.84 318.334 568.467 318.658 569.028C318.939 569.515 341.078 557.199 340.96 556.621C340.918 556.418 340.299 556.507 339.558 556.822ZM335.952 553.544C332.357 555.233 316.493 564.481 316.48 564.895C316.458 565.614 317.347 565.222 324.708 561.263C331.638 557.536 332.928 556.961 332.733 557.691C332.692 557.843 329.207 559.934 324.988 562.337C318.017 566.308 316.019 567.723 318.366 567.026C319.931 566.56 339.173 555.711 339.431 555.148C339.89 554.15 338.672 554.423 336.118 555.891C334.728 556.69 333.672 557.139 333.575 556.97C333.48 556.805 334.298 556.167 335.493 555.474C339.472 553.166 339.814 551.729 335.952 553.544ZM334.644 549.681C332.163 550.681 313.958 560.886 314.128 561.181C314.297 561.475 318.621 559.291 329.804 553.264C335.994 549.928 338.343 548.189 334.644 549.681ZM336.721 550.837C336.533 550.788 333.899 552.161 330.869 553.89C327.838 555.619 323.234 558.14 320.638 559.494C315.753 562.04 313.527 563.693 315.936 562.984C319.036 562.072 337.781 551.117 336.721 550.837ZM300.126 510.602C287.575 517.607 285.391 519.525 296.081 514.154C298.827 512.774 302.893 510.609 305.118 509.343C309.372 506.921 311.21 506.226 309.879 507.542C309.193 508.221 299.48 513.575 292.449 517.151C288.963 518.924 288.963 518.924 288.222 517.64C287.575 516.519 306.751 504.546 309.174 504.558C310.586 504.565 308.782 505.77 300.126 510.602ZM154.647 255.368C153.473 257.722 152.175 260.69 151.764 261.963C151.206 263.687 151.031 263.989 151.078 263.145C151.217 260.631 155.166 251.713 156.475 250.958C157.02 250.643 157.095 250.461 154.647 255.368ZM180.962 305.417C179.163 305.185 176.714 304.498 175.921 304.001C175.102 303.489 176.026 303.62 179.872 304.561C182.601 305.229 183.21 305.707 180.962 305.417ZM338.876 579.414C338.626 579.877 337.951 579.374 334.853 576.411C332.688 574.341 332.172 573.707 332.36 573.348C332.712 572.676 333.982 572.017 334.605 572.184C335.268 572.361 339.141 578.92 338.876 579.414ZM153.652 264.685C152.959 267.175 152.75 267.617 152.697 266.709C152.605 265.147 154.101 260.739 154.493 261.417C154.518 261.461 154.14 262.931 153.652 264.685ZM171.602 300.355C164.493 296.359 158.135 287.354 156.035 278.306C155.685 276.797 155.326 275.257 155.237 274.886C154.914 273.534 154.853 275.126 155.14 277.437C156.206 286.036 165.322 298.853 171.971 301.101C173.816 301.725 173.73 301.552 171.602 300.355ZM153.072 273.06C153.217 275.269 153.038 276.182 152.607 275.435C152.297 274.899 152.181 270.704 152.471 270.536C152.876 270.302 152.897 270.391 153.072 273.06ZM155.051 282.764C156.561 287.397 156.515 288.643 154.96 285.26C153.867 282.882 152.954 279.245 153.141 278.01C153.266 277.178 153.268 277.177 153.462 277.83C153.569 278.19 154.284 280.411 155.051 282.764ZM165.081 299.684C163.624 298.854 160.738 295.582 158.928 292.708C156.63 289.057 156.895 289.259 161.364 294.563C165.034 298.919 165.947 300.177 165.081 299.684ZM153.14 286.123C153.281 287.015 152.694 286.917 152.428 286.005C151.738 283.63 151.734 282.527 152.422 284.139C152.775 284.965 153.098 285.857 153.14 286.123ZM285.684 522.054C283.32 523.364 282.075 523.483 284.229 522.193C285.44 521.468 286.366 521.074 286.463 521.243C286.555 521.401 286.204 521.766 285.684 522.054ZM285.398 524.921C284.733 525.302 283.944 525.604 283.645 525.591C282.849 525.559 283.661 524.366 284.82 523.865C286.854 522.986 287.314 523.825 285.398 524.921ZM285.995 527.194C284.205 528.06 283.712 527.436 285.411 526.455C286.413 525.876 286.792 525.801 286.989 526.141C287.19 526.49 286.968 526.724 285.995 527.194ZM302.342 556.201C300.956 557.001 300.856 557.011 301.039 556.328C301.186 555.782 301.535 555.485 302.382 555.187C304.084 554.589 304.059 555.209 302.342 556.201ZM303.554 557.783C303.391 558.225 303.144 558.371 302.529 558.391C301.566 558.422 301.574 558.36 302.654 557.429C303.535 556.669 303.912 556.817 303.554 557.783ZM322.166 592.335C321.308 592.83 320.524 592.869 320.27 592.429C320.117 592.163 320.377 591.833 321.046 591.447C321.862 590.976 322.117 590.974 322.386 591.44C322.603 591.816 322.526 592.127 322.166 592.335ZM292.348 544.631C293.378 548.682 289.657 544.127 282.911 533.078C275.577 521.067 275.323 520.351 279.403 523.208C280.909 524.263 291.717 542.148 292.348 544.631ZM312.094 580.001C311.013 581.221 307.835 576.874 300.427 564.043C293.124 551.394 292.717 550.119 297.382 554.508C298.521 555.579 312.41 579.646 312.094 580.001ZM287.01 542.806C287.043 543.829 285.62 544.607 284.399 544.233C283.104 543.837 282.909 543.362 283.392 541.779C283.804 540.428 283.804 540.428 283.054 540.861C282.41 541.233 282.232 541.171 281.799 540.421C281.352 539.647 281.378 539.545 282.024 539.524C283.038 539.491 283.409 539.22 283.121 538.722C282.987 538.489 282.372 538.321 281.755 538.35C280.434 538.411 279.936 537.828 280.868 537.312C281.786 536.804 281.644 536.14 280.7 536.522C279.016 537.203 275.91 532.388 277.038 530.844C277.697 529.941 277.712 529.369 277.067 529.731C275.992 530.334 275.518 529.876 275.98 528.679C276.441 527.484 276.441 527.484 275.441 527.58C274.205 527.699 274.067 527.494 274.746 526.543C275.038 526.134 275.199 525.664 275.103 525.499C275.008 525.334 274.521 525.239 274.021 525.287C272.865 525.398 272.704 525.113 273.493 524.35C273.836 524.017 274.077 523.337 274.029 522.837C273.925 521.754 274.439 521.558 275.254 522.371C276.295 523.41 286.984 541.99 287.01 542.806ZM305.747 576.416C305.308 577.083 303.633 577.63 303.974 576.995C304.353 576.29 303.775 575.715 302.839 575.866C302.357 575.944 301.884 575.873 301.788 575.707C301.692 575.542 301.853 575.072 302.145 574.663C302.827 573.707 302.718 573.563 301.303 573.549C300.069 573.537 299.787 573.024 300.719 572.486C301.443 572.068 301.297 571.858 300.159 571.679C299.237 571.533 299.237 571.533 299.734 570.548C300.231 569.563 300.231 569.563 299.251 569.424C298.272 569.284 298.272 569.284 298.637 568.279C299.002 567.274 299.002 567.274 298.049 567.156C297.096 567.039 297.096 567.039 297.563 566.113C298.03 565.187 298.03 565.187 296.862 564.967C295.694 564.747 295.694 564.747 296.285 563.814C296.876 562.881 296.876 562.881 295.868 562.978C294.725 563.088 294.48 562.643 295.162 561.694C295.805 560.799 295.578 560.597 294.361 560.984C293.322 561.314 293.322 561.314 293.782 559.917C294.035 559.149 294.183 558.524 294.112 558.527C291.424 558.651 290.342 557.231 291.609 555.242C292.261 554.22 292.261 554.22 291.02 554.387C289.778 554.554 289.778 554.554 290.341 553.664C290.843 552.874 291.012 552.781 291.869 552.829C293.171 552.903 306.412 575.406 305.747 576.416ZM278.842 531.974C278.589 531.967 278.328 532.165 278.261 532.414C278.18 532.717 278.292 532.873 278.598 532.882C278.85 532.89 279.111 532.692 279.178 532.442C279.26 532.139 279.147 531.983 278.842 531.974ZM292.449 556.541C292.212 556.678 292.083 556.904 292.163 557.043C292.243 557.181 292.596 557.344 292.948 557.404C293.481 557.495 293.528 557.413 293.234 556.902C293.031 556.551 292.697 556.397 292.449 556.541Z" fill="#E8E4DF"/>
<path d="M109.617 877.07C108.87 873.523 107.213 870.863 104.647 869.09C102.127 867.317 99.1166 866.43 95.6166 866.43C92.6299 866.43 90.0633 866.99 87.9166 868.11C85.8166 869.23 84.0666 870.747 82.6666 872.66C81.3133 874.527 80.3099 876.673 79.6566 879.1C79.0033 881.527 78.6766 884.047 78.6766 886.66C78.6766 889.507 79.0033 892.213 79.6566 894.78C80.3099 897.3 81.3133 899.517 82.6666 901.43C84.0666 903.297 85.8399 904.79 87.9866 905.91C90.1333 907.03 92.6999 907.59 95.6866 907.59C97.8799 907.59 99.8166 907.24 101.497 906.54C103.223 905.793 104.693 904.79 105.907 903.53C107.167 902.223 108.147 900.683 108.847 898.91C109.547 897.137 109.967 895.223 110.107 893.17H116.757C116.103 899.47 113.933 904.37 110.247 907.87C106.56 911.37 101.52 913.12 95.1266 913.12C91.2533 913.12 87.8699 912.467 84.9766 911.16C82.0833 909.807 79.6799 907.963 77.7666 905.63C75.8533 903.297 74.4066 900.543 73.4266 897.37C72.4933 894.197 72.0266 890.79 72.0266 887.15C72.0266 883.51 72.5399 880.103 73.5666 876.93C74.5933 873.71 76.0866 870.91 78.0466 868.53C80.0533 866.15 82.5266 864.283 85.4666 862.93C88.4533 861.53 91.8599 860.83 95.6866 860.83C98.2999 860.83 100.773 861.18 103.107 861.88C105.44 862.58 107.517 863.607 109.337 864.96C111.157 866.313 112.673 868.017 113.887 870.07C115.1 872.077 115.893 874.41 116.267 877.07H109.617ZM126.604 893.94C126.604 896.133 126.884 898.093 127.444 899.82C128.051 901.5 128.868 902.923 129.894 904.09C130.921 905.21 132.111 906.073 133.464 906.68C134.864 907.287 136.334 907.59 137.874 907.59C139.414 907.59 140.861 907.287 142.214 906.68C143.614 906.073 144.828 905.21 145.854 904.09C146.881 902.923 147.674 901.5 148.234 899.82C148.841 898.093 149.144 896.133 149.144 893.94C149.144 891.747 148.841 889.81 148.234 888.13C147.674 886.403 146.881 884.957 145.854 883.79C144.828 882.623 143.614 881.737 142.214 881.13C140.861 880.523 139.414 880.22 137.874 880.22C136.334 880.22 134.864 880.523 133.464 881.13C132.111 881.737 130.921 882.623 129.894 883.79C128.868 884.957 128.051 886.403 127.444 888.13C126.884 889.81 126.604 891.747 126.604 893.94ZM120.304 893.94C120.304 891.28 120.678 888.807 121.424 886.52C122.171 884.187 123.291 882.18 124.784 880.5C126.278 878.773 128.121 877.42 130.314 876.44C132.508 875.46 135.028 874.97 137.874 874.97C140.768 874.97 143.288 875.46 145.434 876.44C147.628 877.42 149.471 878.773 150.964 880.5C152.458 882.18 153.578 884.187 154.324 886.52C155.071 888.807 155.444 891.28 155.444 893.94C155.444 896.6 155.071 899.073 154.324 901.36C153.578 903.647 152.458 905.653 150.964 907.38C149.471 909.06 147.628 910.39 145.434 911.37C143.288 912.303 140.768 912.77 137.874 912.77C135.028 912.77 132.508 912.303 130.314 911.37C128.121 910.39 126.278 909.06 124.784 907.38C123.291 905.653 122.171 903.647 121.424 901.36C120.678 899.073 120.304 896.6 120.304 893.94ZM160.709 875.81H166.309V881.55H166.449C168.923 877.163 172.843 874.97 178.209 874.97C180.589 874.97 182.573 875.297 184.159 875.95C185.746 876.603 187.029 877.513 188.009 878.68C188.989 879.847 189.666 881.247 190.039 882.88C190.459 884.467 190.669 886.24 190.669 888.2V912H184.719V887.5C184.719 885.26 184.066 883.487 182.759 882.18C181.453 880.873 179.656 880.22 177.369 880.22C175.549 880.22 173.963 880.5 172.609 881.06C171.303 881.62 170.206 882.413 169.319 883.44C168.433 884.467 167.756 885.68 167.289 887.08C166.869 888.433 166.659 889.927 166.659 891.56V912H160.709V875.81ZM222.426 887.43C221.959 885.143 220.979 883.37 219.486 882.11C217.993 880.85 215.986 880.22 213.466 880.22C211.319 880.22 209.523 880.617 208.076 881.41C206.629 882.203 205.463 883.253 204.576 884.56C203.736 885.867 203.129 887.383 202.756 889.11C202.383 890.79 202.196 892.54 202.196 894.36C202.196 896.04 202.383 897.673 202.756 899.26C203.176 900.847 203.806 902.27 204.646 903.53C205.486 904.743 206.583 905.723 207.936 906.47C209.289 907.217 210.899 907.59 212.766 907.59C215.706 907.59 217.993 906.82 219.626 905.28C221.306 903.74 222.333 901.57 222.706 898.77H228.796C228.143 903.25 226.463 906.703 223.756 909.13C221.096 911.557 217.456 912.77 212.836 912.77C210.083 912.77 207.633 912.327 205.486 911.44C203.386 910.553 201.613 909.293 200.166 907.66C198.766 906.027 197.693 904.09 196.946 901.85C196.246 899.563 195.896 897.067 195.896 894.36C195.896 891.653 196.246 889.133 196.946 886.8C197.646 884.42 198.696 882.367 200.096 880.64C201.543 878.867 203.339 877.49 205.486 876.51C207.633 875.483 210.129 874.97 212.976 874.97C215.029 874.97 216.943 875.227 218.716 875.74C220.536 876.207 222.123 876.953 223.476 877.98C224.876 879.007 226.019 880.313 226.906 881.9C227.793 883.44 228.353 885.283 228.586 887.43H222.426ZM240.004 869.3H234.054V862.02H240.004V869.3ZM234.054 875.81H240.004V912H234.054V875.81ZM272.601 890.44C272.508 889.04 272.181 887.71 271.621 886.45C271.108 885.19 270.385 884.117 269.451 883.23C268.565 882.297 267.491 881.573 266.231 881.06C265.018 880.5 263.665 880.22 262.171 880.22C260.631 880.22 259.231 880.5 257.971 881.06C256.758 881.573 255.708 882.297 254.821 883.23C253.935 884.163 253.235 885.26 252.721 886.52C252.208 887.733 251.905 889.04 251.811 890.44H272.601ZM278.341 900.52C277.548 904.58 275.798 907.637 273.091 909.69C270.385 911.743 266.978 912.77 262.871 912.77C259.978 912.77 257.458 912.303 255.311 911.37C253.211 910.437 251.438 909.13 249.991 907.45C248.545 905.77 247.448 903.763 246.701 901.43C246.001 899.097 245.605 896.553 245.511 893.8C245.511 891.047 245.931 888.527 246.771 886.24C247.611 883.953 248.778 881.97 250.271 880.29C251.811 878.61 253.608 877.303 255.661 876.37C257.761 875.437 260.048 874.97 262.521 874.97C265.741 874.97 268.401 875.647 270.501 877C272.648 878.307 274.351 879.987 275.611 882.04C276.918 884.093 277.805 886.333 278.271 888.76C278.785 891.187 278.995 893.497 278.901 895.69H251.811C251.765 897.277 251.951 898.793 252.371 900.24C252.791 901.64 253.468 902.9 254.401 904.02C255.335 905.093 256.525 905.957 257.971 906.61C259.418 907.263 261.121 907.59 263.081 907.59C265.601 907.59 267.655 907.007 269.241 905.84C270.875 904.673 271.948 902.9 272.461 900.52H278.341ZM283.109 875.81H288.709V883.44H288.849C290.296 880.5 292.069 878.33 294.169 876.93C296.269 875.53 298.929 874.877 302.149 874.97V881.27C299.769 881.27 297.739 881.597 296.059 882.25C294.379 882.903 293.026 883.86 291.999 885.12C290.972 886.38 290.226 887.92 289.759 889.74C289.292 891.513 289.059 893.567 289.059 895.9V912H283.109V875.81ZM334.117 908.92C334.117 914.847 332.764 919.28 330.057 922.22C327.35 925.16 323.104 926.63 317.317 926.63C315.637 926.63 313.91 926.443 312.137 926.07C310.41 925.697 308.824 925.09 307.377 924.25C305.977 923.41 304.81 922.313 303.877 920.96C302.944 919.607 302.43 917.95 302.337 915.99H308.287C308.334 917.063 308.66 917.973 309.267 918.72C309.92 919.467 310.69 920.073 311.577 920.54C312.51 921.007 313.514 921.333 314.587 921.52C315.66 921.753 316.687 921.87 317.667 921.87C319.627 921.87 321.284 921.52 322.637 920.82C323.99 920.167 325.11 919.233 325.997 918.02C326.884 916.853 327.514 915.43 327.887 913.75C328.307 912.07 328.517 910.227 328.517 908.22V905.84H328.377C327.35 908.08 325.787 909.737 323.687 910.81C321.634 911.837 319.44 912.35 317.107 912.35C314.4 912.35 312.044 911.86 310.037 910.88C308.03 909.9 306.35 908.593 304.997 906.96C303.644 905.28 302.617 903.343 301.917 901.15C301.264 898.91 300.937 896.553 300.937 894.08C300.937 891.933 301.217 889.74 301.777 887.5C302.337 885.213 303.27 883.16 304.577 881.34C305.884 879.473 307.61 877.957 309.757 876.79C311.904 875.577 314.54 874.97 317.667 874.97C319.954 874.97 322.054 875.483 323.967 876.51C325.88 877.49 327.374 878.983 328.447 880.99H328.517V875.81H334.117V908.92ZM317.457 907.17C319.417 907.17 321.074 906.773 322.427 905.98C323.827 905.14 324.947 904.067 325.787 902.76C326.627 901.407 327.234 899.89 327.607 898.21C328.027 896.53 328.237 894.85 328.237 893.17C328.237 891.583 328.05 890.02 327.677 888.48C327.304 886.94 326.697 885.563 325.857 884.35C325.064 883.09 324.014 882.087 322.707 881.34C321.4 880.593 319.814 880.22 317.947 880.22C316.034 880.22 314.4 880.593 313.047 881.34C311.694 882.04 310.574 882.997 309.687 884.21C308.847 885.423 308.217 886.823 307.797 888.41C307.424 889.997 307.237 891.653 307.237 893.38C307.237 895.013 307.4 896.647 307.727 898.28C308.054 899.913 308.614 901.407 309.407 902.76C310.2 904.067 311.25 905.14 312.557 905.98C313.864 906.773 315.497 907.17 317.457 907.17ZM366.472 890.44C366.379 889.04 366.052 887.71 365.492 886.45C364.979 885.19 364.256 884.117 363.322 883.23C362.436 882.297 361.362 881.573 360.102 881.06C358.889 880.5 357.536 880.22 356.042 880.22C354.502 880.22 353.102 880.5 351.842 881.06C350.629 881.573 349.579 882.297 348.692 883.23C347.806 884.163 347.106 885.26 346.592 886.52C346.079 887.733 345.776 889.04 345.682 890.44H366.472ZM372.212 900.52C371.419 904.58 369.669 907.637 366.962 909.69C364.256 911.743 360.849 912.77 356.742 912.77C353.849 912.77 351.329 912.303 349.182 911.37C347.082 910.437 345.309 909.13 343.862 907.45C342.416 905.77 341.319 903.763 340.572 901.43C339.872 899.097 339.476 896.553 339.382 893.8C339.382 891.047 339.802 888.527 340.642 886.24C341.482 883.953 342.649 881.97 344.142 880.29C345.682 878.61 347.479 877.303 349.532 876.37C351.632 875.437 353.919 874.97 356.392 874.97C359.612 874.97 362.272 875.647 364.372 877C366.519 878.307 368.222 879.987 369.482 882.04C370.789 884.093 371.676 886.333 372.142 888.76C372.656 891.187 372.866 893.497 372.772 895.69H345.682C345.636 897.277 345.822 898.793 346.242 900.24C346.662 901.64 347.339 902.9 348.272 904.02C349.206 905.093 350.396 905.957 351.842 906.61C353.289 907.263 354.992 907.59 356.952 907.59C359.472 907.59 361.526 907.007 363.112 905.84C364.746 904.673 365.819 902.9 366.332 900.52H372.212ZM376.98 875.81H382.58V883.44H382.72C384.167 880.5 385.94 878.33 388.04 876.93C390.14 875.53 392.8 874.877 396.02 874.97V881.27C393.64 881.27 391.61 881.597 389.93 882.25C388.25 882.903 386.897 883.86 385.87 885.12C384.843 886.38 384.097 887.92 383.63 889.74C383.163 891.513 382.93 893.567 382.93 895.9V912H376.98V875.81ZM405.051 869.3H399.101V862.02H405.051V869.3ZM399.101 875.81H405.051V912H399.101V875.81ZM437.648 890.44C437.555 889.04 437.228 887.71 436.668 886.45C436.155 885.19 435.431 884.117 434.498 883.23C433.611 882.297 432.538 881.573 431.278 881.06C430.065 880.5 428.711 880.22 427.218 880.22C425.678 880.22 424.278 880.5 423.018 881.06C421.805 881.573 420.755 882.297 419.868 883.23C418.981 884.163 418.281 885.26 417.768 886.52C417.255 887.733 416.951 889.04 416.858 890.44H437.648ZM443.388 900.52C442.595 904.58 440.845 907.637 438.138 909.69C435.431 911.743 432.025 912.77 427.918 912.77C425.025 912.77 422.505 912.303 420.358 911.37C418.258 910.437 416.485 909.13 415.038 907.45C413.591 905.77 412.495 903.763 411.748 901.43C411.048 899.097 410.651 896.553 410.558 893.8C410.558 891.047 410.978 888.527 411.818 886.24C412.658 883.953 413.825 881.97 415.318 880.29C416.858 878.61 418.655 877.303 420.708 876.37C422.808 875.437 425.095 874.97 427.568 874.97C430.788 874.97 433.448 875.647 435.548 877C437.695 878.307 439.398 879.987 440.658 882.04C441.965 884.093 442.851 886.333 443.318 888.76C443.831 891.187 444.041 893.497 443.948 895.69H416.858C416.811 897.277 416.998 898.793 417.418 900.24C417.838 901.64 418.515 902.9 419.448 904.02C420.381 905.093 421.571 905.957 423.018 906.61C424.465 907.263 426.168 907.59 428.128 907.59C430.648 907.59 432.701 907.007 434.288 905.84C435.921 904.673 436.995 902.9 437.508 900.52H443.388ZM449.696 904.23H457.466V911.3C457.466 913.96 456.859 916.247 455.646 918.16C454.432 920.073 452.472 921.427 449.766 922.22V918.72C450.559 918.44 451.212 918.02 451.726 917.46C452.286 916.947 452.729 916.363 453.056 915.71C453.382 915.103 453.592 914.473 453.686 913.82C453.826 913.167 453.872 912.56 453.826 912H449.696V904.23ZM74.1107 947.02H83.2107L98.9607 989.02L114.781 947.02H123.881V997H117.581V955.42H117.441L101.831 997H96.1607L80.5507 955.42H80.4107V997H74.1107V947.02ZM164.277 996.86C163.251 997.467 161.827 997.77 160.007 997.77C158.467 997.77 157.231 997.35 156.297 996.51C155.411 995.623 154.967 994.2 154.967 992.24C153.334 994.2 151.421 995.623 149.227 996.51C147.081 997.35 144.747 997.77 142.227 997.77C140.594 997.77 139.031 997.583 137.537 997.21C136.091 996.837 134.831 996.253 133.757 995.46C132.684 994.667 131.821 993.64 131.167 992.38C130.561 991.073 130.257 989.51 130.257 987.69C130.257 985.637 130.607 983.957 131.307 982.65C132.007 981.343 132.917 980.293 134.037 979.5C135.204 978.66 136.511 978.03 137.957 977.61C139.451 977.19 140.967 976.84 142.507 976.56C144.141 976.233 145.681 976 147.127 975.86C148.621 975.673 149.927 975.44 151.047 975.16C152.167 974.833 153.054 974.39 153.707 973.83C154.361 973.223 154.687 972.36 154.687 971.24C154.687 969.933 154.431 968.883 153.917 968.09C153.451 967.297 152.821 966.69 152.027 966.27C151.281 965.85 150.417 965.57 149.437 965.43C148.504 965.29 147.571 965.22 146.637 965.22C144.117 965.22 142.017 965.71 140.337 966.69C138.657 967.623 137.747 969.42 137.607 972.08H131.657C131.751 969.84 132.217 967.95 133.057 966.41C133.897 964.87 135.017 963.633 136.417 962.7C137.817 961.72 139.404 961.02 141.177 960.6C142.997 960.18 144.934 959.97 146.987 959.97C148.621 959.97 150.231 960.087 151.817 960.32C153.451 960.553 154.921 961.043 156.227 961.79C157.534 962.49 158.584 963.493 159.377 964.8C160.171 966.107 160.567 967.81 160.567 969.91V988.53C160.567 989.93 160.637 990.957 160.777 991.61C160.964 992.263 161.524 992.59 162.457 992.59C162.971 992.59 163.577 992.473 164.277 992.24V996.86ZM154.617 978.31C153.871 978.87 152.891 979.29 151.677 979.57C150.464 979.803 149.181 980.013 147.827 980.2C146.521 980.34 145.191 980.527 143.837 980.76C142.484 980.947 141.271 981.273 140.197 981.74C139.124 982.207 138.237 982.883 137.537 983.77C136.884 984.61 136.557 985.777 136.557 987.27C136.557 988.25 136.744 989.09 137.117 989.79C137.537 990.443 138.051 990.98 138.657 991.4C139.311 991.82 140.057 992.123 140.897 992.31C141.737 992.497 142.624 992.59 143.557 992.59C145.517 992.59 147.197 992.333 148.597 991.82C149.997 991.26 151.141 990.583 152.027 989.79C152.914 988.95 153.567 988.063 153.987 987.13C154.407 986.15 154.617 985.24 154.617 984.4V978.31ZM168.065 960.81H173.665V966.55H173.805C176.278 962.163 180.198 959.97 185.565 959.97C187.945 959.97 189.928 960.297 191.515 960.95C193.102 961.603 194.385 962.513 195.365 963.68C196.345 964.847 197.022 966.247 197.395 967.88C197.815 969.467 198.025 971.24 198.025 973.2V997H192.075V972.5C192.075 970.26 191.422 968.487 190.115 967.18C188.808 965.873 187.012 965.22 184.725 965.22C182.905 965.22 181.318 965.5 179.965 966.06C178.658 966.62 177.562 967.413 176.675 968.44C175.788 969.467 175.112 970.68 174.645 972.08C174.225 973.433 174.015 974.927 174.015 976.56V997H168.065V960.81ZM237.271 996.86C236.245 997.467 234.821 997.77 233.001 997.77C231.461 997.77 230.225 997.35 229.291 996.51C228.405 995.623 227.961 994.2 227.961 992.24C226.328 994.2 224.415 995.623 222.221 996.51C220.075 997.35 217.741 997.77 215.221 997.77C213.588 997.77 212.025 997.583 210.531 997.21C209.085 996.837 207.825 996.253 206.751 995.46C205.678 994.667 204.815 993.64 204.161 992.38C203.555 991.073 203.251 989.51 203.251 987.69C203.251 985.637 203.601 983.957 204.301 982.65C205.001 981.343 205.911 980.293 207.031 979.5C208.198 978.66 209.505 978.03 210.951 977.61C212.445 977.19 213.961 976.84 215.501 976.56C217.135 976.233 218.675 976 220.121 975.86C221.615 975.673 222.921 975.44 224.041 975.16C225.161 974.833 226.048 974.39 226.701 973.83C227.355 973.223 227.681 972.36 227.681 971.24C227.681 969.933 227.425 968.883 226.911 968.09C226.445 967.297 225.815 966.69 225.021 966.27C224.275 965.85 223.411 965.57 222.431 965.43C221.498 965.29 220.565 965.22 219.631 965.22C217.111 965.22 215.011 965.71 213.331 966.69C211.651 967.623 210.741 969.42 210.601 972.08H204.651C204.745 969.84 205.211 967.95 206.051 966.41C206.891 964.87 208.011 963.633 209.411 962.7C210.811 961.72 212.398 961.02 214.171 960.6C215.991 960.18 217.928 959.97 219.981 959.97C221.615 959.97 223.225 960.087 224.811 960.32C226.445 960.553 227.915 961.043 229.221 961.79C230.528 962.49 231.578 963.493 232.371 964.8C233.165 966.107 233.561 967.81 233.561 969.91V988.53C233.561 989.93 233.631 990.957 233.771 991.61C233.958 992.263 234.518 992.59 235.451 992.59C235.965 992.59 236.571 992.473 237.271 992.24V996.86ZM227.611 978.31C226.865 978.87 225.885 979.29 224.671 979.57C223.458 979.803 222.175 980.013 220.821 980.2C219.515 980.34 218.185 980.527 216.831 980.76C215.478 980.947 214.265 981.273 213.191 981.74C212.118 982.207 211.231 982.883 210.531 983.77C209.878 984.61 209.551 985.777 209.551 987.27C209.551 988.25 209.738 989.09 210.111 989.79C210.531 990.443 211.045 990.98 211.651 991.4C212.305 991.82 213.051 992.123 213.891 992.31C214.731 992.497 215.618 992.59 216.551 992.59C218.511 992.59 220.191 992.333 221.591 991.82C222.991 991.26 224.135 990.583 225.021 989.79C225.908 988.95 226.561 988.063 226.981 987.13C227.401 986.15 227.611 985.24 227.611 984.4V978.31ZM272.279 993.92C272.279 999.847 270.926 1004.28 268.219 1007.22C265.512 1010.16 261.266 1011.63 255.479 1011.63C253.799 1011.63 252.072 1011.44 250.299 1011.07C248.572 1010.7 246.986 1010.09 245.539 1009.25C244.139 1008.41 242.972 1007.31 242.039 1005.96C241.106 1004.61 240.592 1002.95 240.499 1000.99H246.449C246.496 1002.06 246.822 1002.97 247.429 1003.72C248.082 1004.47 248.852 1005.07 249.739 1005.54C250.672 1006.01 251.676 1006.33 252.749 1006.52C253.822 1006.75 254.849 1006.87 255.829 1006.87C257.789 1006.87 259.446 1006.52 260.799 1005.82C262.152 1005.17 263.272 1004.23 264.159 1003.02C265.046 1001.85 265.676 1000.43 266.049 998.75C266.469 997.07 266.679 995.227 266.679 993.22V990.84H266.539C265.512 993.08 263.949 994.737 261.849 995.81C259.796 996.837 257.602 997.35 255.269 997.35C252.562 997.35 250.206 996.86 248.199 995.88C246.192 994.9 244.512 993.593 243.159 991.96C241.806 990.28 240.779 988.343 240.079 986.15C239.426 983.91 239.099 981.553 239.099 979.08C239.099 976.933 239.379 974.74 239.939 972.5C240.499 970.213 241.432 968.16 242.739 966.34C244.046 964.473 245.772 962.957 247.919 961.79C250.066 960.577 252.702 959.97 255.829 959.97C258.116 959.97 260.216 960.483 262.129 961.51C264.042 962.49 265.536 963.983 266.609 965.99H266.679V960.81H272.279V993.92ZM255.619 992.17C257.579 992.17 259.236 991.773 260.589 990.98C261.989 990.14 263.109 989.067 263.949 987.76C264.789 986.407 265.396 984.89 265.769 983.21C266.189 981.53 266.399 979.85 266.399 978.17C266.399 976.583 266.212 975.02 265.839 973.48C265.466 971.94 264.859 970.563 264.019 969.35C263.226 968.09 262.176 967.087 260.869 966.34C259.562 965.593 257.976 965.22 256.109 965.22C254.196 965.22 252.562 965.593 251.209 966.34C249.856 967.04 248.736 967.997 247.849 969.21C247.009 970.423 246.379 971.823 245.959 973.41C245.586 974.997 245.399 976.653 245.399 978.38C245.399 980.013 245.562 981.647 245.889 983.28C246.216 984.913 246.776 986.407 247.569 987.76C248.362 989.067 249.412 990.14 250.719 990.98C252.026 991.773 253.659 992.17 255.619 992.17ZM304.634 975.44C304.541 974.04 304.214 972.71 303.654 971.45C303.141 970.19 302.418 969.117 301.484 968.23C300.598 967.297 299.524 966.573 298.264 966.06C297.051 965.5 295.698 965.22 294.204 965.22C292.664 965.22 291.264 965.5 290.004 966.06C288.791 966.573 287.741 967.297 286.854 968.23C285.968 969.163 285.268 970.26 284.754 971.52C284.241 972.733 283.938 974.04 283.844 975.44H304.634ZM310.374 985.52C309.581 989.58 307.831 992.637 305.124 994.69C302.418 996.743 299.011 997.77 294.904 997.77C292.011 997.77 289.491 997.303 287.344 996.37C285.244 995.437 283.471 994.13 282.024 992.45C280.578 990.77 279.481 988.763 278.734 986.43C278.034 984.097 277.638 981.553 277.544 978.8C277.544 976.047 277.964 973.527 278.804 971.24C279.644 968.953 280.811 966.97 282.304 965.29C283.844 963.61 285.641 962.303 287.694 961.37C289.794 960.437 292.081 959.97 294.554 959.97C297.774 959.97 300.434 960.647 302.534 962C304.681 963.307 306.384 964.987 307.644 967.04C308.951 969.093 309.838 971.333 310.304 973.76C310.818 976.187 311.028 978.497 310.934 980.69H283.844C283.798 982.277 283.984 983.793 284.404 985.24C284.824 986.64 285.501 987.9 286.434 989.02C287.368 990.093 288.558 990.957 290.004 991.61C291.451 992.263 293.154 992.59 295.114 992.59C297.634 992.59 299.688 992.007 301.274 990.84C302.908 989.673 303.981 987.9 304.494 985.52H310.374ZM315.352 960.81H320.952V966.13H321.092C323.799 962.023 327.695 959.97 332.782 959.97C335.022 959.97 337.052 960.437 338.872 961.37C340.692 962.303 341.975 963.89 342.722 966.13C343.935 964.17 345.522 962.653 347.482 961.58C349.489 960.507 351.682 959.97 354.062 959.97C355.882 959.97 357.515 960.18 358.962 960.6C360.455 960.973 361.715 961.58 362.742 962.42C363.815 963.26 364.632 964.357 365.192 965.71C365.799 967.017 366.102 968.603 366.102 970.47V997H360.152V973.27C360.152 972.15 360.059 971.1 359.872 970.12C359.685 969.14 359.335 968.3 358.822 967.6C358.309 966.853 357.585 966.27 356.652 965.85C355.765 965.43 354.599 965.22 353.152 965.22C350.212 965.22 347.902 966.06 346.222 967.74C344.542 969.42 343.702 971.66 343.702 974.46V997H337.752V973.27C337.752 972.103 337.635 971.03 337.402 970.05C337.215 969.07 336.865 968.23 336.352 967.53C335.839 966.783 335.139 966.223 334.252 965.85C333.412 965.43 332.315 965.22 330.962 965.22C329.235 965.22 327.742 965.57 326.482 966.27C325.269 966.97 324.265 967.81 323.472 968.79C322.725 969.77 322.165 970.797 321.792 971.87C321.465 972.897 321.302 973.76 321.302 974.46V997H315.352V960.81ZM398.41 975.44C398.316 974.04 397.99 972.71 397.43 971.45C396.916 970.19 396.193 969.117 395.26 968.23C394.373 967.297 393.3 966.573 392.04 966.06C390.826 965.5 389.473 965.22 387.98 965.22C386.44 965.22 385.04 965.5 383.78 966.06C382.566 966.573 381.516 967.297 380.63 968.23C379.743 969.163 379.043 970.26 378.53 971.52C378.016 972.733 377.713 974.04 377.62 975.44H398.41ZM404.15 985.52C403.356 989.58 401.606 992.637 398.9 994.69C396.193 996.743 392.786 997.77 388.68 997.77C385.786 997.77 383.266 997.303 381.12 996.37C379.02 995.437 377.246 994.13 375.8 992.45C374.353 990.77 373.256 988.763 372.51 986.43C371.81 984.097 371.413 981.553 371.32 978.8C371.32 976.047 371.74 973.527 372.58 971.24C373.42 968.953 374.586 966.97 376.08 965.29C377.62 963.61 379.416 962.303 381.47 961.37C383.57 960.437 385.856 959.97 388.33 959.97C391.55 959.97 394.21 960.647 396.31 962C398.456 963.307 400.16 964.987 401.42 967.04C402.726 969.093 403.613 971.333 404.08 973.76C404.593 976.187 404.803 978.497 404.71 980.69H377.62C377.573 982.277 377.76 983.793 378.18 985.24C378.6 986.64 379.276 987.9 380.21 989.02C381.143 990.093 382.333 990.957 383.78 991.61C385.226 992.263 386.93 992.59 388.89 992.59C391.41 992.59 393.463 992.007 395.05 990.84C396.683 989.673 397.756 987.9 398.27 985.52H404.15ZM409.127 960.81H414.727V966.55H414.867C417.341 962.163 421.261 959.97 426.627 959.97C429.007 959.97 430.991 960.297 432.577 960.95C434.164 961.603 435.447 962.513 436.427 963.68C437.407 964.847 438.084 966.247 438.457 967.88C438.877 969.467 439.087 971.24 439.087 973.2V997H433.137V972.5C433.137 970.26 432.484 968.487 431.177 967.18C429.871 965.873 428.074 965.22 425.787 965.22C423.967 965.22 422.381 965.5 421.027 966.06C419.721 966.62 418.624 967.413 417.737 968.44C416.851 969.467 416.174 970.68 415.707 972.08C415.287 973.433 415.077 974.927 415.077 976.56V997H409.127V960.81ZM454.534 960.81H461.744V966.06H454.534V988.53C454.534 989.23 454.581 989.79 454.674 990.21C454.814 990.63 455.047 990.957 455.374 991.19C455.701 991.423 456.144 991.587 456.704 991.68C457.311 991.727 458.081 991.75 459.014 991.75H461.744V997H457.194C455.654 997 454.324 996.907 453.204 996.72C452.131 996.487 451.244 996.09 450.544 995.53C449.891 994.97 449.401 994.177 449.074 993.15C448.747 992.123 448.584 990.77 448.584 989.09V966.06H442.424V960.81H448.584V949.96H454.534V960.81ZM54.8389 1051.27C55.5389 1050.8 56.2855 1050.29 57.0789 1049.73C57.8722 1049.17 58.5955 1048.54 59.2489 1047.84C59.9022 1047.14 60.4389 1046.37 60.8589 1045.53C61.2789 1044.64 61.4889 1043.66 61.4889 1042.59C61.4889 1041.14 60.9755 1039.91 59.9489 1038.88C58.9222 1037.81 57.5222 1037.27 55.7489 1037.27C54.3489 1037.27 53.0422 1037.71 51.8289 1038.6C50.6155 1039.44 50.0089 1040.77 50.0089 1042.59C50.0089 1043.34 50.1489 1044.08 50.4289 1044.83C50.7555 1045.58 51.1522 1046.32 51.6189 1047.07C52.0855 1047.77 52.5989 1048.47 53.1589 1049.17C53.7189 1049.87 54.2789 1050.57 54.8389 1051.27ZM67.6489 1075.77C66.1555 1078.1 64.1022 1079.85 61.4889 1081.02C58.9222 1082.19 56.2622 1082.77 53.5089 1082.77C50.1489 1082.77 47.4422 1082.26 45.3889 1081.23C43.3355 1080.2 41.7489 1078.97 40.6289 1077.52C39.5089 1076.07 38.7622 1074.58 38.3889 1073.04C38.0622 1071.5 37.8989 1070.22 37.8989 1069.19C37.8989 1067.23 38.2022 1065.5 38.8089 1064.01C39.4622 1062.52 40.3022 1061.19 41.3289 1060.02C42.4022 1058.81 43.6389 1057.73 45.0389 1056.8C46.4855 1055.82 48.0022 1054.91 49.5889 1054.07C48.8889 1053.09 48.2122 1052.16 47.5589 1051.27C46.9055 1050.38 46.2989 1049.5 45.7389 1048.61C45.2255 1047.68 44.8055 1046.72 44.4789 1045.74C44.1989 1044.71 44.0589 1043.57 44.0589 1042.31C44.0589 1040.96 44.2922 1039.67 44.7589 1038.46C45.2722 1037.2 45.9955 1036.1 46.9289 1035.17C47.9089 1034.19 49.0989 1033.42 50.4989 1032.86C51.8989 1032.3 53.5089 1032.02 55.3289 1032.02C56.8689 1032.02 58.3622 1032.23 59.8089 1032.65C61.3022 1033.07 62.6089 1033.72 63.7289 1034.61C64.8489 1035.45 65.7355 1036.52 66.3889 1037.83C67.0889 1039.09 67.4389 1040.56 67.4389 1042.24C67.4389 1043.73 67.1822 1045.13 66.6689 1046.44C66.1555 1047.7 65.4555 1048.87 64.5689 1049.94C63.6822 1051.01 62.6789 1051.99 61.5589 1052.88C60.4389 1053.72 59.2722 1054.49 58.0589 1055.19L67.0889 1066.18C68.0222 1063.57 68.5589 1060.98 68.6989 1058.41H74.3689C74.2289 1059.9 74.0655 1061.19 73.8789 1062.26C73.7389 1063.29 73.5289 1064.24 73.2489 1065.13C73.0155 1066.02 72.7122 1066.9 72.3389 1067.79C71.9655 1068.63 71.5222 1069.61 71.0089 1070.73L80.7389 1082H72.9689L67.6489 1075.77ZM52.8789 1057.85C51.7122 1058.5 50.5922 1059.18 49.5189 1059.88C48.4922 1060.58 47.5822 1061.37 46.7889 1062.26C45.9955 1063.15 45.3655 1064.15 44.8989 1065.27C44.4322 1066.34 44.1989 1067.63 44.1989 1069.12C44.1989 1070.38 44.4555 1071.55 44.9689 1072.62C45.5289 1073.65 46.2522 1074.53 47.1389 1075.28C48.0255 1075.98 49.0289 1076.54 50.1489 1076.96C51.3155 1077.38 52.5055 1077.59 53.7189 1077.59C56.0055 1077.59 58.0355 1077.05 59.8089 1075.98C61.6289 1074.91 63.1455 1073.46 64.3589 1071.64L52.8789 1057.85ZM107.773 1053.51H121.073C124.853 1053.51 127.56 1052.86 129.193 1051.55C130.873 1050.2 131.713 1048.19 131.713 1045.53C131.713 1043.76 131.433 1042.36 130.873 1041.33C130.313 1040.3 129.543 1039.51 128.563 1038.95C127.583 1038.39 126.44 1038.04 125.133 1037.9C123.873 1037.71 122.52 1037.62 121.073 1037.62H107.773V1053.51ZM101.123 1032.02H119.253C120.326 1032.02 121.47 1032.04 122.683 1032.09C123.943 1032.09 125.18 1032.16 126.393 1032.3C127.606 1032.39 128.726 1032.56 129.753 1032.79C130.826 1033.02 131.736 1033.37 132.483 1033.84C134.116 1034.82 135.493 1036.17 136.613 1037.9C137.78 1039.63 138.363 1041.75 138.363 1044.27C138.363 1046.93 137.71 1049.24 136.403 1051.2C135.143 1053.11 133.323 1054.54 130.943 1055.47V1055.61C134.023 1056.26 136.38 1057.66 138.013 1059.81C139.646 1061.96 140.463 1064.57 140.463 1067.65C140.463 1069.47 140.136 1071.24 139.483 1072.97C138.83 1074.7 137.85 1076.24 136.543 1077.59C135.283 1078.9 133.696 1079.97 131.783 1080.81C129.916 1081.6 127.746 1082 125.273 1082H101.123V1032.02ZM107.773 1076.4H124.433C127.373 1076.4 129.66 1075.61 131.293 1074.02C132.973 1072.43 133.813 1070.24 133.813 1067.44C133.813 1065.81 133.51 1064.45 132.903 1063.38C132.296 1062.31 131.48 1061.47 130.453 1060.86C129.473 1060.21 128.33 1059.76 127.023 1059.53C125.716 1059.25 124.363 1059.11 122.963 1059.11H107.773V1076.4ZM146.103 1045.81H151.703V1053.44H151.843C153.29 1050.5 155.063 1048.33 157.163 1046.93C159.263 1045.53 161.923 1044.88 165.143 1044.97V1051.27C162.763 1051.27 160.733 1051.6 159.053 1052.25C157.373 1052.9 156.02 1053.86 154.993 1055.12C153.966 1056.38 153.22 1057.92 152.753 1059.74C152.286 1061.51 152.053 1063.57 152.053 1065.9V1082H146.103V1045.81ZM199.934 1081.86C198.907 1082.47 197.484 1082.77 195.664 1082.77C194.124 1082.77 192.887 1082.35 191.954 1081.51C191.067 1080.62 190.624 1079.2 190.624 1077.24C188.99 1079.2 187.077 1080.62 184.884 1081.51C182.737 1082.35 180.404 1082.77 177.884 1082.77C176.25 1082.77 174.687 1082.58 173.194 1082.21C171.747 1081.84 170.487 1081.25 169.414 1080.46C168.34 1079.67 167.477 1078.64 166.824 1077.38C166.217 1076.07 165.914 1074.51 165.914 1072.69C165.914 1070.64 166.264 1068.96 166.964 1067.65C167.664 1066.34 168.574 1065.29 169.694 1064.5C170.86 1063.66 172.167 1063.03 173.614 1062.61C175.107 1062.19 176.624 1061.84 178.164 1061.56C179.797 1061.23 181.337 1061 182.784 1060.86C184.277 1060.67 185.584 1060.44 186.704 1060.16C187.824 1059.83 188.71 1059.39 189.364 1058.83C190.017 1058.22 190.344 1057.36 190.344 1056.24C190.344 1054.93 190.087 1053.88 189.574 1053.09C189.107 1052.3 188.477 1051.69 187.684 1051.27C186.937 1050.85 186.074 1050.57 185.094 1050.43C184.16 1050.29 183.227 1050.22 182.294 1050.22C179.774 1050.22 177.674 1050.71 175.994 1051.69C174.314 1052.62 173.404 1054.42 173.264 1057.08H167.314C167.407 1054.84 167.874 1052.95 168.714 1051.41C169.554 1049.87 170.674 1048.63 172.074 1047.7C173.474 1046.72 175.06 1046.02 176.834 1045.6C178.654 1045.18 180.59 1044.97 182.644 1044.97C184.277 1044.97 185.887 1045.09 187.474 1045.32C189.107 1045.55 190.577 1046.04 191.884 1046.79C193.19 1047.49 194.24 1048.49 195.034 1049.8C195.827 1051.11 196.224 1052.81 196.224 1054.91V1073.53C196.224 1074.93 196.294 1075.96 196.434 1076.61C196.62 1077.26 197.18 1077.59 198.114 1077.59C198.627 1077.59 199.234 1077.47 199.934 1077.24V1081.86ZM190.274 1063.31C189.527 1063.87 188.547 1064.29 187.334 1064.57C186.12 1064.8 184.837 1065.01 183.484 1065.2C182.177 1065.34 180.847 1065.53 179.494 1065.76C178.14 1065.95 176.927 1066.27 175.854 1066.74C174.78 1067.21 173.894 1067.88 173.194 1068.77C172.54 1069.61 172.214 1070.78 172.214 1072.27C172.214 1073.25 172.4 1074.09 172.774 1074.79C173.194 1075.44 173.707 1075.98 174.314 1076.4C174.967 1076.82 175.714 1077.12 176.554 1077.31C177.394 1077.5 178.28 1077.59 179.214 1077.59C181.174 1077.59 182.854 1077.33 184.254 1076.82C185.654 1076.26 186.797 1075.58 187.684 1074.79C188.57 1073.95 189.224 1073.06 189.644 1072.13C190.064 1071.15 190.274 1070.24 190.274 1069.4V1063.31ZM203.721 1045.81H209.321V1051.55H209.461C211.935 1047.16 215.855 1044.97 221.221 1044.97C223.601 1044.97 225.585 1045.3 227.171 1045.95C228.758 1046.6 230.041 1047.51 231.021 1048.68C232.001 1049.85 232.678 1051.25 233.051 1052.88C233.471 1054.47 233.681 1056.24 233.681 1058.2V1082H227.731V1057.5C227.731 1055.26 227.078 1053.49 225.771 1052.18C224.465 1050.87 222.668 1050.22 220.381 1050.22C218.561 1050.22 216.975 1050.5 215.621 1051.06C214.315 1051.62 213.218 1052.41 212.331 1053.44C211.445 1054.47 210.768 1055.68 210.301 1057.08C209.881 1058.43 209.671 1059.93 209.671 1061.56V1082H203.721V1045.81ZM245.208 1064.22C245.208 1065.9 245.418 1067.56 245.838 1069.19C246.304 1070.78 246.981 1072.2 247.868 1073.46C248.801 1074.72 249.968 1075.72 251.368 1076.47C252.814 1077.22 254.494 1077.59 256.408 1077.59C258.414 1077.59 260.118 1077.19 261.518 1076.4C262.918 1075.61 264.061 1074.58 264.948 1073.32C265.834 1072.01 266.464 1070.54 266.838 1068.91C267.258 1067.28 267.468 1065.62 267.468 1063.94C267.468 1062.17 267.258 1060.46 266.838 1058.83C266.418 1057.15 265.741 1055.68 264.808 1054.42C263.921 1053.16 262.754 1052.16 261.308 1051.41C259.861 1050.62 258.111 1050.22 256.058 1050.22C254.051 1050.22 252.348 1050.62 250.948 1051.41C249.548 1052.2 248.428 1053.25 247.588 1054.56C246.748 1055.87 246.141 1057.36 245.768 1059.04C245.394 1060.72 245.208 1062.45 245.208 1064.22ZM273.208 1082H267.258V1077.1H267.118C266.138 1079.11 264.598 1080.55 262.498 1081.44C260.398 1082.33 258.088 1082.77 255.568 1082.77C252.768 1082.77 250.318 1082.26 248.218 1081.23C246.164 1080.2 244.438 1078.83 243.038 1077.1C241.684 1075.37 240.658 1073.37 239.958 1071.08C239.258 1068.79 238.908 1066.37 238.908 1063.8C238.908 1061.23 239.234 1058.81 239.888 1056.52C240.588 1054.23 241.614 1052.25 242.968 1050.57C244.368 1048.84 246.094 1047.49 248.148 1046.51C250.248 1045.48 252.674 1044.97 255.428 1044.97C256.361 1044.97 257.364 1045.06 258.438 1045.25C259.511 1045.44 260.584 1045.76 261.658 1046.23C262.731 1046.65 263.734 1047.23 264.668 1047.98C265.648 1048.68 266.464 1049.57 267.118 1050.64H267.258V1032.02H273.208V1082ZM336.704 1075.77C334.744 1078.38 332.318 1080.27 329.424 1081.44C326.531 1082.56 323.614 1083.12 320.674 1083.12C316.941 1083.12 313.604 1082.44 310.664 1081.09C307.724 1079.69 305.228 1077.82 303.174 1075.49C301.121 1073.16 299.558 1070.47 298.484 1067.44C297.411 1064.41 296.874 1061.26 296.874 1057.99C296.874 1054.35 297.364 1050.9 298.344 1047.63C299.371 1044.32 300.864 1041.42 302.824 1038.95C304.831 1036.48 307.304 1034.52 310.244 1033.07C313.231 1031.58 316.708 1030.83 320.674 1030.83C323.381 1030.83 325.924 1031.16 328.304 1031.81C330.731 1032.42 332.878 1033.4 334.744 1034.75C336.658 1036.1 338.244 1037.83 339.504 1039.93C340.811 1041.98 341.698 1044.48 342.164 1047.42H335.514C335.188 1045.51 334.581 1043.87 333.694 1042.52C332.808 1041.12 331.711 1039.98 330.404 1039.09C329.098 1038.2 327.604 1037.55 325.924 1037.13C324.291 1036.66 322.541 1036.43 320.674 1036.43C317.641 1036.43 315.028 1037.04 312.834 1038.25C310.688 1039.46 308.914 1041.07 307.514 1043.08C306.161 1045.04 305.158 1047.3 304.504 1049.87C303.851 1052.39 303.524 1054.98 303.524 1057.64C303.524 1060.25 303.898 1062.77 304.644 1065.2C305.391 1067.58 306.488 1069.7 307.934 1071.57C309.381 1073.39 311.154 1074.86 313.254 1075.98C315.401 1077.05 317.874 1077.59 320.674 1077.59C323.288 1077.59 325.598 1077.17 327.604 1076.33C329.611 1075.49 331.291 1074.35 332.644 1072.9C334.044 1071.41 335.094 1069.68 335.794 1067.72C336.494 1065.71 336.798 1063.57 336.704 1061.28H320.744V1055.68H342.654V1082H338.454L336.704 1075.77ZM349.499 1045.81H355.099V1053.44H355.239C356.686 1050.5 358.459 1048.33 360.559 1046.93C362.659 1045.53 365.319 1044.88 368.539 1044.97V1051.27C366.159 1051.27 364.129 1051.6 362.449 1052.25C360.769 1052.9 359.416 1053.86 358.389 1055.12C357.363 1056.38 356.616 1057.92 356.149 1059.74C355.683 1061.51 355.449 1063.57 355.449 1065.9V1082H349.499V1045.81ZM374.38 1063.94C374.38 1066.13 374.66 1068.09 375.22 1069.82C375.826 1071.5 376.643 1072.92 377.67 1074.09C378.696 1075.21 379.886 1076.07 381.24 1076.68C382.64 1077.29 384.11 1077.59 385.65 1077.59C387.19 1077.59 388.636 1077.29 389.99 1076.68C391.39 1076.07 392.603 1075.21 393.63 1074.09C394.656 1072.92 395.45 1071.5 396.01 1069.82C396.616 1068.09 396.92 1066.13 396.92 1063.94C396.92 1061.75 396.616 1059.81 396.01 1058.13C395.45 1056.4 394.656 1054.96 393.63 1053.79C392.603 1052.62 391.39 1051.74 389.99 1051.13C388.636 1050.52 387.19 1050.22 385.65 1050.22C384.11 1050.22 382.64 1050.52 381.24 1051.13C379.886 1051.74 378.696 1052.62 377.67 1053.79C376.643 1054.96 375.826 1056.4 375.22 1058.13C374.66 1059.81 374.38 1061.75 374.38 1063.94ZM368.08 1063.94C368.08 1061.28 368.453 1058.81 369.2 1056.52C369.946 1054.19 371.066 1052.18 372.56 1050.5C374.053 1048.77 375.896 1047.42 378.09 1046.44C380.283 1045.46 382.803 1044.97 385.65 1044.97C388.543 1044.97 391.063 1045.46 393.21 1046.44C395.403 1047.42 397.246 1048.77 398.74 1050.5C400.233 1052.18 401.353 1054.19 402.1 1056.52C402.846 1058.81 403.22 1061.28 403.22 1063.94C403.22 1066.6 402.846 1069.07 402.1 1071.36C401.353 1073.65 400.233 1075.65 398.74 1077.38C397.246 1079.06 395.403 1080.39 393.21 1081.37C391.063 1082.3 388.543 1082.77 385.65 1082.77C382.803 1082.77 380.283 1082.3 378.09 1081.37C375.896 1080.39 374.053 1079.06 372.56 1077.38C371.066 1075.65 369.946 1073.65 369.2 1071.36C368.453 1069.07 368.08 1066.6 368.08 1063.94ZM444.325 1082H438.025L430.675 1053.23H430.535L423.255 1082H416.815L405.195 1045.81H411.775L419.965 1075.42H420.105L427.385 1045.81H433.895L441.455 1075.42H441.595L449.715 1045.81H455.875L444.325 1082ZM468.042 1045.81H475.252V1051.06H468.042V1073.53C468.042 1074.23 468.088 1074.79 468.182 1075.21C468.322 1075.63 468.555 1075.96 468.882 1076.19C469.208 1076.42 469.652 1076.59 470.212 1076.68C470.818 1076.73 471.588 1076.75 472.522 1076.75H475.252V1082H470.702C469.162 1082 467.832 1081.91 466.712 1081.72C465.638 1081.49 464.752 1081.09 464.052 1080.53C463.398 1079.97 462.908 1079.18 462.582 1078.15C462.255 1077.12 462.092 1075.77 462.092 1074.09V1051.06H455.932V1045.81H462.092V1034.96H468.042V1045.81ZM480.112 1032.02H486.062V1051.13H486.202C486.669 1050.01 487.322 1049.08 488.162 1048.33C489.002 1047.54 489.935 1046.91 490.962 1046.44C492.035 1045.93 493.132 1045.55 494.252 1045.32C495.419 1045.09 496.539 1044.97 497.612 1044.97C499.992 1044.97 501.975 1045.3 503.562 1045.95C505.149 1046.6 506.432 1047.51 507.412 1048.68C508.392 1049.85 509.069 1051.25 509.442 1052.88C509.862 1054.47 510.072 1056.24 510.072 1058.2V1082H504.122V1057.5C504.122 1055.26 503.469 1053.49 502.162 1052.18C500.855 1050.87 499.059 1050.22 496.772 1050.22C494.952 1050.22 493.365 1050.5 492.012 1051.06C490.705 1051.62 489.609 1052.41 488.722 1053.44C487.835 1054.47 487.159 1055.68 486.692 1057.08C486.272 1058.43 486.062 1059.93 486.062 1061.56V1082H480.112V1032.02Z" fill="#E8E4DF"/>
</svg>
