<svg width="294" height="107" viewBox="0 0 294 107" fill="none" xmlns="http://www.w3.org/2000/svg">
<path d="M0.388 0.755993H68.862V12.436H14.258V45.578H62.146V57.258H14.258V105H0.388V0.755993ZM130.214 60.032C130.019 57.112 129.338 54.338 128.17 51.71C127.099 49.082 125.591 46.8433 123.644 44.994C121.795 43.0473 119.556 41.5387 116.928 40.468C114.397 39.3 111.575 38.716 108.46 38.716C105.248 38.716 102.328 39.3 99.6999 40.468C97.1693 41.5387 94.9793 43.0473 93.1299 44.994C91.2806 46.9407 89.8206 49.228 88.7499 51.856C87.6793 54.3867 87.0466 57.112 86.8519 60.032H130.214ZM142.186 81.056C140.531 89.524 136.881 95.8993 131.236 100.182C125.591 104.465 118.485 106.606 109.92 106.606C103.885 106.606 98.6293 105.633 94.1519 103.686C89.7719 101.739 86.0733 99.014 83.0559 95.51C80.0386 92.006 77.7513 87.8207 76.1939 82.954C74.7339 78.0873 73.9066 72.7827 73.7119 67.04C73.7119 61.2973 74.5879 56.0413 76.3399 51.272C78.0919 46.5027 80.5253 42.366 83.6399 38.862C86.8519 35.358 90.5993 32.6327 94.8819 30.686C99.2619 28.7393 104.031 27.766 109.19 27.766C115.906 27.766 121.454 29.1773 125.834 32C130.311 34.7253 133.864 38.2293 136.492 42.512C139.217 46.7947 141.067 51.4667 142.04 56.528C143.111 61.5893 143.549 66.4073 143.354 70.982H86.8519C86.7546 74.2913 87.1439 77.4547 88.0199 80.472C88.8959 83.392 90.3073 86.02 92.2539 88.356C94.2006 90.5947 96.6826 92.3953 99.6999 93.758C102.717 95.1207 106.27 95.802 110.358 95.802C115.614 95.802 119.897 94.5853 123.206 92.152C126.613 89.7187 128.851 86.02 129.922 81.056H142.186ZM204.252 60.032C204.057 57.112 203.376 54.338 202.208 51.71C201.137 49.082 199.629 46.8433 197.682 44.994C195.833 43.0473 193.594 41.5387 190.966 40.468C188.435 39.3 185.613 38.716 182.498 38.716C179.286 38.716 176.366 39.3 173.738 40.468C171.207 41.5387 169.017 43.0473 167.168 44.994C165.319 46.9407 163.859 49.228 162.788 51.856C161.717 54.3867 161.085 57.112 160.89 60.032H204.252ZM216.224 81.056C214.569 89.524 210.919 95.8993 205.274 100.182C199.629 104.465 192.523 106.606 183.958 106.606C177.923 106.606 172.667 105.633 168.19 103.686C163.81 101.739 160.111 99.014 157.094 95.51C154.077 92.006 151.789 87.8207 150.232 82.954C148.772 78.0873 147.945 72.7827 147.75 67.04C147.75 61.2973 148.626 56.0413 150.378 51.272C152.13 46.5027 154.563 42.366 157.678 38.862C160.89 35.358 164.637 32.6327 168.92 30.686C173.3 28.7393 178.069 27.766 183.228 27.766C189.944 27.766 195.492 29.1773 199.872 32C204.349 34.7253 207.902 38.2293 210.53 42.512C213.255 46.7947 215.105 51.4667 216.078 56.528C217.149 61.5893 217.587 66.4073 217.392 70.982H160.89C160.793 74.2913 161.182 77.4547 162.058 80.472C162.934 83.392 164.345 86.02 166.292 88.356C168.239 90.5947 170.721 92.3953 173.738 93.758C176.755 95.1207 180.308 95.802 184.396 95.802C189.652 95.802 193.935 94.5853 197.244 92.152C200.651 89.7187 202.889 86.02 203.96 81.056H216.224ZM234.928 67.916C234.928 71.42 235.366 74.8753 236.242 78.282C237.215 81.5913 238.627 84.56 240.476 87.188C242.423 89.816 244.856 91.9087 247.776 93.466C250.793 95.0233 254.297 95.802 258.288 95.802C262.473 95.802 266.026 94.9747 268.946 93.32C271.866 91.6653 274.251 89.524 276.1 86.896C277.949 84.1707 279.263 81.1047 280.042 77.698C280.918 74.2913 281.356 70.836 281.356 67.332C281.356 63.6333 280.918 60.0807 280.042 56.674C279.166 53.17 277.755 50.104 275.808 47.476C273.959 44.848 271.525 42.7553 268.508 41.198C265.491 39.5433 261.841 38.716 257.558 38.716C253.373 38.716 249.82 39.5433 246.9 41.198C243.98 42.8527 241.644 45.0427 239.892 47.768C238.14 50.4933 236.875 53.608 236.096 57.112C235.317 60.616 234.928 64.2173 234.928 67.916ZM293.328 105H280.918V94.78H280.626C278.582 98.9653 275.37 101.983 270.99 103.832C266.61 105.681 261.792 106.606 256.536 106.606C250.696 106.606 245.586 105.535 241.206 103.394C236.923 101.253 233.322 98.3813 230.402 94.78C227.579 91.1787 225.438 86.9933 223.978 82.224C222.518 77.4547 221.788 72.3933 221.788 67.04C221.788 61.6867 222.469 56.6253 223.832 51.856C225.292 47.0867 227.433 42.95 230.256 39.446C233.176 35.8447 236.777 33.022 241.06 30.978C245.44 28.8367 250.501 27.766 256.244 27.766C258.191 27.766 260.283 27.9607 262.522 28.35C264.761 28.7393 266.999 29.4207 269.238 30.394C271.477 31.27 273.569 32.4867 275.516 34.044C277.56 35.504 279.263 37.3533 280.626 39.592H280.918V0.755993H293.328V105Z" fill="black"/>
</svg>
