<svg width="197" height="41" viewBox="0 0 197 41" fill="none" xmlns="http://www.w3.org/2000/svg">
<path d="M0 0.886488H13.4618C19.5196 0.886488 24.306 2.62252 27.821 6.0946C31.2987 9.56667 33.0375 14.4054 33.0375 20.6108C33.0375 26.7423 31.2987 31.5626 27.821 35.0716C24.2686 38.5806 19.4822 40.3351 13.4618 40.3351H0V0.886488ZM4.71163 36.1243H13.4618C18.1734 36.1243 21.7819 34.7577 24.2873 32.0243C26.8301 29.291 28.1015 25.4865 28.1015 20.6108C28.1015 15.7351 26.8301 11.9306 24.2873 9.1973C21.7819 6.46396 18.1734 5.0973 13.4618 5.0973H4.71163V36.1243Z" fill="white"/>
<path d="M59.1385 36.9C56.4836 39.6333 53.1181 41 49.0422 41C44.9663 41 41.6008 39.6333 38.9458 36.9C36.3283 34.2036 35.0195 30.5838 35.0195 26.0405C35.0195 21.4973 36.3283 17.8775 38.9458 15.1811C41.6008 12.4477 44.9663 11.0811 49.0422 11.0811C53.1181 11.0811 56.4836 12.4477 59.1385 15.1811C61.7561 17.8775 63.0649 21.4973 63.0649 26.0405C63.0649 30.5838 61.7561 34.2036 59.1385 36.9ZM42.2552 34.0743C43.9379 36.032 46.2002 37.0108 49.0422 37.0108C51.8841 37.0108 54.1464 36.032 55.8292 34.0743C57.5119 32.1536 58.3533 29.4757 58.3533 26.0405C58.3533 22.5685 57.5119 19.8721 55.8292 17.9514C54.1464 16.0306 51.8841 15.0703 49.0422 15.0703C46.2002 15.0703 43.9379 16.0306 42.2552 17.9514C40.5725 19.8721 39.7311 22.5685 39.7311 26.0405C39.7311 29.4757 40.5725 32.1536 42.2552 34.0743Z" fill="white"/>
<path d="M79.517 11.0811C82.7329 11.0811 85.2383 11.9491 87.0332 13.6851C88.8281 15.4212 89.7255 17.859 89.7255 20.9986V40.3351H85.2383V21.4419C85.2383 17.1941 83.032 15.0703 78.6195 15.0703C76.5255 15.0703 74.6745 15.8459 73.0666 17.3973C71.4586 18.9487 70.6547 21.2018 70.6547 24.1568V40.3351H66.1674V11.7459H70.4303V16.0122C72.6365 12.7248 75.6654 11.0811 79.517 11.0811Z" fill="white"/>
<path d="M104.044 36.4568H115.655V40.3351H92.2649V37.0108L105.502 20.1676C106.138 19.3919 106.886 18.4685 107.746 17.3973C108.606 16.3261 109.111 15.6982 109.26 15.5135C107.391 15.5874 105.334 15.6243 103.09 15.6243H92.8258V11.7459H114.87V15.0703L101.632 31.9135C100.996 32.6892 100.249 33.6126 99.3885 34.6838C98.5284 35.755 98.0236 36.3829 97.874 36.5676C99.7437 36.4937 101.8 36.4568 104.044 36.4568Z" fill="white"/>
<path d="M141.752 26.0405V27.5919H119.764C119.989 30.6946 120.867 33.0401 122.401 34.6284C123.934 36.1797 126.028 36.9554 128.683 36.9554C132.684 36.9554 135.245 35.1824 136.367 31.6365H141.023C140.237 34.5176 138.779 36.8077 136.648 38.5068C134.516 40.1689 131.824 41 128.571 41C124.569 41 121.335 39.6518 118.867 36.9554C116.361 34.259 115.109 30.6207 115.109 26.0405C115.109 21.5342 116.343 17.9144 118.811 15.1811C121.241 12.4477 124.457 11.0811 128.458 11.0811C132.609 11.0811 135.862 12.5032 138.218 15.3473C140.574 18.1914 141.752 21.7559 141.752 26.0405ZM128.458 15.1257C126.103 15.1257 124.177 15.8644 122.681 17.3419C121.185 18.7824 120.25 20.8694 119.877 23.6027H136.928C136.704 21.091 135.844 19.0595 134.348 17.5081C132.852 15.9198 130.889 15.1257 128.458 15.1257Z" fill="white"/>
<path d="M149.32 40.3351H144.833V0.886488H149.32V40.3351Z" fill="white"/>
<path d="M158.305 40.3351H153.818V0.886488H158.305V40.3351Z" fill="white"/>
<path d="M167.403 7.42432H162.635V1.9946H167.403V7.42432ZM167.291 40.3351H162.803V11.7459H167.291V40.3351Z" fill="white"/>
<path d="M173.554 3.82297C176.209 1.27432 179.462 0 183.314 0C187.165 0 190.419 1.27432 193.074 3.82297C195.691 6.37162 197 9.47432 197 13.1311C197 16.7878 195.691 19.8905 193.074 22.4392C190.419 24.9878 187.165 26.2622 183.314 26.2622C179.462 26.2622 176.209 24.9878 173.554 22.4392C170.899 19.8905 169.572 16.7878 169.572 13.1311C169.572 9.47432 170.899 6.37162 173.554 3.82297ZM183.314 23.6581C186.418 23.6581 188.998 22.6423 191.054 20.6108C193.148 18.5423 194.195 16.0491 194.195 13.1311C194.195 10.1761 193.148 7.66441 191.054 5.59595C188.998 3.56441 186.418 2.54865 183.314 2.54865C180.173 2.54865 177.574 3.56441 175.517 5.59595C173.423 7.66441 172.376 10.1761 172.376 13.1311C172.376 16.0491 173.423 18.5423 175.517 20.6108C177.574 22.6423 180.173 23.6581 183.314 23.6581ZM188.642 15.7905L188.811 17.8405C188.848 18.6532 189.072 19.3734 189.484 20.0014H186.96C186.623 19.5581 186.436 18.8378 186.399 17.8405L186.287 16.4C186.212 15.6243 186.025 15.0887 185.726 14.7932C185.464 14.4977 184.997 14.35 184.323 14.35H180.453V20.0014H177.985V5.92838H184.043C185.614 5.92838 186.829 6.27928 187.689 6.98108C188.586 7.64594 189.035 8.60631 189.035 9.86216C189.035 11.4874 188.343 12.5955 186.96 13.1865C187.969 13.5559 188.53 14.4239 188.642 15.7905ZM180.453 12.1338H184.267C185.763 12.1338 186.511 11.4689 186.511 10.1392C186.511 8.80946 185.688 8.1446 184.043 8.1446H180.453V12.1338Z" fill="white"/>
</svg>
