<svg width="237" height="75" viewBox="0 0 237 75" fill="none" xmlns="http://www.w3.org/2000/svg">
<path d="M0 1.08108H16.1951C23.483 1.08108 29.2412 3.1982 33.47 7.43243C37.6537 11.6667 39.7456 17.5676 39.7456 25.1351C39.7456 32.6126 37.6537 38.491 33.47 42.7703C29.1962 47.0496 23.438 49.1892 16.1951 49.1892H0V1.08108ZM5.6683 44.0541H16.1951C21.8634 44.0541 26.2046 42.3874 29.2187 39.0541C32.2778 35.7207 33.8074 31.0811 33.8074 25.1351C33.8074 19.1892 32.2778 14.5495 29.2187 11.2162C26.2046 7.88288 21.8634 6.21622 16.1951 6.21622H5.6683V44.0541Z" fill="white"/>
<path d="M71.1463 45C67.9523 48.3333 63.9035 50 59 50C54.0965 50 50.0477 48.3333 46.8536 45C43.7046 41.7117 42.13 37.2973 42.13 31.7568C42.13 26.2162 43.7046 21.8018 46.8536 18.5135C50.0477 15.1802 54.0965 13.5135 59 13.5135C63.9035 13.5135 67.9523 15.1802 71.1463 18.5135C74.2954 21.8018 75.8699 26.2162 75.8699 31.7568C75.8699 37.2973 74.2954 41.7117 71.1463 45ZM50.8349 41.5541C52.8593 43.9414 55.581 45.1351 59 45.1351C62.419 45.1351 65.1406 43.9414 67.165 41.5541C69.1894 39.2117 70.2016 35.9459 70.2016 31.7568C70.2016 27.5225 69.1894 24.2342 67.165 21.8919C65.1406 19.5496 62.419 18.3784 59 18.3784C55.581 18.3784 52.8593 19.5496 50.8349 21.8919C48.8105 24.2342 47.7983 27.5225 47.7983 31.7568C47.7983 35.9459 48.8105 39.2117 50.8349 41.5541Z" fill="white"/>
<path d="M95.6626 13.5135C99.5314 13.5135 102.546 14.5721 104.705 16.6892C106.864 18.8063 107.944 21.7793 107.944 25.6081V49.1892H102.546V26.1486C102.546 20.9685 99.8913 18.3784 94.5829 18.3784C92.0637 18.3784 89.8368 19.3243 87.9024 21.2162C85.968 23.1081 85.0008 25.8559 85.0008 29.4595V49.1892H79.6024V14.3243H84.7309V19.527C87.3851 15.518 91.029 13.5135 95.6626 13.5135Z" fill="white"/>
<path d="M125.17 44.4595H139.138V49.1892H110.999V45.1351L126.924 24.5946C127.689 23.6487 128.589 22.5225 129.623 21.2162C130.658 19.9099 131.265 19.1441 131.445 18.9189C129.196 19.009 126.722 19.0541 124.023 19.0541H111.674V14.3243H138.193V18.3784L122.268 38.9189C121.503 39.8649 120.604 40.991 119.569 42.2973C118.534 43.6036 117.927 44.3694 117.747 44.5946C119.996 44.5045 122.471 44.4595 125.17 44.4595Z" fill="white"/>
<path d="M170.534 31.7568V33.6487H144.082C144.352 37.4324 145.409 40.2928 147.253 42.2297C149.098 44.1216 151.617 45.0676 154.811 45.0676C159.625 45.0676 162.706 42.9054 164.056 38.5811H169.657C168.712 42.0946 166.958 44.8874 164.393 46.9595C161.829 48.9865 158.59 50 154.676 50C149.863 50 145.971 48.3559 143.002 45.0676C139.988 41.7793 138.481 37.3423 138.481 31.7568C138.481 26.2613 139.966 21.8468 142.935 18.5135C145.859 15.1802 149.728 13.5135 154.541 13.5135C159.535 13.5135 163.449 15.2477 166.283 18.7162C169.117 22.1847 170.534 26.5315 170.534 31.7568ZM154.541 18.4459C151.707 18.4459 149.39 19.3468 147.591 21.1486C145.791 22.9054 144.667 25.4505 144.217 28.7838H164.731C164.461 25.7207 163.426 23.2432 161.627 21.3514C159.827 19.4144 157.465 18.4459 154.541 18.4459Z" fill="white"/>
<path d="M179.639 49.1892H174.24V1.08108H179.639V49.1892Z" fill="white"/>
<path d="M190.448 49.1892H185.05V1.08108H190.448V49.1892Z" fill="white"/>
<path d="M201.393 9.05405H195.658V2.43243H201.393V9.05405ZM201.258 49.1892H195.86V14.3243H201.258V49.1892Z" fill="white"/>
<path d="M208.793 4.66216C211.987 1.55405 215.901 0 220.535 0C225.169 0 229.082 1.55405 232.276 4.66216C235.425 7.77027 237 11.5541 237 16.0135C237 20.473 235.425 24.2568 232.276 27.3649C229.082 30.473 225.169 32.027 220.535 32.027C215.901 32.027 211.987 30.473 208.793 27.3649C205.599 24.2568 204.002 20.473 204.002 16.0135C204.002 11.5541 205.599 7.77027 208.793 4.66216ZM220.535 28.8514C224.269 28.8514 227.373 27.6126 229.847 25.1351C232.366 22.6126 233.626 19.5721 233.626 16.0135C233.626 12.4099 232.366 9.34685 229.847 6.82433C227.373 4.34685 224.269 3.10811 220.535 3.10811C216.756 3.10811 213.63 4.34685 211.155 6.82433C208.636 9.34685 207.376 12.4099 207.376 16.0135C207.376 19.5721 208.636 22.6126 211.155 25.1351C213.63 27.6126 216.756 28.8514 220.535 28.8514ZM226.946 19.2568L227.148 21.7568C227.193 22.7477 227.463 23.6261 227.958 24.3919H224.921C224.516 23.8514 224.291 22.973 224.246 21.7568L224.111 20C224.021 19.0541 223.796 18.4009 223.437 18.0405C223.122 17.6802 222.559 17.5 221.75 17.5H217.093V24.3919H214.124V7.22973H221.412C223.302 7.22973 224.764 7.65766 225.798 8.51351C226.878 9.32432 227.418 10.4955 227.418 12.027C227.418 14.009 226.586 15.3604 224.921 16.0811C226.136 16.5315 226.811 17.5901 226.946 19.2568ZM217.093 14.7973H221.682C223.482 14.7973 224.381 13.9865 224.381 12.3649C224.381 10.7432 223.392 9.93243 221.412 9.93243H217.093V14.7973Z" fill="white"/>
<path d="M124.092 62.004H130.994V63.124H125.422V66.302H130.616V67.422H125.422V70.88H131.036V72H124.092V62.004Z" fill="white"/>
<path d="M132.245 62.004H133.435V72H132.245V62.004Z" fill="white"/>
<path d="M140.024 67.688C140.005 67.408 139.94 67.142 139.828 66.89C139.725 66.638 139.581 66.4233 139.394 66.246C139.217 66.0593 139.002 65.9147 138.75 65.812C138.507 65.7 138.237 65.644 137.938 65.644C137.63 65.644 137.35 65.7 137.098 65.812C136.855 65.9147 136.645 66.0593 136.468 66.246C136.291 66.4327 136.151 66.652 136.048 66.904C135.945 67.1467 135.885 67.408 135.866 67.688H140.024ZM141.172 69.704C141.013 70.516 140.663 71.1273 140.122 71.538C139.581 71.9487 138.899 72.154 138.078 72.154C137.499 72.154 136.995 72.0607 136.566 71.874C136.146 71.6873 135.791 71.426 135.502 71.09C135.213 70.754 134.993 70.3527 134.844 69.886C134.704 69.4193 134.625 68.9107 134.606 68.36C134.606 67.8093 134.69 67.3053 134.858 66.848C135.026 66.3907 135.259 65.994 135.558 65.658C135.866 65.322 136.225 65.0607 136.636 64.874C137.056 64.6873 137.513 64.594 138.008 64.594C138.652 64.594 139.184 64.7293 139.604 65C140.033 65.2613 140.374 65.5973 140.626 66.008C140.887 66.4187 141.065 66.8667 141.158 67.352C141.261 67.8373 141.303 68.2993 141.284 68.738H135.866C135.857 69.0553 135.894 69.3587 135.978 69.648C136.062 69.928 136.197 70.18 136.384 70.404C136.571 70.6187 136.809 70.7913 137.098 70.922C137.387 71.0527 137.728 71.118 138.12 71.118C138.624 71.118 139.035 71.0013 139.352 70.768C139.679 70.5347 139.893 70.18 139.996 69.704H141.172Z" fill="white"/>
<path d="M145.5 72H144.226L141.538 64.762H142.868L144.898 70.796H144.926L146.9 64.762H148.146L145.5 72Z" fill="white"/>
<path d="M155.37 71.972C155.164 72.0933 154.88 72.154 154.516 72.154C154.208 72.154 153.96 72.07 153.774 71.902C153.596 71.7247 153.508 71.44 153.508 71.048C153.181 71.44 152.798 71.7247 152.36 71.902C151.93 72.07 151.464 72.154 150.96 72.154C150.633 72.154 150.32 72.1167 150.022 72.042C149.732 71.9673 149.48 71.8507 149.266 71.692C149.051 71.5333 148.878 71.328 148.748 71.076C148.626 70.8147 148.566 70.502 148.566 70.138C148.566 69.7273 148.636 69.3913 148.776 69.13C148.916 68.8687 149.098 68.6587 149.322 68.5C149.555 68.332 149.816 68.206 150.106 68.122C150.404 68.038 150.708 67.968 151.016 67.912C151.342 67.8467 151.65 67.8 151.94 67.772C152.238 67.7347 152.5 67.688 152.724 67.632C152.948 67.5667 153.125 67.478 153.256 67.366C153.386 67.2447 153.452 67.072 153.452 66.848C153.452 66.5867 153.4 66.3767 153.298 66.218C153.204 66.0593 153.078 65.938 152.92 65.854C152.77 65.77 152.598 65.714 152.402 65.686C152.215 65.658 152.028 65.644 151.842 65.644C151.338 65.644 150.918 65.742 150.582 65.938C150.246 66.1247 150.064 66.484 150.036 67.016H148.846C148.864 66.568 148.958 66.19 149.126 65.882C149.294 65.574 149.518 65.3267 149.798 65.14C150.078 64.944 150.395 64.804 150.75 64.72C151.114 64.636 151.501 64.594 151.912 64.594C152.238 64.594 152.56 64.6173 152.878 64.664C153.204 64.7107 153.498 64.8087 153.76 64.958C154.021 65.098 154.231 65.2987 154.39 65.56C154.548 65.8213 154.628 66.162 154.628 66.582V70.306C154.628 70.586 154.642 70.7913 154.67 70.922C154.707 71.0527 154.819 71.118 155.006 71.118C155.108 71.118 155.23 71.0947 155.37 71.048V71.972ZM153.438 68.262C153.288 68.374 153.092 68.458 152.85 68.514C152.607 68.5607 152.35 68.6027 152.08 68.64C151.818 68.668 151.552 68.7053 151.282 68.752C151.011 68.7893 150.768 68.8547 150.554 68.948C150.339 69.0413 150.162 69.1767 150.022 69.354C149.891 69.522 149.826 69.7553 149.826 70.054C149.826 70.25 149.863 70.418 149.938 70.558C150.022 70.6887 150.124 70.796 150.246 70.88C150.376 70.964 150.526 71.0247 150.694 71.062C150.862 71.0993 151.039 71.118 151.226 71.118C151.618 71.118 151.954 71.0667 152.234 70.964C152.514 70.852 152.742 70.7167 152.92 70.558C153.097 70.39 153.228 70.2127 153.312 70.026C153.396 69.83 153.438 69.648 153.438 69.48V68.262Z" fill="white"/>
<path d="M157.849 64.762H159.291V65.812H157.849V70.306C157.849 70.446 157.859 70.558 157.877 70.642C157.905 70.726 157.952 70.7913 158.017 70.838C158.082 70.8847 158.171 70.9173 158.283 70.936C158.405 70.9453 158.558 70.95 158.745 70.95H159.291V72H158.381C158.073 72 157.807 71.9813 157.583 71.944C157.369 71.8973 157.191 71.818 157.051 71.706C156.921 71.594 156.823 71.4353 156.757 71.23C156.692 71.0247 156.659 70.754 156.659 70.418V65.812H155.427V64.762H156.659V62.592H157.849V64.762Z" fill="white"/>
<path d="M165.359 67.688C165.341 67.408 165.275 67.142 165.163 66.89C165.061 66.638 164.916 66.4233 164.729 66.246C164.552 66.0593 164.337 65.9147 164.085 65.812C163.843 65.7 163.572 65.644 163.273 65.644C162.965 65.644 162.685 65.7 162.433 65.812C162.191 65.9147 161.981 66.0593 161.803 66.246C161.626 66.4327 161.486 66.652 161.383 66.904C161.281 67.1467 161.22 67.408 161.201 67.688H165.359ZM166.507 69.704C166.349 70.516 165.999 71.1273 165.457 71.538C164.916 71.9487 164.235 72.154 163.413 72.154C162.835 72.154 162.331 72.0607 161.901 71.874C161.481 71.6873 161.127 71.426 160.837 71.09C160.548 70.754 160.329 70.3527 160.179 69.886C160.039 69.4193 159.96 68.9107 159.941 68.36C159.941 67.8093 160.025 67.3053 160.193 66.848C160.361 66.3907 160.595 65.994 160.893 65.658C161.201 65.322 161.561 65.0607 161.971 64.874C162.391 64.6873 162.849 64.594 163.343 64.594C163.987 64.594 164.519 64.7293 164.939 65C165.369 65.2613 165.709 65.5973 165.961 66.008C166.223 66.4187 166.4 66.8667 166.493 67.352C166.596 67.8373 166.638 68.2993 166.619 68.738H161.201C161.192 69.0553 161.229 69.3587 161.313 69.648C161.397 69.928 161.533 70.18 161.719 70.404C161.906 70.6187 162.144 70.7913 162.433 70.922C162.723 71.0527 163.063 71.118 163.455 71.118C163.959 71.118 164.37 71.0013 164.687 70.768C165.014 70.5347 165.229 70.18 165.331 69.704H166.507Z" fill="white"/>
<path d="M174.031 72.966C173.891 73.3207 173.751 73.6193 173.611 73.862C173.481 74.1047 173.331 74.3007 173.163 74.45C173.005 74.6087 172.823 74.7207 172.617 74.786C172.421 74.8607 172.193 74.898 171.931 74.898C171.791 74.898 171.651 74.8887 171.511 74.87C171.371 74.8513 171.236 74.8187 171.105 74.772V73.68C171.208 73.7267 171.325 73.764 171.455 73.792C171.595 73.8293 171.712 73.848 171.805 73.848C172.048 73.848 172.249 73.7873 172.407 73.666C172.575 73.554 172.701 73.3907 172.785 73.176L173.275 71.958L170.405 64.762H171.749L173.863 70.684H173.891L175.921 64.762H177.181L174.031 72.966Z" fill="white"/>
<path d="M178.777 68.388C178.777 68.8267 178.833 69.2187 178.945 69.564C179.067 69.9 179.23 70.1847 179.435 70.418C179.641 70.642 179.879 70.8147 180.149 70.936C180.429 71.0573 180.723 71.118 181.031 71.118C181.339 71.118 181.629 71.0573 181.899 70.936C182.179 70.8147 182.422 70.642 182.627 70.418C182.833 70.1847 182.991 69.9 183.103 69.564C183.225 69.2187 183.285 68.8267 183.285 68.388C183.285 67.9493 183.225 67.562 183.103 67.226C182.991 66.8807 182.833 66.5913 182.627 66.358C182.422 66.1247 182.179 65.9473 181.899 65.826C181.629 65.7047 181.339 65.644 181.031 65.644C180.723 65.644 180.429 65.7047 180.149 65.826C179.879 65.9473 179.641 66.1247 179.435 66.358C179.23 66.5913 179.067 66.8807 178.945 67.226C178.833 67.562 178.777 67.9493 178.777 68.388ZM177.517 68.388C177.517 67.856 177.592 67.3613 177.741 66.904C177.891 66.4373 178.115 66.036 178.413 65.7C178.712 65.3547 179.081 65.084 179.519 64.888C179.958 64.692 180.462 64.594 181.031 64.594C181.61 64.594 182.114 64.692 182.543 64.888C182.982 65.084 183.351 65.3547 183.649 65.7C183.948 66.036 184.172 66.4373 184.321 66.904C184.471 67.3613 184.545 67.856 184.545 68.388C184.545 68.92 184.471 69.4147 184.321 69.872C184.172 70.3293 183.948 70.7307 183.649 71.076C183.351 71.412 182.982 71.678 182.543 71.874C182.114 72.0607 181.61 72.154 181.031 72.154C180.462 72.154 179.958 72.0607 179.519 71.874C179.081 71.678 178.712 71.412 178.413 71.076C178.115 70.7307 177.891 70.3293 177.741 69.872C177.592 69.4147 177.517 68.92 177.517 68.388Z" fill="white"/>
<path d="M191.66 72H190.54V70.852H190.512C190.26 71.3 189.938 71.6313 189.546 71.846C189.154 72.0513 188.692 72.154 188.16 72.154C187.684 72.154 187.288 72.0933 186.97 71.972C186.653 71.8413 186.396 71.6593 186.2 71.426C186.004 71.1927 185.864 70.9173 185.78 70.6C185.706 70.2733 185.668 69.914 185.668 69.522V64.762H186.858V69.662C186.858 70.11 186.989 70.4647 187.25 70.726C187.512 70.9873 187.871 71.118 188.328 71.118C188.692 71.118 189.005 71.062 189.266 70.95C189.537 70.838 189.761 70.6793 189.938 70.474C190.116 70.2687 190.246 70.0307 190.33 69.76C190.424 69.48 190.47 69.1767 190.47 68.85V64.762H191.66V72Z" fill="white"/>
<path d="M193.126 64.762H194.246V66.288H194.274C194.563 65.7 194.918 65.266 195.338 64.986C195.758 64.706 196.29 64.5753 196.934 64.594V65.854C196.458 65.854 196.052 65.9193 195.716 66.05C195.38 66.1807 195.109 66.372 194.904 66.624C194.698 66.876 194.549 67.184 194.456 67.548C194.362 67.9027 194.316 68.3133 194.316 68.78V72H193.126V64.762Z" fill="white"/>
<path d="M201.894 69.718C201.903 69.9793 201.964 70.2033 202.076 70.39C202.188 70.5673 202.333 70.712 202.51 70.824C202.697 70.9267 202.902 71.0013 203.126 71.048C203.359 71.0947 203.597 71.118 203.84 71.118C204.027 71.118 204.223 71.104 204.428 71.076C204.633 71.048 204.82 70.9967 204.988 70.922C205.165 70.8473 205.31 70.74 205.422 70.6C205.534 70.4507 205.59 70.264 205.59 70.04C205.59 69.732 205.473 69.4987 205.24 69.34C205.007 69.1813 204.713 69.0553 204.358 68.962C204.013 68.8593 203.635 68.7707 203.224 68.696C202.813 68.612 202.431 68.5 202.076 68.36C201.731 68.2107 201.441 68.0053 201.208 67.744C200.975 67.4827 200.858 67.1187 200.858 66.652C200.858 66.288 200.937 65.9753 201.096 65.714C201.264 65.4527 201.474 65.2427 201.726 65.084C201.987 64.916 202.277 64.7947 202.594 64.72C202.921 64.636 203.243 64.594 203.56 64.594C203.971 64.594 204.349 64.6313 204.694 64.706C205.039 64.7713 205.343 64.8927 205.604 65.07C205.875 65.238 206.089 65.4713 206.248 65.77C206.407 66.0593 206.5 66.4233 206.528 66.862H205.338C205.319 66.6287 205.259 66.4373 205.156 66.288C205.053 66.1293 204.923 66.0033 204.764 65.91C204.605 65.8167 204.428 65.7513 204.232 65.714C204.045 65.6673 203.854 65.644 203.658 65.644C203.481 65.644 203.299 65.658 203.112 65.686C202.935 65.714 202.771 65.7653 202.622 65.84C202.473 65.9053 202.351 65.9987 202.258 66.12C202.165 66.232 202.118 66.3813 202.118 66.568C202.118 66.7733 202.188 66.946 202.328 67.086C202.477 67.2167 202.664 67.3287 202.888 67.422C203.112 67.506 203.364 67.5807 203.644 67.646C203.924 67.702 204.204 67.7627 204.484 67.828C204.783 67.8933 205.072 67.9727 205.352 68.066C205.641 68.1593 205.893 68.2853 206.108 68.444C206.332 68.5933 206.509 68.7847 206.64 69.018C206.78 69.2513 206.85 69.5407 206.85 69.886C206.85 70.3247 206.757 70.6887 206.57 70.978C206.393 71.2673 206.155 71.5007 205.856 71.678C205.567 71.8553 205.235 71.9767 204.862 72.042C204.498 72.1167 204.134 72.154 203.77 72.154C203.369 72.154 202.986 72.112 202.622 72.028C202.258 71.944 201.936 71.8087 201.656 71.622C201.376 71.426 201.152 71.174 200.984 70.866C200.816 70.5487 200.723 70.166 200.704 69.718H201.894Z" fill="white"/>
<path d="M207.928 64.762H209.118V65.742H209.146C209.342 65.3407 209.65 65.0513 210.07 64.874C210.49 64.6873 210.952 64.594 211.456 64.594C212.016 64.594 212.501 64.6967 212.912 64.902C213.332 65.1073 213.677 65.3873 213.948 65.742C214.228 66.0873 214.438 66.4887 214.578 66.946C214.718 67.4033 214.788 67.8887 214.788 68.402C214.788 68.9153 214.718 69.4007 214.578 69.858C214.447 70.3153 214.242 70.7167 213.962 71.062C213.691 71.398 213.346 71.664 212.926 71.86C212.515 72.056 212.035 72.154 211.484 72.154C211.307 72.154 211.106 72.1353 210.882 72.098C210.667 72.0607 210.453 72 210.238 71.916C210.023 71.832 209.818 71.72 209.622 71.58C209.435 71.4307 209.277 71.2487 209.146 71.034H209.118V74.758H207.928V64.762ZM213.528 68.318C213.528 67.982 213.481 67.6553 213.388 67.338C213.304 67.0113 213.169 66.722 212.982 66.47C212.805 66.218 212.571 66.0173 212.282 65.868C212.002 65.7187 211.671 65.644 211.288 65.644C210.887 65.644 210.546 65.7233 210.266 65.882C209.986 66.0407 209.757 66.2507 209.58 66.512C209.403 66.764 209.272 67.0533 209.188 67.38C209.113 67.7067 209.076 68.038 209.076 68.374C209.076 68.7287 209.118 69.074 209.202 69.41C209.286 69.7367 209.417 70.026 209.594 70.278C209.781 70.53 210.019 70.7353 210.308 70.894C210.597 71.0433 210.947 71.118 211.358 71.118C211.769 71.118 212.109 71.0387 212.38 70.88C212.66 70.7213 212.884 70.5113 213.052 70.25C213.22 69.9887 213.341 69.69 213.416 69.354C213.491 69.018 213.528 68.6727 213.528 68.318Z" fill="white"/>
<path d="M222.317 71.972C222.112 72.0933 221.827 72.154 221.463 72.154C221.155 72.154 220.908 72.07 220.721 71.902C220.544 71.7247 220.455 71.44 220.455 71.048C220.128 71.44 219.746 71.7247 219.307 71.902C218.878 72.07 218.411 72.154 217.907 72.154C217.58 72.154 217.268 72.1167 216.969 72.042C216.68 71.9673 216.428 71.8507 216.213 71.692C215.998 71.5333 215.826 71.328 215.695 71.076C215.574 70.8147 215.513 70.502 215.513 70.138C215.513 69.7273 215.583 69.3913 215.723 69.13C215.863 68.8687 216.045 68.6587 216.269 68.5C216.502 68.332 216.764 68.206 217.053 68.122C217.352 68.038 217.655 67.968 217.963 67.912C218.29 67.8467 218.598 67.8 218.887 67.772C219.186 67.7347 219.447 67.688 219.671 67.632C219.895 67.5667 220.072 67.478 220.203 67.366C220.334 67.2447 220.399 67.072 220.399 66.848C220.399 66.5867 220.348 66.3767 220.245 66.218C220.152 66.0593 220.026 65.938 219.867 65.854C219.718 65.77 219.545 65.714 219.349 65.686C219.162 65.658 218.976 65.644 218.789 65.644C218.285 65.644 217.865 65.742 217.529 65.938C217.193 66.1247 217.011 66.484 216.983 67.016H215.793C215.812 66.568 215.905 66.19 216.073 65.882C216.241 65.574 216.465 65.3267 216.745 65.14C217.025 64.944 217.342 64.804 217.697 64.72C218.061 64.636 218.448 64.594 218.859 64.594C219.186 64.594 219.508 64.6173 219.825 64.664C220.152 64.7107 220.446 64.8087 220.707 64.958C220.968 65.098 221.178 65.2987 221.337 65.56C221.496 65.8213 221.575 66.162 221.575 66.582V70.306C221.575 70.586 221.589 70.7913 221.617 70.922C221.654 71.0527 221.766 71.118 221.953 71.118C222.056 71.118 222.177 71.0947 222.317 71.048V71.972ZM220.385 68.262C220.236 68.374 220.04 68.458 219.797 68.514C219.554 68.5607 219.298 68.6027 219.027 68.64C218.766 68.668 218.5 68.7053 218.229 68.752C217.958 68.7893 217.716 68.8547 217.501 68.948C217.286 69.0413 217.109 69.1767 216.969 69.354C216.838 69.522 216.773 69.7553 216.773 70.054C216.773 70.25 216.81 70.418 216.885 70.558C216.969 70.6887 217.072 70.796 217.193 70.88C217.324 70.964 217.473 71.0247 217.641 71.062C217.809 71.0993 217.986 71.118 218.173 71.118C218.565 71.118 218.901 71.0667 219.181 70.964C219.461 70.852 219.69 70.7167 219.867 70.558C220.044 70.39 220.175 70.2127 220.259 70.026C220.343 69.83 220.385 69.648 220.385 69.48V68.262Z" fill="white"/>
<path d="M228.059 67.086C227.965 66.6287 227.769 66.274 227.471 66.022C227.172 65.77 226.771 65.644 226.267 65.644C225.837 65.644 225.478 65.7233 225.189 65.882C224.899 66.0407 224.666 66.2507 224.489 66.512C224.321 66.7733 224.199 67.0767 224.125 67.422C224.05 67.758 224.013 68.108 224.013 68.472C224.013 68.808 224.05 69.1347 224.125 69.452C224.209 69.7693 224.335 70.054 224.503 70.306C224.671 70.5487 224.89 70.7447 225.161 70.894C225.431 71.0433 225.753 71.118 226.127 71.118C226.715 71.118 227.172 70.964 227.499 70.656C227.835 70.348 228.04 69.914 228.115 69.354H229.333C229.202 70.25 228.866 70.9407 228.325 71.426C227.793 71.9113 227.065 72.154 226.141 72.154C225.59 72.154 225.1 72.0653 224.671 71.888C224.251 71.7107 223.896 71.4587 223.607 71.132C223.327 70.8053 223.112 70.418 222.963 69.97C222.823 69.5127 222.753 69.0133 222.753 68.472C222.753 67.9307 222.823 67.4267 222.963 66.96C223.103 66.484 223.313 66.0733 223.593 65.728C223.882 65.3733 224.241 65.098 224.671 64.902C225.1 64.6967 225.599 64.594 226.169 64.594C226.579 64.594 226.962 64.6453 227.317 64.748C227.681 64.8413 227.998 64.9907 228.269 65.196C228.549 65.4013 228.777 65.6627 228.955 65.98C229.132 66.288 229.244 66.6567 229.291 67.086H228.059Z" fill="white"/>
<path d="M235.41 67.688C235.391 67.408 235.326 67.142 235.214 66.89C235.111 66.638 234.967 66.4233 234.78 66.246C234.603 66.0593 234.388 65.9147 234.136 65.812C233.893 65.7 233.623 65.644 233.324 65.644C233.016 65.644 232.736 65.7 232.484 65.812C232.241 65.9147 232.031 66.0593 231.854 66.246C231.677 66.4327 231.537 66.652 231.434 66.904C231.331 67.1467 231.271 67.408 231.252 67.688H235.41ZM236.558 69.704C236.399 70.516 236.049 71.1273 235.508 71.538C234.967 71.9487 234.285 72.154 233.464 72.154C232.885 72.154 232.381 72.0607 231.952 71.874C231.532 71.6873 231.177 71.426 230.888 71.09C230.599 70.754 230.379 70.3527 230.23 69.886C230.09 69.4193 230.011 68.9107 229.992 68.36C229.992 67.8093 230.076 67.3053 230.244 66.848C230.412 66.3907 230.645 65.994 230.944 65.658C231.252 65.322 231.611 65.0607 232.022 64.874C232.442 64.6873 232.899 64.594 233.394 64.594C234.038 64.594 234.57 64.7293 234.99 65C235.419 65.2613 235.76 65.5973 236.012 66.008C236.273 66.4187 236.451 66.8667 236.544 67.352C236.647 67.8373 236.689 68.2993 236.67 68.738H231.252C231.243 69.0553 231.28 69.3587 231.364 69.648C231.448 69.928 231.583 70.18 231.77 70.404C231.957 70.6187 232.195 70.7913 232.484 70.922C232.773 71.0527 233.114 71.118 233.506 71.118C234.01 71.118 234.421 71.0013 234.738 70.768C235.065 70.5347 235.279 70.18 235.382 69.704H236.558Z" fill="white"/>
</svg>
