<svg width="508" height="106" viewBox="0 0 508 106" fill="none" xmlns="http://www.w3.org/2000/svg">
<path d="M0 2.2919H34.7136C50.3348 2.2919 62.6774 6.78018 71.7415 15.7568C80.7092 24.7333 85.1931 37.2432 85.1931 53.2865C85.1931 69.1387 80.7092 81.6009 71.7415 90.673C62.581 99.745 50.2384 104.281 34.7136 104.281H0V2.2919ZM12.1498 93.3946H34.7136C46.8634 93.3946 56.1686 89.8613 62.6292 82.7946C69.1862 75.7279 72.4647 65.8919 72.4647 53.2865C72.4647 40.6811 69.1862 30.845 62.6292 23.7784C56.1686 16.7117 46.8634 13.1784 34.7136 13.1784H12.1498V93.3946Z" fill="black"/>
<path d="M152.499 95.4C145.653 102.467 136.975 106 126.464 106C115.954 106 107.275 102.467 100.429 95.4C93.679 88.4288 90.3041 79.0703 90.3041 67.3243C90.3041 55.5784 93.679 46.2198 100.429 39.2486C107.275 32.182 115.954 28.6487 126.464 28.6487C136.975 28.6487 145.653 32.182 152.499 39.2486C159.249 46.2198 162.624 55.5784 162.624 67.3243C162.624 79.0703 159.249 88.4288 152.499 95.4ZM108.963 88.0946C113.302 93.1559 119.136 95.6865 126.464 95.6865C133.793 95.6865 139.626 93.1559 143.966 88.0946C148.305 83.1288 150.474 76.2054 150.474 67.3243C150.474 58.3478 148.305 51.3766 143.966 46.4108C139.626 41.445 133.793 38.9622 126.464 38.9622C119.136 38.9622 113.302 41.445 108.963 46.4108C104.623 51.3766 102.454 58.3478 102.454 67.3243C102.454 76.2054 104.623 83.1288 108.963 88.0946Z" fill="black"/>
<path d="M205.049 28.6487C213.342 28.6487 219.802 30.8928 224.431 35.3811C229.059 39.8694 231.373 46.1721 231.373 54.2892V104.281H219.802V55.4351C219.802 44.4532 214.113 38.9622 202.735 38.9622C197.335 38.9622 192.562 40.9676 188.415 44.9784C184.269 48.9892 182.196 54.8144 182.196 62.4541V104.281H170.625V30.3676H181.617V41.3973C187.306 32.8982 195.117 28.6487 205.049 28.6487Z" fill="black"/>
<path d="M268.296 94.2541H298.237V104.281H237.922V95.6865L272.057 52.1405C273.696 50.1351 275.625 47.7477 277.842 44.9784C280.06 42.209 281.362 40.5856 281.748 40.1081C276.926 40.2991 271.623 40.3946 265.837 40.3946H239.368V30.3676H296.212V38.9622L262.077 82.5081C260.437 84.5135 258.509 86.9009 256.291 89.6703C254.073 92.4396 252.772 94.0631 252.386 94.5406C257.207 94.3496 262.511 94.2541 268.296 94.2541Z" fill="black"/>
<path d="M365.533 67.3243V71.3351H308.834C309.412 79.3568 311.678 85.4207 315.632 89.527C319.585 93.5378 324.985 95.5432 331.832 95.5432C342.149 95.5432 348.755 90.9595 351.647 81.7919H363.653C361.628 89.2405 357.867 95.1613 352.371 99.5541C346.874 103.851 339.932 106 331.542 106C321.225 106 312.884 102.514 306.52 95.5432C300.059 88.5721 296.829 79.1658 296.829 67.3243C296.829 55.6739 300.011 46.3153 306.375 39.2486C312.643 32.182 320.935 28.6487 331.253 28.6487C341.956 28.6487 350.346 32.3252 356.421 39.6784C362.495 47.0315 365.533 56.2469 365.533 67.3243ZM331.253 39.1054C325.178 39.1054 320.212 41.0153 316.355 44.8351C312.498 48.5595 310.087 53.955 309.123 61.0216H353.094C352.515 54.5279 350.297 49.2757 346.44 45.2649C342.583 41.1586 337.521 39.1054 331.253 39.1054Z" fill="black"/>
<path d="M385.048 104.281H373.477V2.2919H385.048V104.281Z" fill="black"/>
<path d="M408.219 104.281H396.647V2.2919H408.219V104.281Z" fill="black"/>
<path d="M431.679 19.1946H419.384V5.15676H431.679V19.1946ZM431.389 104.281H419.818V30.3676H431.389V104.281Z" fill="black"/>
<path d="M447.54 9.88378C454.387 3.29459 462.776 0 472.708 0C482.64 0 491.029 3.29459 497.875 9.88378C504.625 16.473 508 24.4946 508 33.9487C508 43.4027 504.625 51.4243 497.875 58.0135C491.029 64.6027 482.64 67.8973 472.708 67.8973C462.776 67.8973 454.387 64.6027 447.54 58.0135C440.694 51.4243 437.271 43.4027 437.271 33.9487C437.271 24.4946 440.694 16.473 447.54 9.88378ZM472.708 61.1649C480.711 61.1649 487.365 58.5387 492.668 53.2865C498.068 47.9387 500.768 41.4928 500.768 33.9487C500.768 26.309 498.068 19.8153 492.668 14.4676C487.365 9.21532 480.711 6.58919 472.708 6.58919C464.608 6.58919 457.906 9.21532 452.603 14.4676C447.203 19.8153 444.503 26.309 444.503 33.9487C444.503 41.4928 447.203 47.9387 452.603 53.2865C457.906 58.5387 464.608 61.1649 472.708 61.1649ZM486.449 40.8243L486.883 46.1243C486.979 48.2252 487.558 50.0874 488.618 51.7108H482.109C481.242 50.5649 480.759 48.7027 480.663 46.1243L480.374 42.4C480.181 40.3946 479.699 39.0099 478.927 38.2459C478.252 37.482 477.047 37.1 475.311 37.1H465.331V51.7108H458.967V15.327H474.588C478.638 15.327 481.772 16.2342 483.99 18.0486C486.304 19.7676 487.461 22.2505 487.461 25.4973C487.461 29.6991 485.677 32.564 482.109 34.0919C484.713 35.0468 486.159 37.291 486.449 40.8243ZM465.331 31.3703H475.167C479.024 31.3703 480.952 29.6514 480.952 26.2135C480.952 22.7757 478.831 21.0568 474.588 21.0568H465.331V31.3703Z" fill="black"/>
</svg>
