<svg width="126" height="41" viewBox="0 0 126 41" fill="none" xmlns="http://www.w3.org/2000/svg">
<path d="M14.9406 23C12.7599 23 11.0717 22.5202 9.85239 21.5605C8.63309 20.6008 8 19.1841 8 17.2648H10.04C10.0869 19.9382 11.7048 21.2634 14.9406 21.2634C16.3006 21.2634 17.3323 21.0121 18.0592 20.4866C18.7861 19.9839 19.1612 19.2298 19.1612 18.2245C19.1612 17.4476 18.8564 16.8535 18.2468 16.4194C17.6371 15.9852 16.6054 15.5968 15.1047 15.2769L13.6275 14.957C11.9393 14.5914 10.6731 14.043 9.82894 13.3118C8.98481 12.5806 8.56275 11.5753 8.56275 10.25C8.56275 8.97043 9.07861 7.94221 10.1103 7.16532C11.142 6.38844 12.5255 6 14.2606 6C15.433 6 16.4413 6.1371 17.3088 6.41129C18.1764 6.68548 18.8564 7.07392 19.3488 7.57661C19.8178 8.0793 20.1695 8.60484 20.404 9.17608C20.6384 9.77016 20.7557 10.4099 20.7791 11.0954H18.7626C18.6688 9.95296 18.2702 9.10753 17.5902 8.55914C16.9102 8.01075 15.8082 7.73656 14.2606 7.73656C13.0882 7.73656 12.1737 7.96505 11.5406 8.39919C10.9075 8.85618 10.6027 9.47312 10.6027 10.25C10.6027 11.0497 10.8606 11.6667 11.4234 12.1008C11.9393 12.5578 12.971 12.9462 14.5185 13.2661L15.9957 13.586C17.8247 13.9973 19.1612 14.5685 19.9819 15.2997C20.7791 16.0309 21.2012 17.0134 21.2012 18.2245C21.2012 19.7097 20.6384 20.875 19.5364 21.7204C18.4109 22.5887 16.8868 23 14.9406 23Z" fill="white"/>
<path d="M27.7994 10.8441V12.4435H25.3139V20.0981C25.3139 20.7836 25.7594 21.1035 26.6974 21.1035H27.7994V22.6344C27.2836 22.6801 26.838 22.703 26.4629 22.703C24.4464 22.703 23.4381 21.9032 23.4381 20.2581V12.4435H21.445V10.8441H23.4381V7.50806H25.3139V10.8441H27.7994Z" fill="white"/>
<path d="M37.2852 17.5161V10.8441H39.161V22.6344H37.379V20.875C36.4411 22.246 35.1749 22.9086 33.5804 22.9086C32.2204 22.9086 31.1887 22.5659 30.4384 21.8347C29.6881 21.1263 29.3129 20.121 29.3129 18.8185V10.8441H31.1887V18.6358C31.1887 20.3952 32.1032 21.2634 33.9556 21.2634C34.8232 21.2634 35.5969 20.9435 36.2769 20.3038C36.9335 19.664 37.2852 18.75 37.2852 17.5161Z" fill="white"/>
<path d="M50.6045 12.5349V6.36559H52.4804V22.6344H50.6983V20.8065C49.7135 22.2231 48.3301 22.9086 46.5481 22.9086C44.8364 22.9086 43.4764 22.3602 42.4681 21.2177C41.4364 20.0981 40.9205 18.6129 40.9205 16.7392C40.9205 14.8656 41.4364 13.3575 42.4681 12.2379C43.4529 11.1411 44.8129 10.5699 46.5481 10.5699C48.2832 10.5699 49.6197 11.2325 50.6045 12.5349ZM43.9453 20.0981C44.6488 20.875 45.5867 21.2634 46.7825 21.2634C47.9549 21.2634 48.9163 20.875 49.6197 20.0524C50.3232 19.2755 50.6749 18.1559 50.6749 16.7392C50.6749 15.3454 50.3232 14.2487 49.6197 13.4261C48.9163 12.6263 47.9549 12.2151 46.7825 12.2151C45.6101 12.2151 44.6488 12.6492 43.9453 13.4718C43.2419 14.2944 42.8902 15.414 42.8902 16.8306C42.8902 18.2473 43.2419 19.3212 43.9453 20.0981Z" fill="white"/>
<path d="M56.7453 9.06183H54.7523V6.82258H56.7453V9.06183ZM56.6984 22.6344H54.8226V10.8441H56.6984V22.6344Z" fill="white"/>
<path d="M68.5442 21.2177C67.4187 22.3602 66.0119 22.9086 64.3236 22.9086C62.6119 22.9086 61.205 22.3602 60.103 21.2177C59.0009 20.121 58.4616 18.6129 58.4616 16.7392C58.4616 14.8656 59.0009 13.3804 60.103 12.2608C61.205 11.1411 62.6119 10.5699 64.3236 10.5699C66.0119 10.5699 67.4187 11.1411 68.5442 12.2608C69.6228 13.3804 70.1856 14.8656 70.1856 16.7392C70.1856 18.6129 69.6228 20.121 68.5442 21.2177ZM61.4864 20.0524C62.1898 20.875 63.1278 21.2634 64.3236 21.2634C65.496 21.2634 66.4574 20.875 67.1608 20.0524C67.8642 19.2755 68.216 18.1559 68.216 16.7392C68.216 15.3226 67.8642 14.203 67.1608 13.4032C66.4574 12.6263 65.496 12.2151 64.3236 12.2151C63.1278 12.2151 62.1898 12.6263 61.4864 13.4032C60.783 14.203 60.4312 15.3226 60.4312 16.7392C60.4312 18.1559 60.783 19.2755 61.4864 20.0524Z" fill="white"/>
<path d="M76.065 6.36559H83.0056C84.7642 6.36559 86.1241 6.82258 87.0855 7.71371C88.0469 8.62769 88.5393 9.83871 88.5393 11.3696C88.5393 12.9234 88.0469 14.1344 87.0855 15.0255C86.1241 15.9395 84.7642 16.3737 83.0056 16.3737H78.0346V22.6344H76.065V6.36559ZM78.0346 14.6371H83.0056C84.1545 14.6371 85.0221 14.3629 85.6083 13.8145C86.1945 13.2661 86.4993 12.4435 86.4993 11.3696C86.4993 10.3185 86.1945 9.49597 85.6083 8.94758C85.0221 8.39919 84.1545 8.10215 83.0056 8.10215H78.0346V14.6371Z" fill="white"/>
<path d="M95.6021 10.6613C95.9069 10.6613 96.1179 10.6841 96.2352 10.6841V12.4435H95.7662C94.5 12.4435 93.5386 12.7634 92.8352 13.3575C92.1318 13.9516 91.8035 14.8199 91.8035 15.9167V22.6344H89.9277V10.8441H91.7097V12.9234C92.5069 11.4153 93.82 10.6613 95.6021 10.6613Z" fill="white"/>
<path d="M106.305 21.2177C105.18 22.3602 103.773 22.9086 102.085 22.9086C100.373 22.9086 98.9663 22.3602 97.8642 21.2177C96.7622 20.121 96.2229 18.6129 96.2229 16.7392C96.2229 14.8656 96.7622 13.3804 97.8642 12.2608C98.9663 11.1411 100.373 10.5699 102.085 10.5699C103.773 10.5699 105.18 11.1411 106.305 12.2608C107.384 13.3804 107.947 14.8656 107.947 16.7392C107.947 18.6129 107.384 20.121 106.305 21.2177ZM99.2477 20.0524C99.9511 20.875 100.889 21.2634 102.085 21.2634C103.257 21.2634 104.219 20.875 104.922 20.0524C105.626 19.2755 105.977 18.1559 105.977 16.7392C105.977 15.3226 105.626 14.203 104.922 13.4032C104.219 12.6263 103.257 12.2151 102.085 12.2151C100.889 12.2151 99.9511 12.6263 99.2477 13.4032C98.5442 14.203 98.1925 15.3226 98.1925 16.7392C98.1925 18.1559 98.5442 19.2755 99.2477 20.0524Z" fill="white"/>
<path d="M110.199 7.57661C111.301 6.52554 112.661 6 114.279 6C115.873 6 117.233 6.52554 118.359 7.57661C119.437 8.62769 120 9.90726 120 11.4153C120 12.9234 119.437 14.203 118.359 15.254C117.233 16.3051 115.873 16.8306 114.279 16.8306C112.661 16.8306 111.301 16.3051 110.199 15.254C109.073 14.203 108.534 12.9234 108.534 11.4153C108.534 9.90726 109.073 8.62769 110.199 7.57661ZM114.279 15.7567C115.568 15.7567 116.647 15.3454 117.515 14.5C118.382 13.6546 118.828 12.6263 118.828 11.4153C118.828 10.2043 118.382 9.17608 117.515 8.3078C116.647 7.48521 115.568 7.05108 114.279 7.05108C112.966 7.05108 111.864 7.48521 111.019 8.3078C110.128 9.17608 109.706 10.2043 109.706 11.4153C109.706 12.6263 110.128 13.6546 111.019 14.5C111.864 15.3454 112.966 15.7567 114.279 15.7567ZM116.506 12.5121L116.577 13.3575C116.577 13.7003 116.67 13.9973 116.858 14.2487H115.803C115.662 14.0659 115.568 13.7688 115.568 13.3575L115.521 12.7634C115.475 12.4435 115.404 12.2379 115.287 12.1008C115.17 11.9866 114.982 11.918 114.701 11.918H113.083V14.2487H112.051V8.44489H114.584C115.24 8.44489 115.732 8.60484 116.108 8.87903C116.483 9.15323 116.67 9.56452 116.67 10.0672C116.67 10.7527 116.366 11.2097 115.803 11.4382C116.225 11.5981 116.459 11.9637 116.506 12.5121ZM113.083 11.004H114.677C115.287 11.004 115.615 10.7298 115.615 10.1815C115.615 9.63307 115.264 9.35887 114.584 9.35887H113.083V11.004Z" fill="white"/>
<rect x="0.35" y="0.35" width="125.3" height="28.3" rx="14.15" stroke="white" stroke-width="0.7"/>
<path d="M74 32.1514H76.255C77.2698 32.1514 78.0716 32.4477 78.6604 33.0405C79.2429 33.6333 79.5342 34.4595 79.5342 35.5189C79.5342 36.5658 79.2429 37.3887 78.6604 37.9878C78.0653 38.5869 77.2635 38.8865 76.255 38.8865H74V32.1514ZM74.7893 38.1676H76.255C77.0443 38.1676 77.6487 37.9342 78.0684 37.4676C78.4944 37.0009 78.7074 36.3514 78.7074 35.5189C78.7074 34.6865 78.4944 34.0369 78.0684 33.5703C77.6487 33.1036 77.0443 32.8703 76.255 32.8703H74.7893V38.1676Z" fill="white"/>
<path d="M83.9065 38.3C83.4617 38.7667 82.898 39 82.2152 39C81.5324 39 80.9687 38.7667 80.5239 38.3C80.0854 37.8396 79.8662 37.2216 79.8662 36.4459C79.8662 35.6703 80.0854 35.0523 80.5239 34.5919C80.9687 34.1252 81.5324 33.8919 82.2152 33.8919C82.898 33.8919 83.4617 34.1252 83.9065 34.5919C84.3449 35.0523 84.5642 35.6703 84.5642 36.4459C84.5642 37.2216 84.3449 37.8396 83.9065 38.3ZM81.0783 37.8176C81.3602 38.1518 81.7391 38.3189 82.2152 38.3189C82.6912 38.3189 83.0702 38.1518 83.3521 37.8176C83.634 37.4896 83.7749 37.0324 83.7749 36.4459C83.7749 35.8532 83.634 35.3928 83.3521 35.0649C83.0702 34.7369 82.6912 34.573 82.2152 34.573C81.7391 34.573 81.3602 34.7369 81.0783 35.0649C80.7964 35.3928 80.6555 35.8532 80.6555 36.4459C80.6555 37.0324 80.7964 37.4896 81.0783 37.8176Z" fill="white"/>
<path d="M87.3201 33.8919C87.8588 33.8919 88.2785 34.0401 88.5792 34.3365C88.8798 34.6329 89.0302 35.0491 89.0302 35.5851V38.8865H88.2785V35.6608C88.2785 34.9356 87.9089 34.573 87.1698 34.573C86.819 34.573 86.5089 34.7054 86.2396 34.9703C85.9702 35.2351 85.8356 35.6198 85.8356 36.1243V38.8865H85.0839V34.0054H85.798V34.7338C86.1675 34.1725 86.6749 33.8919 87.3201 33.8919Z" fill="white"/>
<path d="M91.4287 38.2243H93.3736V38.8865H89.4555V38.3189L91.673 35.4432C91.7795 35.3108 91.9048 35.1532 92.0488 34.9703C92.1929 34.7874 92.2775 34.6802 92.3025 34.6486C91.9893 34.6613 91.6448 34.6676 91.269 34.6676H89.5495V34.0054H93.2421V34.573L91.0247 37.4486C90.9182 37.5811 90.7929 37.7387 90.6488 37.9216C90.5048 38.1045 90.4202 38.2117 90.3951 38.2432C90.7083 38.2306 91.0529 38.2243 91.4287 38.2243Z" fill="white"/>
<path d="M97.7452 36.4459V36.7108H94.062C94.0996 37.2405 94.2468 37.641 94.5037 37.9122C94.7605 38.177 95.1113 38.3095 95.556 38.3095C96.2262 38.3095 96.6553 38.0068 96.8432 37.4014H97.6231C97.4916 37.8932 97.2473 38.2842 96.8902 38.5743C96.5332 38.8581 96.0822 39 95.5372 39C94.867 39 94.3251 38.7698 93.9117 38.3095C93.492 37.8491 93.2822 37.2279 93.2822 36.4459C93.2822 35.6766 93.4889 35.0586 93.9023 34.5919C94.3095 34.1252 94.8482 33.8919 95.5184 33.8919C96.2137 33.8919 96.7587 34.1347 97.1533 34.6203C97.5479 35.1059 97.7452 35.7144 97.7452 36.4459ZM95.5184 34.5824C95.1238 34.5824 94.8012 34.7086 94.5506 34.9608C94.3001 35.2068 94.1435 35.5631 94.0808 36.0297H96.9372C96.8996 35.6009 96.7555 35.2541 96.505 34.9892C96.2544 34.718 95.9256 34.5824 95.5184 34.5824Z" fill="white"/>
<path d="M99.013 38.8865H98.2613V32.1514H99.013V38.8865Z" fill="white"/>
<path d="M100.518 38.8865H99.7665V32.1514H100.518V38.8865Z" fill="white"/>
<path d="M102.042 33.2676H101.243V32.3405H102.042V33.2676ZM102.023 38.8865H101.272V34.0054H102.023V38.8865Z" fill="white"/>
<path d="M103.073 32.6527C103.517 32.2176 104.062 32 104.707 32C105.353 32 105.898 32.2176 106.342 32.6527C106.781 33.0878 107 33.6176 107 34.2419C107 34.8662 106.781 35.3959 106.342 35.8311C105.898 36.2662 105.353 36.4838 104.707 36.4838C104.062 36.4838 103.517 36.2662 103.073 35.8311C102.628 35.3959 102.405 34.8662 102.405 34.2419C102.405 33.6176 102.628 33.0878 103.073 32.6527ZM104.707 36.0392C105.227 36.0392 105.66 35.8658 106.004 35.5189C106.355 35.1658 106.53 34.7401 106.53 34.2419C106.53 33.7374 106.355 33.3086 106.004 32.9554C105.66 32.6086 105.227 32.4351 104.707 32.4351C104.181 32.4351 103.746 32.6086 103.401 32.9554C103.051 33.3086 102.875 33.7374 102.875 34.2419C102.875 34.7401 103.051 35.1658 103.401 35.5189C103.746 35.8658 104.181 36.0392 104.707 36.0392ZM105.6 34.6959L105.628 35.0459C105.634 35.1847 105.672 35.3077 105.741 35.4149H105.318C105.262 35.3392 105.23 35.2162 105.224 35.0459L105.205 34.8C105.193 34.6676 105.162 34.5761 105.111 34.5257C105.068 34.4752 104.989 34.45 104.877 34.45H104.228V35.4149H103.815V33.0122H104.83C105.093 33.0122 105.296 33.0721 105.44 33.1919C105.591 33.3054 105.666 33.4694 105.666 33.6838C105.666 33.9613 105.55 34.1505 105.318 34.2514C105.487 34.3144 105.581 34.4626 105.6 34.6959ZM104.228 34.0716H104.867C105.118 34.0716 105.243 33.9581 105.243 33.7311C105.243 33.5041 105.105 33.3905 104.83 33.3905H104.228V34.0716Z" fill="white"/>
<path d="M63.536 33.288H64.216V35.424H64.232C64.344 35.1947 64.52 35.0293 64.76 34.928C65 34.8213 65.264 34.768 65.552 34.768C65.872 34.768 66.1493 34.8267 66.384 34.944C66.624 35.0613 66.8213 35.2213 66.976 35.424C67.136 35.6213 67.256 35.8507 67.336 36.112C67.416 36.3733 67.456 36.6507 67.456 36.944C67.456 37.2373 67.416 37.5147 67.336 37.776C67.2613 38.0373 67.144 38.2667 66.984 38.464C66.8293 38.656 66.632 38.808 66.392 38.92C66.1573 39.032 65.8827 39.088 65.568 39.088C65.4667 39.088 65.352 39.0773 65.224 39.056C65.1013 39.0347 64.9787 39 64.856 38.952C64.7333 38.904 64.616 38.84 64.504 38.76C64.3973 38.6747 64.3067 38.5707 64.232 38.448H64.216V39H63.536V33.288ZM66.736 36.896C66.736 36.704 66.7093 36.5173 66.656 36.336C66.608 36.1493 66.5307 35.984 66.424 35.84C66.3227 35.696 66.1893 35.5813 66.024 35.496C65.864 35.4107 65.6747 35.368 65.456 35.368C65.2267 35.368 65.032 35.4133 64.872 35.504C64.712 35.5947 64.5813 35.7147 64.48 35.864C64.3787 36.008 64.304 36.1733 64.256 36.36C64.2133 36.5467 64.192 36.736 64.192 36.928C64.192 37.1307 64.216 37.328 64.264 37.52C64.312 37.7067 64.3867 37.872 64.488 38.016C64.5947 38.16 64.7307 38.2773 64.896 38.368C65.0613 38.4533 65.2613 38.496 65.496 38.496C65.7307 38.496 65.9253 38.4507 66.08 38.36C66.24 38.2693 66.368 38.1493 66.464 38C66.56 37.8507 66.6293 37.68 66.672 37.488C66.7147 37.296 66.736 37.0987 66.736 36.896ZM69.7182 39.552C69.6382 39.7547 69.5582 39.9253 69.4782 40.064C69.4035 40.2027 69.3182 40.3147 69.2222 40.4C69.1315 40.4907 69.0275 40.5547 68.9102 40.592C68.7982 40.6347 68.6675 40.656 68.5182 40.656C68.4382 40.656 68.3582 40.6507 68.2782 40.64C68.1982 40.6293 68.1209 40.6107 68.0462 40.584V39.96C68.1049 39.9867 68.1715 40.008 68.2462 40.024C68.3262 40.0453 68.3929 40.056 68.4462 40.056C68.5849 40.056 68.6995 40.0213 68.7902 39.952C68.8862 39.888 68.9582 39.7947 69.0062 39.672L69.2862 38.976L67.6462 34.864H68.4142L69.6222 38.248H69.6382L70.7982 34.864H71.5182L69.7182 39.552Z" fill="white"/>
</svg>
