<svg width="740" height="206" viewBox="0 0 740 206" fill="none" xmlns="http://www.w3.org/2000/svg">
<rect width="740" height="206" rx="103" fill="#EFECE9"/>
<path d="M110.776 84.32C110.051 77.3387 107.512 72.3067 103.16 69.224C98.8987 66.0507 93.4133 64.464 86.704 64.464C83.984 64.464 81.3093 64.736 78.68 65.28C76.0507 65.824 73.6933 66.7307 71.608 68C69.6133 69.2693 67.9813 70.992 66.712 73.168C65.5333 75.2533 64.944 77.8827 64.944 81.056C64.944 84.048 65.8053 86.496 67.528 88.4C69.3413 90.2133 71.6987 91.7093 74.6 92.888C77.592 94.0667 80.9467 95.064 84.664 95.88C88.3813 96.6053 92.144 97.4213 95.952 98.328C99.8507 99.2347 103.659 100.323 107.376 101.592C111.093 102.771 114.403 104.403 117.304 106.488C120.296 108.573 122.653 111.203 124.376 114.376C126.189 117.549 127.096 121.539 127.096 126.344C127.096 131.512 125.917 135.955 123.56 139.672C121.293 143.299 118.347 146.291 114.72 148.648C111.093 150.915 107.013 152.547 102.48 153.544C98.0373 154.632 93.5947 155.176 89.152 155.176C83.712 155.176 78.544 154.496 73.648 153.136C68.8427 151.776 64.5813 149.736 60.864 147.016C57.2373 144.205 54.336 140.669 52.16 136.408C50.0747 132.056 49.032 126.933 49.032 121.04H61.272C61.272 125.12 62.0427 128.656 63.584 131.648C65.216 134.549 67.3013 136.952 69.84 138.856C72.4693 140.76 75.5067 142.165 78.952 143.072C82.3973 143.979 85.9333 144.432 89.56 144.432C92.4613 144.432 95.3627 144.16 98.264 143.616C101.256 143.072 103.931 142.165 106.288 140.896C108.645 139.536 110.549 137.723 112 135.456C113.451 133.189 114.176 130.288 114.176 126.752C114.176 123.397 113.269 120.677 111.456 118.592C109.733 116.507 107.376 114.829 104.384 113.56C101.483 112.2 98.1733 111.112 94.456 110.296C90.7387 109.48 86.9307 108.664 83.032 107.848C79.224 106.941 75.4613 105.944 71.744 104.856C68.0267 103.677 64.672 102.181 61.68 100.368C58.7787 98.464 56.4213 96.0613 54.608 93.16C52.8853 90.168 52.024 86.4507 52.024 82.008C52.024 77.112 53.0213 72.896 55.016 69.36C57.0107 65.7333 59.64 62.7867 62.904 60.52C66.2587 58.1627 70.0213 56.44 74.192 55.352C78.4533 54.1733 82.8053 53.584 87.248 53.584C92.2347 53.584 96.8587 54.1733 101.12 55.352C105.381 56.5307 109.099 58.3893 112.272 60.928C115.536 63.4667 118.075 66.6853 119.888 70.584C121.792 74.392 122.835 78.9707 123.016 84.32H110.776ZM151.499 82.688H165.508V92.888H151.499V136.544C151.499 137.904 151.59 138.992 151.771 139.808C152.043 140.624 152.497 141.259 153.131 141.712C153.766 142.165 154.627 142.483 155.715 142.664C156.894 142.755 158.39 142.8 160.203 142.8H165.508V153H156.667C153.675 153 151.091 152.819 148.915 152.456C146.83 152.003 145.107 151.232 143.747 150.144C142.478 149.056 141.526 147.515 140.891 145.52C140.257 143.525 139.939 140.896 139.939 137.632V92.888H127.971V82.688H139.939V61.608H151.499V82.688ZM231.118 153H220.238V141.848H219.966C217.518 146.2 214.39 149.419 210.582 151.504C206.774 153.499 202.286 154.496 197.118 154.496C192.494 154.496 188.641 153.907 185.558 152.728C182.475 151.459 179.982 149.691 178.078 147.424C176.174 145.157 174.814 142.483 173.998 139.4C173.273 136.227 172.91 132.736 172.91 128.928V82.688H184.47V130.288C184.47 134.64 185.739 138.085 188.278 140.624C190.817 143.163 194.307 144.432 198.75 144.432C202.286 144.432 205.323 143.888 207.862 142.8C210.491 141.712 212.667 140.171 214.39 138.176C216.113 136.181 217.382 133.869 218.198 131.24C219.105 128.52 219.558 125.573 219.558 122.4V82.688H231.118V153ZM251.472 118.456C251.472 121.72 251.88 124.939 252.696 128.112C253.603 131.195 254.918 133.96 256.64 136.408C258.454 138.856 260.72 140.805 263.44 142.256C266.251 143.707 269.515 144.432 273.232 144.432C277.131 144.432 280.44 143.661 283.16 142.12C285.88 140.579 288.102 138.584 289.824 136.136C291.547 133.597 292.771 130.741 293.496 127.568C294.312 124.395 294.72 121.176 294.72 117.912C294.72 114.467 294.312 111.157 293.496 107.984C292.68 104.72 291.366 101.864 289.552 99.416C287.83 96.968 285.563 95.0187 282.752 93.568C279.942 92.0267 276.542 91.256 272.552 91.256C268.654 91.256 265.344 92.0267 262.624 93.568C259.904 95.1093 257.728 97.1493 256.096 99.688C254.464 102.227 253.286 105.128 252.56 108.392C251.835 111.656 251.472 115.011 251.472 118.456ZM305.872 153H294.312V143.48H294.04C292.136 147.379 289.144 150.189 285.064 151.912C280.984 153.635 276.496 154.496 271.6 154.496C266.16 154.496 261.4 153.499 257.32 151.504C253.331 149.509 249.976 146.835 247.256 143.48C244.627 140.125 242.632 136.227 241.272 131.784C239.912 127.341 239.232 122.627 239.232 117.64C239.232 112.653 239.867 107.939 241.136 103.496C242.496 99.0533 244.491 95.2 247.12 91.936C249.84 88.5813 253.195 85.952 257.184 84.048C261.264 82.0533 265.979 81.056 271.328 81.056C273.142 81.056 275.091 81.2373 277.176 81.6C279.262 81.9627 281.347 82.5973 283.432 83.504C285.518 84.32 287.467 85.4533 289.28 86.904C291.184 88.264 292.771 89.9867 294.04 92.072H294.312V55.896H305.872V153ZM330.457 70.04H318.897V55.896H330.457V70.04ZM318.897 82.688H330.457V153H318.897V82.688ZM351.358 117.912C351.358 122.173 351.902 125.981 352.99 129.336C354.169 132.6 355.755 135.365 357.75 137.632C359.745 139.808 362.057 141.485 364.686 142.664C367.406 143.843 370.262 144.432 373.254 144.432C376.246 144.432 379.057 143.843 381.686 142.664C384.406 141.485 386.763 139.808 388.758 137.632C390.753 135.365 392.294 132.6 393.382 129.336C394.561 125.981 395.15 122.173 395.15 117.912C395.15 113.651 394.561 109.888 393.382 106.624C392.294 103.269 390.753 100.459 388.758 98.192C386.763 95.9253 384.406 94.2027 381.686 93.024C379.057 91.8453 376.246 91.256 373.254 91.256C370.262 91.256 367.406 91.8453 364.686 93.024C362.057 94.2027 359.745 95.9253 357.75 98.192C355.755 100.459 354.169 103.269 352.99 106.624C351.902 109.888 351.358 113.651 351.358 117.912ZM339.118 117.912C339.118 112.744 339.843 107.939 341.294 103.496C342.745 98.9627 344.921 95.064 347.822 91.8C350.723 88.4453 354.305 85.816 358.566 83.912C362.827 82.008 367.723 81.056 373.254 81.056C378.875 81.056 383.771 82.008 387.942 83.912C392.203 85.816 395.785 88.4453 398.686 91.8C401.587 95.064 403.763 98.9627 405.214 103.496C406.665 107.939 407.39 112.744 407.39 117.912C407.39 123.08 406.665 127.885 405.214 132.328C403.763 136.771 401.587 140.669 398.686 144.024C395.785 147.288 392.203 149.872 387.942 151.776C383.771 153.589 378.875 154.496 373.254 154.496C367.723 154.496 362.827 153.589 358.566 151.776C354.305 149.872 350.723 147.288 347.822 144.024C344.921 140.669 342.745 136.771 341.294 132.328C339.843 127.885 339.118 123.08 339.118 117.912ZM462.815 102.408H488.111C495.455 102.499 500.805 101.003 504.159 97.92C507.605 94.8373 509.327 90.3947 509.327 84.592C509.327 78.7893 507.605 74.392 504.159 71.4C500.805 68.3173 495.455 66.776 488.111 66.776H462.815V102.408ZM449.895 55.896H492.463C502.255 55.896 509.645 58.4347 514.631 63.512C519.709 68.4987 522.247 75.5253 522.247 84.592C522.247 93.6587 519.709 100.731 514.631 105.808C509.645 110.885 502.255 113.379 492.463 113.288H462.815V153H449.895V55.896ZM530.331 82.688H541.211V97.512H541.483C544.293 91.8 547.739 87.584 551.819 84.864C555.899 82.144 561.067 80.8747 567.323 81.056V93.296C562.699 93.296 558.755 93.9307 555.491 95.2C552.227 96.4693 549.597 98.328 547.603 100.776C545.608 103.224 544.157 106.216 543.251 109.752C542.344 113.197 541.891 117.187 541.891 121.72V153H530.331V82.688ZM576.629 117.912C576.629 122.173 577.173 125.981 578.261 129.336C579.44 132.6 581.026 135.365 583.021 137.632C585.016 139.808 587.328 141.485 589.957 142.664C592.677 143.843 595.533 144.432 598.525 144.432C601.517 144.432 604.328 143.843 606.957 142.664C609.677 141.485 612.034 139.808 614.029 137.632C616.024 135.365 617.565 132.6 618.653 129.336C619.832 125.981 620.421 122.173 620.421 117.912C620.421 113.651 619.832 109.888 618.653 106.624C617.565 103.269 616.024 100.459 614.029 98.192C612.034 95.9253 609.677 94.2027 606.957 93.024C604.328 91.8453 601.517 91.256 598.525 91.256C595.533 91.256 592.677 91.8453 589.957 93.024C587.328 94.2027 585.016 95.9253 583.021 98.192C581.026 100.459 579.44 103.269 578.261 106.624C577.173 109.888 576.629 113.651 576.629 117.912ZM564.389 117.912C564.389 112.744 565.114 107.939 566.565 103.496C568.016 98.9627 570.192 95.064 573.093 91.8C575.994 88.4453 579.576 85.816 583.837 83.912C588.098 82.008 592.994 81.056 598.525 81.056C604.146 81.056 609.042 82.008 613.213 83.912C617.474 85.816 621.056 88.4453 623.957 91.8C626.858 95.064 629.034 98.9627 630.485 103.496C631.936 107.939 632.661 112.744 632.661 117.912C632.661 123.08 631.936 127.885 630.485 132.328C629.034 136.771 626.858 140.669 623.957 144.024C621.056 147.288 617.474 149.872 613.213 151.776C609.042 153.589 604.146 154.496 598.525 154.496C592.994 154.496 588.098 153.589 583.837 151.776C579.576 149.872 575.994 147.288 573.093 144.024C570.192 140.669 568.016 136.771 566.565 132.328C565.114 127.885 564.389 123.08 564.389 117.912ZM647.243 63.376C653.635 57.12 661.523 53.992 670.907 53.992C680.155 53.992 688.043 57.12 694.571 63.376C700.827 69.632 704.091 77.248 704.091 86.224C704.091 95.2 700.827 102.816 694.571 109.072C688.043 115.328 680.155 118.456 670.907 118.456C661.523 118.456 653.635 115.328 647.243 109.072C640.715 102.816 637.587 95.2 637.587 86.224C637.587 77.248 640.715 69.632 647.243 63.376ZM670.907 112.064C678.387 112.064 684.643 109.616 689.675 104.584C694.707 99.552 697.291 93.432 697.291 86.224C697.291 79.016 694.707 72.896 689.675 67.728C684.643 62.832 678.387 60.248 670.907 60.248C663.291 60.248 656.899 62.832 652.003 67.728C646.835 72.896 644.387 79.016 644.387 86.224C644.387 93.432 646.835 99.552 652.003 104.584C656.899 109.616 663.291 112.064 670.907 112.064ZM683.827 92.752L684.235 97.784C684.235 99.824 684.779 101.592 685.867 103.088H679.747C678.931 102 678.387 100.232 678.387 97.784L678.115 94.248C677.843 92.344 677.435 91.12 676.755 90.304C676.075 89.624 674.987 89.216 673.355 89.216H663.971V103.088H657.987V68.544H672.675C676.483 68.544 679.339 69.496 681.515 71.128C683.691 72.76 684.779 75.208 684.779 78.2C684.779 82.28 683.011 85 679.747 86.36C682.195 87.312 683.555 89.488 683.827 92.752ZM663.971 83.776H673.219C676.755 83.776 678.659 82.144 678.659 78.88C678.659 75.616 676.619 73.984 672.675 73.984H663.971V83.776Z" fill="#0D0D0D"/>
</svg>
