<svg width="1195" height="615" viewBox="0 0 1195 615" fill="none" xmlns="http://www.w3.org/2000/svg">
<path fill-rule="evenodd" clip-rule="evenodd" d="M264.467 16.5388V33.0777H256.509H248.55V41.0408V49.004H240.592H232.633V41.0408V33.0777H224.675H216.716V24.502V15.9263H199.575H182.433V24.502V33.0777H165.904H149.375V41.0408V49.004H132.846H116.317V41.0408V33.0777H82.646H48.9754V41.0408V49.004H32.4462H15.917V57.5797V66.1554H7.9585H0V83.3068V100.458H8.5707H17.1414V91.8825V83.3068H41.6291H66.1168V91.8825V100.458H74.0753H82.0338V107.809V115.159H74.0753H66.1168V124.348V133.536H74.0753H82.0338V141.499V149.462H74.0753H66.1168V157.425V165.388H57.5461H48.9754V182.54V199.691H57.5461H66.1168V216.23V232.769H82.646H99.1752V249.308V265.847H107.134H115.092V274.422V282.998H132.234H149.375V291.574V300.149H157.334H165.292V308.113V316.076H174.475H183.658V298.924V281.773H175.087H166.516V273.81V265.847H175.087H183.658V257.271V248.695H174.475H165.292V256.658V264.622H149.375H133.458V248.695V232.769H142.029H150.599V224.806V216.843H183.658H216.716V208.267V199.691H224.675H232.633V191.728V183.765H241.204H249.775V175.189V166.614H257.733H265.692V158.65V150.687H282.833H299.974V133.536V116.384H307.321H314.667V124.96V133.536H323.85H333.033V116.384V99.2331H324.462H315.891V90.6574V82.0817H307.933H299.974V74.7311V67.3805H316.504H333.033V50.2291V33.0777H307.933H282.833V16.5388V0H273.65H264.467V16.5388ZM298.75 8.5757V17.1514H323.85H348.95V8.5757V0H323.85H298.75V8.5757ZM364.867 8.5757V17.1514H372.825H380.784V25.1145V33.0777H372.825H364.867V58.1922V83.3068H382.008H399.15V75.3436V67.3805H407.108H415.067V58.8048V50.2291H431.596H448.125V58.8048V67.3805H465.266H482.408V58.1922V49.004H473.837H465.266V41.6534V34.3028H473.837H482.408V17.1514V0H423.637H364.867V8.5757ZM564.442 8.5757V17.1514H581.583H598.724V8.5757V0H581.583H564.442V8.5757ZM779.933 16.5388V33.0777H754.834H729.734V41.0408V49.004H680.758H631.783V41.0408V33.0777H606.071H580.359V41.0408V49.004H572.4H564.442V57.5797V66.1554H555.871H547.3V74.7311V83.3068H555.871H564.442V99.2331V115.159H547.912H531.383V98.6205V82.0817H522.813H514.242V90.6574V99.2331H505.671H497.1V107.809V116.384H513.63H530.159V124.348V132.311H522.2H514.242V140.886V149.462H505.671H497.1V157.425V165.388H489.142H481.183V174.577V183.765H497.713H514.242V191.116V198.466H497.713H481.183V215.005V231.544H472.613H464.042V240.12V248.695H456.084H448.125V257.271V265.847H456.084H464.042V273.81V281.773H456.084H448.125V290.961V300.149H456.084H464.042V308.113V316.076H472.613H481.183V324.651V333.227H514.242H547.3V341.19V349.153H555.871H564.442V365.692V382.231H572.4H580.359V398.157V414.084H572.4H564.442V431.848V449.612H572.4H580.359V474.114V498.616H588.929H597.5V507.191V515.767H614.641H631.783V507.191V498.616H639.741H647.7V490.652V482.689H656.271H664.841V457.575V432.46H672.8H680.758V399.382V366.305H689.329H697.9V357.729V349.153H706.47H715.041V341.19V333.227H722.999H730.958V316.076V298.924H722.999H715.041V290.961V282.998H731.57H748.099V274.422V265.847H756.058H764.016V257.271V248.695H747.487H730.958V240.732V232.769H755.446H779.933V241.345V249.92H787.892H795.85V257.883V265.847H804.421H812.992V274.422V282.998H820.95H828.909V299.537V316.076H837.48H846.05V324.651V333.227H855.233H864.416V324.039V314.851H855.845H847.275V298.924V282.998H855.845H864.416V266.459V249.92H880.333H896.25V265.847V281.773H887.679H879.109V290.961V300.149H888.292H897.474V291.574V282.998H904.821H912.167V291.574V300.149H928.696H945.225V308.113V316.076H954.408H963.591V298.924V281.773H955.021H946.45V265.847V249.92H980.12H1013.79V240.732V231.544H1005.22H996.65V215.005V198.466H988.079H979.508V182.54V166.614H987.467H995.425V175.189V183.765H1004H1012.57V191.728V199.691H1021.14H1029.71V191.116V182.54H1021.75H1013.79V174.577V166.614H1021.75H1029.71V150.075V133.536H1038.28H1046.85V124.348V115.159H1038.28H1029.71V107.196V99.2331H1021.14H1012.57V107.196V115.159H1004.61H996.65V99.2331V83.3068H1013.18H1029.71V75.3436V67.3805H1045.63H1061.54V74.7311V82.0817H1053.58H1045.63V91.2699V100.458H1053.58H1061.54V108.421V116.384H1070.72H1079.91V99.8456V83.3068H1087.87H1095.82V75.3436V67.3805H1104.4H1112.97V58.1922V49.004H1079.91H1046.85V41.0408V33.0777H1037.67H1028.48V41.0408V49.004H1021.14H1013.79V41.0408V33.0777H930.533H847.275V24.502V15.9263H830.745H814.216V7.96315V0H797.075H779.933V16.5388ZM679.534 25.1145V34.3028H688.717H697.9V25.1145V15.9263H688.717H679.534V25.1145ZM281.609 41.6534V49.004H273.65H265.692V41.6534V34.3028H273.65H281.609V41.6534ZM264.467 74.7311V99.2331H240.592H216.716V91.2699V83.3068H224.675H232.633V75.3436V67.3805H241.204H249.775V58.8048V50.2291H257.121H264.467V74.7311ZM298.75 58.1922V66.1554H290.791H282.833V58.1922V50.2291H290.791H298.75V58.1922ZM613.417 58.1922V66.1554H606.071H598.724V58.1922V50.2291H606.071H613.417V58.1922ZM597.5 75.3436V83.3068H605.459H613.417V91.2699V99.2331H597.5H581.583V83.3068V67.3805H589.542H597.5V75.3436ZM646.475 142.112V150.687H663.005H679.534V158.038V165.388H655.658H631.783V149.462V133.536H639.129H646.475V142.112ZM1045.63 158.038V166.614H1054.2H1062.77V158.038V149.462H1054.2H1045.63V158.038ZM564.442 158.65V166.614H572.4H580.359V175.189V183.765H621.988H663.617V199.691V215.618H639.129H614.641V207.042V198.466H606.071H597.5V207.042V215.618H589.542H581.583V207.042V198.466H573.624H565.666V190.503V182.54H548.525H531.383V166.614V150.687H547.912H564.442V158.65ZM597.5 158.038V165.388H589.542H581.583V158.038V150.687H589.542H597.5V158.038ZM1045.63 191.116V199.691H1054.2H1062.77V191.116V182.54H1054.2H1045.63V191.116ZM729.734 224.193V231.544H722.387H715.041V224.193V216.843H722.387H729.734V224.193ZM198.35 257.271V265.847H207.533H216.716V257.271V248.695H207.533H198.35V257.271ZM679.534 257.271V264.622H672.188H664.841V257.271V249.92H672.188H679.534V257.271ZM696.675 273.81V281.773H688.717H680.758V273.81V265.847H688.717H696.675V273.81ZM1012.57 307.5V333.227H1029.71H1046.85V324.039V314.851H1038.28H1029.71V298.312V281.773H1021.14H1012.57V307.5ZM215.492 306.887V314.851H206.921H198.35V365.08V415.309H206.921H215.492V423.884V432.46H223.45H231.409V441.036V449.612H239.98H248.55V515.767V581.922H256.509H264.467V590.498V599.074H273.038H281.609V607.037V615H290.791H299.974V606.424V597.849H291.404H282.833V573.347V548.845H291.404H299.974V532.306V515.767H307.933H315.891V507.191V498.616H324.462H333.033V482.077V465.538H349.562H366.091V432.46V399.382H374.05H382.008V390.194V381.006H374.05H366.091V373.043V365.08H340.991H315.891V348.541V332.002H299.362H282.833V323.426V314.851H266.304H249.775V306.887V298.924H232.633H215.492V306.887ZM896.25 324.039V333.227H904.209H912.167V341.19V349.153H920.738H929.308V357.729V366.305H937.267H945.225V374.268V382.231H953.796H962.367V390.807V399.382H970.938H979.508V390.194V381.006H971.55H963.591V373.655V366.305H980.12H996.65V349.153V332.002H987.467H978.284V339.965V347.928H970.325H962.367V356.504V365.08H954.408H946.45V348.541V332.002H929.921H913.391V323.426V314.851H904.821H896.25V324.039ZM1012.57 373.655V382.231H1021.14H1029.71V373.655V365.08H1021.14H1012.57V373.655ZM1061.54 373.655V382.231H1070.11H1078.68V390.807V399.382H1103.78H1128.88V390.194V381.006H1120.92H1112.97V373.043V365.08H1087.25H1061.54V373.655ZM713.817 422.659V431.235H705.246H696.675V456.962V482.689H705.858H715.041V457.575V432.46H722.999H730.958V423.272V414.084H722.387H713.817V422.659ZM1028.48 422.659V431.235H1020.53H1012.57V439.811V448.386H995.425H978.284V482.077V515.767H996.037H1013.79V507.191V498.616H1029.71H1045.63V507.191V515.767H1053.58H1061.54V523.73V531.693H1078.68H1095.82V523.73V515.767H1104.4H1112.97V507.191V498.616H1120.92H1128.88V473.501V448.386H1120.92H1112.97V431.235V414.084H1103.78H1094.6V422.659V431.235H1087.25H1079.91V422.659V414.084H1054.2H1028.48V422.659ZM1177.86 481.464V498.616H1186.43H1195V481.464V464.313H1186.43H1177.86V481.464ZM1163.17 522.505V530.468H1155.82H1148.47V539.656V548.845H1157.66H1166.84V540.269V531.693H1174.19H1181.53V523.118V514.542H1172.35H1163.17V522.505ZM1061.54 556.195V564.771H1070.72H1079.91V556.195V547.62H1070.72H1061.54V556.195Z" fill="#E0DCD6"/>
<g filter="url(#filter0_b_1019_872)">
<circle cx="274" cy="150" r="10" fill="#7F7F7F" fill-opacity="0.28"/>
<circle cx="274" cy="150" r="7" fill="black"/>
</g>
<g filter="url(#filter1_b_1019_872)">
<circle cx="543" cy="126" r="10" fill="#7F7F7F" fill-opacity="0.28"/>
<circle cx="543" cy="126" r="7" fill="black"/>
</g>
<g filter="url(#filter2_b_1019_872)">
<circle cx="523" cy="106" r="10" fill="#7F7F7F" fill-opacity="0.28"/>
<circle cx="523" cy="106" r="7" fill="black"/>
</g>
<g filter="url(#filter3_b_1019_872)">
<circle cx="543" cy="153" r="10" fill="#7F7F7F" fill-opacity="0.28"/>
<circle cx="543" cy="153" r="7" fill="black"/>
</g>
<g filter="url(#filter4_b_1019_872)">
<circle cx="577" cy="143" r="10" fill="#7F7F7F" fill-opacity="0.28"/>
<circle cx="577" cy="143" r="7" fill="black"/>
</g>
<g filter="url(#filter5_b_1019_872)">
<circle cx="749" cy="265" r="10" fill="#7F7F7F" fill-opacity="0.28"/>
<circle cx="749" cy="265" r="7" fill="black"/>
</g>
<g filter="url(#filter6_b_1019_872)">
<circle cx="56" cy="180" r="10" fill="#7F7F7F" fill-opacity="0.28"/>
<circle cx="56" cy="180" r="7" fill="black"/>
</g>
<defs>
<filter id="filter0_b_1019_872" x="257.2" y="133.2" width="33.6" height="33.6" filterUnits="userSpaceOnUse" color-interpolation-filters="sRGB">
<feFlood flood-opacity="0" result="BackgroundImageFix"/>
<feGaussianBlur in="BackgroundImageFix" stdDeviation="3.4"/>
<feComposite in2="SourceAlpha" operator="in" result="effect1_backgroundBlur_1019_872"/>
<feBlend mode="normal" in="SourceGraphic" in2="effect1_backgroundBlur_1019_872" result="shape"/>
</filter>
<filter id="filter1_b_1019_872" x="526.2" y="109.2" width="33.6" height="33.6" filterUnits="userSpaceOnUse" color-interpolation-filters="sRGB">
<feFlood flood-opacity="0" result="BackgroundImageFix"/>
<feGaussianBlur in="BackgroundImageFix" stdDeviation="3.4"/>
<feComposite in2="SourceAlpha" operator="in" result="effect1_backgroundBlur_1019_872"/>
<feBlend mode="normal" in="SourceGraphic" in2="effect1_backgroundBlur_1019_872" result="shape"/>
</filter>
<filter id="filter2_b_1019_872" x="506.2" y="89.2" width="33.6" height="33.6" filterUnits="userSpaceOnUse" color-interpolation-filters="sRGB">
<feFlood flood-opacity="0" result="BackgroundImageFix"/>
<feGaussianBlur in="BackgroundImageFix" stdDeviation="3.4"/>
<feComposite in2="SourceAlpha" operator="in" result="effect1_backgroundBlur_1019_872"/>
<feBlend mode="normal" in="SourceGraphic" in2="effect1_backgroundBlur_1019_872" result="shape"/>
</filter>
<filter id="filter3_b_1019_872" x="526.2" y="136.2" width="33.6" height="33.6" filterUnits="userSpaceOnUse" color-interpolation-filters="sRGB">
<feFlood flood-opacity="0" result="BackgroundImageFix"/>
<feGaussianBlur in="BackgroundImageFix" stdDeviation="3.4"/>
<feComposite in2="SourceAlpha" operator="in" result="effect1_backgroundBlur_1019_872"/>
<feBlend mode="normal" in="SourceGraphic" in2="effect1_backgroundBlur_1019_872" result="shape"/>
</filter>
<filter id="filter4_b_1019_872" x="560.2" y="126.2" width="33.6" height="33.6" filterUnits="userSpaceOnUse" color-interpolation-filters="sRGB">
<feFlood flood-opacity="0" result="BackgroundImageFix"/>
<feGaussianBlur in="BackgroundImageFix" stdDeviation="3.4"/>
<feComposite in2="SourceAlpha" operator="in" result="effect1_backgroundBlur_1019_872"/>
<feBlend mode="normal" in="SourceGraphic" in2="effect1_backgroundBlur_1019_872" result="shape"/>
</filter>
<filter id="filter5_b_1019_872" x="732.2" y="248.2" width="33.6" height="33.6" filterUnits="userSpaceOnUse" color-interpolation-filters="sRGB">
<feFlood flood-opacity="0" result="BackgroundImageFix"/>
<feGaussianBlur in="BackgroundImageFix" stdDeviation="3.4"/>
<feComposite in2="SourceAlpha" operator="in" result="effect1_backgroundBlur_1019_872"/>
<feBlend mode="normal" in="SourceGraphic" in2="effect1_backgroundBlur_1019_872" result="shape"/>
</filter>
<filter id="filter6_b_1019_872" x="39.2" y="163.2" width="33.6" height="33.6" filterUnits="userSpaceOnUse" color-interpolation-filters="sRGB">
<feFlood flood-opacity="0" result="BackgroundImageFix"/>
<feGaussianBlur in="BackgroundImageFix" stdDeviation="3.4"/>
<feComposite in2="SourceAlpha" operator="in" result="effect1_backgroundBlur_1019_872"/>
<feBlend mode="normal" in="SourceGraphic" in2="effect1_backgroundBlur_1019_872" result="shape"/>
</filter>
</defs>
</svg>
