<svg width="1359" height="1642" viewBox="0 0 1359 1642" fill="none" xmlns="http://www.w3.org/2000/svg">
<path fill-rule="evenodd" clip-rule="evenodd" d="M781.456 725.012C771.945 724.83 762.556 726.638 754.921 730.662C739.836 739.266 731.255 754.99 732.142 772.198C732.734 785.252 740.128 797.419 751.368 803.946C759.946 810.473 772.076 812.55 777.4 823.23C778.287 826.197 777.696 829.757 775.921 832.131C773.555 835.691 769.413 835.691 765.863 836.581C753.736 836.284 742.79 832.428 735.1 823.23V860.316L742.2 865.357C759.947 873.961 786.867 875.15 803.727 863.283C817.333 852.305 823.84 835.688 819.995 818.183C817.924 800.976 799.581 790.296 785.679 783.769C781.833 781.099 778.285 777.54 777.989 773.09C777.989 769.233 779.768 765.671 783.021 763.297C794.853 757.66 805.792 765.967 815.258 772.198V735.112C806.107 728.771 793.683 725.246 781.456 725.012ZM876.825 725.012C867.337 724.83 857.928 726.638 850.163 730.662C835.078 739.266 826.502 754.99 827.39 772.198C827.981 785.252 835.376 797.419 846.616 803.946C855.194 810.473 867.318 812.55 872.642 823.23C873.529 826.197 872.938 829.757 871.163 832.131C868.797 835.691 864.655 835.691 861.105 836.581C848.978 836.284 838.038 832.428 830.348 823.23V860.316L837.442 865.357C855.189 873.961 882.108 875.15 898.968 863.283C912.575 852.305 919.082 835.688 915.237 818.183C913.166 800.976 894.829 790.296 880.926 783.769C877.081 781.099 873.533 777.54 873.237 773.09C873.237 769.233 875.009 765.671 878.263 763.297C890.095 757.66 901.04 765.967 910.505 772.198V735.112C901.354 728.771 889.023 725.246 876.825 725.012ZM925.884 726.513V867.437H967V726.513H925.884ZM446.411 727.997L405 869.512H449.368L455.284 847.556H487.526L492.847 869.216H537.216L496.105 727.997H446.411ZM544.021 727.997V869.512H625.952V838.656L585.726 838.36V727.997H544.021ZM634.826 727.997V869.512H720.905V839.548H676.537V813.438H719.427V782.582H676.537V758.551H721.2V727.997H634.826ZM470.963 782.582C474.217 792.965 476.58 803.945 479.242 814.626H463.569L470.963 782.582Z" fill="white"/>
</svg>
