<svg width="1359" height="1642" viewBox="0 0 1359 1642" fill="none" xmlns="http://www.w3.org/2000/svg">
<path fill-rule="evenodd" clip-rule="evenodd" d="M477.724 784.005V941H511.754V784.005H477.724ZM516.614 784.005V810.779H538.909L538.978 941H575.451L575.358 810.779H597.813V784.005H516.614ZM605.875 784.005L580.776 941H606.756L613.565 899.87H638.971L645.793 941H681.052L655.366 784.005H605.875ZM686.112 784.005V941H746.109V914.226H720.155V784.005H686.112ZM750.448 784.005V941H784.478V784.005H750.448ZM814.009 784.005L788.897 941H814.877L821.686 899.87H847.092L853.914 941H889.172L863.486 784.005H814.009ZM482.584 788.87H506.895V936.134H482.584V788.87ZM521.474 788.87H592.952V805.913H570.643L570.589 936.134H543.848V805.913H521.472L521.474 788.87ZM609.8 788.87H651.16L675.405 936.134H649.999L642.456 895.004H609.653L602.391 936.134H585.983L609.8 788.87ZM690.985 788.87H715.296V919.092H741.249V936.134H690.985V788.87ZM755.307 788.87H779.618V936.134H755.307V788.87ZM817.921 788.87H859.281L883.525 936.134H858.119L850.576 895.004H817.774L810.525 936.134H794.117L817.921 788.87ZM625.18 805.432L612.551 878.028H639.986L627.209 805.432H625.18ZM833.301 805.432L820.684 878.028H848.106L835.343 805.432H833.301ZM625.914 823.825L634.459 873.082H618.064L625.914 823.825ZM834.035 823.825L842.592 873.082H826.198L834.035 823.825Z" fill="white"/>
<path fill-rule="evenodd" clip-rule="evenodd" d="M526.662 755.82L526.222 755.238L526.512 680.823C537.653 680.241 550.116 679.509 557.002 689.633C564.33 702.542 564.189 721.183 561.107 736.006C559.936 740.706 558.614 745.106 555.831 749.074C549.384 758.607 536.922 754.938 526.662 755.82ZM552.458 617.713C558.032 629.159 557.002 645.014 554.809 657.491C553.488 663.355 548.944 668.937 543.078 671.283C538.094 673.337 532.228 674.069 526.512 673.778L526.221 609.495C535.892 609.645 547.914 607.291 552.458 617.713ZM811.049 680.823C822.191 680.241 834.653 679.509 841.54 689.633C848.868 702.542 848.718 721.183 845.635 736.006C844.464 740.706 843.152 745.106 840.36 749.074C833.913 758.607 821.451 754.938 811.191 755.82L810.751 755.238L811.049 680.823ZM836.996 617.713C842.562 629.159 841.54 645.014 839.338 657.491C838.018 663.355 833.473 668.937 827.607 671.283C822.631 673.337 816.766 674.069 811.049 673.778L810.751 609.495C820.429 609.645 832.451 607.291 836.996 617.713ZM588.223 753.624C599.173 747.119 605.147 736.114 606.193 724.369C606.999 728.262 608.237 731.972 609.89 735.275C619.12 755.82 640.821 762.866 661.192 765.07C685.675 766.243 710.74 762.575 724.664 740.997C732.873 729.402 733.171 710.328 726.866 697.701C732.873 696.387 738.588 694.473 743.864 691.387C752.521 686.404 758.528 677.305 761.311 668.646C761.7 667.331 762 665.984 762.258 664.628V755.529H752.529V762.832H818.378C837.287 762.683 857.516 763.748 872.761 753.624C889.327 743.784 894.752 723.679 888.447 706.219C883.163 688.018 863.522 678.328 845.935 676.423C859.858 673.778 873.932 666.741 880.969 653.232C885.364 644.864 885.364 632.536 880.379 624.318C871.149 607.881 853.412 602.916 835.674 602.183H752.529V609.487H762.258V649.247C761.128 643.474 758.685 638.043 754.713 633.709C749.879 628.577 743.132 625.932 736.104 627.545C731.41 628.718 727.007 632.828 725.985 637.677C724.664 642.959 726.135 648.241 730.38 651.618C733.753 654.554 739.029 655.146 743.132 653.673C747.826 652.059 750.759 647.21 751.781 642.809C754.274 646.037 754.713 651.469 752.961 655.287C751.05 660.278 745.775 663.505 740.94 664.978C729.79 667.764 717.038 667.173 705.465 668.055C690.95 670.11 676.735 675.832 668.087 689.192C661.632 699.024 658.99 714.288 665.295 725.151C668.087 729.551 672.624 732.638 677.467 733.369C682.883 734.542 686.988 731.756 690.511 728.229C694.033 724.27 695.055 717.664 692.711 712.824C690.66 708.415 686.116 705.628 681.422 705.337C676.437 705.037 672.042 707.541 669.4 711.942C669.4 710.029 670.281 708.124 671.161 706.51C678.488 695.646 692.421 693.592 704.584 696.237C712.493 698.001 720.851 705.337 723.052 713.556C725.105 723.679 721.731 733.22 715.285 740.556C702.673 754.506 682.302 758.316 665.295 752.01C655.916 748.484 648.148 738.801 646.238 729.261C643.604 715.61 643.305 698.583 649.47 686.404C655.767 675.392 667.937 674.219 679.078 673.487C680.1 672.164 679.369 669.818 679.66 668.055C674.534 667.764 668.959 667.473 664.715 664.678C658.7 660.86 656.647 654.263 655.916 647.651C655.185 634.591 653.133 618.446 666.176 611.4C673.504 606.859 683.914 608.912 690.95 612.722C696.226 616.54 700.48 622.114 699.599 628.427C697.106 625.349 694.033 623.586 690.66 622.413C687.137 621.531 683.033 621.973 679.959 623.586C675.855 625.79 672.624 630.041 672.332 634.74C671.602 639.582 673.795 643.541 676.735 646.777C681.131 651.328 687.869 652.941 694.174 651.036C699.89 649.273 704.584 643.841 706.195 638.26C709.129 626.231 704.434 614.777 694.473 607.44C678.488 596.876 653.573 598.049 637.597 607.881C626.157 613.895 619.561 626.082 619.71 638.999C619.86 653.09 632.754 664.678 644.626 669.669C631.723 671.573 619.561 677.887 611.942 689.192C607.722 695.18 605.57 702.924 605.18 710.852C604.806 709.296 604.458 707.74 603.909 706.219C598.633 688.018 578.994 678.328 561.397 676.423C575.329 673.777 589.394 666.741 596.44 653.232C600.835 644.864 600.835 632.536 595.85 624.318C586.612 607.881 568.882 602.915 551.145 602.183H468V609.486H477.72V755.529H468V762.832H533.84C552.757 762.683 572.987 763.748 588.223 753.624Z" fill="white"/>
</svg>
