<svg width="1359" height="1642" viewBox="0 0 1359 1642" fill="none" xmlns="http://www.w3.org/2000/svg">
<path d="M529.927 709.187C529.683 709.916 491.334 861.097 491.334 861.34C491.334 861.715 495.138 861.472 496.973 860.986C499.849 860.213 502.237 858.424 503.829 855.817C504.25 855.133 505.201 853.189 505.931 851.488C508.076 846.65 512.543 837.704 514.777 833.838C519.797 825.091 525.791 817.006 533.111 809.01C535.898 805.983 543.771 798.097 543.882 798.23C543.926 798.274 544.258 807.265 544.634 818.177C545.297 837.969 545.452 840.885 546.094 844.662C547.553 853.321 551.092 856.591 558.678 856.215C562.836 855.994 565.998 854.47 569.802 850.847C570.864 849.831 572.412 848.174 573.274 847.136C574.115 846.098 574.845 845.281 574.867 845.303C574.889 845.325 573.982 849.014 572.832 853.476L570.753 861.627L572.943 861.494C577.078 861.251 579.6 860.213 581.745 857.916C583.138 856.436 584.067 854.757 586.279 849.831C593.29 834.17 600.787 822.374 611.115 810.755C614.543 806.911 623.412 797.965 623.5 798.274C623.545 798.385 623.832 806.403 624.12 816.056C624.739 835.296 624.982 840.178 625.491 843.668C626.884 853.078 630.489 856.613 638.274 856.193C642.764 855.972 645.816 854.426 650.04 850.207C652.318 847.909 655.79 843.801 656.785 842.166C656.962 841.901 657.161 841.68 657.228 841.68C657.294 841.68 657.427 843.005 657.493 844.596C658.09 856.325 662.845 861.914 671.913 861.494C678.813 861.163 683.634 857.297 691.994 845.369L693.609 843.072V847.843C693.609 853.145 693.874 854.647 695.245 857.342C696.639 860.125 698.607 861.384 701.77 861.517C716.212 862.157 739.345 847.556 750.381 830.856C753.765 825.731 755.645 821.048 756.176 816.321L756.308 815.173L749.939 821.534C746.445 825.047 742.508 828.846 741.225 829.995C727.557 842.188 716.654 848.771 708.405 849.875C704.49 850.383 702.986 848.903 702.986 844.53C702.986 833.772 714.354 810.622 725.943 797.832C731.981 791.161 737.089 788.356 741.955 789.063C744.189 789.394 745.295 789.88 746.666 791.183C748.17 792.597 749.165 793.083 750.58 793.083C752.084 793.061 753.411 792.465 754.207 791.426C754.738 790.742 754.849 790.322 754.915 789.063C755.004 787.715 754.937 787.384 754.318 786.147C753.455 784.358 751.465 782.458 749.563 781.574C745.118 779.498 738.239 779.564 732.733 781.751C720.082 786.743 707.409 802.228 699.448 822.418C698.563 824.627 697.944 825.731 696.108 828.382C686.244 842.608 678.636 850.273 672.93 851.753C671.006 852.239 669.812 852.04 668.706 851.046C666.981 849.478 666.362 846.65 666.561 841.282C666.892 832.822 669.48 820.96 675.584 799.82C678.349 790.233 678.503 789.527 678.614 787.296C678.703 785.44 678.636 784.667 678.327 783.761C677.486 781.199 675.739 779.675 672.974 779.167C672.2 779.012 671.515 778.946 671.448 779.012C671.36 779.078 668.573 790.123 665.19 803.531L659.085 827.918L655.503 832.645C648.116 842.431 644.887 845.546 641.238 846.451C638.407 847.158 636.239 846.12 635.443 843.734C634.713 841.481 634.647 840.112 633.762 809.871C633.519 801.543 633.209 793.834 633.077 792.752C632.303 786.567 629.494 782.767 626.066 783.231C619.077 784.181 603.839 800.991 591.918 820.916C590.636 823.036 589.22 825.488 588.756 826.372C588.269 827.256 587.849 827.94 587.805 827.896C587.761 827.852 590.127 818.839 593.068 807.861C595.988 796.882 598.487 787.207 598.62 786.368C599.062 783.607 598.443 780.536 597.138 778.835C596.342 777.775 594.904 776.98 593.555 776.803C592.604 776.693 592.427 776.737 592.317 777.09C592.206 777.51 580.75 822.175 579.777 826.085C579.312 827.94 579.179 828.183 576.747 831.497C571.041 839.228 566.817 843.911 564.14 845.457C562.349 846.496 560.513 846.871 558.877 846.54C556.599 846.054 555.692 844.508 555.25 840.311C555.139 839.14 554.741 828.205 554.365 816.012C553.879 800.218 553.591 793.304 553.37 791.934C552.64 787.627 551.18 784.866 549.057 783.739C547.465 782.9 546.094 783.01 543.816 784.137C535.257 788.378 519.134 807.971 509.359 826.063C508.784 827.123 508.275 827.962 508.231 827.918C508.186 827.874 514.6 803.553 522.518 773.865C531.652 739.516 536.937 719.304 537.026 718.31C537.358 714.488 535.743 710.998 533.067 709.717C531.652 709.054 530.059 708.789 529.927 709.187Z" fill="white"/>
<path d="M956.129 723.965C942.107 725.864 931.292 740.841 923.131 769.624C922.468 771.965 921.229 776.737 920.367 780.227C919.504 783.717 918.752 786.633 918.664 786.699C918.487 786.854 907.539 785.042 903.16 784.159C901.391 783.783 899.71 783.584 898.383 783.584C896.614 783.584 896.216 783.651 895.154 784.181C892.367 785.617 891.969 788.444 894.269 790.675C895.773 792.133 897.233 792.73 902.298 793.967C906.478 794.983 914.771 796.617 915.744 796.617C915.988 796.617 916.187 796.75 916.187 796.882C916.165 797.037 910.259 820.982 903.05 850.074L889.935 902.979L890.952 903.509C896.481 906.403 900.241 905.077 902.253 899.599C902.585 898.671 908.07 875.433 914.417 847.976C920.787 820.518 926.006 798.031 926.028 797.987C926.05 797.965 927.82 798.075 929.921 798.252C936.998 798.87 943.655 799.091 952.634 799.003C961.459 798.937 961.547 798.937 961.414 799.379C961.348 799.622 959.822 805.74 958.008 812.964C953.253 831.961 952.369 836.312 952.103 842.144C951.661 851.355 954.16 857.562 959.313 860.103C961.68 861.251 963.714 861.627 966.833 861.494C970.858 861.318 973.667 860.125 977.25 857.077C980.456 854.337 985.587 847.998 986.826 845.236C987.688 843.315 987.843 841.415 987.224 840.2C986.715 839.228 986.406 839.029 985.344 839.029C983.951 839.029 982.712 839.913 978.886 843.668C973.18 849.257 970.792 851.024 967.983 851.731C964.776 852.548 962.786 851.134 961.812 847.357C961.326 845.435 961.26 839.582 961.702 835.937C962.719 827.543 965.793 813.98 969.774 800.262L970.283 798.495L972.03 798.318C982.557 797.258 988.086 796.507 995.031 795.159C1007.99 792.641 1012.88 790.719 1013.41 787.914C1013.61 786.787 1013.25 785.97 1012.37 785.506C1011.73 785.153 1011.24 785.109 1008.74 785.219C1007.08 785.263 1004.56 785.55 1002.77 785.882C998.415 786.699 991.537 787.671 986.737 788.201C981.938 788.731 973.246 789.394 973.092 789.262C973.047 789.195 973.755 786.787 974.662 783.894C977.957 773.401 978.156 772.65 978.267 769.977C978.4 767.061 978.068 765.626 976.896 764.079C975.989 762.887 973.976 761.826 972.207 761.605L971.079 761.451L970.725 762.644C970.548 763.284 968.934 769.602 967.142 776.67L963.891 789.527L962.321 789.659C959.048 789.946 942.726 789.306 934.101 788.533C928.373 788.024 928.328 788.024 928.461 787.472C932.177 771.678 933.172 767.857 935.14 761.826C940.935 744.022 948.078 734.612 956.814 733.22C958.959 732.867 960.441 733.088 961.591 733.971C962.786 734.877 963.515 736.335 964.511 739.847C965.882 744.596 966.744 745.811 968.779 745.811C971.101 745.811 973.025 742.211 973.047 737.859C973.07 734.855 972.318 732.58 970.504 730.039C967.209 725.423 961.879 723.169 956.129 723.965Z" fill="white"/>
<path d="M370.026 748.484C370.314 751.599 371.022 753.786 372.216 755.332L372.946 756.282L371.53 761.937C361.777 800.704 357.84 823.279 358.636 835.893C359.012 841.945 359.853 845.722 361.622 849.323C364.895 856.016 370.69 859.506 381.084 861.031C384.225 861.494 392.275 861.693 395.018 861.362C403.422 860.368 411.251 857.099 417.333 851.996C419.08 850.538 420.23 849.124 420.473 848.152C420.849 846.65 419.744 845.06 418.173 844.839C417.399 844.728 416.868 844.905 414.436 846.054C409.437 848.395 404.572 849.853 398.556 850.781C394.42 851.399 387.122 851.444 383.517 850.869C374.228 849.367 370.314 845.303 369.23 836.047C368.898 833.22 369.097 823.545 369.562 819.701C370.27 814.024 371.773 805.144 372.127 804.57C372.26 804.349 372.946 804.371 375.268 804.658C384.424 805.762 397.074 805.519 408.951 804.017C412.556 803.553 418.881 802.449 420.164 802.051C421.69 801.61 423.172 800.66 423.68 799.865C424.543 798.429 423.99 796.374 422.552 795.623C421.424 795.049 419.965 795.005 417.134 795.491C408.177 797.015 395.217 796.949 378.784 795.27C376.418 795.027 374.427 794.784 374.361 794.74C373.963 794.32 383.252 760.7 383.937 759.993C384.004 759.927 385.176 759.993 386.547 760.147C393.293 760.854 405.235 761.053 413.175 760.611C429.784 759.661 442.568 757.143 446.172 754.095C446.947 753.454 447.676 752.261 447.433 752.041C447.367 751.952 441.594 751.82 434.65 751.753C427.683 751.665 420.319 751.533 418.24 751.466C401.918 750.848 392.563 750.185 383.031 749.014C379.05 748.506 371.95 747.38 370.447 747.004L369.894 746.85L370.026 748.484Z" fill="white"/>
<path d="M679.654 752.77C679.543 752.814 679.167 752.902 678.835 752.968C677.973 753.167 676.889 754.161 676.425 755.199C675.23 757.828 676.624 761.318 680.251 764.72C683.17 767.481 685.979 767.724 688.146 765.361C689.584 763.814 689.65 761.893 688.345 759.441C687.328 757.519 684.01 754.183 682.418 753.476C681.224 752.924 680.074 752.659 679.654 752.77Z" fill="white"/>
<path d="M463.29 763.196C462.317 766.863 457.253 786.765 456.28 790.808L455.24 795.071H448.097C441.617 795.071 440.82 795.115 439.56 795.513C437.038 796.286 435.822 797.744 435.822 799.975C435.822 801.919 436.972 803.244 439.361 804.062C440.422 804.415 441.351 804.459 446.615 804.459C449.91 804.459 452.63 804.525 452.63 804.614C452.63 804.702 451.746 808.347 450.64 812.743C446.416 829.774 445.266 835.318 444.868 840.885C444.005 852.614 447.698 859.771 455.351 861.229C461.831 862.466 466.917 860.478 472.535 854.536C475.101 851.863 478.529 847.313 479.413 845.479C480.961 842.254 480.342 839.029 478.175 839.029C476.649 839.029 475.3 840.001 470.898 844.309C464.971 850.074 462.118 851.93 459.022 851.93C457.43 851.952 456.28 851.245 455.461 849.699C452.608 844.463 454.024 832.049 460.172 808.789C460.88 806.072 461.477 803.819 461.477 803.796C461.477 803.774 462.738 803.62 464.308 803.487C475.742 802.405 490.648 799.246 495.492 796.882C499.406 794.983 498.455 791.78 494.143 792.266C493.501 792.332 491.046 792.641 488.68 792.95C480.718 793.967 470.257 794.85 466.099 794.85H464.175L465.148 791.537C465.679 789.703 466.984 785.396 468.023 781.972C470.788 772.783 471.053 771.678 471.053 769.226C471.053 766.774 470.545 765.184 469.35 763.77C468.466 762.754 466.564 761.826 464.883 761.605L463.755 761.451L463.29 763.196Z" fill="white"/>
<path d="M767.145 818.884C761.24 842.056 756.375 861.141 756.331 861.318C756.22 861.583 756.574 861.605 758.454 861.494C762.435 861.251 765.133 860.213 766.991 858.247C768.295 856.856 768.893 855.619 769.976 851.952C772.719 842.807 778.226 832.005 786.011 820.474C793.773 808.988 803.283 798.451 809.852 794.011C811.997 792.575 813.324 791.912 815.58 791.183C817.747 790.499 819.008 789.902 819.716 789.239C821.618 787.539 821.529 784.269 819.517 782.281C816.509 779.277 811.444 780.094 805.539 784.556C799.081 789.416 791.694 797.921 779.331 814.687C777.23 817.536 775.527 819.745 775.527 819.613C775.527 819.48 777.407 812.235 779.73 803.531C782.03 794.806 784.02 786.898 784.153 785.948C784.44 783.96 784.175 781.663 783.511 780.139C782.671 778.239 780.459 776.737 778.535 776.737H777.85L767.145 818.884Z" fill="white"/>
<path d="M864.545 780.845C864.191 780.89 862.997 781.044 861.891 781.177C851.939 782.37 841.832 786.876 833.317 793.9C830.354 796.352 825.178 801.698 822.768 804.79C815.337 814.333 809.653 826.041 806.822 837.527C804.699 846.186 804.5 854.117 806.335 858.093C807.861 861.428 810.139 862.312 813.236 860.81C817.04 858.998 822.193 854.536 833.052 843.69C841.036 835.716 845.282 831.254 858.353 817.227C861.648 813.693 864.346 810.821 864.368 810.843C864.39 810.865 863.926 813.317 863.329 816.277C858.331 841.238 858.419 853.586 863.594 859.241C866.934 862.886 874.387 863.814 879.474 861.229C883.233 859.308 888.342 854.315 890.421 850.494C892.124 847.357 891.815 843.933 889.78 843.558C888.409 843.293 886.883 844.22 883.919 847.048C880.955 849.897 879.098 851.311 876.952 852.305C872.949 854.183 870.251 852.924 869.168 848.682C868.106 844.574 869.123 832.579 871.512 820.695C873.812 809.341 877.616 798.738 883.565 787.207L885.843 782.745L883.609 782.281C878.677 781.221 875.802 780.89 870.406 780.823C867.553 780.779 864.921 780.801 864.545 780.845ZM867.863 791.316C868.725 791.448 869.588 791.603 869.809 791.669C870.119 791.758 863.992 798.031 843.181 818.95C828.319 833.882 816.111 846.054 816.066 846.01C816 845.943 816.133 844.839 816.332 843.514C818.234 831.232 823.298 819.613 831.039 809.871C834.71 805.232 840.593 799.887 845.149 797.081C850.17 793.967 855.986 791.802 860.896 791.25C862.488 791.073 866.381 791.117 867.863 791.316Z" fill="white"/>
</svg>
