<svg width="1359" height="1642" viewBox="0 0 1359 1642" fill="none" xmlns="http://www.w3.org/2000/svg">
<path d="M298 839.523H313.357V719H298V839.523Z" fill="black"/>
<path d="M327.935 839.529H343.281V749.728H327.935V839.529Z" fill="black"/>
<path d="M327.941 734.367H343.287V719H327.941V734.367Z" fill="black"/>
<path d="M1004.26 802.571C1007.15 824.937 1025.4 842.201 1047.36 842.666V826.37C1032.31 826.187 1020.14 813.71 1019.23 797.998H1047.36V781.921H1019.53V739.941H1004.17V798.645L1004.26 802.571Z" fill="black"/>
<path d="M829.446 782.094C834.05 772.017 843.736 765.282 855.012 765.282C863.296 765.282 870.753 769.008 875.944 774.983L895.053 774.939C892.368 769.309 888.609 764.315 884.09 760.256C876.375 753.409 866.353 749.231 855.449 749.231C831.023 749.231 811.206 770.007 811.206 795.57C811.206 796.469 811.223 797.373 811.283 798.177L883.478 798.121C882.106 813.425 869.859 825.657 855.012 825.657C843.131 825.657 832.917 817.936 828.673 806.923L812.542 806.986C817.38 827.083 834.757 841.985 855.449 841.985C879.876 841.985 899.669 821.203 899.669 795.57C899.669 790.877 898.992 786.354 897.775 782.094H829.446Z" fill="black"/>
<path d="M687.546 759.88V749.878H672.153V839.711H687.546V789.564C688.409 777.163 701.878 765.031 715.803 765.031L715.815 749.042C705.049 749.074 695.182 753.145 687.546 759.88Z" fill="black"/>
<path d="M759.076 825.686C743.336 825.686 730.55 812.116 730.55 795.474C730.55 778.794 743.336 765.28 759.076 765.28C774.835 765.28 787.603 778.794 787.603 795.474C787.603 812.116 774.835 825.686 759.076 825.686ZM788.119 760.285C780.416 753.412 770.4 749.228 759.472 749.228C735.064 749.228 715.252 770.023 715.252 795.599C715.252 821.2 735.064 841.983 759.472 841.983C783.929 841.983 803.722 821.2 803.722 795.599C803.722 781.457 797.692 768.792 788.119 760.285Z" fill="black"/>
<path d="M525.813 759.215C535.314 767.721 541.32 780.381 541.32 794.541H541.308V839.712H525.951V794.541H525.921C525.921 777.88 513.171 764.36 497.418 764.36C482.384 764.36 470.072 776.661 468.987 792.273L469.029 792.455V839.53H453.672V749.722H469.029V759.045L468.999 759.089C476.678 752.26 486.562 748.17 497.376 748.17C508.213 748.17 518.152 752.335 525.813 759.215Z" fill="black"/>
<path d="M395.558 824.563C379.811 824.563 367.049 811.031 367.049 794.414C367.049 777.721 379.811 764.195 395.558 764.195C411.305 764.195 424.115 777.721 424.115 794.414C424.115 811.031 411.305 824.563 395.558 824.563ZM440.227 794.546C440.227 792.862 440.137 791.153 439.957 789.501L439.987 749.632H424.63V759.213C416.885 752.321 406.911 748.168 396.019 748.168C371.569 748.168 351.746 768.932 351.746 794.546C351.746 820.147 371.569 840.923 396.019 840.923C406.911 840.923 416.885 836.758 424.6 829.885V834.326C424.6 850.975 411.617 864.47 395.558 864.47C385.422 864.47 376.496 859.092 371.311 850.881L354.779 850.912C361.594 868.019 377.293 880 395.558 880C420.11 880 439.939 858.501 439.939 832.027V799.584C440.137 797.963 440.227 796.254 440.227 794.546Z" fill="black"/>
<path d="M637.832 798.243C637.922 796.999 637.964 795.786 637.964 794.543C637.964 780.382 631.921 767.723 622.349 759.216C614.64 752.337 604.647 748.172 593.708 748.172C569.281 748.172 549.476 768.929 549.476 794.543C549.476 820.144 569.281 840.926 593.708 840.926C614.011 840.926 631.118 826.558 636.327 807.082L619.723 806.957C615.245 817.442 605.271 824.717 593.708 824.717C579.118 824.717 567.111 813.145 565.409 798.18V798.212H622.013L637.832 798.243ZM567.723 782.097C572.201 771.637 582.151 764.361 593.708 764.361C605.253 764.361 615.197 771.611 619.711 782.047" fill="black"/>
<path d="M994.724 798.058C994.844 796.846 994.856 796.751 994.856 795.539C994.856 781.378 988.814 768.7 979.277 760.206C971.551 753.333 961.558 749.18 950.631 749.18C926.21 749.18 906.393 769.931 906.393 795.539C906.393 821.171 926.21 841.922 950.631 841.922C970.933 841.922 988.029 827.58 993.25 808.041L976.628 807.953C972.168 818.407 962.194 825.745 950.631 825.745C936.083 825.745 924.04 812.992 922.35 798.058H994.724ZM924.663 783.087C929.147 772.652 939.104 765.358 950.631 765.358C962.176 765.358 972.12 772.608 976.604 783.087L976.562 782.968H924.562L924.663 783.087Z" fill="black"/>
<path d="M1066.65 766.841C1059.32 766.841 1053.31 760.58 1053.31 752.877C1053.31 745.158 1059.32 738.889 1066.65 738.889C1074.01 738.889 1080 745.163 1080 752.877C1080 760.574 1074.01 766.841 1066.65 766.841ZM1066.65 763.908C1072.51 763.908 1077.2 758.989 1077.2 752.877C1077.2 746.745 1072.5 741.834 1066.65 741.834C1060.84 741.834 1056.1 746.75 1056.1 752.877C1056.1 758.983 1060.83 763.908 1066.65 763.908Z" fill="black"/>
<path d="M1069.92 749.352C1069.89 748.667 1069.67 748.121 1069.27 747.687C1068.81 747.272 1068.26 747.046 1067.61 747.046H1063.81V751.67H1067.5C1068.17 751.67 1068.76 751.463 1069.24 751.029C1069.67 750.627 1069.89 750.087 1069.92 749.352ZM1069.89 760.189L1066.86 753.662H1063.81V760.189H1061.7V745.017H1067.69C1068.94 745.042 1069.98 745.432 1070.78 746.242C1071.56 747.046 1071.97 748.089 1072 749.352C1071.95 751.312 1071 752.669 1069.17 753.417L1072.49 760.189H1069.89Z" fill="black"/>
</svg>
