<svg width="1359" height="1642" viewBox="0 0 1359 1642" fill="none" xmlns="http://www.w3.org/2000/svg">
<path d="M543.448 781.654C543.448 774.576 546.231 767.788 551.179 762.783C556.13 757.778 562.843 754.967 569.846 754.967C576.846 754.967 583.559 757.778 588.51 762.783C593.461 767.788 596.241 774.576 596.241 781.654C596.241 788.732 593.461 795.519 588.51 800.524C583.559 805.529 576.846 808.341 569.846 808.341C562.843 808.341 556.13 805.529 551.179 800.524C546.231 795.519 543.448 788.732 543.448 781.654ZM524.967 781.654C524.967 803.414 541.445 825 569.846 825C598.245 825 614.737 803.414 614.737 781.654C614.737 759.893 598.259 738.308 569.801 738.308C541.345 738.308 524.967 759.908 524.967 781.654Z" fill="black"/>
<path d="M690.566 781.654C690.566 774.576 693.347 767.788 698.298 762.783C703.248 757.778 709.962 754.967 716.962 754.967C723.962 754.967 730.677 757.778 735.628 762.783C740.577 767.788 743.358 774.576 743.358 781.654C743.358 788.732 740.577 795.519 735.628 800.524C730.677 805.529 723.962 808.341 716.962 808.341C709.962 808.341 703.248 805.529 698.298 800.524C693.347 795.519 690.566 788.732 690.566 781.654ZM672.07 781.654C672.07 803.414 688.548 825 716.962 825C745.376 825 761.841 803.414 761.841 781.654C761.841 759.893 745.376 738.308 716.962 738.308C688.548 738.308 672.07 759.908 672.07 781.654Z" fill="black"/>
<path d="M837.684 781.654C837.684 774.576 840.465 767.788 845.414 762.783C850.365 757.778 857.078 754.967 864.08 754.967C871.08 754.967 877.793 757.778 882.744 762.783C887.695 767.788 890.476 774.576 890.476 781.654C890.476 788.732 887.695 795.519 882.744 800.524C877.793 805.529 871.08 808.341 864.08 808.341C857.078 808.341 850.365 805.529 845.414 800.524C840.465 795.519 837.684 788.732 837.684 781.654ZM819.187 781.654C819.187 803.414 835.664 825 864.08 825C892.494 825 908.957 803.414 908.957 781.654C908.957 759.893 892.494 738.308 864.08 738.308C835.664 738.308 819.201 759.908 819.201 781.654H819.187Z" fill="black"/>
<path d="M355 771.291C355 750.39 368.782 738.308 384.755 738.308C397.023 738.308 405.932 744.254 409.133 752.883H409.464C412.665 744.21 421.574 738.308 433.842 738.308C449.815 738.308 463.597 750.39 463.597 771.291V822.77H446.125V771.451C446.125 761.598 439.897 756.002 432.674 756.002C424.27 756.002 418.042 761.088 418.042 773.841V822.77H400.555V773.841C400.555 761.088 394.342 756.002 385.937 756.002C378.729 756.002 372.487 761.598 372.487 771.451V822.77H355V771.291Z" fill="black"/>
<path d="M988.087 743.468H970.313V822.8H988.087V743.468Z" fill="black"/>
<path d="M979.222 712C981.185 711.997 983.103 712.583 984.736 713.683C986.369 714.783 987.642 716.348 988.396 718.18C989.148 720.012 989.348 722.029 988.966 723.975C988.585 725.921 987.64 727.709 986.254 729.113C984.867 730.517 983.101 731.473 981.175 731.862C979.252 732.25 977.258 732.052 975.443 731.293C973.631 730.535 972.081 729.25 970.991 727.6C969.9 725.951 969.317 724.012 969.317 722.028C969.317 719.371 970.361 716.822 972.218 714.942C974.075 713.062 976.593 712.004 979.222 712Z" fill="black"/>
<path d="M997.631 746.105C997.347 746.105 997.077 746.219 996.877 746.421C996.677 746.623 996.564 746.898 996.564 747.184C996.564 747.47 996.677 747.744 996.877 747.946C997.077 748.149 997.347 748.262 997.631 748.262C997.807 748.264 997.981 748.217 998.132 748.127C998.284 748.037 998.41 747.908 998.495 747.752L999.101 748.131C998.943 748.373 998.73 748.573 998.479 748.713C998.227 748.853 997.947 748.928 997.66 748.933C997.201 748.933 996.76 748.748 996.436 748.42C996.112 748.092 995.929 747.648 995.929 747.184C995.929 746.72 996.112 746.275 996.436 745.947C996.76 745.619 997.201 745.435 997.66 745.435C997.947 745.433 998.231 745.505 998.484 745.646C998.736 745.786 998.949 745.989 999.101 746.236L998.682 746.659C998.58 746.473 998.425 746.321 998.238 746.223C998.051 746.125 997.84 746.084 997.631 746.105Z" fill="black"/>
<path d="M993.782 747.184C993.78 747.923 993.993 748.646 994.396 749.261C994.8 749.877 995.376 750.357 996.05 750.642C996.724 750.927 997.466 751.003 998.184 750.86C998.901 750.718 999.56 750.364 1000.08 749.842C1000.59 749.321 1000.95 748.657 1001.09 747.932C1001.23 747.208 1001.16 746.457 1000.88 745.774C1000.6 745.092 1000.13 744.508 999.525 744.098C998.918 743.687 998.203 743.468 997.472 743.468C996.496 743.468 995.559 743.859 994.869 744.556C994.176 745.252 993.785 746.197 993.782 747.184ZM994.502 747.184C994.5 746.59 994.672 746.008 994.996 745.512C995.32 745.017 995.783 744.63 996.326 744.4C996.868 744.171 997.466 744.109 998.044 744.223C998.62 744.338 999.151 744.622 999.567 745.042C999.984 745.461 1000.27 745.996 1000.38 746.579C1000.5 747.162 1000.44 747.766 1000.22 748.315C999.993 748.865 999.612 749.335 999.123 749.665C998.634 749.996 998.06 750.172 997.472 750.172C996.687 750.172 995.935 749.858 995.378 749.298C994.82 748.738 994.508 747.978 994.502 747.184Z" fill="black"/>
</svg>
