<svg width="1359" height="1642" viewBox="0 0 1359 1642" fill="none" xmlns="http://www.w3.org/2000/svg">
<path d="M930.5 837.3C921.9 837.3 908.8 831.7 908.8 807.5C908.8 783.3 921.9 777.7 930.5 777.7C939.1 777.7 952.2 783.3 952.2 807.5C952.2 831.6 939 837.3 930.5 837.3ZM930.5 750.5C897.3 750.5 875.2 774.2 875.2 807.4C875.2 840.6 897.4 864.3 930.5 864.3C963.7 864.3 985.8 840.6 985.8 807.4C985.8 774.3 963.6 750.5 930.5 750.5ZM657.6 752.6H630.9C628.9 752.6 627.3 754.2 627.3 756.1V812C627.3 823.2 627.3 837.1 611.3 837.1C595 837.1 595 823.2 595 812.1V756.2C595 754.3 593.4 752.7 591.4 752.7H564.8C562.8 752.7 561.3 754.3 561.3 756.2V819.6C561.3 849.9 577.9 864.4 611.3 864.4C644.8 864.4 661.2 849.9 661.2 819.6V756.2C661.2 754.2 659.6 752.6 657.6 752.6ZM766.6 752.6H739.9C737.9 752.6 736.3 754.2 736.3 756.1V812C736.3 823.2 736.3 837.1 720.3 837.1C703.9 837.1 703.9 823.2 703.9 812V756.1C703.9 754.2 702.3 752.6 700.3 752.6H673.6C671.6 752.6 670 754.2 670 756.1V819.5C670 849.8 686.6 864.3 720.1 864.3C753.6 864.3 770 849.8 770 819.5V756.1C770.2 754.2 768.6 752.6 766.6 752.6ZM501.9 750.5C487.9 750.5 476.9 753 468.8 758.2C460.7 753 449.6 750.5 435.7 750.5C402.2 750.5 385.8 765 385.8 795.3V858.7C385.8 860.7 387.4 862.3 389.3 862.3H416C418 862.3 419.5 860.7 419.5 858.7V802.8C419.5 791.6 419.5 777.7 435.5 777.7C451.9 777.7 451.9 791.6 451.9 802.8V858.7C451.9 860.7 453.5 862.3 455.5 862.3H482.2C484.2 862.3 485.7 860.7 485.7 858.7V802.8C485.7 791.6 485.7 777.7 501.7 777.7C518.1 777.7 518.1 791.6 518.1 802.8V858.7C518.1 860.7 519.7 862.3 521.6 862.3H548.3C550.3 862.3 551.9 860.7 551.9 858.7V795.3C551.9 765 535.4 750.5 501.9 750.5ZM869.6 752.6H781.5C779.5 752.6 777.9 754.2 777.9 756.1V777C777.9 779 779.5 780.5 781.5 780.5H808.7V858.7C808.7 860.6 810.3 862.2 812.3 862.2H839C841 862.2 842.6 860.6 842.6 858.7V780.5H869.8C871.8 780.5 873.3 778.9 873.3 777V756.1C873.1 754.2 871.5 752.6 869.6 752.6Z" fill="white"/>
</svg>
