<svg width="1359" height="1642" viewBox="0 0 1359 1642" fill="none" xmlns="http://www.w3.org/2000/svg">
<path d="M365 770.011H386.602V780.766C389.647 772.045 395.301 768.412 404.87 768.412H407.045V791.812C405.305 791.667 403.71 791.521 402.261 791.521C392.837 791.521 388.487 795.591 388.487 804.747V828.874H365M443.001 814.776C435.897 814.776 433.432 809.834 433.432 799.515C433.432 789.05 436.042 784.254 443.001 784.254C450.105 784.254 452.715 789.05 452.715 799.515C452.715 809.834 449.96 814.776 443.001 814.776ZM443.001 767.976C422.268 767.976 409.8 779.894 409.8 799.515C409.8 818.991 422.268 831.054 443.001 831.054C463.733 831.054 476.202 818.991 476.202 799.515C476.057 779.894 463.588 767.976 443.001 767.976ZM522.307 806.056C521.727 811.869 518.682 814.776 513.173 814.776C506.359 814.776 503.604 809.834 503.604 799.515C503.604 789.196 506.648 784.254 513.463 784.254C518.827 784.254 521.727 786.87 522.162 792.539H545.504C544.924 777.714 532.745 767.976 513.608 767.976C492.875 767.976 480.117 779.894 480.117 799.515C480.117 818.846 492.875 831.054 513.898 831.054C532.745 831.054 544.779 821.462 545.794 806.056M551.448 829.02H574.791V798.643C574.791 790.649 577.69 786.725 583.49 786.725C589.869 786.725 591.464 790.359 591.464 798.498V829.02H614.806V798.352C614.806 788.178 614.371 780.911 609.876 775.679C605.817 770.883 600.308 768.557 592.768 768.557C585.519 768.557 579.43 771.173 574.791 776.406V749.227H551.448M643.513 792.975C643.802 785.998 647.572 781.929 653.661 781.929C660.331 781.929 663.81 785.562 664.245 792.975M663.085 811.579C661.925 814.631 658.881 816.52 654.386 816.52C647.572 816.52 643.802 812.305 643.513 804.747H687.297V803.294C687.297 781.057 674.684 767.976 653.951 767.976C633.074 767.976 620.17 780.33 620.17 799.951C620.17 818.7 632.639 831.054 653.081 831.054C671.204 831.054 682.223 824.223 685.558 811.579H663.085ZM722.093 822.043C711.365 822.043 705.13 814.195 705.13 799.515C705.13 784.981 710.93 777.714 722.238 777.714C732.967 777.714 739.346 785.708 739.346 800.678C739.346 814.049 732.677 822.043 722.093 822.043ZM695.851 829.02H705.42V821.753C710.35 828.148 716.294 830.909 724.268 830.909C739.491 830.909 749.64 819.282 749.64 800.242C749.64 780.911 739.201 769.139 724.268 769.139C716.294 769.139 710.06 772.627 705.565 779.167V749.227H695.996V829.02H695.851ZM784.291 822.043C772.837 822.043 766.458 814.34 766.458 799.806C766.458 785.417 772.837 777.568 784.291 777.568C795.6 777.568 801.834 785.272 801.834 799.806C801.834 814.34 795.455 822.043 784.291 822.043ZM784.146 768.993C766.748 768.993 756.454 780.185 756.454 799.806C756.454 819.427 766.748 830.618 784.146 830.618C801.544 830.618 811.838 819.427 811.838 799.806C811.838 780.185 801.544 768.993 784.146 768.993ZM846.344 822.043C835.615 822.043 829.381 814.195 829.381 799.515C829.381 784.981 835.18 777.714 846.489 777.714C857.218 777.714 863.597 785.708 863.597 800.678C863.597 814.049 856.928 822.043 846.344 822.043ZM820.102 829.02H829.671V821.753C834.6 828.148 840.545 830.909 848.519 830.909C863.742 830.909 873.891 819.282 873.891 800.242C873.891 780.911 863.452 769.139 848.374 769.139C840.4 769.139 834.165 772.627 829.671 779.167V749.227H820.102V829.02ZM907.527 822.043C896.073 822.043 889.694 814.34 889.694 799.806C889.694 785.417 895.928 777.568 907.527 777.568C918.835 777.568 925.07 785.272 925.07 799.806C925.215 814.34 918.835 822.043 907.527 822.043ZM907.527 768.993C890.129 768.993 879.835 780.185 879.835 799.806C879.835 819.427 890.129 830.618 907.527 830.618C924.925 830.618 935.218 819.427 935.218 799.806C935.218 780.185 924.925 768.993 907.527 768.993ZM943.772 829.02H953.486V771.028H943.772V829.02ZM943.772 760.273H953.486V749.227H943.772V760.273ZM960.736 810.125C961.025 823.497 969.145 830.764 983.933 830.764C999.446 830.764 1008 823.497 1008 811.724C1008 801.55 1002.2 797.916 990.457 795.01L981.033 792.829C974.799 791.376 971.899 789.777 971.899 785.562C971.899 780.33 975.959 777.423 983.788 777.423C991.617 777.423 996.546 780.911 996.836 787.016H1006.41V786.725C1006.41 775.97 997.706 768.993 983.788 768.993C970.014 768.993 962.04 775.824 962.04 785.708C962.04 795.3 966.97 799.224 978.423 801.986L989.297 804.747C995.241 806.201 998.141 807.8 998.141 812.596C998.141 818.119 993.212 821.753 984.658 821.753C975.524 821.753 970.594 817.683 970.014 809.834M824.451 854.019V848.496H828.511C830.396 848.496 831.266 849.513 831.266 851.257C831.266 853.292 830.396 854.019 828.366 854.019M829.236 857.507C833.005 857.507 835.035 855.327 835.035 851.257C835.035 847.188 833.005 845.153 828.946 845.153H820.392V864.338H824.306V857.507H829.236ZM870.701 849.077L873.311 857.216H867.946M868.381 845.153L861.567 864.338H865.772L867.076 860.414H874.471L875.775 864.338H879.835L872.876 845.153H868.381ZM912.891 853.583V848.496H917.676C919.56 848.496 920.43 849.368 920.43 850.966C920.43 852.711 919.56 853.437 917.531 853.437M908.977 864.338H912.891V856.925H917.096C919.27 856.925 919.85 857.652 919.995 859.978V862.012C919.995 863.03 920.14 863.902 920.43 864.338H924.78V863.757C924.055 863.321 924.055 862.739 924.055 861.576L923.91 859.251C923.765 856.926 923.33 855.763 921.59 855.036C923.475 854.455 924.49 852.856 924.49 850.53C924.49 846.752 922.46 845.153 918.4 845.153H909.122V864.338H908.977ZM955.226 864.338H959.141V845.153H955.226V864.338ZM989.442 858.379C989.587 862.449 992.487 864.774 997.271 864.774C1002.2 864.774 1004.96 862.449 1004.96 858.524C1004.96 856.489 1004.23 855.036 1002.64 854.164C1001.48 853.437 999.881 853.147 998.141 852.711C994.951 851.984 993.502 851.984 993.502 850.094C993.502 848.641 994.662 847.769 996.691 847.769C999.011 847.769 1000.32 848.786 1000.46 850.676H1004.23C1004.09 846.897 1001.48 844.571 996.981 844.571C992.197 844.571 989.587 846.606 989.587 850.385C989.587 852.42 990.312 853.873 991.617 854.745C992.922 855.472 994.372 855.763 995.821 856.199C999.301 857.071 1000.9 857.362 1000.9 859.106C1000.9 860.704 999.736 861.576 997.416 861.576C994.807 861.576 993.357 860.559 993.067 858.524" fill="white"/>
</svg>
